M48
; DRILL file {KiCad 9.0.6-9.0.6~ubuntu22.04.1} date 2026-01-09T12:45:30+0100
; FORMAT={-:-/ absolute / metric / decimal}
; #@! TF.CreationDate,2026-01-09T12:45:30+01:00
; #@! TF.GenerationSoftware,Kicad,Pcbnew,9.0.6-9.0.6~ubuntu22.04.1
; #@! TF.FileFunction,Plated,1,2,PTH
FMAT,2
METRIC
; #@! TA.AperFunction,Plated,PTH,ViaDrill
T1C0.300
; #@! TA.AperFunction,Plated,PTH,ComponentDrill
T2C0.700
; #@! TA.AperFunction,Plated,PTH,ComponentDrill
T3C0.800
; #@! TA.AperFunction,Plated,PTH,ComponentDrill
T4C1.300
%
G90
G05
T1
X95.25Y-93.25
X99.4Y-91.0
X106.46Y-69.04
X108.3Y-102.3
X108.4Y-108.6
X109.8Y-100.2
X112.8Y-88.0
X127.75Y-100.0
X131.5Y-69.75
X132.5Y-85.75
X133.0Y-108.75
X135.25Y-84.0
X137.5Y-44.75
X139.25Y-83.25
T2
X112.32Y-43.75
X117.4Y-43.75
T3
X112.84Y-61.42
X112.84Y-63.96
X112.84Y-66.5
X112.84Y-69.04
X112.84Y-71.58
X112.84Y-74.12
X112.84Y-76.66
X112.84Y-79.2
X112.84Y-94.97
X112.84Y-97.51
X112.84Y-100.05
X112.84Y-102.59
X112.84Y-105.13
X112.84Y-107.67
X112.84Y-110.21
X112.84Y-112.75
X113.88Y-48.0
X113.88Y-55.62
X116.42Y-48.0
X116.42Y-55.62
X118.96Y-48.0
X118.96Y-55.62
X121.5Y-48.0
X121.5Y-55.62
X123.0Y-61.42
X123.0Y-63.96
X123.0Y-66.5
X123.0Y-69.04
X123.0Y-71.58
X123.0Y-74.12
X123.0Y-76.66
X123.0Y-79.2
X123.0Y-94.97
X123.0Y-97.51
X123.0Y-100.05
X123.0Y-102.59
X123.0Y-105.13
X123.0Y-107.67
X123.0Y-110.21
X123.0Y-112.75
T4
X91.0Y-44.2
X91.0Y-49.28
X91.0Y-54.36
X91.0Y-59.44
X91.0Y-66.5
X91.0Y-71.58
X91.0Y-76.66
X91.0Y-81.74
X91.0Y-88.5
X91.0Y-93.58
X91.0Y-98.66
X91.0Y-103.74
X91.0Y-111.42
X91.0Y-116.5
X91.0Y-121.58
X91.0Y-126.66
X94.76Y-33.5
X99.84Y-33.5
X104.92Y-33.5
X110.0Y-33.5
X122.85Y-32.75
X127.93Y-32.75
X133.01Y-32.75
X138.09Y-32.75
X143.17Y-32.75
X146.172Y-43.88
X146.172Y-48.96
X146.172Y-54.04
X146.172Y-59.12
X146.172Y-110.63
X146.172Y-115.71
X146.172Y-120.79
X146.172Y-125.87
X146.25Y-66.0
X146.25Y-71.08
X146.25Y-76.16
X146.25Y-81.24
X146.25Y-88.42
X146.25Y-93.5
X146.25Y-98.58
X146.25Y-103.66
X148.25Y-32.75
M30
