%TF.GenerationSoftware,KiCad,Pcbnew,9.0.6-9.0.6~ubuntu22.04.1*%
%TF.CreationDate,2026-01-09T12:45:32+01:00*%
%TF.ProjectId,CS616_reader,43533631-365f-4726-9561-6465722e6b69,rev?*%
%TF.SameCoordinates,Original*%
%TF.FileFunction,Copper,L2,Bot*%
%TF.FilePolarity,Positive*%
%FSLAX46Y46*%
G04 Gerber Fmt 4.6, Leading zero omitted, Abs format (unit mm)*
G04 Created by KiCad (PCBNEW 9.0.6-9.0.6~ubuntu22.04.1) date 2026-01-09 12:45:32*
%MOMM*%
%LPD*%
G01*
G04 APERTURE LIST*
G04 Aperture macros list*
%AMRoundRect*
0 Rectangle with rounded corners*
0 $1 Rounding radius*
0 $2 $3 $4 $5 $6 $7 $8 $9 X,Y pos of 4 corners*
0 Add a 4 corners polygon primitive as box body*
4,1,4,$2,$3,$4,$5,$6,$7,$8,$9,$2,$3,0*
0 Add four circle primitives for the rounded corners*
1,1,$1+$1,$2,$3*
1,1,$1+$1,$4,$5*
1,1,$1+$1,$6,$7*
1,1,$1+$1,$8,$9*
0 Add four rect primitives between the rounded corners*
20,1,$1+$1,$2,$3,$4,$5,0*
20,1,$1+$1,$4,$5,$6,$7,0*
20,1,$1+$1,$6,$7,$8,$9,0*
20,1,$1+$1,$8,$9,$2,$3,0*%
G04 Aperture macros list end*
%TA.AperFunction,ComponentPad*%
%ADD10C,1.400000*%
%TD*%
%TA.AperFunction,ComponentPad*%
%ADD11RoundRect,0.250000X1.050000X-1.050000X1.050000X1.050000X-1.050000X1.050000X-1.050000X-1.050000X0*%
%TD*%
%TA.AperFunction,ComponentPad*%
%ADD12C,2.600000*%
%TD*%
%TA.AperFunction,ComponentPad*%
%ADD13RoundRect,0.250000X-1.050000X1.050000X-1.050000X-1.050000X1.050000X-1.050000X1.050000X1.050000X0*%
%TD*%
%TA.AperFunction,ComponentPad*%
%ADD14RoundRect,0.250000X0.550000X0.550000X-0.550000X0.550000X-0.550000X-0.550000X0.550000X-0.550000X0*%
%TD*%
%TA.AperFunction,ComponentPad*%
%ADD15C,1.600000*%
%TD*%
%TA.AperFunction,ComponentPad*%
%ADD16RoundRect,0.250000X1.050000X1.050000X-1.050000X1.050000X-1.050000X-1.050000X1.050000X-1.050000X0*%
%TD*%
%TA.AperFunction,ComponentPad*%
%ADD17RoundRect,0.250000X-1.050000X-1.050000X1.050000X-1.050000X1.050000X1.050000X-1.050000X1.050000X0*%
%TD*%
%TA.AperFunction,ComponentPad*%
%ADD18RoundRect,0.250000X0.550000X-0.550000X0.550000X0.550000X-0.550000X0.550000X-0.550000X-0.550000X0*%
%TD*%
%TA.AperFunction,ViaPad*%
%ADD19C,0.600000*%
%TD*%
%TA.AperFunction,Conductor*%
%ADD20C,0.500000*%
%TD*%
G04 APERTURE END LIST*
D10*
%TO.P,10 kOhm,1*%
%TO.N,/SIGOUT*%
X117400000Y-43750000D03*
%TO.P,10 kOhm,2*%
%TO.N,+3.3V*%
X112320000Y-43750000D03*
%TD*%
D11*
%TO.P,TDR8,1,Pin_1*%
%TO.N,/SIG8*%
X146172500Y-125870000D03*
D12*
%TO.P,TDR8,2,Pin_2*%
%TO.N,/EN8*%
X146172500Y-120790000D03*
%TO.P,TDR8,3,Pin_3*%
%TO.N,GND*%
X146172500Y-115710000D03*
%TO.P,TDR8,4,Pin_4*%
%TO.N,+12V*%
X146172500Y-110630000D03*
%TD*%
D13*
%TO.P,TDR4,1,Pin_1*%
%TO.N,/SIG4*%
X91000000Y-111420000D03*
D12*
%TO.P,TDR4,2,Pin_2*%
%TO.N,/EN4*%
X91000000Y-116500000D03*
%TO.P,TDR4,3,Pin_3*%
%TO.N,GND*%
X91000000Y-121580000D03*
%TO.P,TDR4,4,Pin_4*%
%TO.N,+12V*%
X91000000Y-126660000D03*
%TD*%
D14*
%TO.P,CD4051,1,X4*%
%TO.N,/SIG5*%
X123000000Y-79200000D03*
D15*
%TO.P,CD4051,2,X6*%
%TO.N,/SIG7*%
X123000000Y-76660000D03*
%TO.P,CD4051,3,X*%
%TO.N,/SIG*%
X123000000Y-74120000D03*
%TO.P,CD4051,4,X7*%
%TO.N,/SIG8*%
X123000000Y-71580000D03*
%TO.P,CD4051,5,X5*%
%TO.N,/SIG6*%
X123000000Y-69040000D03*
%TO.P,CD4051,6,INH*%
%TO.N,GND*%
X123000000Y-66500000D03*
%TO.P,CD4051,7,VEE*%
X123000000Y-63960000D03*
%TO.P,CD4051,8,VSS*%
X123000000Y-61420000D03*
%TO.P,CD4051,9,C*%
%TO.N,/Ctrl3*%
X112840000Y-61420000D03*
%TO.P,CD4051,10,B*%
%TO.N,/Ctrl2*%
X112840000Y-63960000D03*
%TO.P,CD4051,11,A*%
%TO.N,/Ctrl1*%
X112840000Y-66500000D03*
%TO.P,CD4051,12,X3*%
%TO.N,/SIG4*%
X112840000Y-69040000D03*
%TO.P,CD4051,13,X0*%
%TO.N,/SIG1*%
X112840000Y-71580000D03*
%TO.P,CD4051,14,X1*%
%TO.N,/SIG2*%
X112840000Y-74120000D03*
%TO.P,CD4051,15,X2*%
%TO.N,/SIG3*%
X112840000Y-76660000D03*
%TO.P,CD4051,16,VDD*%
%TO.N,+5V*%
X112840000Y-79200000D03*
%TD*%
D16*
%TO.P,uC_Connector1,1,Pin_1*%
%TO.N,GND*%
X148250000Y-32750000D03*
D12*
%TO.P,uC_Connector1,2,Pin_2*%
%TO.N,+5V*%
X143170000Y-32750000D03*
%TO.P,uC_Connector1,3,Pin_3*%
%TO.N,+3.3V*%
X138090000Y-32750000D03*
%TO.P,uC_Connector1,4,Pin_4*%
%TO.N,/ENABLE*%
X133010000Y-32750000D03*
%TO.P,uC_Connector1,5,Pin_5*%
%TO.N,/DISABLE*%
X127930000Y-32750000D03*
%TO.P,uC_Connector1,6,Pin_6*%
%TO.N,/SIGOUT*%
X122850000Y-32750000D03*
%TD*%
D13*
%TO.P,TDR3,1,Pin_1*%
%TO.N,/SIG3*%
X91000000Y-88500000D03*
D12*
%TO.P,TDR3,2,Pin_2*%
%TO.N,/EN3*%
X91000000Y-93580000D03*
%TO.P,TDR3,3,Pin_3*%
%TO.N,GND*%
X91000000Y-98660000D03*
%TO.P,TDR3,4,Pin_4*%
%TO.N,+12V*%
X91000000Y-103740000D03*
%TD*%
D11*
%TO.P,TDR6,1,Pin_1*%
%TO.N,/SIG6*%
X146250000Y-81240000D03*
D12*
%TO.P,TDR6,2,Pin_2*%
%TO.N,/EN6*%
X146250000Y-76160000D03*
%TO.P,TDR6,3,Pin_3*%
%TO.N,GND*%
X146250000Y-71080000D03*
%TO.P,TDR6,4,Pin_4*%
%TO.N,+12V*%
X146250000Y-66000000D03*
%TD*%
D11*
%TO.P,TDR7,1,Pin_1*%
%TO.N,/SIG7*%
X146250000Y-103660000D03*
D12*
%TO.P,TDR7,2,Pin_2*%
%TO.N,/EN7*%
X146250000Y-98580000D03*
%TO.P,TDR7,3,Pin_3*%
%TO.N,GND*%
X146250000Y-93500000D03*
%TO.P,TDR7,4,Pin_4*%
%TO.N,+12V*%
X146250000Y-88420000D03*
%TD*%
D11*
%TO.P,TDR5,1,Pin_1*%
%TO.N,/SIG5*%
X146172500Y-59120000D03*
D12*
%TO.P,TDR5,2,Pin_2*%
%TO.N,/EN5*%
X146172500Y-54040000D03*
%TO.P,TDR5,3,Pin_3*%
%TO.N,GND*%
X146172500Y-48960000D03*
%TO.P,TDR5,4,Pin_4*%
%TO.N,+12V*%
X146172500Y-43880000D03*
%TD*%
D13*
%TO.P,TDR2,1,Pin_1*%
%TO.N,/SIG2*%
X91000000Y-66500000D03*
D12*
%TO.P,TDR2,2,Pin_2*%
%TO.N,/EN2*%
X91000000Y-71580000D03*
%TO.P,TDR2,3,Pin_3*%
%TO.N,GND*%
X91000000Y-76660000D03*
%TO.P,TDR2,4,Pin_4*%
%TO.N,+12V*%
X91000000Y-81740000D03*
%TD*%
D17*
%TO.P,J9,1,Pin_1*%
%TO.N,+12V*%
X94760000Y-33500000D03*
D12*
%TO.P,J9,2,Pin_2*%
%TO.N,/Ctrl1*%
X99840000Y-33500000D03*
%TO.P,J9,3,Pin_3*%
%TO.N,/Ctrl2*%
X104920000Y-33500000D03*
%TO.P,J9,4,Pin_4*%
%TO.N,/Ctrl3*%
X110000000Y-33500000D03*
%TD*%
D14*
%TO.P,CD4051,1,X4*%
%TO.N,/EN5*%
X123000000Y-112750000D03*
D15*
%TO.P,CD4051,2,X6*%
%TO.N,/EN7*%
X123000000Y-110210000D03*
%TO.P,CD4051,3,X*%
%TO.N,/ENABLE*%
X123000000Y-107670000D03*
%TO.P,CD4051,4,X7*%
%TO.N,/EN8*%
X123000000Y-105130000D03*
%TO.P,CD4051,5,X5*%
%TO.N,/EN6*%
X123000000Y-102590000D03*
%TO.P,CD4051,6,INH*%
%TO.N,/DISABLE*%
X123000000Y-100050000D03*
%TO.P,CD4051,7,VEE*%
%TO.N,GND*%
X123000000Y-97510000D03*
%TO.P,CD4051,8,VSS*%
X123000000Y-94970000D03*
%TO.P,CD4051,9,C*%
%TO.N,/Ctrl3*%
X112840000Y-94970000D03*
%TO.P,CD4051,10,B*%
%TO.N,/Ctrl2*%
X112840000Y-97510000D03*
%TO.P,CD4051,11,A*%
%TO.N,/Ctrl1*%
X112840000Y-100050000D03*
%TO.P,CD4051,12,X3*%
%TO.N,/EN4*%
X112840000Y-102590000D03*
%TO.P,CD4051,13,X0*%
%TO.N,/EN1*%
X112840000Y-105130000D03*
%TO.P,CD4051,14,X1*%
%TO.N,/EN2*%
X112840000Y-107670000D03*
%TO.P,CD4051,15,X2*%
%TO.N,/EN3*%
X112840000Y-110210000D03*
%TO.P,CD4051,16,VDD*%
%TO.N,+5V*%
X112840000Y-112750000D03*
%TD*%
D18*
%TO.P,LM311,1,GND*%
%TO.N,GND*%
X113880000Y-55620000D03*
D15*
%TO.P,LM311,2,+*%
%TO.N,/SIG*%
X116420000Y-55620000D03*
%TO.P,LM311,3,-*%
%TO.N,GND*%
X118960000Y-55620000D03*
%TO.P,LM311,4,V-*%
X121500000Y-55620000D03*
%TO.P,LM311,5,BAL*%
%TO.N,unconnected-(U3-BAL-Pad5)*%
X121500000Y-48000000D03*
%TO.P,LM311,6,STRB*%
%TO.N,unconnected-(U3-STRB-Pad6)*%
X118960000Y-48000000D03*
%TO.P,LM311,7*%
%TO.N,/SIGOUT*%
X116420000Y-48000000D03*
%TO.P,LM311,8,V+*%
%TO.N,+5V*%
X113880000Y-48000000D03*
%TD*%
D13*
%TO.P,TDR 1,1,Pin_1*%
%TO.N,/SIG1*%
X91000000Y-44200000D03*
D12*
%TO.P,TDR 1,2,Pin_2*%
%TO.N,/EN1*%
X91000000Y-49280000D03*
%TO.P,TDR 1,3,Pin_3*%
%TO.N,GND*%
X91000000Y-54360000D03*
%TO.P,TDR 1,4,Pin_4*%
%TO.N,+12V*%
X91000000Y-59440000D03*
%TD*%
D19*
%TO.N,/EN1*%
X99400000Y-91000000D03*
X108300000Y-102300000D03*
%TO.N,/EN2*%
X95250000Y-93250000D03*
%TO.N,/SIG4*%
X106460000Y-69040000D03*
%TO.N,/EN6*%
X139250000Y-83250000D03*
%TO.N,/EN7*%
X133000000Y-108750000D03*
%TO.N,/DISABLE*%
X132500000Y-85750000D03*
X131500000Y-69750000D03*
%TO.N,/ENABLE*%
X127750000Y-100000000D03*
X137500000Y-44750000D03*
X135250000Y-84000000D03*
%TO.N,GND*%
X108400000Y-108600000D03*
X112800000Y-88000000D03*
X109800000Y-100200000D03*
%TD*%
D20*
%TO.N,+12V*%
X148400000Y-129200000D02*
X151771250Y-125828750D01*
X151771250Y-125828750D02*
X151771250Y-116228750D01*
X91000000Y-126660000D02*
X93540000Y-129200000D01*
X93540000Y-129200000D02*
X148400000Y-129200000D01*
X151771250Y-116228750D02*
X146172500Y-110630000D01*
%TO.N,/EN4*%
X112840000Y-102590000D02*
X114990000Y-102590000D01*
X114990000Y-102590000D02*
X116750000Y-104350000D01*
X114750000Y-116500000D02*
X91000000Y-116500000D01*
X116750000Y-104350000D02*
X116750000Y-114500000D01*
X116750000Y-114500000D02*
X114750000Y-116500000D01*
%TO.N,/EN1*%
X111130000Y-105130000D02*
X112840000Y-105130000D01*
X108300000Y-102300000D02*
X111130000Y-105130000D01*
%TO.N,+5V*%
X109000000Y-52880000D02*
X113880000Y-48000000D01*
X110200000Y-79200000D02*
X109000000Y-78000000D01*
X110800000Y-79200000D02*
X105800000Y-84200000D01*
X105800000Y-110800000D02*
X107750000Y-112750000D01*
X105800000Y-84200000D02*
X105800000Y-110800000D01*
X112840000Y-79200000D02*
X110200000Y-79200000D01*
X107750000Y-112750000D02*
X112840000Y-112750000D01*
X112840000Y-79200000D02*
X110800000Y-79200000D01*
X109000000Y-78000000D02*
X109000000Y-52880000D01*
%TO.N,+12V*%
X89260000Y-103740000D02*
X91000000Y-103740000D01*
X86750000Y-104500000D02*
X86750000Y-84250000D01*
X146250000Y-88420000D02*
X150750000Y-83920000D01*
X89260000Y-81740000D02*
X91000000Y-81740000D01*
X87500000Y-123160000D02*
X87500000Y-105500000D01*
X87940000Y-59440000D02*
X86500000Y-58000000D01*
X87625000Y-105375000D02*
X89260000Y-103740000D01*
X150500000Y-61750000D02*
X150750000Y-61500000D01*
X91000000Y-59440000D02*
X87940000Y-59440000D01*
X87625000Y-105375000D02*
X86750000Y-104500000D01*
X86750000Y-84250000D02*
X89260000Y-81740000D01*
X86500000Y-58000000D02*
X86500000Y-41760000D01*
X146172500Y-110630000D02*
X150750000Y-106052500D01*
X146250000Y-66000000D02*
X150500000Y-61750000D01*
X150750000Y-106052500D02*
X150750000Y-83920000D01*
X150750000Y-46250000D02*
X148380000Y-43880000D01*
X86750000Y-63690000D02*
X91000000Y-59440000D01*
X91000000Y-126660000D02*
X87500000Y-123160000D01*
X86750000Y-84250000D02*
X86750000Y-63690000D01*
X150750000Y-61500000D02*
X150750000Y-46250000D01*
X86500000Y-41760000D02*
X94760000Y-33500000D01*
X150750000Y-62000000D02*
X150500000Y-61750000D01*
X148380000Y-43880000D02*
X146172500Y-43880000D01*
X150750000Y-83920000D02*
X150750000Y-62000000D01*
X87500000Y-105500000D02*
X87625000Y-105375000D01*
%TO.N,/EN1*%
X99400000Y-91000000D02*
X99400000Y-57680000D01*
X99400000Y-57680000D02*
X91000000Y-49280000D01*
%TO.N,/EN2*%
X95250000Y-75830000D02*
X91000000Y-71580000D01*
X95250000Y-93250000D02*
X95250000Y-75830000D01*
%TO.N,/SIG4*%
X102200000Y-73300000D02*
X102200000Y-100220000D01*
X106460000Y-69040000D02*
X102200000Y-73300000D01*
X102200000Y-100220000D02*
X91000000Y-111420000D01*
%TO.N,/SIG5*%
X125550000Y-79200000D02*
X145630000Y-59120000D01*
X145630000Y-59120000D02*
X146172500Y-59120000D01*
X123000000Y-79200000D02*
X125550000Y-79200000D01*
%TO.N,/EN6*%
X139250000Y-93750000D02*
X139250000Y-83250000D01*
X123090000Y-102500000D02*
X130500000Y-102500000D01*
X123000000Y-102590000D02*
X123090000Y-102500000D01*
X130500000Y-102500000D02*
X139250000Y-93750000D01*
%TO.N,/SIG6*%
X122250000Y-84250000D02*
X119000000Y-81000000D01*
X132260000Y-81240000D02*
X129250000Y-84250000D01*
X129250000Y-84250000D02*
X122250000Y-84250000D01*
X119000000Y-73040000D02*
X123000000Y-69040000D01*
X146250000Y-81240000D02*
X132260000Y-81240000D01*
X119000000Y-81000000D02*
X119000000Y-73040000D01*
%TO.N,/EN7*%
X133000000Y-108750000D02*
X143170000Y-98580000D01*
X143170000Y-98580000D02*
X146250000Y-98580000D01*
%TO.N,/EN8*%
X124880000Y-105130000D02*
X140540000Y-120790000D01*
X123000000Y-105130000D02*
X124880000Y-105130000D01*
X140540000Y-120790000D02*
X146172500Y-120790000D01*
%TO.N,/Ctrl1*%
X115500000Y-66500000D02*
X116250000Y-67250000D01*
X116250000Y-96640000D02*
X116250000Y-67250000D01*
X112840000Y-66500000D02*
X115500000Y-66500000D01*
X112840000Y-100050000D02*
X116250000Y-96640000D01*
%TO.N,/DISABLE*%
X124250000Y-88000000D02*
X130250000Y-88000000D01*
X120800000Y-100050000D02*
X119000000Y-98250000D01*
X123000000Y-100050000D02*
X120800000Y-100050000D01*
X130250000Y-88000000D02*
X132500000Y-85750000D01*
X127930000Y-32750000D02*
X131500000Y-36320000D01*
X119000000Y-98250000D02*
X119000000Y-93250000D01*
X131500000Y-36320000D02*
X131500000Y-69750000D01*
X119000000Y-93250000D02*
X124250000Y-88000000D01*
%TO.N,/ENABLE*%
X127750000Y-100000000D02*
X127750000Y-99250000D01*
X137500000Y-44750000D02*
X137500000Y-37240000D01*
X135250000Y-91750000D02*
X135250000Y-84000000D01*
X137500000Y-37240000D02*
X133010000Y-32750000D01*
X127750000Y-99250000D02*
X135250000Y-91750000D01*
%TO.N,/SIG*%
X126130000Y-74120000D02*
X127750000Y-72500000D01*
X127750000Y-60500000D02*
X125250000Y-58000000D01*
X123000000Y-74120000D02*
X126130000Y-74120000D01*
X118170000Y-58000000D02*
X115920000Y-55750000D01*
X127750000Y-72500000D02*
X127750000Y-60500000D01*
X125250000Y-58000000D02*
X118170000Y-58000000D01*
%TD*%
%TA.AperFunction,Conductor*%
%TO.N,GND*%
G36*
X115204809Y-67270185D02*
G01*
X115225451Y-67286819D01*
X115463181Y-67524548D01*
X115496666Y-67585871D01*
X115499500Y-67612229D01*
X115499500Y-96277770D01*
X115479815Y-96344809D01*
X115463181Y-96365451D01*
X114350933Y-97477698D01*
X114289610Y-97511183D01*
X114219918Y-97506199D01*
X114163985Y-97464327D01*
X114140779Y-97409415D01*
X114140500Y-97407653D01*
X114140500Y-97407648D01*
X114108477Y-97205466D01*
X114045220Y-97010781D01*
X114045218Y-97010778D01*
X114045218Y-97010776D01*
X113984086Y-96890799D01*
X113952287Y-96828390D01*
X113920092Y-96784077D01*
X113831971Y-96662786D01*
X113687213Y-96518028D01*
X113521614Y-96397715D01*
X113458292Y-96365451D01*
X113428917Y-96350483D01*
X113378123Y-96302511D01*
X113361328Y-96234690D01*
X113383865Y-96168555D01*
X113428917Y-96129516D01*
X113521610Y-96082287D01*
X113566774Y-96049474D01*
X113687213Y-95961971D01*
X113687215Y-95961968D01*
X113687219Y-95961966D01*
X113831966Y-95817219D01*
X113831968Y-95817215D01*
X113831971Y-95817213D01*
X113884732Y-95744590D01*
X113952287Y-95651610D01*
X114045220Y-95469219D01*
X114108477Y-95274534D01*
X114140500Y-95072352D01*
X114140500Y-94867648D01*
X114124986Y-94769697D01*
X114108477Y-94665465D01*
X114055422Y-94502181D01*
X114045220Y-94470781D01*
X114045218Y-94470778D01*
X114045218Y-94470776D01*
X113997974Y-94378056D01*
X113952287Y-94288390D01*
X113920092Y-94244077D01*
X113831971Y-94122786D01*
X113687213Y-93978028D01*
X113521613Y-93857715D01*
X113521612Y-93857714D01*
X113521610Y-93857713D01*
X113455282Y-93823917D01*
X113339223Y-93764781D01*
X113144534Y-93701522D01*
X112969995Y-93673878D01*
X112942352Y-93669500D01*
X112737648Y-93669500D01*
X112713329Y-93673351D01*
X112535465Y-93701522D01*
X112340776Y-93764781D01*
X112158386Y-93857715D01*
X111992786Y-93978028D01*
X111848028Y-94122786D01*
X111727715Y-94288386D01*
X111634781Y-94470776D01*
X111571522Y-94665465D01*
X111539500Y-94867648D01*
X111539500Y-95072351D01*
X111571522Y-95274534D01*
X111634781Y-95469223D01*
X111698691Y-95594653D01*
X111727585Y-95651359D01*
X111727715Y-95651613D01*
X111848028Y-95817213D01*
X111992786Y-95961971D01*
X112113226Y-96049474D01*
X112158390Y-96082287D01*
X112249840Y-96128883D01*
X112251080Y-96129515D01*
X112301876Y-96177490D01*
X112318671Y-96245311D01*
X112296134Y-96311446D01*
X112251080Y-96350485D01*
X112158386Y-96397715D01*
X111992786Y-96518028D01*
X111848028Y-96662786D01*
X111727715Y-96828386D01*
X111634781Y-97010776D01*
X111571522Y-97205465D01*
X111539500Y-97407648D01*
X111539500Y-97612351D01*
X111571522Y-97814534D01*
X111634781Y-98009223D01*
X111698691Y-98134653D01*
X111727585Y-98191359D01*
X111727715Y-98191613D01*
X111848028Y-98357213D01*
X111992786Y-98501971D01*
X112147749Y-98614556D01*
X112158390Y-98622287D01*
X112232404Y-98659999D01*
X112251080Y-98669515D01*
X112301876Y-98717490D01*
X112318671Y-98785311D01*
X112296134Y-98851446D01*
X112251080Y-98890485D01*
X112158386Y-98937715D01*
X111992786Y-99058028D01*
X111848028Y-99202786D01*
X111727715Y-99368386D01*
X111634781Y-99550776D01*
X111571522Y-99745465D01*
X111539500Y-99947648D01*
X111539500Y-100152351D01*
X111571522Y-100354534D01*
X111634781Y-100549223D01*
X111677444Y-100632952D01*
X111716393Y-100709394D01*
X111727715Y-100731613D01*
X111848028Y-100897213D01*
X111992786Y-101041971D01*
X112147749Y-101154556D01*
X112158390Y-101162287D01*
X112249840Y-101208883D01*
X112251080Y-101209515D01*
X112301876Y-101257490D01*
X112318671Y-101325311D01*
X112296134Y-101391446D01*
X112251080Y-101430485D01*
X112158386Y-101477715D01*
X111992786Y-101598028D01*
X111848028Y-101742786D01*
X111727715Y-101908386D01*
X111634781Y-102090776D01*
X111571522Y-102285465D01*
X111539500Y-102487648D01*
X111539500Y-102692351D01*
X111571522Y-102894534D01*
X111634781Y-103089223D01*
X111727715Y-103271613D01*
X111848028Y-103437213D01*
X111992786Y-103581971D01*
X112147749Y-103694556D01*
X112158390Y-103702287D01*
X112249840Y-103748883D01*
X112251080Y-103749515D01*
X112301876Y-103797490D01*
X112318671Y-103865311D01*
X112296134Y-103931446D01*
X112251080Y-103970485D01*
X112158386Y-104017715D01*
X111992786Y-104138028D01*
X111848032Y-104282782D01*
X111848028Y-104282787D01*
X111814900Y-104328385D01*
X111810568Y-104331725D01*
X111808295Y-104336703D01*
X111783195Y-104352833D01*
X111759571Y-104371051D01*
X111752897Y-104372304D01*
X111749517Y-104374477D01*
X111714582Y-104379500D01*
X111492229Y-104379500D01*
X111425190Y-104359815D01*
X111404548Y-104343181D01*
X110226453Y-103165086D01*
X109046071Y-101984703D01*
X109019191Y-101944475D01*
X109009394Y-101920821D01*
X108975437Y-101870001D01*
X108921789Y-101789710D01*
X108810292Y-101678213D01*
X108810288Y-101678210D01*
X108679185Y-101590609D01*
X108679172Y-101590602D01*
X108533501Y-101530264D01*
X108533489Y-101530261D01*
X108378845Y-101499500D01*
X108378842Y-101499500D01*
X108221158Y-101499500D01*
X108221155Y-101499500D01*
X108066510Y-101530261D01*
X108066498Y-101530264D01*
X107920827Y-101590602D01*
X107920814Y-101590609D01*
X107789711Y-101678210D01*
X107789707Y-101678213D01*
X107678213Y-101789707D01*
X107678210Y-101789711D01*
X107590609Y-101920814D01*
X107590602Y-101920827D01*
X107530264Y-102066498D01*
X107530261Y-102066510D01*
X107499500Y-102221153D01*
X107499500Y-102378846D01*
X107530261Y-102533489D01*
X107530264Y-102533501D01*
X107590602Y-102679172D01*
X107590609Y-102679185D01*
X107678210Y-102810288D01*
X107678213Y-102810292D01*
X107789710Y-102921789D01*
X107920815Y-103009390D01*
X107920821Y-103009394D01*
X107944475Y-103019191D01*
X107984703Y-103046071D01*
X110651580Y-105712948D01*
X110651584Y-105712951D01*
X110774498Y-105795080D01*
X110774511Y-105795087D01*
X110911082Y-105851656D01*
X110911087Y-105851658D01*
X110911091Y-105851658D01*
X110911092Y-105851659D01*
X111056079Y-105880500D01*
X111056082Y-105880500D01*
X111203917Y-105880500D01*
X111714582Y-105880500D01*
X111781621Y-105900185D01*
X111814900Y-105931615D01*
X111848028Y-105977212D01*
X111848032Y-105977217D01*
X111992786Y-106121971D01*
X112147749Y-106234556D01*
X112158390Y-106242287D01*
X112249840Y-106288883D01*
X112251080Y-106289515D01*
X112301876Y-106337490D01*
X112318671Y-106405311D01*
X112296134Y-106471446D01*
X112251080Y-106510485D01*
X112158386Y-106557715D01*
X111992786Y-106678028D01*
X111848028Y-106822786D01*
X111727715Y-106988386D01*
X111634781Y-107170776D01*
X111571522Y-107365465D01*
X111539500Y-107567648D01*
X111539500Y-107772351D01*
X111571522Y-107974534D01*
X111634781Y-108169223D01*
X111727715Y-108351613D01*
X111848028Y-108517213D01*
X111992786Y-108661971D01*
X112117731Y-108752747D01*
X112158390Y-108782287D01*
X112249759Y-108828842D01*
X112251080Y-108829515D01*
X112301876Y-108877490D01*
X112318671Y-108945311D01*
X112296134Y-109011446D01*
X112251080Y-109050485D01*
X112158386Y-109097715D01*
X111992786Y-109218028D01*
X111848028Y-109362786D01*
X111727715Y-109528386D01*
X111634781Y-109710776D01*
X111571522Y-109905465D01*
X111539500Y-110107648D01*
X111539500Y-110312351D01*
X111571522Y-110514534D01*
X111634781Y-110709223D01*
X111698691Y-110834653D01*
X111718699Y-110873920D01*
X111727715Y-110891613D01*
X111848028Y-111057213D01*
X111992786Y-111201971D01*
X112098006Y-111278416D01*
X112158390Y-111322287D01*
X112249840Y-111368883D01*
X112251080Y-111369515D01*
X112301876Y-111417490D01*
X112318671Y-111485311D01*
X112296134Y-111551446D01*
X112251080Y-111590485D01*
X112158386Y-111637715D01*
X111992786Y-111758028D01*
X111848032Y-111902782D01*
X111848028Y-111902787D01*
X111814900Y-111948385D01*
X111759571Y-111991051D01*
X111714582Y-111999500D01*
X108112229Y-111999500D01*
X108045190Y-111979815D01*
X108024548Y-111963181D01*
X106586819Y-110525451D01*
X106553334Y-110464128D01*
X106550500Y-110437770D01*
X106550500Y-84562230D01*
X106570185Y-84495191D01*
X106586819Y-84474549D01*
X111074549Y-79986819D01*
X111135872Y-79953334D01*
X111162230Y-79950500D01*
X111714582Y-79950500D01*
X111781621Y-79970185D01*
X111814900Y-80001615D01*
X111848028Y-80047212D01*
X111848032Y-80047217D01*
X111992786Y-80191971D01*
X112147749Y-80304556D01*
X112158390Y-80312287D01*
X112262826Y-80365500D01*
X112340776Y-80405218D01*
X112340778Y-80405218D01*
X112340781Y-80405220D01*
X112424860Y-80432539D01*
X112535465Y-80468477D01*
X112597447Y-80478294D01*
X112737648Y-80500500D01*
X112737649Y-80500500D01*
X112942351Y-80500500D01*
X112942352Y-80500500D01*
X113144534Y-80468477D01*
X113339219Y-80405220D01*
X113521610Y-80312287D01*
X113650482Y-80218657D01*
X113687213Y-80191971D01*
X113687215Y-80191968D01*
X113687219Y-80191966D01*
X113831966Y-80047219D01*
X113831968Y-80047215D01*
X113831971Y-80047213D01*
X113910227Y-79939501D01*
X113952287Y-79881610D01*
X114045220Y-79699219D01*
X114108477Y-79504534D01*
X114140500Y-79302352D01*
X114140500Y-79097648D01*
X114108477Y-78895466D01*
X114045220Y-78700781D01*
X114045218Y-78700778D01*
X114045218Y-78700776D01*
X113993865Y-78599991D01*
X113952287Y-78518390D01*
X113923248Y-78478421D01*
X113831971Y-78352786D01*
X113687213Y-78208028D01*
X113521614Y-78087715D01*
X113494536Y-78073918D01*
X113428917Y-78040483D01*
X113378123Y-77992511D01*
X113361328Y-77924690D01*
X113383865Y-77858555D01*
X113428917Y-77819516D01*
X113521610Y-77772287D01*
X113593550Y-77720020D01*
X113687213Y-77651971D01*
X113687215Y-77651968D01*
X113687219Y-77651966D01*
X113831966Y-77507219D01*
X113831968Y-77507215D01*
X113831971Y-77507213D01*
X113946406Y-77349704D01*
X113952287Y-77341610D01*
X114045220Y-77159219D01*
X114108477Y-76964534D01*
X114140500Y-76762352D01*
X114140500Y-76557648D01*
X114108477Y-76355466D01*
X114092549Y-76306446D01*
X114055438Y-76192229D01*
X114045220Y-76160781D01*
X114045218Y-76160778D01*
X114045218Y-76160776D01*
X114006087Y-76083978D01*
X113952287Y-75978390D01*
X113931842Y-75950249D01*
X113831971Y-75812786D01*
X113687213Y-75668028D01*
X113521614Y-75547715D01*
X113515006Y-75544348D01*
X113428917Y-75500483D01*
X113378123Y-75452511D01*
X113361328Y-75384690D01*
X113383865Y-75318555D01*
X113428917Y-75279516D01*
X113521610Y-75232287D01*
X113620906Y-75160145D01*
X113687213Y-75111971D01*
X113687215Y-75111968D01*
X113687219Y-75111966D01*
X113831966Y-74967219D01*
X113831968Y-74967215D01*
X113831971Y-74967213D01*
X113902236Y-74870500D01*
X113952287Y-74801610D01*
X114045220Y-74619219D01*
X114108477Y-74424534D01*
X114140500Y-74222352D01*
X114140500Y-74017648D01*
X114108477Y-73815466D01*
X114045220Y-73620781D01*
X114045218Y-73620778D01*
X114045218Y-73620776D01*
X114011503Y-73554607D01*
X113952287Y-73438390D01*
X113910228Y-73380500D01*
X113831971Y-73272786D01*
X113687213Y-73128028D01*
X113521614Y-73007715D01*
X113464111Y-72978416D01*
X113428917Y-72960483D01*
X113378123Y-72912511D01*
X113361328Y-72844690D01*
X113383865Y-72778555D01*
X113428917Y-72739516D01*
X113521610Y-72692287D01*
X113600575Y-72634916D01*
X113687213Y-72571971D01*
X113687215Y-72571968D01*
X113687219Y-72571966D01*
X113831966Y-72427219D01*
X113831968Y-72427215D01*
X113831971Y-72427213D01*
X113884732Y-72354590D01*
X113952287Y-72261610D01*
X114045220Y-72079219D01*
X114108477Y-71884534D01*
X114140500Y-71682352D01*
X114140500Y-71477648D01*
X114133256Y-71431914D01*
X114108477Y-71275465D01*
X114045218Y-71080776D01*
X114011503Y-71014607D01*
X113952287Y-70898390D01*
X113944556Y-70887749D01*
X113831971Y-70732786D01*
X113687213Y-70588028D01*
X113521614Y-70467715D01*
X113496618Y-70454979D01*
X113428917Y-70420483D01*
X113378123Y-70372511D01*
X113361328Y-70304690D01*
X113383865Y-70238555D01*
X113428917Y-70199516D01*
X113521610Y-70152287D01*
X113621477Y-70079730D01*
X113687213Y-70031971D01*
X113687215Y-70031968D01*
X113687219Y-70031966D01*
X113831966Y-69887219D01*
X113831968Y-69887215D01*
X113831971Y-69887213D01*
X113910227Y-69779501D01*
X113952287Y-69721610D01*
X114045220Y-69539219D01*
X114108477Y-69344534D01*
X114140500Y-69142352D01*
X114140500Y-68937648D01*
X114108477Y-68735465D01*
X114045218Y-68540776D01*
X113982767Y-68418211D01*
X113952287Y-68358390D01*
X113910227Y-68300499D01*
X113831971Y-68192786D01*
X113687213Y-68048028D01*
X113521614Y-67927715D01*
X113515006Y-67924348D01*
X113428917Y-67880483D01*
X113378123Y-67832511D01*
X113361328Y-67764690D01*
X113383865Y-67698555D01*
X113428917Y-67659516D01*
X113521610Y-67612287D01*
X113592384Y-67560867D01*
X113687213Y-67491971D01*
X113687215Y-67491968D01*
X113687219Y-67491966D01*
X113831966Y-67347219D01*
X113834650Y-67343524D01*
X113865100Y-67301615D01*
X113920429Y-67258949D01*
X113965418Y-67250500D01*
X115137770Y-67250500D01*
X115204809Y-67270185D01*
G37*
%TD.AperFunction*%
%TA.AperFunction,Conductor*%
G36*
X159242539Y-24320185D02*
G01*
X159288294Y-24372989D01*
X159299500Y-24424500D01*
X159299500Y-131575500D01*
X159279815Y-131642539D01*
X159227011Y-131688294D01*
X159175500Y-131699500D01*
X80624500Y-131699500D01*
X80557461Y-131679815D01*
X80511706Y-131627011D01*
X80500500Y-131575500D01*
X80500500Y-58073920D01*
X85749499Y-58073920D01*
X85778340Y-58218907D01*
X85778343Y-58218917D01*
X85834913Y-58355490D01*
X85834916Y-58355495D01*
X85847137Y-58373784D01*
X85847138Y-58373789D01*
X85847140Y-58373789D01*
X85889739Y-58437545D01*
X85917051Y-58478420D01*
X85917052Y-58478421D01*
X87230643Y-59792010D01*
X87461585Y-60022952D01*
X87485429Y-60038883D01*
X87498342Y-60047512D01*
X87498345Y-60047513D01*
X87502373Y-60050205D01*
X87584505Y-60105084D01*
X87641080Y-60128518D01*
X87721088Y-60161659D01*
X87837241Y-60184763D01*
X87856468Y-60188587D01*
X87866081Y-60190500D01*
X87866082Y-60190500D01*
X87866083Y-60190500D01*
X88013918Y-60190500D01*
X88888771Y-60190500D01*
X88955810Y-60210185D01*
X89001565Y-60262989D01*
X89011509Y-60332147D01*
X88982484Y-60395703D01*
X88976452Y-60402181D01*
X86167052Y-63211578D01*
X86167049Y-63211581D01*
X86134339Y-63260535D01*
X86134340Y-63260536D01*
X86084914Y-63334508D01*
X86028343Y-63471082D01*
X86028340Y-63471092D01*
X85999500Y-63616079D01*
X85999500Y-63616082D01*
X85999500Y-84176082D01*
X85999500Y-104573918D01*
X85999500Y-104573920D01*
X85999499Y-104573920D01*
X86028340Y-104718907D01*
X86028343Y-104718917D01*
X86084912Y-104855487D01*
X86084916Y-104855496D01*
X86092824Y-104867329D01*
X86092825Y-104867334D01*
X86092827Y-104867334D01*
X86134500Y-104929704D01*
X86167051Y-104978420D01*
X86167052Y-104978421D01*
X86713181Y-105524549D01*
X86746666Y-105585872D01*
X86749500Y-105612230D01*
X86749500Y-123233918D01*
X86749500Y-123233920D01*
X86749499Y-123233920D01*
X86778340Y-123378907D01*
X86778343Y-123378917D01*
X86834913Y-123515490D01*
X86855510Y-123546316D01*
X86917043Y-123638410D01*
X86917047Y-123638415D01*
X89254981Y-125976349D01*
X89288466Y-126037672D01*
X89287075Y-126096123D01*
X89230306Y-126307987D01*
X89199501Y-126541979D01*
X89199500Y-126541995D01*
X89199500Y-126778004D01*
X89199501Y-126778020D01*
X89230306Y-127012010D01*
X89291394Y-127239993D01*
X89381714Y-127458045D01*
X89381719Y-127458056D01*
X89452677Y-127580957D01*
X89499727Y-127662450D01*
X89499729Y-127662453D01*
X89499730Y-127662454D01*
X89643406Y-127849697D01*
X89643412Y-127849704D01*
X89810295Y-128016587D01*
X89810301Y-128016592D01*
X89997550Y-128160273D01*
X90128918Y-128236118D01*
X90201943Y-128278280D01*
X90201948Y-128278282D01*
X90201951Y-128278284D01*
X90420007Y-128368606D01*
X90647986Y-128429693D01*
X90881989Y-128460500D01*
X90881996Y-128460500D01*
X91118004Y-128460500D01*
X91118011Y-128460500D01*
X91352014Y-128429693D01*
X91563877Y-128372924D01*
X91633725Y-128374587D01*
X91683650Y-128405018D01*
X92957048Y-129678415D01*
X92957049Y-129678416D01*
X93061583Y-129782950D01*
X93061585Y-129782952D01*
X93184498Y-129865080D01*
X93184511Y-129865087D01*
X93321082Y-129921656D01*
X93321087Y-129921658D01*
X93321091Y-129921658D01*
X93321092Y-129921659D01*
X93466079Y-129950500D01*
X93466082Y-129950500D01*
X148473920Y-129950500D01*
X148571462Y-129931096D01*
X148618913Y-129921658D01*
X148755495Y-129865084D01*
X148804729Y-129832186D01*
X148878416Y-129782952D01*
X152354201Y-126307166D01*
X152436334Y-126184245D01*
X152492908Y-126047663D01*
X152503400Y-125994916D01*
X152521750Y-125902668D01*
X152521750Y-116154832D01*
X152521750Y-116154829D01*
X152492909Y-116009842D01*
X152492908Y-116009841D01*
X152492908Y-116009837D01*
X152492906Y-116009832D01*
X152436337Y-115873261D01*
X152436330Y-115873248D01*
X152354202Y-115750335D01*
X152305810Y-115701943D01*
X152249666Y-115645799D01*
X150104367Y-113500500D01*
X147917518Y-111313650D01*
X147884033Y-111252327D01*
X147885423Y-111193878D01*
X147942193Y-110982014D01*
X147973000Y-110748011D01*
X147973000Y-110511989D01*
X147942193Y-110277986D01*
X147885424Y-110066121D01*
X147887087Y-109996273D01*
X147917516Y-109946350D01*
X151332952Y-106530915D01*
X151360205Y-106490127D01*
X151415084Y-106407995D01*
X151445228Y-106335220D01*
X151471659Y-106271412D01*
X151500500Y-106126417D01*
X151500500Y-105978582D01*
X151500500Y-83846082D01*
X151500500Y-61926082D01*
X151500500Y-61926079D01*
X151470470Y-61775112D01*
X151473065Y-61774595D01*
X151472581Y-61725307D01*
X151470470Y-61724888D01*
X151500500Y-61573920D01*
X151500500Y-46176079D01*
X151471659Y-46031092D01*
X151471658Y-46031091D01*
X151471658Y-46031087D01*
X151471656Y-46031082D01*
X151415087Y-45894511D01*
X151415080Y-45894498D01*
X151332952Y-45771585D01*
X151332951Y-45771584D01*
X151228416Y-45667049D01*
X150690539Y-45129172D01*
X148858421Y-43297052D01*
X148858414Y-43297046D01*
X148784729Y-43247812D01*
X148784729Y-43247813D01*
X148735491Y-43214913D01*
X148598917Y-43158343D01*
X148598907Y-43158340D01*
X148453920Y-43129500D01*
X148453918Y-43129500D01*
X147889828Y-43129500D01*
X147822789Y-43109815D01*
X147782441Y-43067500D01*
X147741855Y-42997204D01*
X147672773Y-42877550D01*
X147529092Y-42690301D01*
X147529087Y-42690295D01*
X147362204Y-42523412D01*
X147362197Y-42523406D01*
X147174954Y-42379730D01*
X147174953Y-42379729D01*
X147174950Y-42379727D01*
X147093457Y-42332677D01*
X146970556Y-42261719D01*
X146970545Y-42261714D01*
X146752493Y-42171394D01*
X146524510Y-42110306D01*
X146290520Y-42079501D01*
X146290517Y-42079500D01*
X146290511Y-42079500D01*
X146054489Y-42079500D01*
X146054483Y-42079500D01*
X146054479Y-42079501D01*
X145820489Y-42110306D01*
X145592506Y-42171394D01*
X145374454Y-42261714D01*
X145374443Y-42261719D01*
X145170045Y-42379730D01*
X144982802Y-42523406D01*
X144982795Y-42523412D01*
X144815912Y-42690295D01*
X144815906Y-42690302D01*
X144672230Y-42877545D01*
X144554219Y-43081943D01*
X144554214Y-43081954D01*
X144463894Y-43300006D01*
X144402806Y-43527989D01*
X144372001Y-43761979D01*
X144372000Y-43761995D01*
X144372000Y-43998004D01*
X144372001Y-43998020D01*
X144402806Y-44232010D01*
X144463894Y-44459993D01*
X144554214Y-44678045D01*
X144554219Y-44678056D01*
X144611206Y-44776759D01*
X144672227Y-44882450D01*
X144672229Y-44882453D01*
X144672230Y-44882454D01*
X144815906Y-45069697D01*
X144815912Y-45069704D01*
X144982795Y-45236587D01*
X144982802Y-45236593D01*
X145013687Y-45260292D01*
X145170050Y-45380273D01*
X145301418Y-45456118D01*
X145374443Y-45498280D01*
X145374448Y-45498282D01*
X145374451Y-45498284D01*
X145592507Y-45588606D01*
X145820486Y-45649693D01*
X146054489Y-45680500D01*
X146054496Y-45680500D01*
X146290504Y-45680500D01*
X146290511Y-45680500D01*
X146524514Y-45649693D01*
X146752493Y-45588606D01*
X146970549Y-45498284D01*
X147174950Y-45380273D01*
X147362199Y-45236592D01*
X147529092Y-45069699D01*
X147672773Y-44882450D01*
X147782441Y-44692500D01*
X147791128Y-44684216D01*
X147796115Y-44673297D01*
X147815946Y-44660552D01*
X147833008Y-44644284D01*
X147846264Y-44641068D01*
X147854893Y-44635523D01*
X147889828Y-44630500D01*
X148017770Y-44630500D01*
X148084809Y-44650185D01*
X148105451Y-44666819D01*
X149963181Y-46524548D01*
X149996666Y-46585871D01*
X149999500Y-46612229D01*
X149999500Y-61137770D01*
X149979815Y-61204809D01*
X149963181Y-61225451D01*
X149917046Y-61271586D01*
X146933649Y-64254981D01*
X146872326Y-64288466D01*
X146813875Y-64287075D01*
X146602012Y-64230306D01*
X146368020Y-64199501D01*
X146368017Y-64199500D01*
X146368011Y-64199500D01*
X146131989Y-64199500D01*
X146131983Y-64199500D01*
X146131979Y-64199501D01*
X145897989Y-64230306D01*
X145670006Y-64291394D01*
X145451954Y-64381714D01*
X145451943Y-64381719D01*
X145247545Y-64499730D01*
X145060302Y-64643406D01*
X145060295Y-64643412D01*
X144893412Y-64810295D01*
X144893406Y-64810302D01*
X144749730Y-64997545D01*
X144631719Y-65201943D01*
X144631714Y-65201954D01*
X144541394Y-65420006D01*
X144480306Y-65647989D01*
X144449501Y-65881979D01*
X144449500Y-65881995D01*
X144449500Y-66118004D01*
X144449501Y-66118020D01*
X144480306Y-66352010D01*
X144541394Y-66579993D01*
X144631714Y-66798045D01*
X144631719Y-66798056D01*
X144663761Y-66853553D01*
X144749727Y-67002450D01*
X144749729Y-67002453D01*
X144749730Y-67002454D01*
X144893406Y-67189697D01*
X144893412Y-67189704D01*
X145060295Y-67356587D01*
X145060301Y-67356592D01*
X145247550Y-67500273D01*
X145352502Y-67560867D01*
X145451943Y-67618280D01*
X145451948Y-67618282D01*
X145451951Y-67618284D01*
X145670007Y-67708606D01*
X145897986Y-67769693D01*
X146131989Y-67800500D01*
X146131996Y-67800500D01*
X146368004Y-67800500D01*
X146368011Y-67800500D01*
X146602014Y-67769693D01*
X146829993Y-67708606D01*
X147048049Y-67618284D01*
X147252450Y-67500273D01*
X147439699Y-67356592D01*
X147606592Y-67189699D01*
X147750273Y-67002450D01*
X147868284Y-66798049D01*
X147958606Y-66579993D01*
X148019693Y-66352014D01*
X148050500Y-66118011D01*
X148050500Y-65881989D01*
X148019693Y-65647986D01*
X147962924Y-65436121D01*
X147964587Y-65366273D01*
X147995016Y-65316350D01*
X149787819Y-63523548D01*
X149849142Y-63490063D01*
X149918834Y-63495047D01*
X149974767Y-63536919D01*
X149999184Y-63602383D01*
X149999500Y-63611229D01*
X149999500Y-83557769D01*
X149979815Y-83624808D01*
X149963181Y-83645450D01*
X146933649Y-86674981D01*
X146872326Y-86708466D01*
X146813875Y-86707075D01*
X146602012Y-86650306D01*
X146368020Y-86619501D01*
X146368017Y-86619500D01*
X146368011Y-86619500D01*
X146131989Y-86619500D01*
X146131983Y-86619500D01*
X146131979Y-86619501D01*
X145897989Y-86650306D01*
X145670006Y-86711394D01*
X145451954Y-86801714D01*
X145451943Y-86801719D01*
X145247545Y-86919730D01*
X145060302Y-87063406D01*
X145060295Y-87063412D01*
X144893412Y-87230295D01*
X144893406Y-87230302D01*
X144749730Y-87417545D01*
X144631719Y-87621943D01*
X144631714Y-87621954D01*
X144541394Y-87840006D01*
X144480306Y-88067989D01*
X144449501Y-88301979D01*
X144449500Y-88301995D01*
X144449500Y-88538004D01*
X144449501Y-88538020D01*
X144480306Y-88772010D01*
X144541394Y-88999993D01*
X144631714Y-89218045D01*
X144631719Y-89218056D01*
X144702677Y-89340957D01*
X144749727Y-89422450D01*
X144749729Y-89422453D01*
X144749730Y-89422454D01*
X144893406Y-89609697D01*
X144893412Y-89609704D01*
X145060295Y-89776587D01*
X145060301Y-89776592D01*
X145247550Y-89920273D01*
X145378918Y-89996118D01*
X145451943Y-90038280D01*
X145451948Y-90038282D01*
X145451951Y-90038284D01*
X145670007Y-90128606D01*
X145897986Y-90189693D01*
X146131989Y-90220500D01*
X146131996Y-90220500D01*
X146368004Y-90220500D01*
X146368011Y-90220500D01*
X146602014Y-90189693D01*
X146829993Y-90128606D01*
X147048049Y-90038284D01*
X147252450Y-89920273D01*
X147439699Y-89776592D01*
X147606592Y-89609699D01*
X147750273Y-89422450D01*
X147868284Y-89218049D01*
X147958606Y-88999993D01*
X148019693Y-88772014D01*
X148050500Y-88538011D01*
X148050500Y-88301989D01*
X148019693Y-88067986D01*
X147962924Y-87856121D01*
X147964587Y-87786273D01*
X147995016Y-87736350D01*
X149787820Y-85943546D01*
X149849142Y-85910063D01*
X149918834Y-85915047D01*
X149974767Y-85956919D01*
X149999184Y-86022383D01*
X149999500Y-86031229D01*
X149999500Y-105690269D01*
X149979815Y-105757308D01*
X149963181Y-105777950D01*
X146856149Y-108884981D01*
X146794826Y-108918466D01*
X146736375Y-108917075D01*
X146524512Y-108860306D01*
X146290520Y-108829501D01*
X146290517Y-108829500D01*
X146290511Y-108829500D01*
X146054489Y-108829500D01*
X146054483Y-108829500D01*
X146054479Y-108829501D01*
X145820489Y-108860306D01*
X145592506Y-108921394D01*
X145374454Y-109011714D01*
X145374443Y-109011719D01*
X145170045Y-109129730D01*
X144982802Y-109273406D01*
X144982795Y-109273412D01*
X144815912Y-109440295D01*
X144815906Y-109440302D01*
X144672230Y-109627545D01*
X144672227Y-109627549D01*
X144672227Y-109627550D01*
X144670812Y-109630001D01*
X144554219Y-109831943D01*
X144554214Y-109831954D01*
X144463894Y-110050006D01*
X144402806Y-110277989D01*
X144372001Y-110511979D01*
X144372000Y-110511995D01*
X144372000Y-110748004D01*
X144372001Y-110748020D01*
X144390905Y-110891613D01*
X144402807Y-110982014D01*
X144412694Y-111018913D01*
X144463894Y-111209993D01*
X144554214Y-111428045D01*
X144554219Y-111428056D01*
X144604525Y-111515187D01*
X144672227Y-111632450D01*
X144672229Y-111632453D01*
X144672230Y-111632454D01*
X144815906Y-111819697D01*
X144815912Y-111819704D01*
X144982795Y-111986587D01*
X144982801Y-111986592D01*
X145170050Y-112130273D01*
X145301418Y-112206118D01*
X145374443Y-112248280D01*
X145374448Y-112248282D01*
X145374451Y-112248284D01*
X145592507Y-112338606D01*
X145820486Y-112399693D01*
X146054489Y-112430500D01*
X146054496Y-112430500D01*
X146290504Y-112430500D01*
X146290511Y-112430500D01*
X146524514Y-112399693D01*
X146736377Y-112342924D01*
X146806225Y-112344587D01*
X146856150Y-112375018D01*
X150984431Y-116503298D01*
X151017916Y-116564621D01*
X151020750Y-116590979D01*
X151020750Y-125466520D01*
X151001065Y-125533559D01*
X150984431Y-125554201D01*
X148125451Y-128413181D01*
X148064128Y-128446666D01*
X148037770Y-128449500D01*
X93902229Y-128449500D01*
X93835190Y-128429815D01*
X93814548Y-128413181D01*
X92745018Y-127343650D01*
X92711533Y-127282327D01*
X92712923Y-127223878D01*
X92769693Y-127012014D01*
X92800500Y-126778011D01*
X92800500Y-126541989D01*
X92769693Y-126307986D01*
X92708606Y-126080007D01*
X92618284Y-125861951D01*
X92618282Y-125861948D01*
X92618280Y-125861943D01*
X92576118Y-125788918D01*
X92500273Y-125657550D01*
X92420971Y-125554201D01*
X92356593Y-125470302D01*
X92356587Y-125470295D01*
X92189704Y-125303412D01*
X92189697Y-125303406D01*
X92002454Y-125159730D01*
X92002453Y-125159729D01*
X92002450Y-125159727D01*
X91920957Y-125112677D01*
X91798056Y-125041719D01*
X91798045Y-125041714D01*
X91579993Y-124951394D01*
X91352014Y-124890307D01*
X91352013Y-124890306D01*
X91352010Y-124890306D01*
X91118020Y-124859501D01*
X91118017Y-124859500D01*
X91118011Y-124859500D01*
X90881989Y-124859500D01*
X90881983Y-124859500D01*
X90881979Y-124859501D01*
X90647987Y-124890306D01*
X90436123Y-124947075D01*
X90366273Y-124945412D01*
X90316349Y-124914981D01*
X90232859Y-124831491D01*
X116999500Y-124831491D01*
X116999500Y-125168508D01*
X117037231Y-125503381D01*
X117037233Y-125503397D01*
X117112223Y-125831953D01*
X117112227Y-125831965D01*
X117223532Y-126150054D01*
X117369752Y-126453683D01*
X117369754Y-126453686D01*
X117549054Y-126739039D01*
X117672142Y-126893387D01*
X117733251Y-126970016D01*
X117759175Y-127002523D01*
X117997477Y-127240825D01*
X118260961Y-127450946D01*
X118546314Y-127630246D01*
X118849949Y-127776469D01*
X119059223Y-127849697D01*
X119168034Y-127887772D01*
X119168046Y-127887776D01*
X119496606Y-127962767D01*
X119831492Y-128000499D01*
X119831493Y-128000500D01*
X119831496Y-128000500D01*
X120168507Y-128000500D01*
X120168507Y-128000499D01*
X120503394Y-127962767D01*
X120831954Y-127887776D01*
X121150051Y-127776469D01*
X121453686Y-127630246D01*
X121739039Y-127450946D01*
X122002523Y-127240825D01*
X122240825Y-127002523D01*
X122450946Y-126739039D01*
X122630246Y-126453686D01*
X122776469Y-126150051D01*
X122887776Y-125831954D01*
X122962767Y-125503394D01*
X123000500Y-125168504D01*
X123000500Y-124831496D01*
X122993571Y-124769998D01*
X122993569Y-124769983D01*
X144372000Y-124769983D01*
X144372000Y-126970001D01*
X144372001Y-126970018D01*
X144382500Y-127072796D01*
X144382501Y-127072799D01*
X144437685Y-127239331D01*
X144437687Y-127239336D01*
X144464204Y-127282327D01*
X144529788Y-127388656D01*
X144653844Y-127512712D01*
X144803166Y-127604814D01*
X144969703Y-127659999D01*
X145072491Y-127670500D01*
X147272508Y-127670499D01*
X147375297Y-127659999D01*
X147541834Y-127604814D01*
X147691156Y-127512712D01*
X147815212Y-127388656D01*
X147907314Y-127239334D01*
X147962499Y-127072797D01*
X147973000Y-126970009D01*
X147972999Y-124769992D01*
X147962499Y-124667203D01*
X147907314Y-124500666D01*
X147815212Y-124351344D01*
X147691156Y-124227288D01*
X147541834Y-124135186D01*
X147375297Y-124080001D01*
X147375295Y-124080000D01*
X147272510Y-124069500D01*
X145072498Y-124069500D01*
X145072481Y-124069501D01*
X144969703Y-124080000D01*
X144969700Y-124080001D01*
X144803168Y-124135185D01*
X144803163Y-124135187D01*
X144653842Y-124227289D01*
X144529789Y-124351342D01*
X144437687Y-124500663D01*
X144437686Y-124500666D01*
X144382501Y-124667203D01*
X144382501Y-124667204D01*
X144382500Y-124667204D01*
X144372000Y-124769983D01*
X122993569Y-124769983D01*
X122962769Y-124496620D01*
X122962766Y-124496602D01*
X122887776Y-124168046D01*
X122887772Y-124168034D01*
X122790181Y-123889137D01*
X122776469Y-123849949D01*
X122630246Y-123546314D01*
X122450946Y-123260961D01*
X122240825Y-122997477D01*
X122002523Y-122759175D01*
X121739039Y-122549054D01*
X121541953Y-122425216D01*
X121453683Y-122369752D01*
X121150054Y-122223532D01*
X120831965Y-122112227D01*
X120831953Y-122112223D01*
X120503397Y-122037233D01*
X120503381Y-122037231D01*
X120168508Y-121999500D01*
X120168504Y-121999500D01*
X119831496Y-121999500D01*
X119831491Y-121999500D01*
X119496618Y-122037231D01*
X119496602Y-122037233D01*
X119168046Y-122112223D01*
X119168034Y-122112227D01*
X118849945Y-122223532D01*
X118546316Y-122369752D01*
X118260962Y-122549053D01*
X117997477Y-122759174D01*
X117759174Y-122997477D01*
X117549053Y-123260962D01*
X117369752Y-123546316D01*
X117223532Y-123849945D01*
X117112227Y-124168034D01*
X117112223Y-124168046D01*
X117037233Y-124496602D01*
X117037231Y-124496618D01*
X116999500Y-124831491D01*
X90232859Y-124831491D01*
X88286819Y-122885451D01*
X88253334Y-122824128D01*
X88250500Y-122797770D01*
X88250500Y-121462014D01*
X89200000Y-121462014D01*
X89200000Y-121697985D01*
X89230799Y-121931914D01*
X89291870Y-122159837D01*
X89382160Y-122377819D01*
X89382165Y-122377828D01*
X89500144Y-122582171D01*
X89500145Y-122582172D01*
X89562721Y-122663723D01*
X90398958Y-121827487D01*
X90423978Y-121887890D01*
X90495112Y-121994351D01*
X90585649Y-122084888D01*
X90692110Y-122156022D01*
X90752511Y-122181041D01*
X89916275Y-123017277D01*
X89997827Y-123079854D01*
X89997828Y-123079855D01*
X90202171Y-123197834D01*
X90202180Y-123197839D01*
X90420163Y-123288129D01*
X90420161Y-123288129D01*
X90648085Y-123349200D01*
X90882014Y-123379999D01*
X90882029Y-123380000D01*
X91117971Y-123380000D01*
X91117985Y-123379999D01*
X91351914Y-123349200D01*
X91579837Y-123288129D01*
X91797819Y-123197839D01*
X91797828Y-123197834D01*
X92002181Y-123079850D01*
X92083723Y-123017279D01*
X92083723Y-123017276D01*
X91247487Y-122181041D01*
X91307890Y-122156022D01*
X91414351Y-122084888D01*
X91504888Y-121994351D01*
X91576022Y-121887890D01*
X91601041Y-121827487D01*
X92437276Y-122663723D01*
X92437279Y-122663723D01*
X92499850Y-122582181D01*
X92617834Y-122377828D01*
X92617839Y-122377819D01*
X92708129Y-122159837D01*
X92769200Y-121931914D01*
X92799999Y-121697985D01*
X92800000Y-121697971D01*
X92800000Y-121462028D01*
X92799999Y-121462014D01*
X92769200Y-121228085D01*
X92708129Y-121000162D01*
X92617839Y-120782180D01*
X92617834Y-120782171D01*
X92499855Y-120577828D01*
X92499854Y-120577827D01*
X92437277Y-120496275D01*
X91601041Y-121332511D01*
X91576022Y-121272110D01*
X91504888Y-121165649D01*
X91414351Y-121075112D01*
X91307890Y-121003978D01*
X91247488Y-120978958D01*
X92083723Y-120142721D01*
X92002172Y-120080145D01*
X92002171Y-120080144D01*
X91797828Y-119962165D01*
X91797819Y-119962160D01*
X91579836Y-119871870D01*
X91579838Y-119871870D01*
X91351914Y-119810799D01*
X91117985Y-119780000D01*
X90882014Y-119780000D01*
X90648085Y-119810799D01*
X90420162Y-119871870D01*
X90202180Y-119962160D01*
X90202171Y-119962165D01*
X89997828Y-120080144D01*
X89997818Y-120080150D01*
X89916275Y-120142720D01*
X89916275Y-120142721D01*
X90752512Y-120978958D01*
X90692110Y-121003978D01*
X90585649Y-121075112D01*
X90495112Y-121165649D01*
X90423978Y-121272110D01*
X90398958Y-121332512D01*
X89562721Y-120496275D01*
X89562720Y-120496275D01*
X89500150Y-120577818D01*
X89500144Y-120577828D01*
X89382165Y-120782171D01*
X89382160Y-120782180D01*
X89291870Y-121000162D01*
X89230799Y-121228085D01*
X89200000Y-121462014D01*
X88250500Y-121462014D01*
X88250500Y-116381995D01*
X89199500Y-116381995D01*
X89199500Y-116618004D01*
X89199501Y-116618020D01*
X89230306Y-116852010D01*
X89291394Y-117079993D01*
X89381714Y-117298045D01*
X89381719Y-117298056D01*
X89451044Y-117418129D01*
X89499727Y-117502450D01*
X89499729Y-117502453D01*
X89499730Y-117502454D01*
X89643406Y-117689697D01*
X89643412Y-117689704D01*
X89810295Y-117856587D01*
X89810301Y-117856592D01*
X89997550Y-118000273D01*
X90128918Y-118076118D01*
X90201943Y-118118280D01*
X90201948Y-118118282D01*
X90201951Y-118118284D01*
X90420007Y-118208606D01*
X90647986Y-118269693D01*
X90881989Y-118300500D01*
X90881996Y-118300500D01*
X91118004Y-118300500D01*
X91118011Y-118300500D01*
X91352014Y-118269693D01*
X91579993Y-118208606D01*
X91798049Y-118118284D01*
X92002450Y-118000273D01*
X92189699Y-117856592D01*
X92356592Y-117689699D01*
X92500273Y-117502450D01*
X92609941Y-117312500D01*
X92660508Y-117264284D01*
X92717328Y-117250500D01*
X114823920Y-117250500D01*
X114921462Y-117231096D01*
X114968913Y-117221658D01*
X115105495Y-117165084D01*
X115154729Y-117132186D01*
X115228416Y-117082952D01*
X117332951Y-114978416D01*
X117415084Y-114855495D01*
X117471658Y-114718913D01*
X117500500Y-114573918D01*
X117500500Y-104276082D01*
X117500500Y-104276079D01*
X117471659Y-104131092D01*
X117471658Y-104131091D01*
X117471658Y-104131087D01*
X117471656Y-104131082D01*
X117415086Y-103994509D01*
X117415085Y-103994507D01*
X117382186Y-103945270D01*
X117382185Y-103945268D01*
X117332956Y-103871589D01*
X117332952Y-103871584D01*
X115468421Y-102007052D01*
X115468414Y-102007046D01*
X115394729Y-101957812D01*
X115394729Y-101957813D01*
X115345491Y-101924913D01*
X115208917Y-101868343D01*
X115208907Y-101868340D01*
X115063920Y-101839500D01*
X115063918Y-101839500D01*
X113965418Y-101839500D01*
X113898379Y-101819815D01*
X113865100Y-101788385D01*
X113831971Y-101742787D01*
X113831967Y-101742782D01*
X113687213Y-101598028D01*
X113521614Y-101477715D01*
X113515006Y-101474348D01*
X113428917Y-101430483D01*
X113378123Y-101382511D01*
X113361328Y-101314690D01*
X113383865Y-101248555D01*
X113428917Y-101209516D01*
X113521610Y-101162287D01*
X113542770Y-101146913D01*
X113687213Y-101041971D01*
X113687215Y-101041968D01*
X113687219Y-101041966D01*
X113831966Y-100897219D01*
X113831968Y-100897215D01*
X113831971Y-100897213D01*
X113902236Y-100800500D01*
X113952287Y-100731610D01*
X114045220Y-100549219D01*
X114108477Y-100354534D01*
X114140500Y-100152352D01*
X114140500Y-99947648D01*
X114131681Y-99891971D01*
X114140635Y-99822679D01*
X114166470Y-99784895D01*
X115627446Y-98323920D01*
X118249499Y-98323920D01*
X118278340Y-98468907D01*
X118278343Y-98468917D01*
X118334913Y-98605489D01*
X118334914Y-98605491D01*
X118334916Y-98605495D01*
X118346135Y-98622286D01*
X118346136Y-98622289D01*
X118417046Y-98728414D01*
X118417052Y-98728421D01*
X119767475Y-100078842D01*
X120217048Y-100528415D01*
X120217049Y-100528416D01*
X120271576Y-100582943D01*
X120321585Y-100632952D01*
X120444498Y-100715080D01*
X120444511Y-100715087D01*
X120581082Y-100771656D01*
X120581087Y-100771658D01*
X120581091Y-100771658D01*
X120581092Y-100771659D01*
X120726079Y-100800500D01*
X120726082Y-100800500D01*
X121874582Y-100800500D01*
X121941621Y-100820185D01*
X121974900Y-100851615D01*
X122008028Y-100897212D01*
X122008032Y-100897217D01*
X122152786Y-101041971D01*
X122307749Y-101154556D01*
X122318390Y-101162287D01*
X122409840Y-101208883D01*
X122411080Y-101209515D01*
X122461876Y-101257490D01*
X122478671Y-101325311D01*
X122456134Y-101391446D01*
X122411080Y-101430485D01*
X122318386Y-101477715D01*
X122152786Y-101598028D01*
X122008028Y-101742786D01*
X121887715Y-101908386D01*
X121794781Y-102090776D01*
X121731522Y-102285465D01*
X121699500Y-102487648D01*
X121699500Y-102692351D01*
X121731522Y-102894534D01*
X121794781Y-103089223D01*
X121887715Y-103271613D01*
X122008028Y-103437213D01*
X122152786Y-103581971D01*
X122307749Y-103694556D01*
X122318390Y-103702287D01*
X122409840Y-103748883D01*
X122411080Y-103749515D01*
X122461876Y-103797490D01*
X122478671Y-103865311D01*
X122456134Y-103931446D01*
X122411080Y-103970485D01*
X122318386Y-104017715D01*
X122152786Y-104138028D01*
X122008028Y-104282786D01*
X121887715Y-104448386D01*
X121794781Y-104630776D01*
X121731522Y-104825465D01*
X121699500Y-105027648D01*
X121699500Y-105232351D01*
X121731522Y-105434534D01*
X121794781Y-105629223D01*
X121852057Y-105741632D01*
X121887334Y-105810867D01*
X121887715Y-105811613D01*
X122008028Y-105977213D01*
X122152786Y-106121971D01*
X122307749Y-106234556D01*
X122318390Y-106242287D01*
X122409840Y-106288883D01*
X122411080Y-106289515D01*
X122461876Y-106337490D01*
X122478671Y-106405311D01*
X122456134Y-106471446D01*
X122411080Y-106510485D01*
X122318386Y-106557715D01*
X122152786Y-106678028D01*
X122008028Y-106822786D01*
X121887715Y-106988386D01*
X121794781Y-107170776D01*
X121731522Y-107365465D01*
X121699500Y-107567648D01*
X121699500Y-107772351D01*
X121731522Y-107974534D01*
X121794781Y-108169223D01*
X121887715Y-108351613D01*
X122008028Y-108517213D01*
X122152786Y-108661971D01*
X122277731Y-108752747D01*
X122318390Y-108782287D01*
X122409759Y-108828842D01*
X122411080Y-108829515D01*
X122461876Y-108877490D01*
X122478671Y-108945311D01*
X122456134Y-109011446D01*
X122411080Y-109050485D01*
X122318386Y-109097715D01*
X122152786Y-109218028D01*
X122008028Y-109362786D01*
X121887715Y-109528386D01*
X121794781Y-109710776D01*
X121731522Y-109905465D01*
X121699500Y-110107648D01*
X121699500Y-110312351D01*
X121731522Y-110514534D01*
X121794781Y-110709223D01*
X121858691Y-110834653D01*
X121878699Y-110873920D01*
X121887715Y-110891613D01*
X122008028Y-111057213D01*
X122008034Y-111057219D01*
X122152781Y-111201966D01*
X122246452Y-111270021D01*
X122289117Y-111325350D01*
X122295096Y-111394963D01*
X122262491Y-111456759D01*
X122212571Y-111488045D01*
X122130666Y-111515186D01*
X122130663Y-111515187D01*
X121981342Y-111607289D01*
X121857289Y-111731342D01*
X121765187Y-111880663D01*
X121765186Y-111880666D01*
X121710001Y-112047203D01*
X121710001Y-112047204D01*
X121710000Y-112047204D01*
X121699500Y-112149983D01*
X121699500Y-113350001D01*
X121699501Y-113350018D01*
X121710000Y-113452796D01*
X121710001Y-113452799D01*
X121716251Y-113471659D01*
X121765186Y-113619334D01*
X121857288Y-113768656D01*
X121981344Y-113892712D01*
X122130666Y-113984814D01*
X122297203Y-114039999D01*
X122399991Y-114050500D01*
X123600008Y-114050499D01*
X123702797Y-114039999D01*
X123869334Y-113984814D01*
X124018656Y-113892712D01*
X124142712Y-113768656D01*
X124234814Y-113619334D01*
X124289999Y-113452797D01*
X124300500Y-113350009D01*
X124300499Y-112149992D01*
X124289999Y-112047203D01*
X124234814Y-111880666D01*
X124142712Y-111731344D01*
X124018656Y-111607288D01*
X123869334Y-111515186D01*
X123787427Y-111488044D01*
X123729984Y-111448272D01*
X123703161Y-111383756D01*
X123715476Y-111314980D01*
X123753547Y-111270021D01*
X123847219Y-111201966D01*
X123991966Y-111057219D01*
X123991968Y-111057215D01*
X123991971Y-111057213D01*
X124046608Y-110982010D01*
X124112287Y-110891610D01*
X124205220Y-110709219D01*
X124268477Y-110514534D01*
X124300500Y-110312352D01*
X124300500Y-110107648D01*
X124268477Y-109905466D01*
X124244591Y-109831954D01*
X124205218Y-109710776D01*
X124164060Y-109630000D01*
X124112287Y-109528390D01*
X124104556Y-109517749D01*
X123991971Y-109362786D01*
X123847213Y-109218028D01*
X123681614Y-109097715D01*
X123617984Y-109065294D01*
X123588917Y-109050483D01*
X123538123Y-109002511D01*
X123521328Y-108934690D01*
X123543865Y-108868555D01*
X123588917Y-108829516D01*
X123681610Y-108782287D01*
X123722269Y-108752747D01*
X123847213Y-108661971D01*
X123847215Y-108661968D01*
X123847219Y-108661966D01*
X123991966Y-108517219D01*
X123991968Y-108517215D01*
X123991971Y-108517213D01*
X124044732Y-108444590D01*
X124112287Y-108351610D01*
X124205220Y-108169219D01*
X124268477Y-107974534D01*
X124300500Y-107772352D01*
X124300500Y-107567648D01*
X124268477Y-107365466D01*
X124205220Y-107170781D01*
X124205218Y-107170778D01*
X124205218Y-107170776D01*
X124171503Y-107104607D01*
X124112287Y-106988390D01*
X124104556Y-106977749D01*
X123991971Y-106822786D01*
X123847213Y-106678028D01*
X123681614Y-106557715D01*
X123675006Y-106554348D01*
X123588917Y-106510483D01*
X123538123Y-106462511D01*
X123521328Y-106394690D01*
X123543865Y-106328555D01*
X123588917Y-106289516D01*
X123681610Y-106242287D01*
X123702770Y-106226913D01*
X123847213Y-106121971D01*
X123847215Y-106121968D01*
X123847219Y-106121966D01*
X123991966Y-105977219D01*
X123994650Y-105973524D01*
X124025100Y-105931615D01*
X124080429Y-105888949D01*
X124125418Y-105880500D01*
X124517770Y-105880500D01*
X124584809Y-105900185D01*
X124605451Y-105916819D01*
X139957048Y-121268415D01*
X139957049Y-121268416D01*
X140058626Y-121369993D01*
X140061585Y-121372952D01*
X140184498Y-121455080D01*
X140184511Y-121455087D01*
X140321082Y-121511656D01*
X140321087Y-121511658D01*
X140321091Y-121511658D01*
X140321092Y-121511659D01*
X140466079Y-121540500D01*
X140466082Y-121540500D01*
X144455172Y-121540500D01*
X144522211Y-121560185D01*
X144562559Y-121602500D01*
X144672227Y-121792450D01*
X144672229Y-121792453D01*
X144672230Y-121792454D01*
X144815906Y-121979697D01*
X144815912Y-121979704D01*
X144982795Y-122146587D01*
X144982801Y-122146592D01*
X145170050Y-122290273D01*
X145301418Y-122366118D01*
X145374443Y-122408280D01*
X145374448Y-122408282D01*
X145374451Y-122408284D01*
X145592507Y-122498606D01*
X145820486Y-122559693D01*
X146054489Y-122590500D01*
X146054496Y-122590500D01*
X146290504Y-122590500D01*
X146290511Y-122590500D01*
X146524514Y-122559693D01*
X146752493Y-122498606D01*
X146970549Y-122408284D01*
X147174950Y-122290273D01*
X147362199Y-122146592D01*
X147529092Y-121979699D01*
X147672773Y-121792450D01*
X147790784Y-121588049D01*
X147881106Y-121369993D01*
X147942193Y-121142014D01*
X147973000Y-120908011D01*
X147973000Y-120671989D01*
X147942193Y-120437986D01*
X147881106Y-120210007D01*
X147790784Y-119991951D01*
X147790782Y-119991948D01*
X147790780Y-119991943D01*
X147721455Y-119871870D01*
X147672773Y-119787550D01*
X147529092Y-119600301D01*
X147529087Y-119600295D01*
X147362204Y-119433412D01*
X147362197Y-119433406D01*
X147174954Y-119289730D01*
X147174953Y-119289729D01*
X147174950Y-119289727D01*
X147093457Y-119242677D01*
X146970556Y-119171719D01*
X146970545Y-119171714D01*
X146752493Y-119081394D01*
X146524510Y-119020306D01*
X146290520Y-118989501D01*
X146290517Y-118989500D01*
X146290511Y-118989500D01*
X146054489Y-118989500D01*
X146054483Y-118989500D01*
X146054479Y-118989501D01*
X145820489Y-119020306D01*
X145592506Y-119081394D01*
X145374454Y-119171714D01*
X145374443Y-119171719D01*
X145170045Y-119289730D01*
X144982802Y-119433406D01*
X144982795Y-119433412D01*
X144815912Y-119600295D01*
X144815906Y-119600302D01*
X144672230Y-119787545D01*
X144562559Y-119977500D01*
X144511992Y-120025716D01*
X144455172Y-120039500D01*
X140902229Y-120039500D01*
X140835190Y-120019815D01*
X140814548Y-120003181D01*
X136403381Y-115592014D01*
X144372500Y-115592014D01*
X144372500Y-115827985D01*
X144403299Y-116061914D01*
X144464370Y-116289837D01*
X144554660Y-116507819D01*
X144554665Y-116507828D01*
X144672644Y-116712171D01*
X144672645Y-116712172D01*
X144735221Y-116793723D01*
X145571458Y-115957487D01*
X145596478Y-116017890D01*
X145667612Y-116124351D01*
X145758149Y-116214888D01*
X145864610Y-116286022D01*
X145925011Y-116311041D01*
X145088775Y-117147277D01*
X145170327Y-117209854D01*
X145170328Y-117209855D01*
X145374671Y-117327834D01*
X145374680Y-117327839D01*
X145592663Y-117418129D01*
X145592661Y-117418129D01*
X145820585Y-117479200D01*
X146054514Y-117509999D01*
X146054529Y-117510000D01*
X146290471Y-117510000D01*
X146290485Y-117509999D01*
X146524414Y-117479200D01*
X146752337Y-117418129D01*
X146970319Y-117327839D01*
X146970328Y-117327834D01*
X147174681Y-117209850D01*
X147256223Y-117147279D01*
X147256223Y-117147276D01*
X146419987Y-116311041D01*
X146480390Y-116286022D01*
X146586851Y-116214888D01*
X146677388Y-116124351D01*
X146748522Y-116017890D01*
X146773541Y-115957488D01*
X147609776Y-116793723D01*
X147609779Y-116793723D01*
X147672350Y-116712181D01*
X147790334Y-116507828D01*
X147790339Y-116507819D01*
X147880629Y-116289837D01*
X147941700Y-116061914D01*
X147972499Y-115827985D01*
X147972500Y-115827971D01*
X147972500Y-115592028D01*
X147972499Y-115592014D01*
X147941700Y-115358085D01*
X147880629Y-115130162D01*
X147790339Y-114912180D01*
X147790334Y-114912171D01*
X147672355Y-114707828D01*
X147672354Y-114707827D01*
X147609777Y-114626275D01*
X146773541Y-115462511D01*
X146748522Y-115402110D01*
X146677388Y-115295649D01*
X146586851Y-115205112D01*
X146480390Y-115133978D01*
X146419988Y-115108958D01*
X147256223Y-114272721D01*
X147174672Y-114210145D01*
X147174671Y-114210144D01*
X146970328Y-114092165D01*
X146970319Y-114092160D01*
X146752336Y-114001870D01*
X146752338Y-114001870D01*
X146524414Y-113940799D01*
X146290485Y-113910000D01*
X146054514Y-113910000D01*
X145820585Y-113940799D01*
X145592662Y-114001870D01*
X145374680Y-114092160D01*
X145374671Y-114092165D01*
X145170328Y-114210144D01*
X145170318Y-114210150D01*
X145088775Y-114272720D01*
X145088775Y-114272721D01*
X145925012Y-115108958D01*
X145864610Y-115133978D01*
X145758149Y-115205112D01*
X145667612Y-115295649D01*
X145596478Y-115402110D01*
X145571458Y-115462512D01*
X144735221Y-114626275D01*
X144735220Y-114626275D01*
X144672650Y-114707818D01*
X144672644Y-114707828D01*
X144554665Y-114912171D01*
X144554660Y-114912180D01*
X144464370Y-115130162D01*
X144403299Y-115358085D01*
X144372500Y-115592014D01*
X136403381Y-115592014D01*
X135219722Y-114408355D01*
X133062148Y-112250781D01*
X129482521Y-108671153D01*
X132199500Y-108671153D01*
X132199500Y-108828846D01*
X132230261Y-108983489D01*
X132230264Y-108983501D01*
X132290602Y-109129172D01*
X132290609Y-109129185D01*
X132378210Y-109260288D01*
X132378213Y-109260292D01*
X132489707Y-109371786D01*
X132489711Y-109371789D01*
X132620814Y-109459390D01*
X132620827Y-109459397D01*
X132766498Y-109519735D01*
X132766503Y-109519737D01*
X132921153Y-109550499D01*
X132921156Y-109550500D01*
X132921158Y-109550500D01*
X133078844Y-109550500D01*
X133078845Y-109550499D01*
X133233497Y-109519737D01*
X133379179Y-109459394D01*
X133510289Y-109371789D01*
X133621789Y-109260289D01*
X133709394Y-109129179D01*
X133719191Y-109105524D01*
X133746069Y-109065297D01*
X140251384Y-102559983D01*
X144449500Y-102559983D01*
X144449500Y-104760001D01*
X144449501Y-104760018D01*
X144460000Y-104862796D01*
X144460001Y-104862799D01*
X144498313Y-104978416D01*
X144515186Y-105029334D01*
X144607288Y-105178656D01*
X144731344Y-105302712D01*
X144880666Y-105394814D01*
X145047203Y-105449999D01*
X145149991Y-105460500D01*
X147350008Y-105460499D01*
X147452797Y-105449999D01*
X147619334Y-105394814D01*
X147768656Y-105302712D01*
X147892712Y-105178656D01*
X147984814Y-105029334D01*
X148039999Y-104862797D01*
X148050500Y-104760009D01*
X148050499Y-102559992D01*
X148049508Y-102550295D01*
X148039999Y-102457203D01*
X148039998Y-102457200D01*
X148015547Y-102383412D01*
X147984814Y-102290666D01*
X147892712Y-102141344D01*
X147768656Y-102017288D01*
X147672231Y-101957813D01*
X147619336Y-101925187D01*
X147619331Y-101925185D01*
X147568647Y-101908390D01*
X147452797Y-101870001D01*
X147452795Y-101870000D01*
X147350010Y-101859500D01*
X145149998Y-101859500D01*
X145149981Y-101859501D01*
X145047203Y-101870000D01*
X145047200Y-101870001D01*
X144880668Y-101925185D01*
X144880663Y-101925187D01*
X144731342Y-102017289D01*
X144607289Y-102141342D01*
X144515187Y-102290663D01*
X144515186Y-102290666D01*
X144460001Y-102457203D01*
X144460001Y-102457204D01*
X144460000Y-102457204D01*
X144449500Y-102559983D01*
X140251384Y-102559983D01*
X143444549Y-99366819D01*
X143505872Y-99333334D01*
X143532230Y-99330500D01*
X144532672Y-99330500D01*
X144599711Y-99350185D01*
X144640059Y-99392500D01*
X144749727Y-99582450D01*
X144749729Y-99582453D01*
X144749730Y-99582454D01*
X144893406Y-99769697D01*
X144893412Y-99769704D01*
X145060295Y-99936587D01*
X145060302Y-99936593D01*
X145170306Y-100021001D01*
X145247550Y-100080273D01*
X145378918Y-100156118D01*
X145451943Y-100198280D01*
X145451948Y-100198282D01*
X145451951Y-100198284D01*
X145670007Y-100288606D01*
X145897986Y-100349693D01*
X146131989Y-100380500D01*
X146131996Y-100380500D01*
X146368004Y-100380500D01*
X146368011Y-100380500D01*
X146602014Y-100349693D01*
X146829993Y-100288606D01*
X147048049Y-100198284D01*
X147252450Y-100080273D01*
X147439699Y-99936592D01*
X147606592Y-99769699D01*
X147750273Y-99582450D01*
X147868284Y-99378049D01*
X147958606Y-99159993D01*
X148019693Y-98932014D01*
X148050500Y-98698011D01*
X148050500Y-98461989D01*
X148019693Y-98227986D01*
X147958606Y-98000007D01*
X147868284Y-97781951D01*
X147868282Y-97781948D01*
X147868280Y-97781943D01*
X147800412Y-97664394D01*
X147750273Y-97577550D01*
X147606592Y-97390301D01*
X147606587Y-97390295D01*
X147439704Y-97223412D01*
X147439697Y-97223406D01*
X147252454Y-97079730D01*
X147252453Y-97079729D01*
X147252450Y-97079727D01*
X147133356Y-97010968D01*
X147048056Y-96961719D01*
X147048045Y-96961714D01*
X146829993Y-96871394D01*
X146669500Y-96828390D01*
X146602014Y-96810307D01*
X146602013Y-96810306D01*
X146602010Y-96810306D01*
X146368020Y-96779501D01*
X146368017Y-96779500D01*
X146368011Y-96779500D01*
X146131989Y-96779500D01*
X146131983Y-96779500D01*
X146131979Y-96779501D01*
X145897989Y-96810306D01*
X145670006Y-96871394D01*
X145451954Y-96961714D01*
X145451943Y-96961719D01*
X145247545Y-97079730D01*
X145060302Y-97223406D01*
X145060295Y-97223412D01*
X144893412Y-97390295D01*
X144893406Y-97390302D01*
X144749730Y-97577545D01*
X144640059Y-97767500D01*
X144589492Y-97815716D01*
X144532672Y-97829500D01*
X143096080Y-97829500D01*
X142951092Y-97858340D01*
X142951082Y-97858343D01*
X142814511Y-97914912D01*
X142814499Y-97914919D01*
X142782133Y-97936546D01*
X142782132Y-97936547D01*
X142691579Y-97997051D01*
X132684703Y-108003927D01*
X132644480Y-108030805D01*
X132620819Y-108040606D01*
X132620818Y-108040607D01*
X132489715Y-108128207D01*
X132489707Y-108128213D01*
X132378213Y-108239707D01*
X132378210Y-108239711D01*
X132290609Y-108370814D01*
X132290602Y-108370827D01*
X132230264Y-108516498D01*
X132230261Y-108516510D01*
X132199500Y-108671153D01*
X129482521Y-108671153D01*
X127489396Y-106678028D01*
X125358421Y-104547052D01*
X125358420Y-104547051D01*
X125344947Y-104538049D01*
X125272289Y-104489501D01*
X125272288Y-104489500D01*
X125235500Y-104464919D01*
X125235488Y-104464912D01*
X125098917Y-104408343D01*
X125098907Y-104408340D01*
X124953920Y-104379500D01*
X124953918Y-104379500D01*
X124125418Y-104379500D01*
X124058379Y-104359815D01*
X124025100Y-104328385D01*
X123991971Y-104282787D01*
X123991967Y-104282782D01*
X123847213Y-104138028D01*
X123681614Y-104017715D01*
X123675006Y-104014348D01*
X123588917Y-103970483D01*
X123538123Y-103922511D01*
X123521328Y-103854690D01*
X123543865Y-103788555D01*
X123588917Y-103749516D01*
X123681610Y-103702287D01*
X123702770Y-103686913D01*
X123847213Y-103581971D01*
X123847215Y-103581968D01*
X123847219Y-103581966D01*
X123991966Y-103437219D01*
X124090487Y-103301615D01*
X124145816Y-103258949D01*
X124190805Y-103250500D01*
X130573920Y-103250500D01*
X130671462Y-103231096D01*
X130718913Y-103221658D01*
X130855495Y-103165084D01*
X130904729Y-103132186D01*
X130978416Y-103082952D01*
X135401369Y-98659999D01*
X139259724Y-94801644D01*
X139832947Y-94228420D01*
X139832950Y-94228417D01*
X139832949Y-94228417D01*
X139832952Y-94228415D01*
X139863301Y-94182994D01*
X139915084Y-94105495D01*
X139950606Y-94019737D01*
X139971659Y-93968912D01*
X140000500Y-93823917D01*
X140000500Y-93676082D01*
X140000500Y-93382014D01*
X144450000Y-93382014D01*
X144450000Y-93617985D01*
X144480799Y-93851914D01*
X144541870Y-94079837D01*
X144632160Y-94297819D01*
X144632165Y-94297828D01*
X144750144Y-94502171D01*
X144750145Y-94502172D01*
X144812721Y-94583723D01*
X145648958Y-93747487D01*
X145673978Y-93807890D01*
X145745112Y-93914351D01*
X145835649Y-94004888D01*
X145942110Y-94076022D01*
X146002511Y-94101041D01*
X145166275Y-94937277D01*
X145247827Y-94999854D01*
X145247828Y-94999855D01*
X145452171Y-95117834D01*
X145452180Y-95117839D01*
X145670163Y-95208129D01*
X145670161Y-95208129D01*
X145898085Y-95269200D01*
X146132014Y-95299999D01*
X146132029Y-95300000D01*
X146367971Y-95300000D01*
X146367985Y-95299999D01*
X146601914Y-95269200D01*
X146829837Y-95208129D01*
X147047819Y-95117839D01*
X147047828Y-95117834D01*
X147252181Y-94999850D01*
X147333723Y-94937279D01*
X147333723Y-94937276D01*
X146497487Y-94101041D01*
X146557890Y-94076022D01*
X146664351Y-94004888D01*
X146754888Y-93914351D01*
X146826022Y-93807890D01*
X146851041Y-93747488D01*
X147687276Y-94583723D01*
X147687279Y-94583723D01*
X147749850Y-94502181D01*
X147867834Y-94297828D01*
X147867839Y-94297819D01*
X147958129Y-94079837D01*
X148019200Y-93851914D01*
X148049999Y-93617985D01*
X148050000Y-93617971D01*
X148050000Y-93382028D01*
X148049999Y-93382014D01*
X148019200Y-93148085D01*
X147958129Y-92920162D01*
X147867839Y-92702180D01*
X147867834Y-92702171D01*
X147749855Y-92497828D01*
X147749854Y-92497827D01*
X147687277Y-92416275D01*
X146851041Y-93252511D01*
X146826022Y-93192110D01*
X146754888Y-93085649D01*
X146664351Y-92995112D01*
X146557890Y-92923978D01*
X146497488Y-92898958D01*
X147333723Y-92062721D01*
X147252172Y-92000145D01*
X147252171Y-92000144D01*
X147047828Y-91882165D01*
X147047819Y-91882160D01*
X146829836Y-91791870D01*
X146829838Y-91791870D01*
X146601914Y-91730799D01*
X146367985Y-91700000D01*
X146132014Y-91700000D01*
X145898085Y-91730799D01*
X145670162Y-91791870D01*
X145452180Y-91882160D01*
X145452171Y-91882165D01*
X145247828Y-92000144D01*
X145247818Y-92000150D01*
X145166275Y-92062720D01*
X145166275Y-92062721D01*
X146002512Y-92898958D01*
X145942110Y-92923978D01*
X145835649Y-92995112D01*
X145745112Y-93085649D01*
X145673978Y-93192110D01*
X145648958Y-93252512D01*
X144812721Y-92416275D01*
X144812720Y-92416275D01*
X144750150Y-92497818D01*
X144750144Y-92497828D01*
X144632165Y-92702171D01*
X144632160Y-92702180D01*
X144541870Y-92920162D01*
X144480799Y-93148085D01*
X144450000Y-93382014D01*
X140000500Y-93382014D01*
X140000500Y-83554604D01*
X140009939Y-83507151D01*
X140014282Y-83496666D01*
X140019737Y-83483497D01*
X140050500Y-83328842D01*
X140050500Y-83171158D01*
X140050500Y-83171155D01*
X140050499Y-83171153D01*
X140024510Y-83040498D01*
X140019737Y-83016503D01*
X139983781Y-82929697D01*
X139959397Y-82870827D01*
X139959390Y-82870814D01*
X139871789Y-82739711D01*
X139871786Y-82739707D01*
X139760292Y-82628213D01*
X139760288Y-82628210D01*
X139629185Y-82540609D01*
X139629172Y-82540602D01*
X139483501Y-82480264D01*
X139483489Y-82480261D01*
X139328845Y-82449500D01*
X139328842Y-82449500D01*
X139171158Y-82449500D01*
X139171155Y-82449500D01*
X139016510Y-82480261D01*
X139016498Y-82480264D01*
X138870827Y-82540602D01*
X138870814Y-82540609D01*
X138739711Y-82628210D01*
X138739707Y-82628213D01*
X138628213Y-82739707D01*
X138628210Y-82739711D01*
X138540609Y-82870814D01*
X138540602Y-82870827D01*
X138480264Y-83016498D01*
X138480261Y-83016510D01*
X138449500Y-83171153D01*
X138449500Y-83328846D01*
X138480261Y-83483489D01*
X138480263Y-83483497D01*
X138490061Y-83507151D01*
X138499500Y-83554604D01*
X138499500Y-93387770D01*
X138479815Y-93454809D01*
X138463181Y-93475451D01*
X130225451Y-101713181D01*
X130164128Y-101746666D01*
X130137770Y-101749500D01*
X124050047Y-101749500D01*
X123983008Y-101729815D01*
X123962366Y-101713181D01*
X123847213Y-101598028D01*
X123681614Y-101477715D01*
X123675006Y-101474348D01*
X123588917Y-101430483D01*
X123538123Y-101382511D01*
X123521328Y-101314690D01*
X123543865Y-101248555D01*
X123588917Y-101209516D01*
X123681610Y-101162287D01*
X123702770Y-101146913D01*
X123847213Y-101041971D01*
X123847215Y-101041968D01*
X123847219Y-101041966D01*
X123991966Y-100897219D01*
X123991968Y-100897215D01*
X123991971Y-100897213D01*
X124062236Y-100800500D01*
X124112287Y-100731610D01*
X124205220Y-100549219D01*
X124268477Y-100354534D01*
X124300500Y-100152352D01*
X124300500Y-99947648D01*
X124296304Y-99921158D01*
X126949500Y-99921158D01*
X126949500Y-99929001D01*
X126949500Y-100078846D01*
X126980261Y-100233489D01*
X126980264Y-100233501D01*
X127040602Y-100379172D01*
X127040609Y-100379185D01*
X127128210Y-100510288D01*
X127128213Y-100510292D01*
X127239707Y-100621786D01*
X127239711Y-100621789D01*
X127370814Y-100709390D01*
X127370827Y-100709397D01*
X127516498Y-100769735D01*
X127516503Y-100769737D01*
X127671153Y-100800499D01*
X127671156Y-100800500D01*
X127671158Y-100800500D01*
X127828844Y-100800500D01*
X127828845Y-100800499D01*
X127983497Y-100769737D01*
X128129179Y-100709394D01*
X128260289Y-100621789D01*
X128371789Y-100510289D01*
X128459394Y-100379179D01*
X128519737Y-100233497D01*
X128550500Y-100078842D01*
X128550500Y-99921158D01*
X128550500Y-99921155D01*
X128550499Y-99921153D01*
X128519739Y-99766511D01*
X128519738Y-99766508D01*
X128519737Y-99766503D01*
X128509937Y-99742844D01*
X128508311Y-99734670D01*
X128505523Y-99730331D01*
X128500500Y-99695396D01*
X128500500Y-99612230D01*
X128520185Y-99545191D01*
X128536819Y-99524549D01*
X132099402Y-95961966D01*
X135832952Y-92228416D01*
X135882186Y-92154729D01*
X135915084Y-92105495D01*
X135938518Y-92048920D01*
X135971659Y-91968912D01*
X136000500Y-91823917D01*
X136000500Y-91676082D01*
X136000500Y-84304604D01*
X136009939Y-84257151D01*
X136019737Y-84233497D01*
X136050500Y-84078842D01*
X136050500Y-83921158D01*
X136050500Y-83921155D01*
X136050499Y-83921153D01*
X136035253Y-83844507D01*
X136019737Y-83766503D01*
X135969596Y-83645450D01*
X135959397Y-83620827D01*
X135959390Y-83620814D01*
X135871789Y-83489711D01*
X135871786Y-83489707D01*
X135760292Y-83378213D01*
X135760288Y-83378210D01*
X135629185Y-83290609D01*
X135629172Y-83290602D01*
X135483501Y-83230264D01*
X135483489Y-83230261D01*
X135328845Y-83199500D01*
X135328842Y-83199500D01*
X135171158Y-83199500D01*
X135171155Y-83199500D01*
X135016510Y-83230261D01*
X135016498Y-83230264D01*
X134870827Y-83290602D01*
X134870814Y-83290609D01*
X134739711Y-83378210D01*
X134739707Y-83378213D01*
X134628213Y-83489707D01*
X134628210Y-83489711D01*
X134540609Y-83620814D01*
X134540602Y-83620827D01*
X134480264Y-83766498D01*
X134480261Y-83766510D01*
X134449500Y-83921153D01*
X134449500Y-84078846D01*
X134480261Y-84233489D01*
X134480263Y-84233497D01*
X134490061Y-84257151D01*
X134499500Y-84304604D01*
X134499500Y-91387770D01*
X134479815Y-91454809D01*
X134463181Y-91475451D01*
X127167047Y-98771584D01*
X127167044Y-98771588D01*
X127157876Y-98785311D01*
X127148788Y-98798913D01*
X127119845Y-98842229D01*
X127084914Y-98894507D01*
X127028343Y-99031082D01*
X127028340Y-99031092D01*
X126999500Y-99176079D01*
X126999500Y-99695396D01*
X126998049Y-99702687D01*
X126996408Y-99722916D01*
X126994079Y-99733147D01*
X126980263Y-99766503D01*
X126949500Y-99921158D01*
X124296304Y-99921158D01*
X124271810Y-99766511D01*
X124268477Y-99745465D01*
X124205218Y-99550776D01*
X124157853Y-99457819D01*
X124112287Y-99368390D01*
X124062236Y-99299500D01*
X123991971Y-99202786D01*
X123847213Y-99058028D01*
X123681611Y-98937713D01*
X123588369Y-98890203D01*
X123537574Y-98842229D01*
X123520779Y-98774407D01*
X123543317Y-98708273D01*
X123588371Y-98669234D01*
X123681346Y-98621861D01*
X123681347Y-98621861D01*
X123725921Y-98589474D01*
X123046447Y-97910000D01*
X123052661Y-97910000D01*
X123154394Y-97882741D01*
X123245606Y-97830080D01*
X123320080Y-97755606D01*
X123372741Y-97664394D01*
X123400000Y-97562661D01*
X123400000Y-97556447D01*
X124079474Y-98235921D01*
X124111859Y-98191349D01*
X124204755Y-98009031D01*
X124267990Y-97814417D01*
X124300000Y-97612317D01*
X124300000Y-97407682D01*
X124267990Y-97205582D01*
X124204755Y-97010968D01*
X124111859Y-96828650D01*
X124079474Y-96784077D01*
X124079474Y-96784076D01*
X123400000Y-97463551D01*
X123400000Y-97457339D01*
X123372741Y-97355606D01*
X123320080Y-97264394D01*
X123245606Y-97189920D01*
X123154394Y-97137259D01*
X123052661Y-97110000D01*
X123046446Y-97110000D01*
X123725922Y-96430524D01*
X123725921Y-96430523D01*
X123681359Y-96398147D01*
X123681350Y-96398141D01*
X123587819Y-96350485D01*
X123537023Y-96302511D01*
X123520228Y-96234690D01*
X123542765Y-96168555D01*
X123587820Y-96129515D01*
X123681346Y-96081861D01*
X123681347Y-96081861D01*
X123725921Y-96049474D01*
X123046447Y-95370000D01*
X123052661Y-95370000D01*
X123154394Y-95342741D01*
X123245606Y-95290080D01*
X123320080Y-95215606D01*
X123372741Y-95124394D01*
X123400000Y-95022661D01*
X123400000Y-95016447D01*
X124079474Y-95695921D01*
X124111859Y-95651349D01*
X124204755Y-95469031D01*
X124267990Y-95274417D01*
X124300000Y-95072317D01*
X124300000Y-94867682D01*
X124267990Y-94665582D01*
X124204755Y-94470968D01*
X124111859Y-94288650D01*
X124079474Y-94244077D01*
X124079474Y-94244076D01*
X123400000Y-94923551D01*
X123400000Y-94917339D01*
X123372741Y-94815606D01*
X123320080Y-94724394D01*
X123245606Y-94649920D01*
X123154394Y-94597259D01*
X123052661Y-94570000D01*
X123046446Y-94570000D01*
X123725922Y-93890524D01*
X123725921Y-93890523D01*
X123681359Y-93858147D01*
X123681350Y-93858141D01*
X123499031Y-93765244D01*
X123304417Y-93702009D01*
X123102317Y-93670000D01*
X122897683Y-93670000D01*
X122695582Y-93702009D01*
X122500968Y-93765244D01*
X122318644Y-93858143D01*
X122274077Y-93890523D01*
X122274077Y-93890524D01*
X122953554Y-94570000D01*
X122947339Y-94570000D01*
X122845606Y-94597259D01*
X122754394Y-94649920D01*
X122679920Y-94724394D01*
X122627259Y-94815606D01*
X122600000Y-94917339D01*
X122600000Y-94923553D01*
X121920524Y-94244077D01*
X121920523Y-94244077D01*
X121888143Y-94288644D01*
X121795244Y-94470968D01*
X121732009Y-94665582D01*
X121700000Y-94867682D01*
X121700000Y-95072317D01*
X121732009Y-95274417D01*
X121795244Y-95469031D01*
X121888141Y-95651350D01*
X121888147Y-95651359D01*
X121920523Y-95695921D01*
X121920524Y-95695922D01*
X122600000Y-95016446D01*
X122600000Y-95022661D01*
X122627259Y-95124394D01*
X122679920Y-95215606D01*
X122754394Y-95290080D01*
X122845606Y-95342741D01*
X122947339Y-95370000D01*
X122953553Y-95370000D01*
X122274076Y-96049474D01*
X122318650Y-96081859D01*
X122412180Y-96129515D01*
X122462976Y-96177489D01*
X122479771Y-96245310D01*
X122457234Y-96311445D01*
X122412180Y-96350485D01*
X122318644Y-96398143D01*
X122274077Y-96430523D01*
X122274077Y-96430524D01*
X122953554Y-97110000D01*
X122947339Y-97110000D01*
X122845606Y-97137259D01*
X122754394Y-97189920D01*
X122679920Y-97264394D01*
X122627259Y-97355606D01*
X122600000Y-97457339D01*
X122600000Y-97463553D01*
X121920524Y-96784077D01*
X121920523Y-96784077D01*
X121888143Y-96828644D01*
X121795244Y-97010968D01*
X121732009Y-97205582D01*
X121700000Y-97407682D01*
X121700000Y-97612317D01*
X121732009Y-97814417D01*
X121795244Y-98009031D01*
X121888141Y-98191350D01*
X121888147Y-98191359D01*
X121920523Y-98235921D01*
X121920524Y-98235922D01*
X122600000Y-97556446D01*
X122600000Y-97562661D01*
X122627259Y-97664394D01*
X122679920Y-97755606D01*
X122754394Y-97830080D01*
X122845606Y-97882741D01*
X122947339Y-97910000D01*
X122953553Y-97910000D01*
X122274076Y-98589474D01*
X122274077Y-98589474D01*
X122318652Y-98621861D01*
X122411628Y-98669234D01*
X122462425Y-98717208D01*
X122479220Y-98785029D01*
X122456683Y-98851164D01*
X122411630Y-98890203D01*
X122318388Y-98937713D01*
X122152786Y-99058028D01*
X122008032Y-99202782D01*
X122008028Y-99202787D01*
X121974900Y-99248385D01*
X121919571Y-99291051D01*
X121874582Y-99299500D01*
X121162229Y-99299500D01*
X121095190Y-99279815D01*
X121074548Y-99263181D01*
X119786819Y-97975451D01*
X119753334Y-97914128D01*
X119750500Y-97887770D01*
X119750500Y-93612229D01*
X119770185Y-93545190D01*
X119786819Y-93524548D01*
X124524548Y-88786819D01*
X124585871Y-88753334D01*
X124612229Y-88750500D01*
X130323920Y-88750500D01*
X130421462Y-88731096D01*
X130468913Y-88721658D01*
X130605495Y-88665084D01*
X130654729Y-88632186D01*
X130728416Y-88582952D01*
X132815295Y-86496070D01*
X132855519Y-86469193D01*
X132879179Y-86459394D01*
X133010289Y-86371789D01*
X133121789Y-86260289D01*
X133209394Y-86129179D01*
X133269737Y-85983497D01*
X133300500Y-85828842D01*
X133300500Y-85671158D01*
X133300500Y-85671155D01*
X133300499Y-85671153D01*
X133269738Y-85516510D01*
X133269737Y-85516503D01*
X133235855Y-85434704D01*
X133209397Y-85370827D01*
X133209390Y-85370814D01*
X133121789Y-85239711D01*
X133121786Y-85239707D01*
X133010292Y-85128213D01*
X133010288Y-85128210D01*
X132879185Y-85040609D01*
X132879172Y-85040602D01*
X132733501Y-84980264D01*
X132733489Y-84980261D01*
X132578845Y-84949500D01*
X132578842Y-84949500D01*
X132421158Y-84949500D01*
X132421155Y-84949500D01*
X132266510Y-84980261D01*
X132266498Y-84980264D01*
X132120827Y-85040602D01*
X132120814Y-85040609D01*
X131989711Y-85128210D01*
X131989707Y-85128213D01*
X131878213Y-85239707D01*
X131878207Y-85239715D01*
X131790607Y-85370818D01*
X131790605Y-85370822D01*
X131780805Y-85394480D01*
X131753927Y-85434704D01*
X129975451Y-87213181D01*
X129914128Y-87246666D01*
X129887770Y-87249500D01*
X124176080Y-87249500D01*
X124031092Y-87278340D01*
X124031082Y-87278343D01*
X123894511Y-87334912D01*
X123894498Y-87334919D01*
X123771584Y-87417048D01*
X123771580Y-87417051D01*
X118417052Y-92771578D01*
X118417049Y-92771581D01*
X118377682Y-92830498D01*
X118377683Y-92830499D01*
X118334914Y-92894508D01*
X118278343Y-93031082D01*
X118278340Y-93031092D01*
X118249500Y-93176079D01*
X118249500Y-93176082D01*
X118249500Y-98323918D01*
X118249500Y-98323920D01*
X118249499Y-98323920D01*
X115627446Y-98323920D01*
X116832951Y-97118416D01*
X116915084Y-96995495D01*
X116971658Y-96858913D01*
X116986544Y-96784076D01*
X117000500Y-96713920D01*
X117000500Y-67176079D01*
X116971659Y-67031092D01*
X116971658Y-67031091D01*
X116971658Y-67031087D01*
X116958380Y-66999031D01*
X116915087Y-66894511D01*
X116915080Y-66894498D01*
X116832952Y-66771585D01*
X116806973Y-66745606D01*
X116728416Y-66667049D01*
X116161368Y-66100000D01*
X115978421Y-65917052D01*
X115978414Y-65917046D01*
X115904729Y-65867812D01*
X115904729Y-65867813D01*
X115855491Y-65834913D01*
X115718917Y-65778343D01*
X115718907Y-65778340D01*
X115573920Y-65749500D01*
X115573918Y-65749500D01*
X113965418Y-65749500D01*
X113898379Y-65729815D01*
X113865100Y-65698385D01*
X113831971Y-65652787D01*
X113831967Y-65652782D01*
X113687213Y-65508028D01*
X113521614Y-65387715D01*
X113491668Y-65372457D01*
X113428917Y-65340483D01*
X113378123Y-65292511D01*
X113361328Y-65224690D01*
X113383865Y-65158555D01*
X113428917Y-65119516D01*
X113521610Y-65072287D01*
X113566774Y-65039474D01*
X113687213Y-64951971D01*
X113687215Y-64951968D01*
X113687219Y-64951966D01*
X113831966Y-64807219D01*
X113831968Y-64807215D01*
X113831971Y-64807213D01*
X113910227Y-64699501D01*
X113952287Y-64641610D01*
X114045220Y-64459219D01*
X114108477Y-64264534D01*
X114140500Y-64062352D01*
X114140500Y-63857648D01*
X114132257Y-63805606D01*
X114108477Y-63655465D01*
X114065614Y-63523548D01*
X114045220Y-63460781D01*
X114045218Y-63460778D01*
X114045218Y-63460776D01*
X114011503Y-63394607D01*
X113952287Y-63278390D01*
X113920092Y-63234077D01*
X113831971Y-63112786D01*
X113687213Y-62968028D01*
X113521614Y-62847715D01*
X113515006Y-62844348D01*
X113428917Y-62800483D01*
X113378123Y-62752511D01*
X113361328Y-62684690D01*
X113383865Y-62618555D01*
X113428917Y-62579516D01*
X113521610Y-62532287D01*
X113566774Y-62499474D01*
X113687213Y-62411971D01*
X113687215Y-62411968D01*
X113687219Y-62411966D01*
X113831966Y-62267219D01*
X113831968Y-62267215D01*
X113831971Y-62267213D01*
X113884732Y-62194590D01*
X113952287Y-62101610D01*
X114045220Y-61919219D01*
X114108477Y-61724534D01*
X114140500Y-61522352D01*
X114140500Y-61317648D01*
X114128281Y-61240500D01*
X114108477Y-61115465D01*
X114051552Y-60940269D01*
X114045220Y-60920781D01*
X114045218Y-60920778D01*
X114045218Y-60920776D01*
X114011503Y-60854607D01*
X113952287Y-60738390D01*
X113920092Y-60694077D01*
X113831971Y-60572786D01*
X113687213Y-60428028D01*
X113521613Y-60307715D01*
X113521612Y-60307714D01*
X113521610Y-60307713D01*
X113464653Y-60278691D01*
X113339223Y-60214781D01*
X113144534Y-60151522D01*
X112969995Y-60123878D01*
X112942352Y-60119500D01*
X112737648Y-60119500D01*
X112713329Y-60123351D01*
X112535465Y-60151522D01*
X112340776Y-60214781D01*
X112158386Y-60307715D01*
X111992786Y-60428028D01*
X111848028Y-60572786D01*
X111727715Y-60738386D01*
X111634781Y-60920776D01*
X111571522Y-61115465D01*
X111539500Y-61317648D01*
X111539500Y-61522351D01*
X111571522Y-61724534D01*
X111634781Y-61919223D01*
X111698691Y-62044653D01*
X111727585Y-62101359D01*
X111727715Y-62101613D01*
X111848028Y-62267213D01*
X111992786Y-62411971D01*
X112113226Y-62499474D01*
X112158390Y-62532287D01*
X112249840Y-62578883D01*
X112251080Y-62579515D01*
X112301876Y-62627490D01*
X112318671Y-62695311D01*
X112296134Y-62761446D01*
X112251080Y-62800485D01*
X112158386Y-62847715D01*
X111992786Y-62968028D01*
X111848028Y-63112786D01*
X111727715Y-63278386D01*
X111634781Y-63460776D01*
X111571522Y-63655465D01*
X111539500Y-63857648D01*
X111539500Y-64062351D01*
X111571522Y-64264534D01*
X111634781Y-64459223D01*
X111655421Y-64499730D01*
X111727585Y-64641359D01*
X111727715Y-64641613D01*
X111848028Y-64807213D01*
X111992786Y-64951971D01*
X112113226Y-65039474D01*
X112158390Y-65072287D01*
X112249840Y-65118883D01*
X112251080Y-65119515D01*
X112301876Y-65167490D01*
X112318671Y-65235311D01*
X112296134Y-65301446D01*
X112251080Y-65340485D01*
X112158386Y-65387715D01*
X111992786Y-65508028D01*
X111848028Y-65652786D01*
X111727715Y-65818386D01*
X111634781Y-66000776D01*
X111571522Y-66195465D01*
X111539500Y-66397648D01*
X111539500Y-66602351D01*
X111571522Y-66804534D01*
X111634781Y-66999223D01*
X111698691Y-67124653D01*
X111727585Y-67181359D01*
X111727715Y-67181613D01*
X111848028Y-67347213D01*
X111992786Y-67491971D01*
X112113226Y-67579474D01*
X112158390Y-67612287D01*
X112249840Y-67658883D01*
X112251080Y-67659515D01*
X112301876Y-67707490D01*
X112318671Y-67775311D01*
X112296134Y-67841446D01*
X112251080Y-67880485D01*
X112158386Y-67927715D01*
X111992786Y-68048028D01*
X111848028Y-68192786D01*
X111727715Y-68358386D01*
X111634781Y-68540776D01*
X111571522Y-68735465D01*
X111539500Y-68937648D01*
X111539500Y-69142351D01*
X111571522Y-69344534D01*
X111634781Y-69539223D01*
X111727715Y-69721613D01*
X111848028Y-69887213D01*
X111992786Y-70031971D01*
X112147749Y-70144556D01*
X112158390Y-70152287D01*
X112249840Y-70198883D01*
X112251080Y-70199515D01*
X112301876Y-70247490D01*
X112318671Y-70315311D01*
X112296134Y-70381446D01*
X112251080Y-70420485D01*
X112158386Y-70467715D01*
X111992786Y-70588028D01*
X111848028Y-70732786D01*
X111727715Y-70898386D01*
X111634781Y-71080776D01*
X111571522Y-71275465D01*
X111546484Y-71433554D01*
X111539500Y-71477648D01*
X111539500Y-71682352D01*
X111543878Y-71709995D01*
X111571522Y-71884534D01*
X111634781Y-72079223D01*
X111727715Y-72261613D01*
X111848028Y-72427213D01*
X111992786Y-72571971D01*
X112147679Y-72684505D01*
X112158390Y-72692287D01*
X112249840Y-72738883D01*
X112251080Y-72739515D01*
X112301876Y-72787490D01*
X112318671Y-72855311D01*
X112296134Y-72921446D01*
X112251080Y-72960485D01*
X112158386Y-73007715D01*
X111992786Y-73128028D01*
X111848028Y-73272786D01*
X111727715Y-73438386D01*
X111634781Y-73620776D01*
X111571522Y-73815465D01*
X111539500Y-74017648D01*
X111539500Y-74222351D01*
X111571522Y-74424534D01*
X111634781Y-74619223D01*
X111727715Y-74801613D01*
X111848028Y-74967213D01*
X111992786Y-75111971D01*
X112145222Y-75222720D01*
X112158390Y-75232287D01*
X112249840Y-75278883D01*
X112251080Y-75279515D01*
X112301876Y-75327490D01*
X112318671Y-75395311D01*
X112296134Y-75461446D01*
X112251080Y-75500485D01*
X112158386Y-75547715D01*
X111992786Y-75668028D01*
X111848028Y-75812786D01*
X111727715Y-75978386D01*
X111634781Y-76160776D01*
X111571522Y-76355465D01*
X111539500Y-76557648D01*
X111539500Y-76762351D01*
X111571522Y-76964534D01*
X111634781Y-77159223D01*
X111727715Y-77341613D01*
X111848028Y-77507213D01*
X111992786Y-77651971D01*
X112147749Y-77764556D01*
X112158390Y-77772287D01*
X112249840Y-77818883D01*
X112251080Y-77819515D01*
X112301876Y-77867490D01*
X112318671Y-77935311D01*
X112296134Y-78001446D01*
X112251080Y-78040485D01*
X112158386Y-78087715D01*
X111992786Y-78208028D01*
X111848032Y-78352782D01*
X111848028Y-78352787D01*
X111814900Y-78398385D01*
X111759571Y-78441051D01*
X111714582Y-78449500D01*
X110562229Y-78449500D01*
X110495190Y-78429815D01*
X110474548Y-78413181D01*
X109786819Y-77725451D01*
X109753334Y-77664128D01*
X109750500Y-77637770D01*
X109750500Y-55020013D01*
X112580000Y-55020013D01*
X112580000Y-55370000D01*
X113564314Y-55370000D01*
X113559920Y-55374394D01*
X113507259Y-55465606D01*
X113480000Y-55567339D01*
X113480000Y-55672661D01*
X113507259Y-55774394D01*
X113559920Y-55865606D01*
X113564314Y-55870000D01*
X112580001Y-55870000D01*
X112580001Y-56219986D01*
X112590494Y-56322697D01*
X112645641Y-56489119D01*
X112645643Y-56489124D01*
X112737684Y-56638345D01*
X112861654Y-56762315D01*
X113010875Y-56854356D01*
X113010880Y-56854358D01*
X113177302Y-56909505D01*
X113177309Y-56909506D01*
X113280019Y-56919999D01*
X113629999Y-56919999D01*
X113630000Y-56919998D01*
X113630000Y-55935686D01*
X113634394Y-55940080D01*
X113725606Y-55992741D01*
X113827339Y-56020000D01*
X113932661Y-56020000D01*
X114034394Y-55992741D01*
X114125606Y-55940080D01*
X114130000Y-55935686D01*
X114130000Y-56919999D01*
X114479972Y-56919999D01*
X114479986Y-56919998D01*
X114582697Y-56909505D01*
X114749119Y-56854358D01*
X114749124Y-56854356D01*
X114898345Y-56762315D01*
X115022315Y-56638345D01*
X115114356Y-56489124D01*
X115114359Y-56489117D01*
X115141592Y-56406932D01*
X115181364Y-56349487D01*
X115245879Y-56322663D01*
X115314655Y-56334977D01*
X115359617Y-56373050D01*
X115428034Y-56467219D01*
X115572786Y-56611971D01*
X115693226Y-56699474D01*
X115738390Y-56732287D01*
X115900425Y-56814848D01*
X115925122Y-56827432D01*
X115924813Y-56828036D01*
X115960536Y-56851904D01*
X116778939Y-57670306D01*
X117587049Y-58478416D01*
X117691584Y-58582951D01*
X117691587Y-58582953D01*
X117691588Y-58582954D01*
X117814494Y-58665077D01*
X117814496Y-58665078D01*
X117814505Y-58665084D01*
X117846557Y-58678360D01*
X117846558Y-58678361D01*
X117846559Y-58678361D01*
X117951088Y-58721659D01*
X118067241Y-58744763D01*
X118086468Y-58748587D01*
X118096081Y-58750500D01*
X118096082Y-58750500D01*
X118096083Y-58750500D01*
X118243918Y-58750500D01*
X124887770Y-58750500D01*
X124954809Y-58770185D01*
X124975451Y-58786819D01*
X126963181Y-60774549D01*
X126996666Y-60835872D01*
X126999500Y-60862230D01*
X126999500Y-72137770D01*
X126979815Y-72204809D01*
X126963181Y-72225451D01*
X125855451Y-73333181D01*
X125794128Y-73366666D01*
X125767770Y-73369500D01*
X124125418Y-73369500D01*
X124058379Y-73349815D01*
X124025100Y-73318385D01*
X123991971Y-73272787D01*
X123991967Y-73272782D01*
X123847213Y-73128028D01*
X123681614Y-73007715D01*
X123624111Y-72978416D01*
X123588917Y-72960483D01*
X123538123Y-72912511D01*
X123521328Y-72844690D01*
X123543865Y-72778555D01*
X123588917Y-72739516D01*
X123681610Y-72692287D01*
X123760575Y-72634916D01*
X123847213Y-72571971D01*
X123847215Y-72571968D01*
X123847219Y-72571966D01*
X123991966Y-72427219D01*
X123991968Y-72427215D01*
X123991971Y-72427213D01*
X124044732Y-72354590D01*
X124112287Y-72261610D01*
X124205220Y-72079219D01*
X124268477Y-71884534D01*
X124300500Y-71682352D01*
X124300500Y-71477648D01*
X124293256Y-71431914D01*
X124268477Y-71275465D01*
X124205218Y-71080776D01*
X124171503Y-71014607D01*
X124112287Y-70898390D01*
X124104556Y-70887749D01*
X123991971Y-70732786D01*
X123847213Y-70588028D01*
X123681614Y-70467715D01*
X123656618Y-70454979D01*
X123588917Y-70420483D01*
X123538123Y-70372511D01*
X123521328Y-70304690D01*
X123543865Y-70238555D01*
X123588917Y-70199516D01*
X123681610Y-70152287D01*
X123781477Y-70079730D01*
X123847213Y-70031971D01*
X123847215Y-70031968D01*
X123847219Y-70031966D01*
X123991966Y-69887219D01*
X123991968Y-69887215D01*
X123991971Y-69887213D01*
X124070227Y-69779501D01*
X124112287Y-69721610D01*
X124205220Y-69539219D01*
X124268477Y-69344534D01*
X124300500Y-69142352D01*
X124300500Y-68937648D01*
X124268477Y-68735465D01*
X124205218Y-68540776D01*
X124142767Y-68418211D01*
X124112287Y-68358390D01*
X124070227Y-68300499D01*
X123991971Y-68192786D01*
X123847213Y-68048028D01*
X123681611Y-67927713D01*
X123588369Y-67880203D01*
X123537574Y-67832229D01*
X123520779Y-67764407D01*
X123543317Y-67698273D01*
X123588371Y-67659234D01*
X123681346Y-67611861D01*
X123681347Y-67611861D01*
X123725921Y-67579474D01*
X123046447Y-66900000D01*
X123052661Y-66900000D01*
X123154394Y-66872741D01*
X123245606Y-66820080D01*
X123320080Y-66745606D01*
X123372741Y-66654394D01*
X123400000Y-66552661D01*
X123400000Y-66546448D01*
X124079474Y-67225922D01*
X124079474Y-67225921D01*
X124111859Y-67181349D01*
X124204755Y-66999031D01*
X124267990Y-66804417D01*
X124300000Y-66602317D01*
X124300000Y-66397682D01*
X124267990Y-66195582D01*
X124204755Y-66000968D01*
X124111859Y-65818650D01*
X124079474Y-65774077D01*
X124079474Y-65774076D01*
X123400000Y-66453551D01*
X123400000Y-66447339D01*
X123372741Y-66345606D01*
X123320080Y-66254394D01*
X123245606Y-66179920D01*
X123154394Y-66127259D01*
X123052661Y-66100000D01*
X123046446Y-66100000D01*
X123725922Y-65420524D01*
X123725921Y-65420523D01*
X123681359Y-65388147D01*
X123681350Y-65388141D01*
X123587819Y-65340485D01*
X123537023Y-65292511D01*
X123520228Y-65224690D01*
X123542765Y-65158555D01*
X123587820Y-65119515D01*
X123681346Y-65071861D01*
X123681347Y-65071861D01*
X123725921Y-65039474D01*
X123046447Y-64360000D01*
X123052661Y-64360000D01*
X123154394Y-64332741D01*
X123245606Y-64280080D01*
X123320080Y-64205606D01*
X123372741Y-64114394D01*
X123400000Y-64012661D01*
X123400000Y-64006448D01*
X124079474Y-64685922D01*
X124079474Y-64685921D01*
X124111859Y-64641349D01*
X124204755Y-64459031D01*
X124267990Y-64264417D01*
X124300000Y-64062317D01*
X124300000Y-63857682D01*
X124267990Y-63655582D01*
X124204755Y-63460968D01*
X124111859Y-63278650D01*
X124079474Y-63234077D01*
X124079474Y-63234076D01*
X123400000Y-63913551D01*
X123400000Y-63907339D01*
X123372741Y-63805606D01*
X123320080Y-63714394D01*
X123245606Y-63639920D01*
X123154394Y-63587259D01*
X123052661Y-63560000D01*
X123046446Y-63560000D01*
X123725922Y-62880524D01*
X123725921Y-62880523D01*
X123681359Y-62848147D01*
X123681350Y-62848141D01*
X123587819Y-62800485D01*
X123537023Y-62752511D01*
X123520228Y-62684690D01*
X123542765Y-62618555D01*
X123587820Y-62579515D01*
X123681346Y-62531861D01*
X123681347Y-62531861D01*
X123725921Y-62499474D01*
X123046447Y-61820000D01*
X123052661Y-61820000D01*
X123154394Y-61792741D01*
X123245606Y-61740080D01*
X123320080Y-61665606D01*
X123372741Y-61574394D01*
X123400000Y-61472661D01*
X123400000Y-61466448D01*
X124079474Y-62145922D01*
X124079474Y-62145921D01*
X124111859Y-62101349D01*
X124204755Y-61919031D01*
X124267990Y-61724417D01*
X124300000Y-61522317D01*
X124300000Y-61317682D01*
X124267990Y-61115582D01*
X124204755Y-60920968D01*
X124111859Y-60738650D01*
X124079474Y-60694077D01*
X124079474Y-60694076D01*
X123400000Y-61373551D01*
X123400000Y-61367339D01*
X123372741Y-61265606D01*
X123320080Y-61174394D01*
X123245606Y-61099920D01*
X123154394Y-61047259D01*
X123052661Y-61020000D01*
X123046446Y-61020000D01*
X123725922Y-60340524D01*
X123725921Y-60340523D01*
X123681359Y-60308147D01*
X123681350Y-60308141D01*
X123499031Y-60215244D01*
X123304417Y-60152009D01*
X123102317Y-60120000D01*
X122897683Y-60120000D01*
X122695582Y-60152009D01*
X122500968Y-60215244D01*
X122318644Y-60308143D01*
X122274077Y-60340523D01*
X122274077Y-60340524D01*
X122953554Y-61020000D01*
X122947339Y-61020000D01*
X122845606Y-61047259D01*
X122754394Y-61099920D01*
X122679920Y-61174394D01*
X122627259Y-61265606D01*
X122600000Y-61367339D01*
X122600000Y-61373553D01*
X121920524Y-60694077D01*
X121920523Y-60694077D01*
X121888143Y-60738644D01*
X121795244Y-60920968D01*
X121732009Y-61115582D01*
X121700000Y-61317682D01*
X121700000Y-61522317D01*
X121732009Y-61724417D01*
X121795244Y-61919031D01*
X121888141Y-62101350D01*
X121888147Y-62101359D01*
X121920523Y-62145921D01*
X121920524Y-62145922D01*
X122600000Y-61466446D01*
X122600000Y-61472661D01*
X122627259Y-61574394D01*
X122679920Y-61665606D01*
X122754394Y-61740080D01*
X122845606Y-61792741D01*
X122947339Y-61820000D01*
X122953553Y-61820000D01*
X122274076Y-62499474D01*
X122318650Y-62531859D01*
X122412180Y-62579515D01*
X122462976Y-62627489D01*
X122479771Y-62695310D01*
X122457234Y-62761445D01*
X122412180Y-62800485D01*
X122318644Y-62848143D01*
X122274077Y-62880523D01*
X122274077Y-62880524D01*
X122953554Y-63560000D01*
X122947339Y-63560000D01*
X122845606Y-63587259D01*
X122754394Y-63639920D01*
X122679920Y-63714394D01*
X122627259Y-63805606D01*
X122600000Y-63907339D01*
X122600000Y-63913553D01*
X121920524Y-63234077D01*
X121920523Y-63234077D01*
X121888143Y-63278644D01*
X121795244Y-63460968D01*
X121732009Y-63655582D01*
X121700000Y-63857682D01*
X121700000Y-64062317D01*
X121732009Y-64264417D01*
X121795244Y-64459031D01*
X121888141Y-64641350D01*
X121888147Y-64641359D01*
X121920523Y-64685921D01*
X121920524Y-64685922D01*
X122600000Y-64006446D01*
X122600000Y-64012661D01*
X122627259Y-64114394D01*
X122679920Y-64205606D01*
X122754394Y-64280080D01*
X122845606Y-64332741D01*
X122947339Y-64360000D01*
X122953553Y-64360000D01*
X122274076Y-65039474D01*
X122318650Y-65071859D01*
X122412180Y-65119515D01*
X122462976Y-65167489D01*
X122479771Y-65235310D01*
X122457234Y-65301445D01*
X122412180Y-65340485D01*
X122318644Y-65388143D01*
X122274077Y-65420523D01*
X122274077Y-65420524D01*
X122953554Y-66100000D01*
X122947339Y-66100000D01*
X122845606Y-66127259D01*
X122754394Y-66179920D01*
X122679920Y-66254394D01*
X122627259Y-66345606D01*
X122600000Y-66447339D01*
X122600000Y-66453553D01*
X121920524Y-65774077D01*
X121920523Y-65774077D01*
X121888143Y-65818644D01*
X121795244Y-66000968D01*
X121732009Y-66195582D01*
X121700000Y-66397682D01*
X121700000Y-66602317D01*
X121732009Y-66804417D01*
X121795244Y-66999031D01*
X121888141Y-67181350D01*
X121888147Y-67181359D01*
X121920523Y-67225921D01*
X121920524Y-67225922D01*
X122600000Y-66546446D01*
X122600000Y-66552661D01*
X122627259Y-66654394D01*
X122679920Y-66745606D01*
X122754394Y-66820080D01*
X122845606Y-66872741D01*
X122947339Y-66900000D01*
X122953553Y-66900000D01*
X122274076Y-67579474D01*
X122318652Y-67611861D01*
X122411628Y-67659234D01*
X122462425Y-67707208D01*
X122479220Y-67775029D01*
X122456683Y-67841164D01*
X122411630Y-67880203D01*
X122318388Y-67927713D01*
X122152786Y-68048028D01*
X122008028Y-68192786D01*
X121887715Y-68358386D01*
X121794781Y-68540776D01*
X121731522Y-68735465D01*
X121699500Y-68937648D01*
X121699500Y-69142351D01*
X121708318Y-69198026D01*
X121699363Y-69267320D01*
X121673526Y-69305105D01*
X118417052Y-72561578D01*
X118417049Y-72561581D01*
X118368049Y-72634915D01*
X118368050Y-72634916D01*
X118334914Y-72684508D01*
X118278343Y-72821082D01*
X118278340Y-72821092D01*
X118249500Y-72966079D01*
X118249500Y-72966082D01*
X118249500Y-81073918D01*
X118249500Y-81073920D01*
X118249499Y-81073920D01*
X118278340Y-81218907D01*
X118278343Y-81218917D01*
X118334913Y-81355490D01*
X118334914Y-81355491D01*
X118334916Y-81355495D01*
X118356625Y-81387984D01*
X118356626Y-81387986D01*
X118417051Y-81478420D01*
X118417052Y-81478421D01*
X121771584Y-84832952D01*
X121771586Y-84832954D01*
X121801058Y-84852645D01*
X121845270Y-84882186D01*
X121894505Y-84915084D01*
X121894506Y-84915084D01*
X121894507Y-84915085D01*
X121894509Y-84915086D01*
X122031082Y-84971656D01*
X122031087Y-84971658D01*
X122031091Y-84971658D01*
X122031092Y-84971659D01*
X122176079Y-85000500D01*
X122176082Y-85000500D01*
X129323920Y-85000500D01*
X129425664Y-84980261D01*
X129468913Y-84971658D01*
X129605495Y-84915084D01*
X129654729Y-84882186D01*
X129654734Y-84882183D01*
X129679071Y-84865921D01*
X129728416Y-84832952D01*
X132534549Y-82026819D01*
X132595872Y-81993334D01*
X132622230Y-81990500D01*
X144325501Y-81990500D01*
X144392540Y-82010185D01*
X144438295Y-82062989D01*
X144449501Y-82114500D01*
X144449501Y-82340018D01*
X144460000Y-82442796D01*
X144460001Y-82442799D01*
X144515185Y-82609331D01*
X144515187Y-82609336D01*
X144550069Y-82665888D01*
X144607288Y-82758656D01*
X144731344Y-82882712D01*
X144880666Y-82974814D01*
X145047203Y-83029999D01*
X145149991Y-83040500D01*
X147350008Y-83040499D01*
X147452797Y-83029999D01*
X147619334Y-82974814D01*
X147768656Y-82882712D01*
X147892712Y-82758656D01*
X147984814Y-82609334D01*
X148039999Y-82442797D01*
X148050500Y-82340009D01*
X148050499Y-80139992D01*
X148039999Y-80037203D01*
X147984814Y-79870666D01*
X147892712Y-79721344D01*
X147768656Y-79597288D01*
X147619334Y-79505186D01*
X147452797Y-79450001D01*
X147452795Y-79450000D01*
X147350010Y-79439500D01*
X145149998Y-79439500D01*
X145149981Y-79439501D01*
X145047203Y-79450000D01*
X145047200Y-79450001D01*
X144880668Y-79505185D01*
X144880663Y-79505187D01*
X144731342Y-79597289D01*
X144607289Y-79721342D01*
X144515187Y-79870663D01*
X144515185Y-79870668D01*
X144492377Y-79939500D01*
X144460001Y-80037203D01*
X144460001Y-80037204D01*
X144460000Y-80037204D01*
X144449500Y-80139983D01*
X144449500Y-80365500D01*
X144429815Y-80432539D01*
X144377011Y-80478294D01*
X144325500Y-80489500D01*
X132186080Y-80489500D01*
X132041092Y-80518340D01*
X132041086Y-80518342D01*
X131904508Y-80574914D01*
X131904496Y-80574921D01*
X131855269Y-80607813D01*
X131781588Y-80657044D01*
X131781580Y-80657050D01*
X128975451Y-83463181D01*
X128914128Y-83496666D01*
X128887770Y-83499500D01*
X122612230Y-83499500D01*
X122545191Y-83479815D01*
X122524549Y-83463181D01*
X119786819Y-80725451D01*
X119753334Y-80664128D01*
X119750500Y-80637770D01*
X119750500Y-73402228D01*
X119770185Y-73335189D01*
X119786814Y-73314552D01*
X121489067Y-71612298D01*
X121550388Y-71578815D01*
X121620080Y-71583799D01*
X121676013Y-71625671D01*
X121699219Y-71680582D01*
X121731523Y-71884535D01*
X121794781Y-72079223D01*
X121887715Y-72261613D01*
X122008028Y-72427213D01*
X122152786Y-72571971D01*
X122307679Y-72684505D01*
X122318390Y-72692287D01*
X122409840Y-72738883D01*
X122411080Y-72739515D01*
X122461876Y-72787490D01*
X122478671Y-72855311D01*
X122456134Y-72921446D01*
X122411080Y-72960485D01*
X122318386Y-73007715D01*
X122152786Y-73128028D01*
X122008028Y-73272786D01*
X121887715Y-73438386D01*
X121794781Y-73620776D01*
X121731522Y-73815465D01*
X121699500Y-74017648D01*
X121699500Y-74222351D01*
X121731522Y-74424534D01*
X121794781Y-74619223D01*
X121887715Y-74801613D01*
X122008028Y-74967213D01*
X122152786Y-75111971D01*
X122305222Y-75222720D01*
X122318390Y-75232287D01*
X122409840Y-75278883D01*
X122411080Y-75279515D01*
X122461876Y-75327490D01*
X122478671Y-75395311D01*
X122456134Y-75461446D01*
X122411080Y-75500485D01*
X122318386Y-75547715D01*
X122152786Y-75668028D01*
X122008028Y-75812786D01*
X121887715Y-75978386D01*
X121794781Y-76160776D01*
X121731522Y-76355465D01*
X121699500Y-76557648D01*
X121699500Y-76762351D01*
X121731522Y-76964534D01*
X121794781Y-77159223D01*
X121887715Y-77341613D01*
X122008028Y-77507213D01*
X122008034Y-77507219D01*
X122152781Y-77651966D01*
X122246452Y-77720021D01*
X122289117Y-77775350D01*
X122295096Y-77844963D01*
X122262491Y-77906759D01*
X122212571Y-77938045D01*
X122130666Y-77965186D01*
X122130663Y-77965187D01*
X121981342Y-78057289D01*
X121857289Y-78181342D01*
X121765187Y-78330663D01*
X121765185Y-78330668D01*
X121737843Y-78413181D01*
X121710001Y-78497203D01*
X121710001Y-78497204D01*
X121710000Y-78497204D01*
X121699500Y-78599983D01*
X121699500Y-79800001D01*
X121699501Y-79800018D01*
X121710000Y-79902796D01*
X121710001Y-79902799D01*
X121754538Y-80037200D01*
X121765186Y-80069334D01*
X121857288Y-80218656D01*
X121981344Y-80342712D01*
X122130666Y-80434814D01*
X122297203Y-80489999D01*
X122399991Y-80500500D01*
X123600008Y-80500499D01*
X123702797Y-80489999D01*
X123869334Y-80434814D01*
X124018656Y-80342712D01*
X124142712Y-80218656D01*
X124234814Y-80069334D01*
X124245461Y-80037204D01*
X124246028Y-80035494D01*
X124285801Y-79978050D01*
X124350317Y-79951228D01*
X124363733Y-79950500D01*
X125623920Y-79950500D01*
X125721462Y-79931096D01*
X125768913Y-79921658D01*
X125905495Y-79865084D01*
X125954729Y-79832186D01*
X126028416Y-79782952D01*
X129769372Y-76041995D01*
X144449500Y-76041995D01*
X144449500Y-76278004D01*
X144449501Y-76278020D01*
X144480306Y-76512010D01*
X144541394Y-76739993D01*
X144631714Y-76958045D01*
X144631719Y-76958056D01*
X144698863Y-77074351D01*
X144749727Y-77162450D01*
X144749729Y-77162453D01*
X144749730Y-77162454D01*
X144893406Y-77349697D01*
X144893412Y-77349704D01*
X145060295Y-77516587D01*
X145060301Y-77516592D01*
X145247550Y-77660273D01*
X145351035Y-77720020D01*
X145451943Y-77778280D01*
X145451948Y-77778282D01*
X145451951Y-77778284D01*
X145670007Y-77868606D01*
X145897986Y-77929693D01*
X146131989Y-77960500D01*
X146131996Y-77960500D01*
X146368004Y-77960500D01*
X146368011Y-77960500D01*
X146602014Y-77929693D01*
X146829993Y-77868606D01*
X147048049Y-77778284D01*
X147252450Y-77660273D01*
X147439699Y-77516592D01*
X147606592Y-77349699D01*
X147750273Y-77162450D01*
X147868284Y-76958049D01*
X147958606Y-76739993D01*
X148019693Y-76512014D01*
X148050500Y-76278011D01*
X148050500Y-76041989D01*
X148019693Y-75807986D01*
X147958606Y-75580007D01*
X147868284Y-75361951D01*
X147868283Y-75361949D01*
X147868280Y-75361943D01*
X147826118Y-75288918D01*
X147750273Y-75157550D01*
X147606592Y-74970301D01*
X147606587Y-74970295D01*
X147439704Y-74803412D01*
X147439697Y-74803406D01*
X147252454Y-74659730D01*
X147252453Y-74659729D01*
X147252450Y-74659727D01*
X147170957Y-74612677D01*
X147048056Y-74541719D01*
X147048045Y-74541714D01*
X146829993Y-74451394D01*
X146602010Y-74390306D01*
X146368020Y-74359501D01*
X146368017Y-74359500D01*
X146368011Y-74359500D01*
X146131989Y-74359500D01*
X146131983Y-74359500D01*
X146131979Y-74359501D01*
X145897989Y-74390306D01*
X145670006Y-74451394D01*
X145451954Y-74541714D01*
X145451943Y-74541719D01*
X145247545Y-74659730D01*
X145060302Y-74803406D01*
X145060295Y-74803412D01*
X144893412Y-74970295D01*
X144893406Y-74970302D01*
X144749730Y-75157545D01*
X144631719Y-75361943D01*
X144631717Y-75361949D01*
X144541394Y-75580006D01*
X144480306Y-75807989D01*
X144449501Y-76041979D01*
X144449500Y-76041995D01*
X129769372Y-76041995D01*
X134849352Y-70962014D01*
X144450000Y-70962014D01*
X144450000Y-71197985D01*
X144480799Y-71431914D01*
X144541870Y-71659837D01*
X144632160Y-71877819D01*
X144632165Y-71877828D01*
X144750144Y-72082171D01*
X144750145Y-72082172D01*
X144812721Y-72163723D01*
X145648958Y-71327487D01*
X145673978Y-71387890D01*
X145745112Y-71494351D01*
X145835649Y-71584888D01*
X145942110Y-71656022D01*
X146002511Y-71681041D01*
X145166275Y-72517277D01*
X145247827Y-72579854D01*
X145247828Y-72579855D01*
X145452171Y-72697834D01*
X145452180Y-72697839D01*
X145670163Y-72788129D01*
X145670161Y-72788129D01*
X145898085Y-72849200D01*
X146132014Y-72879999D01*
X146132029Y-72880000D01*
X146367971Y-72880000D01*
X146367985Y-72879999D01*
X146601914Y-72849200D01*
X146829837Y-72788129D01*
X147047819Y-72697839D01*
X147047828Y-72697834D01*
X147252181Y-72579850D01*
X147333723Y-72517279D01*
X147333723Y-72517276D01*
X146497487Y-71681041D01*
X146557890Y-71656022D01*
X146664351Y-71584888D01*
X146754888Y-71494351D01*
X146826022Y-71387890D01*
X146851041Y-71327488D01*
X147687276Y-72163723D01*
X147687279Y-72163723D01*
X147749850Y-72082181D01*
X147867834Y-71877828D01*
X147867839Y-71877819D01*
X147958129Y-71659837D01*
X148019200Y-71431914D01*
X148049999Y-71197985D01*
X148050000Y-71197971D01*
X148050000Y-70962028D01*
X148049999Y-70962014D01*
X148019200Y-70728085D01*
X147958129Y-70500162D01*
X147867839Y-70282180D01*
X147867834Y-70282171D01*
X147749855Y-70077828D01*
X147749854Y-70077827D01*
X147687277Y-69996275D01*
X146851041Y-70832511D01*
X146826022Y-70772110D01*
X146754888Y-70665649D01*
X146664351Y-70575112D01*
X146557890Y-70503978D01*
X146497488Y-70478958D01*
X147333723Y-69642721D01*
X147252172Y-69580145D01*
X147252171Y-69580144D01*
X147047828Y-69462165D01*
X147047819Y-69462160D01*
X146829836Y-69371870D01*
X146829838Y-69371870D01*
X146601914Y-69310799D01*
X146367985Y-69280000D01*
X146132014Y-69280000D01*
X145898085Y-69310799D01*
X145670162Y-69371870D01*
X145452180Y-69462160D01*
X145452171Y-69462165D01*
X145247828Y-69580144D01*
X145247818Y-69580150D01*
X145166275Y-69642720D01*
X145166275Y-69642721D01*
X146002512Y-70478958D01*
X145942110Y-70503978D01*
X145835649Y-70575112D01*
X145745112Y-70665649D01*
X145673978Y-70772110D01*
X145648958Y-70832512D01*
X144812721Y-69996275D01*
X144812720Y-69996275D01*
X144750150Y-70077818D01*
X144750144Y-70077828D01*
X144632165Y-70282171D01*
X144632160Y-70282180D01*
X144541870Y-70500162D01*
X144480799Y-70728085D01*
X144450000Y-70962014D01*
X134849352Y-70962014D01*
X144866037Y-60945328D01*
X144927358Y-60911845D01*
X144966319Y-60909653D01*
X144969701Y-60909998D01*
X144969703Y-60909999D01*
X145072491Y-60920500D01*
X147272508Y-60920499D01*
X147375297Y-60909999D01*
X147541834Y-60854814D01*
X147691156Y-60762712D01*
X147815212Y-60638656D01*
X147907314Y-60489334D01*
X147962499Y-60322797D01*
X147973000Y-60220009D01*
X147972999Y-58019992D01*
X147962499Y-57917203D01*
X147907314Y-57750666D01*
X147815212Y-57601344D01*
X147691156Y-57477288D01*
X147541834Y-57385186D01*
X147375297Y-57330001D01*
X147375295Y-57330000D01*
X147272510Y-57319500D01*
X145072498Y-57319500D01*
X145072481Y-57319501D01*
X144969703Y-57330000D01*
X144969700Y-57330001D01*
X144803168Y-57385185D01*
X144803163Y-57385187D01*
X144653842Y-57477289D01*
X144529789Y-57601342D01*
X144437687Y-57750663D01*
X144437686Y-57750666D01*
X144382501Y-57917203D01*
X144382501Y-57917204D01*
X144382500Y-57917204D01*
X144372000Y-58019983D01*
X144372000Y-59265270D01*
X144352315Y-59332309D01*
X144335681Y-59352951D01*
X125275451Y-78413181D01*
X125214128Y-78446666D01*
X125187770Y-78449500D01*
X124363733Y-78449500D01*
X124296694Y-78429815D01*
X124250939Y-78377011D01*
X124246028Y-78364506D01*
X124241495Y-78350829D01*
X124234814Y-78330666D01*
X124142712Y-78181344D01*
X124018656Y-78057288D01*
X123869334Y-77965186D01*
X123787427Y-77938044D01*
X123729984Y-77898272D01*
X123703161Y-77833756D01*
X123715476Y-77764980D01*
X123753547Y-77720021D01*
X123847219Y-77651966D01*
X123991966Y-77507219D01*
X123991968Y-77507215D01*
X123991971Y-77507213D01*
X124106406Y-77349704D01*
X124112287Y-77341610D01*
X124205220Y-77159219D01*
X124268477Y-76964534D01*
X124300500Y-76762352D01*
X124300500Y-76557648D01*
X124268477Y-76355466D01*
X124252549Y-76306446D01*
X124215438Y-76192229D01*
X124205220Y-76160781D01*
X124205218Y-76160778D01*
X124205218Y-76160776D01*
X124166087Y-76083978D01*
X124112287Y-75978390D01*
X124091842Y-75950249D01*
X123991971Y-75812786D01*
X123847213Y-75668028D01*
X123681614Y-75547715D01*
X123675006Y-75544348D01*
X123588917Y-75500483D01*
X123538123Y-75452511D01*
X123521328Y-75384690D01*
X123543865Y-75318555D01*
X123588917Y-75279516D01*
X123681610Y-75232287D01*
X123780906Y-75160145D01*
X123847213Y-75111971D01*
X123847215Y-75111968D01*
X123847219Y-75111966D01*
X123991966Y-74967219D01*
X124003118Y-74951870D01*
X124025100Y-74921615D01*
X124080429Y-74878949D01*
X124125418Y-74870500D01*
X126203920Y-74870500D01*
X126301462Y-74851096D01*
X126348913Y-74841658D01*
X126485495Y-74785084D01*
X126534729Y-74752186D01*
X126608416Y-74702952D01*
X128332952Y-72978416D01*
X128398376Y-72880500D01*
X128415084Y-72855495D01*
X128471658Y-72718913D01*
X128481096Y-72671462D01*
X128500500Y-72573920D01*
X128500500Y-60426079D01*
X128471659Y-60281092D01*
X128471658Y-60281091D01*
X128471658Y-60281087D01*
X128453831Y-60238049D01*
X128415085Y-60144507D01*
X128406278Y-60131326D01*
X128347257Y-60042994D01*
X128342488Y-60035857D01*
X128332954Y-60021586D01*
X128332950Y-60021582D01*
X125728421Y-57417052D01*
X125728414Y-57417046D01*
X125654729Y-57367812D01*
X125654729Y-57367813D01*
X125605491Y-57334913D01*
X125468917Y-57278343D01*
X125468907Y-57278340D01*
X125323920Y-57249500D01*
X125323918Y-57249500D01*
X118532229Y-57249500D01*
X118465190Y-57229815D01*
X118444548Y-57213181D01*
X118189148Y-56957781D01*
X118155663Y-56896458D01*
X118160647Y-56826766D01*
X118202519Y-56770833D01*
X118267983Y-56746416D01*
X118333124Y-56759615D01*
X118460968Y-56824755D01*
X118655582Y-56887990D01*
X118857683Y-56920000D01*
X119062317Y-56920000D01*
X119264417Y-56887990D01*
X119459031Y-56824755D01*
X119641349Y-56731859D01*
X119685921Y-56699474D01*
X119006446Y-56020000D01*
X119012661Y-56020000D01*
X119114394Y-55992741D01*
X119205606Y-55940080D01*
X119280080Y-55865606D01*
X119332741Y-55774394D01*
X119360000Y-55672661D01*
X119360000Y-55666447D01*
X120039474Y-56345921D01*
X120071861Y-56301347D01*
X120071861Y-56301346D01*
X120119515Y-56207820D01*
X120167489Y-56157024D01*
X120235310Y-56140228D01*
X120301445Y-56162765D01*
X120340485Y-56207819D01*
X120388141Y-56301350D01*
X120388147Y-56301359D01*
X120420523Y-56345921D01*
X120420524Y-56345922D01*
X121100000Y-55666446D01*
X121100000Y-55672661D01*
X121127259Y-55774394D01*
X121179920Y-55865606D01*
X121254394Y-55940080D01*
X121345606Y-55992741D01*
X121447339Y-56020000D01*
X121453553Y-56020000D01*
X120774076Y-56699474D01*
X120818650Y-56731859D01*
X121000968Y-56824755D01*
X121195582Y-56887990D01*
X121397683Y-56920000D01*
X121602317Y-56920000D01*
X121804417Y-56887990D01*
X121999031Y-56824755D01*
X122181349Y-56731859D01*
X122225921Y-56699474D01*
X121546447Y-56020000D01*
X121552661Y-56020000D01*
X121654394Y-55992741D01*
X121745606Y-55940080D01*
X121820080Y-55865606D01*
X121872741Y-55774394D01*
X121900000Y-55672661D01*
X121900000Y-55666447D01*
X122579474Y-56345921D01*
X122611859Y-56301349D01*
X122704755Y-56119031D01*
X122767990Y-55924417D01*
X122800000Y-55722317D01*
X122800000Y-55517682D01*
X122767990Y-55315582D01*
X122704755Y-55120968D01*
X122611859Y-54938650D01*
X122579474Y-54894077D01*
X122579474Y-54894076D01*
X121900000Y-55573551D01*
X121900000Y-55567339D01*
X121872741Y-55465606D01*
X121820080Y-55374394D01*
X121745606Y-55299920D01*
X121654394Y-55247259D01*
X121552661Y-55220000D01*
X121546446Y-55220000D01*
X122225922Y-54540524D01*
X122225921Y-54540523D01*
X122181359Y-54508147D01*
X122181350Y-54508141D01*
X121999031Y-54415244D01*
X121804417Y-54352009D01*
X121602317Y-54320000D01*
X121397683Y-54320000D01*
X121195582Y-54352009D01*
X121000968Y-54415244D01*
X120818644Y-54508143D01*
X120774077Y-54540523D01*
X120774077Y-54540524D01*
X121453554Y-55220000D01*
X121447339Y-55220000D01*
X121345606Y-55247259D01*
X121254394Y-55299920D01*
X121179920Y-55374394D01*
X121127259Y-55465606D01*
X121100000Y-55567339D01*
X121100000Y-55573553D01*
X120420524Y-54894077D01*
X120420523Y-54894077D01*
X120388143Y-54938644D01*
X120340485Y-55032180D01*
X120292510Y-55082976D01*
X120224689Y-55099771D01*
X120158554Y-55077233D01*
X120119515Y-55032180D01*
X120071859Y-54938650D01*
X120039474Y-54894077D01*
X120039474Y-54894076D01*
X119360000Y-55573551D01*
X119360000Y-55567339D01*
X119332741Y-55465606D01*
X119280080Y-55374394D01*
X119205606Y-55299920D01*
X119114394Y-55247259D01*
X119012661Y-55220000D01*
X119006446Y-55220000D01*
X119685922Y-54540524D01*
X119685921Y-54540523D01*
X119641359Y-54508147D01*
X119641350Y-54508141D01*
X119459031Y-54415244D01*
X119264417Y-54352009D01*
X119062317Y-54320000D01*
X118857683Y-54320000D01*
X118655582Y-54352009D01*
X118460968Y-54415244D01*
X118278644Y-54508143D01*
X118234077Y-54540523D01*
X118234077Y-54540524D01*
X118913554Y-55220000D01*
X118907339Y-55220000D01*
X118805606Y-55247259D01*
X118714394Y-55299920D01*
X118639920Y-55374394D01*
X118587259Y-55465606D01*
X118560000Y-55567339D01*
X118560000Y-55573553D01*
X117880524Y-54894077D01*
X117880523Y-54894077D01*
X117848143Y-54938644D01*
X117800765Y-55031630D01*
X117752790Y-55082426D01*
X117684969Y-55099221D01*
X117618834Y-55076683D01*
X117579795Y-55031630D01*
X117568774Y-55010000D01*
X117532287Y-54938390D01*
X117532285Y-54938387D01*
X117532284Y-54938385D01*
X117411971Y-54772786D01*
X117267213Y-54628028D01*
X117101613Y-54507715D01*
X117101612Y-54507714D01*
X117101610Y-54507713D01*
X117042675Y-54477684D01*
X116919223Y-54414781D01*
X116724534Y-54351522D01*
X116549995Y-54323878D01*
X116522352Y-54319500D01*
X116317648Y-54319500D01*
X116293329Y-54323351D01*
X116115465Y-54351522D01*
X115920776Y-54414781D01*
X115738386Y-54507715D01*
X115572786Y-54628028D01*
X115428032Y-54772782D01*
X115359616Y-54866949D01*
X115304286Y-54909614D01*
X115234672Y-54915593D01*
X115172877Y-54882987D01*
X115141592Y-54833067D01*
X115114358Y-54750880D01*
X115114356Y-54750875D01*
X115022315Y-54601654D01*
X114898345Y-54477684D01*
X114749124Y-54385643D01*
X114749119Y-54385641D01*
X114582697Y-54330494D01*
X114582690Y-54330493D01*
X114479986Y-54320000D01*
X114130000Y-54320000D01*
X114130000Y-55304314D01*
X114125606Y-55299920D01*
X114034394Y-55247259D01*
X113932661Y-55220000D01*
X113827339Y-55220000D01*
X113725606Y-55247259D01*
X113634394Y-55299920D01*
X113630000Y-55304314D01*
X113630000Y-54320000D01*
X113280028Y-54320000D01*
X113280012Y-54320001D01*
X113177302Y-54330494D01*
X113010880Y-54385641D01*
X113010875Y-54385643D01*
X112861654Y-54477684D01*
X112737684Y-54601654D01*
X112645643Y-54750875D01*
X112645641Y-54750880D01*
X112590494Y-54917302D01*
X112590493Y-54917309D01*
X112580000Y-55020013D01*
X109750500Y-55020013D01*
X109750500Y-53242228D01*
X109770185Y-53175189D01*
X109786814Y-53154552D01*
X113614894Y-49326471D01*
X113676215Y-49292988D01*
X113721970Y-49291681D01*
X113777648Y-49300500D01*
X113777649Y-49300500D01*
X113982351Y-49300500D01*
X113982352Y-49300500D01*
X114184534Y-49268477D01*
X114379219Y-49205220D01*
X114561610Y-49112287D01*
X114654590Y-49044732D01*
X114727213Y-48991971D01*
X114727215Y-48991968D01*
X114727219Y-48991966D01*
X114871966Y-48847219D01*
X114871968Y-48847215D01*
X114871971Y-48847213D01*
X114992284Y-48681614D01*
X114992285Y-48681613D01*
X114992287Y-48681610D01*
X115039516Y-48588917D01*
X115087489Y-48538123D01*
X115155310Y-48521328D01*
X115221445Y-48543865D01*
X115260485Y-48588919D01*
X115307715Y-48681614D01*
X115428028Y-48847213D01*
X115572786Y-48991971D01*
X115691177Y-49077985D01*
X115738390Y-49112287D01*
X115854607Y-49171503D01*
X115920776Y-49205218D01*
X115920778Y-49205218D01*
X115920781Y-49205220D01*
X116025137Y-49239127D01*
X116115465Y-49268477D01*
X116199564Y-49281797D01*
X116317648Y-49300500D01*
X116317649Y-49300500D01*
X116522351Y-49300500D01*
X116522352Y-49300500D01*
X116724534Y-49268477D01*
X116919219Y-49205220D01*
X117101610Y-49112287D01*
X117194590Y-49044732D01*
X117267213Y-48991971D01*
X117267215Y-48991968D01*
X117267219Y-48991966D01*
X117411966Y-48847219D01*
X117411968Y-48847215D01*
X117411971Y-48847213D01*
X117532284Y-48681614D01*
X117532285Y-48681613D01*
X117532287Y-48681610D01*
X117579516Y-48588917D01*
X117627489Y-48538123D01*
X117695310Y-48521328D01*
X117761445Y-48543865D01*
X117800485Y-48588919D01*
X117847715Y-48681614D01*
X117968028Y-48847213D01*
X118112786Y-48991971D01*
X118231177Y-49077985D01*
X118278390Y-49112287D01*
X118394607Y-49171503D01*
X118460776Y-49205218D01*
X118460778Y-49205218D01*
X118460781Y-49205220D01*
X118565137Y-49239127D01*
X118655465Y-49268477D01*
X118739564Y-49281797D01*
X118857648Y-49300500D01*
X118857649Y-49300500D01*
X119062351Y-49300500D01*
X119062352Y-49300500D01*
X119264534Y-49268477D01*
X119459219Y-49205220D01*
X119641610Y-49112287D01*
X119734590Y-49044732D01*
X119807213Y-48991971D01*
X119807215Y-48991968D01*
X119807219Y-48991966D01*
X119951966Y-48847219D01*
X119951968Y-48847215D01*
X119951971Y-48847213D01*
X120072284Y-48681614D01*
X120072285Y-48681613D01*
X120072287Y-48681610D01*
X120119516Y-48588917D01*
X120167489Y-48538123D01*
X120235310Y-48521328D01*
X120301445Y-48543865D01*
X120340485Y-48588919D01*
X120387715Y-48681614D01*
X120508028Y-48847213D01*
X120652786Y-48991971D01*
X120771177Y-49077985D01*
X120818390Y-49112287D01*
X120934607Y-49171503D01*
X121000776Y-49205218D01*
X121000778Y-49205218D01*
X121000781Y-49205220D01*
X121105137Y-49239127D01*
X121195465Y-49268477D01*
X121279564Y-49281797D01*
X121397648Y-49300500D01*
X121397649Y-49300500D01*
X121602351Y-49300500D01*
X121602352Y-49300500D01*
X121804534Y-49268477D01*
X121999219Y-49205220D01*
X122181610Y-49112287D01*
X122274590Y-49044732D01*
X122347213Y-48991971D01*
X122347215Y-48991968D01*
X122347219Y-48991966D01*
X122491966Y-48847219D01*
X122491968Y-48847215D01*
X122491971Y-48847213D01*
X122547776Y-48770402D01*
X122612287Y-48681610D01*
X122705220Y-48499219D01*
X122768477Y-48304534D01*
X122800500Y-48102352D01*
X122800500Y-47897648D01*
X122768477Y-47695466D01*
X122757510Y-47661714D01*
X122739127Y-47605137D01*
X122705220Y-47500781D01*
X122705218Y-47500778D01*
X122705218Y-47500776D01*
X122659515Y-47411080D01*
X122612287Y-47318390D01*
X122563958Y-47251870D01*
X122491971Y-47152786D01*
X122347213Y-47008028D01*
X122181613Y-46887715D01*
X122181612Y-46887714D01*
X122181610Y-46887713D01*
X122124653Y-46858691D01*
X121999223Y-46794781D01*
X121804534Y-46731522D01*
X121629995Y-46703878D01*
X121602352Y-46699500D01*
X121397648Y-46699500D01*
X121373329Y-46703351D01*
X121195465Y-46731522D01*
X121000776Y-46794781D01*
X120818386Y-46887715D01*
X120652786Y-47008028D01*
X120508028Y-47152786D01*
X120387715Y-47318386D01*
X120340485Y-47411080D01*
X120292510Y-47461876D01*
X120224689Y-47478671D01*
X120158554Y-47456134D01*
X120119515Y-47411080D01*
X120118883Y-47409840D01*
X120072287Y-47318390D01*
X120023958Y-47251870D01*
X119951971Y-47152786D01*
X119807213Y-47008028D01*
X119641613Y-46887715D01*
X119641612Y-46887714D01*
X119641610Y-46887713D01*
X119584653Y-46858691D01*
X119459223Y-46794781D01*
X119264534Y-46731522D01*
X119089995Y-46703878D01*
X119062352Y-46699500D01*
X118857648Y-46699500D01*
X118833329Y-46703351D01*
X118655465Y-46731522D01*
X118460776Y-46794781D01*
X118278386Y-46887715D01*
X118112786Y-47008028D01*
X117968028Y-47152786D01*
X117847715Y-47318386D01*
X117800485Y-47411080D01*
X117752510Y-47461876D01*
X117684689Y-47478671D01*
X117618554Y-47456134D01*
X117579515Y-47411080D01*
X117578883Y-47409840D01*
X117532287Y-47318390D01*
X117483958Y-47251870D01*
X117411971Y-47152786D01*
X117267213Y-47008028D01*
X117101613Y-46887715D01*
X117101612Y-46887714D01*
X117101610Y-46887713D01*
X117044653Y-46858691D01*
X116919223Y-46794781D01*
X116724534Y-46731522D01*
X116549995Y-46703878D01*
X116522352Y-46699500D01*
X116317648Y-46699500D01*
X116293329Y-46703351D01*
X116115465Y-46731522D01*
X115920776Y-46794781D01*
X115738386Y-46887715D01*
X115572786Y-47008028D01*
X115428028Y-47152786D01*
X115307715Y-47318386D01*
X115260485Y-47411080D01*
X115212510Y-47461876D01*
X115144689Y-47478671D01*
X115078554Y-47456134D01*
X115039515Y-47411080D01*
X115038883Y-47409840D01*
X114992287Y-47318390D01*
X114943958Y-47251870D01*
X114871971Y-47152786D01*
X114727213Y-47008028D01*
X114561613Y-46887715D01*
X114561612Y-46887714D01*
X114561610Y-46887713D01*
X114504653Y-46858691D01*
X114379223Y-46794781D01*
X114184534Y-46731522D01*
X114009995Y-46703878D01*
X113982352Y-46699500D01*
X113777648Y-46699500D01*
X113753329Y-46703351D01*
X113575465Y-46731522D01*
X113380776Y-46794781D01*
X113198386Y-46887715D01*
X113032786Y-47008028D01*
X112888028Y-47152786D01*
X112767715Y-47318386D01*
X112674781Y-47500776D01*
X112611522Y-47695465D01*
X112579500Y-47897648D01*
X112579500Y-48102351D01*
X112588318Y-48158026D01*
X112579363Y-48227320D01*
X112553526Y-48265105D01*
X108417050Y-52401581D01*
X108417048Y-52401584D01*
X108403597Y-52421716D01*
X108403595Y-52421717D01*
X108403595Y-52421718D01*
X108334916Y-52524503D01*
X108334914Y-52524506D01*
X108278343Y-52661082D01*
X108278340Y-52661092D01*
X108249500Y-52806079D01*
X108249500Y-52806082D01*
X108249500Y-78073918D01*
X108249500Y-78073920D01*
X108249499Y-78073920D01*
X108278340Y-78218907D01*
X108278343Y-78218917D01*
X108334912Y-78355488D01*
X108334920Y-78355502D01*
X108365979Y-78401984D01*
X108365980Y-78401987D01*
X108365981Y-78401987D01*
X108404742Y-78459999D01*
X108417051Y-78478420D01*
X108417052Y-78478421D01*
X109350950Y-79412318D01*
X109384435Y-79473641D01*
X109379451Y-79543332D01*
X109350950Y-79587680D01*
X105217047Y-83721584D01*
X105204089Y-83740978D01*
X105191187Y-83760289D01*
X105162954Y-83802541D01*
X105134914Y-83844507D01*
X105078343Y-83981082D01*
X105078340Y-83981092D01*
X105049500Y-84126079D01*
X105049500Y-84126082D01*
X105049500Y-110873918D01*
X105049500Y-110873920D01*
X105049499Y-110873920D01*
X105078340Y-111018907D01*
X105078343Y-111018917D01*
X105134914Y-111155491D01*
X105134916Y-111155495D01*
X105165380Y-111201088D01*
X105165379Y-111201088D01*
X105217046Y-111278414D01*
X105217052Y-111278421D01*
X106727964Y-112789331D01*
X107167048Y-113228415D01*
X107167049Y-113228416D01*
X107271584Y-113332951D01*
X107271585Y-113332952D01*
X107394498Y-113415080D01*
X107394511Y-113415087D01*
X107485552Y-113452797D01*
X107531087Y-113471658D01*
X107531091Y-113471658D01*
X107531092Y-113471659D01*
X107676079Y-113500500D01*
X107676082Y-113500500D01*
X111714582Y-113500500D01*
X111781621Y-113520185D01*
X111814900Y-113551615D01*
X111848028Y-113597212D01*
X111848032Y-113597217D01*
X111992786Y-113741971D01*
X112147749Y-113854556D01*
X112158390Y-113862287D01*
X112252032Y-113910000D01*
X112340776Y-113955218D01*
X112340778Y-113955218D01*
X112340781Y-113955220D01*
X112431856Y-113984812D01*
X112535465Y-114018477D01*
X112636557Y-114034488D01*
X112737648Y-114050500D01*
X112737649Y-114050500D01*
X112942351Y-114050500D01*
X112942352Y-114050500D01*
X113144534Y-114018477D01*
X113339219Y-113955220D01*
X113521610Y-113862287D01*
X113650482Y-113768657D01*
X113687213Y-113741971D01*
X113687215Y-113741968D01*
X113687219Y-113741966D01*
X113831966Y-113597219D01*
X113831968Y-113597215D01*
X113831971Y-113597213D01*
X113902236Y-113500500D01*
X113952287Y-113431610D01*
X114045220Y-113249219D01*
X114108477Y-113054534D01*
X114140500Y-112852352D01*
X114140500Y-112647648D01*
X114120284Y-112520009D01*
X114108477Y-112445465D01*
X114045218Y-112250776D01*
X113993865Y-112149991D01*
X113952287Y-112068390D01*
X113902236Y-111999500D01*
X113831971Y-111902786D01*
X113687213Y-111758028D01*
X113521614Y-111637715D01*
X113511281Y-111632450D01*
X113428917Y-111590483D01*
X113378123Y-111542511D01*
X113361328Y-111474690D01*
X113383865Y-111408555D01*
X113428917Y-111369516D01*
X113521610Y-111322287D01*
X113581994Y-111278416D01*
X113687213Y-111201971D01*
X113687215Y-111201968D01*
X113687219Y-111201966D01*
X113831966Y-111057219D01*
X113831968Y-111057215D01*
X113831971Y-111057213D01*
X113886608Y-110982010D01*
X113952287Y-110891610D01*
X114045220Y-110709219D01*
X114108477Y-110514534D01*
X114140500Y-110312352D01*
X114140500Y-110107648D01*
X114108477Y-109905466D01*
X114084591Y-109831954D01*
X114045218Y-109710776D01*
X114004060Y-109630000D01*
X113952287Y-109528390D01*
X113944556Y-109517749D01*
X113831971Y-109362786D01*
X113687213Y-109218028D01*
X113521614Y-109097715D01*
X113457984Y-109065294D01*
X113428917Y-109050483D01*
X113378123Y-109002511D01*
X113361328Y-108934690D01*
X113383865Y-108868555D01*
X113428917Y-108829516D01*
X113521610Y-108782287D01*
X113562269Y-108752747D01*
X113687213Y-108661971D01*
X113687215Y-108661968D01*
X113687219Y-108661966D01*
X113831966Y-108517219D01*
X113831968Y-108517215D01*
X113831971Y-108517213D01*
X113884732Y-108444590D01*
X113952287Y-108351610D01*
X114045220Y-108169219D01*
X114108477Y-107974534D01*
X114140500Y-107772352D01*
X114140500Y-107567648D01*
X114108477Y-107365466D01*
X114045220Y-107170781D01*
X114045218Y-107170778D01*
X114045218Y-107170776D01*
X114011503Y-107104607D01*
X113952287Y-106988390D01*
X113944556Y-106977749D01*
X113831971Y-106822786D01*
X113687213Y-106678028D01*
X113521614Y-106557715D01*
X113515006Y-106554348D01*
X113428917Y-106510483D01*
X113378123Y-106462511D01*
X113361328Y-106394690D01*
X113383865Y-106328555D01*
X113428917Y-106289516D01*
X113521610Y-106242287D01*
X113542770Y-106226913D01*
X113687213Y-106121971D01*
X113687215Y-106121968D01*
X113687219Y-106121966D01*
X113831966Y-105977219D01*
X113831968Y-105977215D01*
X113831971Y-105977213D01*
X113915510Y-105862229D01*
X113952287Y-105811610D01*
X114045220Y-105629219D01*
X114108477Y-105434534D01*
X114140500Y-105232352D01*
X114140500Y-105027648D01*
X114114390Y-104862796D01*
X114108477Y-104825465D01*
X114045218Y-104630776D01*
X113997974Y-104538056D01*
X113952287Y-104448390D01*
X113944556Y-104437749D01*
X113831971Y-104282786D01*
X113687213Y-104138028D01*
X113521614Y-104017715D01*
X113515006Y-104014348D01*
X113428917Y-103970483D01*
X113378123Y-103922511D01*
X113361328Y-103854690D01*
X113383865Y-103788555D01*
X113428917Y-103749516D01*
X113521610Y-103702287D01*
X113542770Y-103686913D01*
X113687213Y-103581971D01*
X113687215Y-103581968D01*
X113687219Y-103581966D01*
X113831966Y-103437219D01*
X113834650Y-103433524D01*
X113865100Y-103391615D01*
X113920429Y-103348949D01*
X113965418Y-103340500D01*
X114627770Y-103340500D01*
X114694809Y-103360185D01*
X114715451Y-103376819D01*
X115963181Y-104624549D01*
X115996666Y-104685872D01*
X115999500Y-104712230D01*
X115999500Y-114137770D01*
X115979815Y-114204809D01*
X115963181Y-114225451D01*
X114475451Y-115713181D01*
X114414128Y-115746666D01*
X114387770Y-115749500D01*
X92717328Y-115749500D01*
X92650289Y-115729815D01*
X92609941Y-115687500D01*
X92585865Y-115645799D01*
X92500273Y-115497550D01*
X92356592Y-115310301D01*
X92356587Y-115310295D01*
X92189704Y-115143412D01*
X92189697Y-115143406D01*
X92002454Y-114999730D01*
X92002453Y-114999729D01*
X92002450Y-114999727D01*
X91920957Y-114952677D01*
X91798056Y-114881719D01*
X91798045Y-114881714D01*
X91579993Y-114791394D01*
X91352010Y-114730306D01*
X91118020Y-114699501D01*
X91118017Y-114699500D01*
X91118011Y-114699500D01*
X90881989Y-114699500D01*
X90881983Y-114699500D01*
X90881979Y-114699501D01*
X90647989Y-114730306D01*
X90420006Y-114791394D01*
X90201954Y-114881714D01*
X90201943Y-114881719D01*
X89997545Y-114999730D01*
X89810302Y-115143406D01*
X89810295Y-115143412D01*
X89643412Y-115310295D01*
X89643406Y-115310302D01*
X89499730Y-115497545D01*
X89381719Y-115701943D01*
X89381714Y-115701954D01*
X89291394Y-115920006D01*
X89230306Y-116147989D01*
X89199501Y-116381979D01*
X89199500Y-116381995D01*
X88250500Y-116381995D01*
X88250500Y-110319983D01*
X89199500Y-110319983D01*
X89199500Y-112520001D01*
X89199501Y-112520018D01*
X89210000Y-112622796D01*
X89210001Y-112622799D01*
X89265185Y-112789331D01*
X89265186Y-112789334D01*
X89357288Y-112938656D01*
X89481344Y-113062712D01*
X89630666Y-113154814D01*
X89797203Y-113209999D01*
X89899991Y-113220500D01*
X92100008Y-113220499D01*
X92202797Y-113209999D01*
X92369334Y-113154814D01*
X92518656Y-113062712D01*
X92642712Y-112938656D01*
X92734814Y-112789334D01*
X92789999Y-112622797D01*
X92800500Y-112520009D01*
X92800499Y-110732228D01*
X92820184Y-110665190D01*
X92836813Y-110644553D01*
X102782952Y-100698416D01*
X102834154Y-100621786D01*
X102860098Y-100582958D01*
X102860102Y-100582951D01*
X102865084Y-100575495D01*
X102921658Y-100438913D01*
X102935738Y-100368129D01*
X102950500Y-100293920D01*
X102950500Y-73662229D01*
X102970185Y-73595190D01*
X102986814Y-73574553D01*
X106775297Y-69786069D01*
X106815524Y-69759191D01*
X106839179Y-69749394D01*
X106970289Y-69661789D01*
X107081789Y-69550289D01*
X107169394Y-69419179D01*
X107229737Y-69273497D01*
X107260500Y-69118842D01*
X107260500Y-68961158D01*
X107260500Y-68961155D01*
X107260499Y-68961153D01*
X107229737Y-68806503D01*
X107200313Y-68735466D01*
X107169397Y-68660827D01*
X107169390Y-68660814D01*
X107081789Y-68529711D01*
X107081786Y-68529707D01*
X106970292Y-68418213D01*
X106970288Y-68418210D01*
X106839185Y-68330609D01*
X106839172Y-68330602D01*
X106693501Y-68270264D01*
X106693489Y-68270261D01*
X106538845Y-68239500D01*
X106538842Y-68239500D01*
X106381158Y-68239500D01*
X106381155Y-68239500D01*
X106226510Y-68270261D01*
X106226498Y-68270264D01*
X106080827Y-68330602D01*
X106080814Y-68330609D01*
X105949711Y-68418210D01*
X105949707Y-68418213D01*
X105838213Y-68529707D01*
X105838207Y-68529715D01*
X105750607Y-68660818D01*
X105750606Y-68660819D01*
X105740805Y-68684480D01*
X105713927Y-68724703D01*
X101617050Y-72821580D01*
X101617044Y-72821588D01*
X101567812Y-72895268D01*
X101567813Y-72895269D01*
X101534921Y-72944496D01*
X101534914Y-72944508D01*
X101478342Y-73081086D01*
X101478340Y-73081092D01*
X101449500Y-73226079D01*
X101449500Y-99857769D01*
X101429815Y-99924808D01*
X101413181Y-99945450D01*
X91775449Y-109583181D01*
X91714126Y-109616666D01*
X91687768Y-109619500D01*
X89899998Y-109619500D01*
X89899981Y-109619501D01*
X89797203Y-109630000D01*
X89797200Y-109630001D01*
X89630668Y-109685185D01*
X89630663Y-109685187D01*
X89481342Y-109777289D01*
X89357289Y-109901342D01*
X89265187Y-110050663D01*
X89265186Y-110050666D01*
X89210001Y-110217203D01*
X89210001Y-110217204D01*
X89210000Y-110217204D01*
X89199500Y-110319983D01*
X88250500Y-110319983D01*
X88250500Y-105862229D01*
X88270185Y-105795190D01*
X88286819Y-105774548D01*
X88758657Y-105302710D01*
X89321244Y-104740122D01*
X89382565Y-104706639D01*
X89452257Y-104711623D01*
X89507299Y-104752319D01*
X89643406Y-104929697D01*
X89643412Y-104929704D01*
X89810295Y-105096587D01*
X89810301Y-105096592D01*
X89997550Y-105240273D01*
X90128918Y-105316118D01*
X90201943Y-105358280D01*
X90201948Y-105358282D01*
X90201951Y-105358284D01*
X90420007Y-105448606D01*
X90647986Y-105509693D01*
X90881989Y-105540500D01*
X90881996Y-105540500D01*
X91118004Y-105540500D01*
X91118011Y-105540500D01*
X91352014Y-105509693D01*
X91579993Y-105448606D01*
X91798049Y-105358284D01*
X92002450Y-105240273D01*
X92189699Y-105096592D01*
X92356592Y-104929699D01*
X92500273Y-104742450D01*
X92618284Y-104538049D01*
X92708606Y-104319993D01*
X92769693Y-104092014D01*
X92800500Y-103858011D01*
X92800500Y-103621989D01*
X92769693Y-103387986D01*
X92708606Y-103160007D01*
X92618284Y-102941951D01*
X92618282Y-102941948D01*
X92618280Y-102941943D01*
X92576118Y-102868918D01*
X92500273Y-102737550D01*
X92364028Y-102559992D01*
X92356593Y-102550302D01*
X92356587Y-102550295D01*
X92189704Y-102383412D01*
X92189697Y-102383406D01*
X92002454Y-102239730D01*
X92002453Y-102239729D01*
X92002450Y-102239727D01*
X91920957Y-102192677D01*
X91798056Y-102121719D01*
X91798045Y-102121714D01*
X91579993Y-102031394D01*
X91352010Y-101970306D01*
X91118020Y-101939501D01*
X91118017Y-101939500D01*
X91118011Y-101939500D01*
X90881989Y-101939500D01*
X90881983Y-101939500D01*
X90881979Y-101939501D01*
X90647989Y-101970306D01*
X90420006Y-102031394D01*
X90201954Y-102121714D01*
X90201943Y-102121719D01*
X89997545Y-102239730D01*
X89810302Y-102383406D01*
X89810295Y-102383412D01*
X89643412Y-102550295D01*
X89643406Y-102550302D01*
X89499730Y-102737545D01*
X89390059Y-102927500D01*
X89339492Y-102975716D01*
X89282672Y-102989500D01*
X89186080Y-102989500D01*
X89041092Y-103018340D01*
X89041082Y-103018343D01*
X88904511Y-103074912D01*
X88904498Y-103074919D01*
X88781584Y-103157048D01*
X88781580Y-103157051D01*
X87712681Y-104225951D01*
X87704735Y-104230289D01*
X87699310Y-104237537D01*
X87674550Y-104246771D01*
X87651358Y-104259436D01*
X87642328Y-104258790D01*
X87633846Y-104261954D01*
X87608025Y-104256337D01*
X87581666Y-104254452D01*
X87572612Y-104248633D01*
X87565573Y-104247102D01*
X87537319Y-104225951D01*
X87536819Y-104225451D01*
X87503334Y-104164128D01*
X87500500Y-104137770D01*
X87500500Y-98542014D01*
X89200000Y-98542014D01*
X89200000Y-98777985D01*
X89230799Y-99011914D01*
X89291870Y-99239837D01*
X89382160Y-99457819D01*
X89382165Y-99457828D01*
X89500144Y-99662171D01*
X89500145Y-99662172D01*
X89562721Y-99743723D01*
X90398958Y-98907487D01*
X90423978Y-98967890D01*
X90495112Y-99074351D01*
X90585649Y-99164888D01*
X90692110Y-99236022D01*
X90752511Y-99261041D01*
X89916275Y-100097277D01*
X89997827Y-100159854D01*
X89997828Y-100159855D01*
X90202171Y-100277834D01*
X90202180Y-100277839D01*
X90420163Y-100368129D01*
X90420161Y-100368129D01*
X90648085Y-100429200D01*
X90882014Y-100459999D01*
X90882029Y-100460000D01*
X91117971Y-100460000D01*
X91117985Y-100459999D01*
X91351914Y-100429200D01*
X91579837Y-100368129D01*
X91797819Y-100277839D01*
X91797828Y-100277834D01*
X92002181Y-100159850D01*
X92083723Y-100097279D01*
X92083723Y-100097276D01*
X91247487Y-99261041D01*
X91307890Y-99236022D01*
X91414351Y-99164888D01*
X91504888Y-99074351D01*
X91576022Y-98967890D01*
X91601041Y-98907487D01*
X92437276Y-99743723D01*
X92437279Y-99743723D01*
X92499850Y-99662181D01*
X92617834Y-99457828D01*
X92617839Y-99457819D01*
X92708129Y-99239837D01*
X92769200Y-99011914D01*
X92799999Y-98777985D01*
X92800000Y-98777971D01*
X92800000Y-98542028D01*
X92799999Y-98542014D01*
X92769200Y-98308085D01*
X92708129Y-98080162D01*
X92617839Y-97862180D01*
X92617834Y-97862171D01*
X92499855Y-97657828D01*
X92499854Y-97657827D01*
X92437277Y-97576275D01*
X91601041Y-98412511D01*
X91576022Y-98352110D01*
X91504888Y-98245649D01*
X91414351Y-98155112D01*
X91307890Y-98083978D01*
X91247488Y-98058958D01*
X92083723Y-97222721D01*
X92002172Y-97160145D01*
X92002171Y-97160144D01*
X91797828Y-97042165D01*
X91797819Y-97042160D01*
X91579836Y-96951870D01*
X91579838Y-96951870D01*
X91351914Y-96890799D01*
X91117985Y-96860000D01*
X90882014Y-96860000D01*
X90648085Y-96890799D01*
X90420162Y-96951870D01*
X90202180Y-97042160D01*
X90202171Y-97042165D01*
X89997828Y-97160144D01*
X89997818Y-97160150D01*
X89916275Y-97222720D01*
X89916275Y-97222721D01*
X90752512Y-98058958D01*
X90692110Y-98083978D01*
X90585649Y-98155112D01*
X90495112Y-98245649D01*
X90423978Y-98352110D01*
X90398958Y-98412512D01*
X89562721Y-97576275D01*
X89562720Y-97576275D01*
X89500150Y-97657818D01*
X89500144Y-97657828D01*
X89382165Y-97862171D01*
X89382160Y-97862180D01*
X89291870Y-98080162D01*
X89230799Y-98308085D01*
X89200000Y-98542014D01*
X87500500Y-98542014D01*
X87500500Y-93461995D01*
X89199500Y-93461995D01*
X89199500Y-93698004D01*
X89199501Y-93698020D01*
X89227981Y-93914351D01*
X89230307Y-93932014D01*
X89242638Y-93978034D01*
X89291394Y-94159993D01*
X89381714Y-94378045D01*
X89381719Y-94378056D01*
X89435252Y-94470776D01*
X89499727Y-94582450D01*
X89499729Y-94582453D01*
X89499730Y-94582454D01*
X89643406Y-94769697D01*
X89643412Y-94769704D01*
X89810295Y-94936587D01*
X89810302Y-94936593D01*
X89892746Y-94999854D01*
X89997550Y-95080273D01*
X90128918Y-95156118D01*
X90201943Y-95198280D01*
X90201948Y-95198282D01*
X90201951Y-95198284D01*
X90420007Y-95288606D01*
X90647986Y-95349693D01*
X90881989Y-95380500D01*
X90881996Y-95380500D01*
X91118004Y-95380500D01*
X91118011Y-95380500D01*
X91352014Y-95349693D01*
X91579993Y-95288606D01*
X91798049Y-95198284D01*
X92002450Y-95080273D01*
X92189699Y-94936592D01*
X92356592Y-94769699D01*
X92500273Y-94582450D01*
X92618284Y-94378049D01*
X92708606Y-94159993D01*
X92769693Y-93932014D01*
X92800500Y-93698011D01*
X92800500Y-93461989D01*
X92769693Y-93227986D01*
X92708606Y-93000007D01*
X92618284Y-92781951D01*
X92618282Y-92781948D01*
X92618280Y-92781943D01*
X92572223Y-92702171D01*
X92500273Y-92577550D01*
X92356592Y-92390301D01*
X92356587Y-92390295D01*
X92189704Y-92223412D01*
X92189697Y-92223406D01*
X92002454Y-92079730D01*
X92002453Y-92079729D01*
X92002450Y-92079727D01*
X91864619Y-92000150D01*
X91798056Y-91961719D01*
X91798045Y-91961714D01*
X91579993Y-91871394D01*
X91352010Y-91810306D01*
X91118020Y-91779501D01*
X91118017Y-91779500D01*
X91118011Y-91779500D01*
X90881989Y-91779500D01*
X90881983Y-91779500D01*
X90881979Y-91779501D01*
X90647989Y-91810306D01*
X90420006Y-91871394D01*
X90201954Y-91961714D01*
X90201943Y-91961719D01*
X89997545Y-92079730D01*
X89810302Y-92223406D01*
X89810295Y-92223412D01*
X89643412Y-92390295D01*
X89643406Y-92390302D01*
X89499730Y-92577545D01*
X89381719Y-92781943D01*
X89381714Y-92781954D01*
X89291394Y-93000006D01*
X89230306Y-93227989D01*
X89199501Y-93461979D01*
X89199500Y-93461995D01*
X87500500Y-93461995D01*
X87500500Y-87399983D01*
X89199500Y-87399983D01*
X89199500Y-89600001D01*
X89199501Y-89600018D01*
X89210000Y-89702796D01*
X89210001Y-89702799D01*
X89265185Y-89869331D01*
X89265186Y-89869334D01*
X89357288Y-90018656D01*
X89481344Y-90142712D01*
X89630666Y-90234814D01*
X89797203Y-90289999D01*
X89899991Y-90300500D01*
X92100008Y-90300499D01*
X92202797Y-90289999D01*
X92369334Y-90234814D01*
X92518656Y-90142712D01*
X92642712Y-90018656D01*
X92734814Y-89869334D01*
X92789999Y-89702797D01*
X92800500Y-89600009D01*
X92800499Y-87399992D01*
X92789999Y-87297203D01*
X92734814Y-87130666D01*
X92642712Y-86981344D01*
X92518656Y-86857288D01*
X92369334Y-86765186D01*
X92202797Y-86710001D01*
X92202795Y-86710000D01*
X92100010Y-86699500D01*
X89899998Y-86699500D01*
X89899981Y-86699501D01*
X89797203Y-86710000D01*
X89797200Y-86710001D01*
X89630668Y-86765185D01*
X89630663Y-86765187D01*
X89481342Y-86857289D01*
X89357289Y-86981342D01*
X89265187Y-87130663D01*
X89265186Y-87130666D01*
X89210001Y-87297203D01*
X89210001Y-87297204D01*
X89210000Y-87297204D01*
X89199500Y-87399983D01*
X87500500Y-87399983D01*
X87500500Y-84612229D01*
X87520185Y-84545190D01*
X87536814Y-84524553D01*
X89321244Y-82740122D01*
X89382565Y-82706639D01*
X89452257Y-82711623D01*
X89507299Y-82752319D01*
X89643406Y-82929697D01*
X89643412Y-82929704D01*
X89810295Y-83096587D01*
X89810301Y-83096592D01*
X89997550Y-83240273D01*
X90128918Y-83316118D01*
X90201943Y-83358280D01*
X90201948Y-83358282D01*
X90201951Y-83358284D01*
X90420007Y-83448606D01*
X90647986Y-83509693D01*
X90881989Y-83540500D01*
X90881996Y-83540500D01*
X91118004Y-83540500D01*
X91118011Y-83540500D01*
X91352014Y-83509693D01*
X91579993Y-83448606D01*
X91798049Y-83358284D01*
X92002450Y-83240273D01*
X92189699Y-83096592D01*
X92356592Y-82929699D01*
X92500273Y-82742450D01*
X92618284Y-82538049D01*
X92708606Y-82319993D01*
X92769693Y-82092014D01*
X92800500Y-81858011D01*
X92800500Y-81621989D01*
X92769693Y-81387986D01*
X92708606Y-81160007D01*
X92618284Y-80941951D01*
X92618282Y-80941948D01*
X92618280Y-80941943D01*
X92576118Y-80868918D01*
X92500273Y-80737550D01*
X92423709Y-80637770D01*
X92356593Y-80550302D01*
X92356587Y-80550295D01*
X92189704Y-80383412D01*
X92189697Y-80383406D01*
X92002454Y-80239730D01*
X92002453Y-80239729D01*
X92002450Y-80239727D01*
X91919726Y-80191966D01*
X91798056Y-80121719D01*
X91798045Y-80121714D01*
X91579993Y-80031394D01*
X91352010Y-79970306D01*
X91118020Y-79939501D01*
X91118017Y-79939500D01*
X91118011Y-79939500D01*
X90881989Y-79939500D01*
X90881983Y-79939500D01*
X90881979Y-79939501D01*
X90647989Y-79970306D01*
X90420006Y-80031394D01*
X90201954Y-80121714D01*
X90201943Y-80121719D01*
X89997545Y-80239730D01*
X89810302Y-80383406D01*
X89810295Y-80383412D01*
X89643412Y-80550295D01*
X89643406Y-80550302D01*
X89499730Y-80737545D01*
X89390059Y-80927500D01*
X89339492Y-80975716D01*
X89282672Y-80989500D01*
X89186080Y-80989500D01*
X89041092Y-81018340D01*
X89041086Y-81018342D01*
X88904508Y-81074914D01*
X88904496Y-81074921D01*
X88855269Y-81107813D01*
X88781588Y-81157044D01*
X88781580Y-81157050D01*
X87712181Y-82226450D01*
X87650858Y-82259935D01*
X87581166Y-82254951D01*
X87525233Y-82213079D01*
X87500816Y-82147615D01*
X87500500Y-82138769D01*
X87500500Y-76542014D01*
X89200000Y-76542014D01*
X89200000Y-76777985D01*
X89230799Y-77011914D01*
X89291870Y-77239837D01*
X89382160Y-77457819D01*
X89382165Y-77457828D01*
X89500144Y-77662171D01*
X89500145Y-77662172D01*
X89562721Y-77743723D01*
X90398958Y-76907487D01*
X90423978Y-76967890D01*
X90495112Y-77074351D01*
X90585649Y-77164888D01*
X90692110Y-77236022D01*
X90752511Y-77261041D01*
X89916275Y-78097277D01*
X89997827Y-78159854D01*
X89997828Y-78159855D01*
X90202171Y-78277834D01*
X90202180Y-78277839D01*
X90420163Y-78368129D01*
X90420161Y-78368129D01*
X90648085Y-78429200D01*
X90882014Y-78459999D01*
X90882029Y-78460000D01*
X91117971Y-78460000D01*
X91117985Y-78459999D01*
X91351914Y-78429200D01*
X91579837Y-78368129D01*
X91797819Y-78277839D01*
X91797828Y-78277834D01*
X92002181Y-78159850D01*
X92083723Y-78097279D01*
X92083723Y-78097276D01*
X91247487Y-77261041D01*
X91307890Y-77236022D01*
X91414351Y-77164888D01*
X91504888Y-77074351D01*
X91576022Y-76967890D01*
X91601041Y-76907487D01*
X92437276Y-77743723D01*
X92437279Y-77743723D01*
X92499850Y-77662181D01*
X92617834Y-77457828D01*
X92617839Y-77457819D01*
X92708129Y-77239837D01*
X92769200Y-77011914D01*
X92799999Y-76777985D01*
X92800000Y-76777971D01*
X92800000Y-76542028D01*
X92799999Y-76542014D01*
X92769200Y-76308085D01*
X92708129Y-76080162D01*
X92617839Y-75862180D01*
X92617834Y-75862171D01*
X92499855Y-75657828D01*
X92499854Y-75657827D01*
X92437277Y-75576275D01*
X91601041Y-76412511D01*
X91576022Y-76352110D01*
X91504888Y-76245649D01*
X91414351Y-76155112D01*
X91307890Y-76083978D01*
X91247488Y-76058958D01*
X92083723Y-75222721D01*
X92002172Y-75160145D01*
X92002171Y-75160144D01*
X91797828Y-75042165D01*
X91797819Y-75042160D01*
X91579836Y-74951870D01*
X91579838Y-74951870D01*
X91351914Y-74890799D01*
X91117985Y-74860000D01*
X90882014Y-74860000D01*
X90648085Y-74890799D01*
X90420162Y-74951870D01*
X90202180Y-75042160D01*
X90202171Y-75042165D01*
X89997828Y-75160144D01*
X89997818Y-75160150D01*
X89916275Y-75222720D01*
X89916275Y-75222721D01*
X90752512Y-76058958D01*
X90692110Y-76083978D01*
X90585649Y-76155112D01*
X90495112Y-76245649D01*
X90423978Y-76352110D01*
X90398958Y-76412512D01*
X89562721Y-75576275D01*
X89562720Y-75576275D01*
X89500150Y-75657818D01*
X89500144Y-75657828D01*
X89382165Y-75862171D01*
X89382160Y-75862180D01*
X89291870Y-76080162D01*
X89230799Y-76308085D01*
X89200000Y-76542014D01*
X87500500Y-76542014D01*
X87500500Y-71461995D01*
X89199500Y-71461995D01*
X89199500Y-71698004D01*
X89199501Y-71698020D01*
X89230306Y-71932010D01*
X89291394Y-72159993D01*
X89381714Y-72378045D01*
X89381719Y-72378056D01*
X89410104Y-72427219D01*
X89499727Y-72582450D01*
X89499729Y-72582453D01*
X89499730Y-72582454D01*
X89643406Y-72769697D01*
X89643412Y-72769704D01*
X89810295Y-72936587D01*
X89810302Y-72936593D01*
X89820613Y-72944505D01*
X89997550Y-73080273D01*
X90128918Y-73156118D01*
X90201943Y-73198280D01*
X90201948Y-73198282D01*
X90201951Y-73198284D01*
X90420007Y-73288606D01*
X90647986Y-73349693D01*
X90881989Y-73380500D01*
X90881996Y-73380500D01*
X91118004Y-73380500D01*
X91118011Y-73380500D01*
X91352014Y-73349693D01*
X91563877Y-73292924D01*
X91633725Y-73294587D01*
X91683650Y-73325018D01*
X94463181Y-76104548D01*
X94496666Y-76165871D01*
X94499500Y-76192229D01*
X94499500Y-92945396D01*
X94490062Y-92992844D01*
X94487096Y-93000007D01*
X94480262Y-93016506D01*
X94480260Y-93016511D01*
X94449500Y-93171153D01*
X94449500Y-93328846D01*
X94480261Y-93483489D01*
X94480264Y-93483501D01*
X94540602Y-93629172D01*
X94540609Y-93629185D01*
X94628210Y-93760288D01*
X94628213Y-93760292D01*
X94739707Y-93871786D01*
X94739711Y-93871789D01*
X94870814Y-93959390D01*
X94870827Y-93959397D01*
X95016498Y-94019735D01*
X95016503Y-94019737D01*
X95171153Y-94050499D01*
X95171156Y-94050500D01*
X95171158Y-94050500D01*
X95328844Y-94050500D01*
X95328845Y-94050499D01*
X95483497Y-94019737D01*
X95629179Y-93959394D01*
X95760289Y-93871789D01*
X95871789Y-93760289D01*
X95959394Y-93629179D01*
X95964037Y-93617971D01*
X95986384Y-93564019D01*
X96019737Y-93483497D01*
X96050500Y-93328842D01*
X96050500Y-93171158D01*
X96050500Y-93171155D01*
X96050499Y-93171153D01*
X96019739Y-93016511D01*
X96019738Y-93016508D01*
X96019737Y-93016503D01*
X96009937Y-92992844D01*
X96000500Y-92945396D01*
X96000500Y-75756079D01*
X95984620Y-75676251D01*
X95982986Y-75668034D01*
X95971659Y-75611088D01*
X95915955Y-75476609D01*
X95915388Y-75474960D01*
X95839878Y-75361951D01*
X95839877Y-75361949D01*
X95832954Y-75351587D01*
X95832950Y-75351583D01*
X92745018Y-72263650D01*
X92711533Y-72202327D01*
X92712923Y-72143878D01*
X92769693Y-71932014D01*
X92800500Y-71698011D01*
X92800500Y-71461989D01*
X92769693Y-71227986D01*
X92708606Y-71000007D01*
X92618284Y-70781951D01*
X92618282Y-70781948D01*
X92618280Y-70781943D01*
X92551137Y-70665649D01*
X92500273Y-70577550D01*
X92356592Y-70390301D01*
X92356587Y-70390295D01*
X92189704Y-70223412D01*
X92189697Y-70223406D01*
X92002454Y-70079730D01*
X92002453Y-70079729D01*
X92002450Y-70079727D01*
X91919726Y-70031966D01*
X91798056Y-69961719D01*
X91798045Y-69961714D01*
X91579993Y-69871394D01*
X91352010Y-69810306D01*
X91118020Y-69779501D01*
X91118017Y-69779500D01*
X91118011Y-69779500D01*
X90881989Y-69779500D01*
X90881983Y-69779500D01*
X90881979Y-69779501D01*
X90647989Y-69810306D01*
X90420006Y-69871394D01*
X90201954Y-69961714D01*
X90201943Y-69961719D01*
X90010909Y-70072014D01*
X90000857Y-70077818D01*
X89997545Y-70079730D01*
X89810302Y-70223406D01*
X89810295Y-70223412D01*
X89643412Y-70390295D01*
X89643406Y-70390302D01*
X89499730Y-70577545D01*
X89381719Y-70781943D01*
X89381714Y-70781954D01*
X89291394Y-71000006D01*
X89230306Y-71227989D01*
X89199501Y-71461979D01*
X89199500Y-71461995D01*
X87500500Y-71461995D01*
X87500500Y-65399983D01*
X89199500Y-65399983D01*
X89199500Y-67600001D01*
X89199501Y-67600018D01*
X89210000Y-67702796D01*
X89210001Y-67702799D01*
X89252984Y-67832511D01*
X89265186Y-67869334D01*
X89357288Y-68018656D01*
X89481344Y-68142712D01*
X89630666Y-68234814D01*
X89797203Y-68289999D01*
X89899991Y-68300500D01*
X92100008Y-68300499D01*
X92202797Y-68289999D01*
X92369334Y-68234814D01*
X92518656Y-68142712D01*
X92642712Y-68018656D01*
X92734814Y-67869334D01*
X92789999Y-67702797D01*
X92800500Y-67600009D01*
X92800499Y-65399992D01*
X92799288Y-65388141D01*
X92789999Y-65297203D01*
X92789998Y-65297200D01*
X92769490Y-65235311D01*
X92734814Y-65130666D01*
X92642712Y-64981344D01*
X92518656Y-64857288D01*
X92369334Y-64765186D01*
X92202797Y-64710001D01*
X92202795Y-64710000D01*
X92100010Y-64699500D01*
X89899998Y-64699500D01*
X89899981Y-64699501D01*
X89797203Y-64710000D01*
X89797200Y-64710001D01*
X89630668Y-64765185D01*
X89630663Y-64765187D01*
X89481342Y-64857289D01*
X89357289Y-64981342D01*
X89265187Y-65130663D01*
X89265186Y-65130666D01*
X89210001Y-65297203D01*
X89210001Y-65297204D01*
X89210000Y-65297204D01*
X89199500Y-65399983D01*
X87500500Y-65399983D01*
X87500500Y-64052229D01*
X87520185Y-63985190D01*
X87536819Y-63964548D01*
X88921852Y-62579515D01*
X90316350Y-61185016D01*
X90377671Y-61151533D01*
X90436121Y-61152923D01*
X90647986Y-61209693D01*
X90881989Y-61240500D01*
X90881996Y-61240500D01*
X91118004Y-61240500D01*
X91118011Y-61240500D01*
X91352014Y-61209693D01*
X91579993Y-61148606D01*
X91798049Y-61058284D01*
X92002450Y-60940273D01*
X92189699Y-60796592D01*
X92356592Y-60629699D01*
X92500273Y-60442450D01*
X92618284Y-60238049D01*
X92708606Y-60019993D01*
X92769693Y-59792014D01*
X92800500Y-59558011D01*
X92800500Y-59321989D01*
X92769693Y-59087986D01*
X92708606Y-58860007D01*
X92618284Y-58641951D01*
X92618282Y-58641948D01*
X92618280Y-58641943D01*
X92576118Y-58568918D01*
X92500273Y-58437550D01*
X92356592Y-58250301D01*
X92356587Y-58250295D01*
X92189704Y-58083412D01*
X92189697Y-58083406D01*
X92002454Y-57939730D01*
X92002453Y-57939729D01*
X92002450Y-57939727D01*
X91920957Y-57892677D01*
X91798056Y-57821719D01*
X91798045Y-57821714D01*
X91579993Y-57731394D01*
X91557813Y-57725451D01*
X91352014Y-57670307D01*
X91352013Y-57670306D01*
X91352010Y-57670306D01*
X91118020Y-57639501D01*
X91118017Y-57639500D01*
X91118011Y-57639500D01*
X90881989Y-57639500D01*
X90881983Y-57639500D01*
X90881979Y-57639501D01*
X90647989Y-57670306D01*
X90420006Y-57731394D01*
X90201954Y-57821714D01*
X90201943Y-57821719D01*
X89997545Y-57939730D01*
X89810302Y-58083406D01*
X89810295Y-58083412D01*
X89643412Y-58250295D01*
X89643406Y-58250302D01*
X89499730Y-58437545D01*
X89390059Y-58627500D01*
X89339492Y-58675716D01*
X89282672Y-58689500D01*
X88302229Y-58689500D01*
X88235190Y-58669815D01*
X88214548Y-58653181D01*
X87286819Y-57725451D01*
X87253334Y-57664128D01*
X87250500Y-57637770D01*
X87250500Y-54242014D01*
X89200000Y-54242014D01*
X89200000Y-54477985D01*
X89230799Y-54711914D01*
X89291870Y-54939837D01*
X89382160Y-55157819D01*
X89382165Y-55157828D01*
X89500144Y-55362171D01*
X89500145Y-55362172D01*
X89562721Y-55443723D01*
X90398958Y-54607487D01*
X90423978Y-54667890D01*
X90495112Y-54774351D01*
X90585649Y-54864888D01*
X90692110Y-54936022D01*
X90752511Y-54961041D01*
X89916275Y-55797277D01*
X89997827Y-55859854D01*
X89997828Y-55859855D01*
X90202171Y-55977834D01*
X90202180Y-55977839D01*
X90420163Y-56068129D01*
X90420161Y-56068129D01*
X90648085Y-56129200D01*
X90882014Y-56159999D01*
X90882029Y-56160000D01*
X91117971Y-56160000D01*
X91117985Y-56159999D01*
X91351914Y-56129200D01*
X91579837Y-56068129D01*
X91797819Y-55977839D01*
X91797828Y-55977834D01*
X92002181Y-55859850D01*
X92083723Y-55797279D01*
X92083723Y-55797276D01*
X91247487Y-54961041D01*
X91307890Y-54936022D01*
X91414351Y-54864888D01*
X91504888Y-54774351D01*
X91576022Y-54667890D01*
X91601041Y-54607487D01*
X92437276Y-55443723D01*
X92437279Y-55443723D01*
X92499850Y-55362181D01*
X92617834Y-55157828D01*
X92617839Y-55157819D01*
X92708129Y-54939837D01*
X92769200Y-54711914D01*
X92799999Y-54477985D01*
X92800000Y-54477971D01*
X92800000Y-54242028D01*
X92799999Y-54242014D01*
X92769200Y-54008085D01*
X92708129Y-53780162D01*
X92617839Y-53562180D01*
X92617834Y-53562171D01*
X92499855Y-53357828D01*
X92499854Y-53357827D01*
X92437277Y-53276275D01*
X91601041Y-54112511D01*
X91576022Y-54052110D01*
X91504888Y-53945649D01*
X91414351Y-53855112D01*
X91307890Y-53783978D01*
X91247488Y-53758958D01*
X92083723Y-52922721D01*
X92002172Y-52860145D01*
X92002171Y-52860144D01*
X91797828Y-52742165D01*
X91797819Y-52742160D01*
X91579836Y-52651870D01*
X91579838Y-52651870D01*
X91351914Y-52590799D01*
X91117985Y-52560000D01*
X90882014Y-52560000D01*
X90648085Y-52590799D01*
X90420162Y-52651870D01*
X90202180Y-52742160D01*
X90202171Y-52742165D01*
X89997828Y-52860144D01*
X89997818Y-52860150D01*
X89916275Y-52922720D01*
X89916275Y-52922721D01*
X90752512Y-53758958D01*
X90692110Y-53783978D01*
X90585649Y-53855112D01*
X90495112Y-53945649D01*
X90423978Y-54052110D01*
X90398958Y-54112512D01*
X89562721Y-53276275D01*
X89562720Y-53276275D01*
X89500150Y-53357818D01*
X89500144Y-53357828D01*
X89382165Y-53562171D01*
X89382160Y-53562180D01*
X89291870Y-53780162D01*
X89230799Y-54008085D01*
X89200000Y-54242014D01*
X87250500Y-54242014D01*
X87250500Y-49161995D01*
X89199500Y-49161995D01*
X89199500Y-49398004D01*
X89199501Y-49398020D01*
X89230306Y-49632010D01*
X89291394Y-49859993D01*
X89381714Y-50078045D01*
X89381719Y-50078056D01*
X89452677Y-50200957D01*
X89499727Y-50282450D01*
X89499729Y-50282453D01*
X89499730Y-50282454D01*
X89643406Y-50469697D01*
X89643412Y-50469704D01*
X89810295Y-50636587D01*
X89810301Y-50636592D01*
X89997550Y-50780273D01*
X90128918Y-50856118D01*
X90201943Y-50898280D01*
X90201948Y-50898282D01*
X90201951Y-50898284D01*
X90420007Y-50988606D01*
X90647986Y-51049693D01*
X90881989Y-51080500D01*
X90881996Y-51080500D01*
X91118004Y-51080500D01*
X91118011Y-51080500D01*
X91352014Y-51049693D01*
X91563877Y-50992924D01*
X91633725Y-50994587D01*
X91683650Y-51025018D01*
X98613181Y-57954549D01*
X98646666Y-58015872D01*
X98649500Y-58042230D01*
X98649500Y-90695396D01*
X98640062Y-90742844D01*
X98630263Y-90766503D01*
X98630262Y-90766506D01*
X98630260Y-90766511D01*
X98599500Y-90921153D01*
X98599500Y-91078846D01*
X98630261Y-91233489D01*
X98630264Y-91233501D01*
X98690602Y-91379172D01*
X98690609Y-91379185D01*
X98778210Y-91510288D01*
X98778213Y-91510292D01*
X98889707Y-91621786D01*
X98889711Y-91621789D01*
X99020814Y-91709390D01*
X99020827Y-91709397D01*
X99166498Y-91769735D01*
X99166503Y-91769737D01*
X99321153Y-91800499D01*
X99321156Y-91800500D01*
X99321158Y-91800500D01*
X99478844Y-91800500D01*
X99478845Y-91800499D01*
X99633497Y-91769737D01*
X99779179Y-91709394D01*
X99910289Y-91621789D01*
X100021789Y-91510289D01*
X100109394Y-91379179D01*
X100169737Y-91233497D01*
X100200500Y-91078842D01*
X100200500Y-90921158D01*
X100200500Y-90921155D01*
X100200499Y-90921153D01*
X100169739Y-90766511D01*
X100169738Y-90766508D01*
X100169737Y-90766503D01*
X100159937Y-90742844D01*
X100150500Y-90695396D01*
X100150500Y-57606079D01*
X100121659Y-57461092D01*
X100121658Y-57461091D01*
X100121658Y-57461087D01*
X100103418Y-57417052D01*
X100065086Y-57324509D01*
X100065085Y-57324507D01*
X100061739Y-57319500D01*
X100032186Y-57275270D01*
X99990701Y-57213181D01*
X99982956Y-57201589D01*
X99982952Y-57201584D01*
X92745018Y-49963650D01*
X92711533Y-49902327D01*
X92712923Y-49843878D01*
X92769693Y-49632014D01*
X92800500Y-49398011D01*
X92800500Y-49161989D01*
X92769693Y-48927986D01*
X92708606Y-48700007D01*
X92618284Y-48481951D01*
X92618282Y-48481948D01*
X92618280Y-48481943D01*
X92559516Y-48380162D01*
X92500273Y-48277550D01*
X92356592Y-48090301D01*
X92356587Y-48090295D01*
X92189704Y-47923412D01*
X92189697Y-47923406D01*
X92002454Y-47779730D01*
X92002453Y-47779729D01*
X92002450Y-47779727D01*
X91920957Y-47732677D01*
X91798056Y-47661719D01*
X91798045Y-47661714D01*
X91579993Y-47571394D01*
X91352014Y-47510307D01*
X91352013Y-47510306D01*
X91352010Y-47510306D01*
X91118020Y-47479501D01*
X91118017Y-47479500D01*
X91118011Y-47479500D01*
X90881989Y-47479500D01*
X90881983Y-47479500D01*
X90881979Y-47479501D01*
X90647989Y-47510306D01*
X90420006Y-47571394D01*
X90201954Y-47661714D01*
X90201943Y-47661719D01*
X89997545Y-47779730D01*
X89810302Y-47923406D01*
X89810295Y-47923412D01*
X89643412Y-48090295D01*
X89643406Y-48090302D01*
X89499730Y-48277545D01*
X89381719Y-48481943D01*
X89381714Y-48481954D01*
X89291394Y-48700006D01*
X89230306Y-48927989D01*
X89199501Y-49161979D01*
X89199500Y-49161995D01*
X87250500Y-49161995D01*
X87250500Y-43099983D01*
X89199500Y-43099983D01*
X89199500Y-45300001D01*
X89199501Y-45300018D01*
X89210000Y-45402796D01*
X89210001Y-45402799D01*
X89248750Y-45519735D01*
X89265186Y-45569334D01*
X89357288Y-45718656D01*
X89481344Y-45842712D01*
X89630666Y-45934814D01*
X89797203Y-45989999D01*
X89899991Y-46000500D01*
X92100008Y-46000499D01*
X92202797Y-45989999D01*
X92369334Y-45934814D01*
X92518656Y-45842712D01*
X92642712Y-45718656D01*
X92734814Y-45569334D01*
X92789999Y-45402797D01*
X92800500Y-45300009D01*
X92800499Y-43655513D01*
X111119500Y-43655513D01*
X111119500Y-43844486D01*
X111149059Y-44031118D01*
X111207454Y-44210836D01*
X111293240Y-44379199D01*
X111404310Y-44532073D01*
X111537927Y-44665690D01*
X111690801Y-44776760D01*
X111770347Y-44817290D01*
X111859163Y-44862545D01*
X111859165Y-44862545D01*
X111859168Y-44862547D01*
X111920423Y-44882450D01*
X112038881Y-44920940D01*
X112225514Y-44950500D01*
X112225519Y-44950500D01*
X112414486Y-44950500D01*
X112601118Y-44920940D01*
X112780832Y-44862547D01*
X112949199Y-44776760D01*
X113102073Y-44665690D01*
X113235690Y-44532073D01*
X113346760Y-44379199D01*
X113432547Y-44210832D01*
X113490940Y-44031118D01*
X113496185Y-43998004D01*
X113520500Y-43844486D01*
X113520500Y-43655513D01*
X116199500Y-43655513D01*
X116199500Y-43844486D01*
X116229059Y-44031118D01*
X116287454Y-44210836D01*
X116373240Y-44379199D01*
X116484310Y-44532073D01*
X116617927Y-44665690D01*
X116770801Y-44776760D01*
X116850347Y-44817290D01*
X116939163Y-44862545D01*
X116939165Y-44862545D01*
X116939168Y-44862547D01*
X117000423Y-44882450D01*
X117118881Y-44920940D01*
X117305514Y-44950500D01*
X117305519Y-44950500D01*
X117494486Y-44950500D01*
X117681118Y-44920940D01*
X117860832Y-44862547D01*
X118029199Y-44776760D01*
X118182073Y-44665690D01*
X118315690Y-44532073D01*
X118426760Y-44379199D01*
X118512547Y-44210832D01*
X118570940Y-44031118D01*
X118576185Y-43998004D01*
X118600500Y-43844486D01*
X118600500Y-43655513D01*
X118570940Y-43468881D01*
X118543846Y-43385497D01*
X118512547Y-43289168D01*
X118512545Y-43289165D01*
X118512545Y-43289163D01*
X118467290Y-43200347D01*
X118426760Y-43120801D01*
X118315690Y-42967927D01*
X118182073Y-42834310D01*
X118029199Y-42723240D01*
X117860836Y-42637454D01*
X117681118Y-42579059D01*
X117494486Y-42549500D01*
X117494481Y-42549500D01*
X117305519Y-42549500D01*
X117305514Y-42549500D01*
X117118881Y-42579059D01*
X116939163Y-42637454D01*
X116770800Y-42723240D01*
X116683579Y-42786610D01*
X116617927Y-42834310D01*
X116617925Y-42834312D01*
X116617924Y-42834312D01*
X116484312Y-42967924D01*
X116484312Y-42967925D01*
X116484310Y-42967927D01*
X116463042Y-42997200D01*
X116373240Y-43120800D01*
X116287454Y-43289163D01*
X116229059Y-43468881D01*
X116199500Y-43655513D01*
X113520500Y-43655513D01*
X113490940Y-43468881D01*
X113463846Y-43385497D01*
X113432547Y-43289168D01*
X113432545Y-43289165D01*
X113432545Y-43289163D01*
X113387290Y-43200347D01*
X113346760Y-43120801D01*
X113235690Y-42967927D01*
X113102073Y-42834310D01*
X112949199Y-42723240D01*
X112780836Y-42637454D01*
X112601118Y-42579059D01*
X112414486Y-42549500D01*
X112414481Y-42549500D01*
X112225519Y-42549500D01*
X112225514Y-42549500D01*
X112038881Y-42579059D01*
X111859163Y-42637454D01*
X111690800Y-42723240D01*
X111603579Y-42786610D01*
X111537927Y-42834310D01*
X111537925Y-42834312D01*
X111537924Y-42834312D01*
X111404312Y-42967924D01*
X111404312Y-42967925D01*
X111404310Y-42967927D01*
X111383042Y-42997200D01*
X111293240Y-43120800D01*
X111207454Y-43289163D01*
X111149059Y-43468881D01*
X111119500Y-43655513D01*
X92800499Y-43655513D01*
X92800499Y-43099992D01*
X92798656Y-43081954D01*
X92789999Y-42997203D01*
X92789998Y-42997200D01*
X92780297Y-42967924D01*
X92734814Y-42830666D01*
X92642712Y-42681344D01*
X92518656Y-42557288D01*
X92369334Y-42465186D01*
X92202797Y-42410001D01*
X92202795Y-42410000D01*
X92100010Y-42399500D01*
X89899998Y-42399500D01*
X89899981Y-42399501D01*
X89797203Y-42410000D01*
X89797200Y-42410001D01*
X89630668Y-42465185D01*
X89630663Y-42465187D01*
X89481342Y-42557289D01*
X89357289Y-42681342D01*
X89265187Y-42830663D01*
X89265186Y-42830666D01*
X89210001Y-42997203D01*
X89210001Y-42997204D01*
X89210000Y-42997204D01*
X89199500Y-43099983D01*
X87250500Y-43099983D01*
X87250500Y-42122229D01*
X87270185Y-42055190D01*
X87286814Y-42034553D01*
X93984549Y-35336817D01*
X94045872Y-35303333D01*
X94072230Y-35300499D01*
X95860002Y-35300499D01*
X95860008Y-35300499D01*
X95962797Y-35289999D01*
X96129334Y-35234814D01*
X96278656Y-35142712D01*
X96402712Y-35018656D01*
X96494814Y-34869334D01*
X96549999Y-34702797D01*
X96560500Y-34600009D01*
X96560499Y-33381995D01*
X98039500Y-33381995D01*
X98039500Y-33618004D01*
X98039501Y-33618020D01*
X98070306Y-33852010D01*
X98131394Y-34079993D01*
X98221714Y-34298045D01*
X98221719Y-34298056D01*
X98292677Y-34420957D01*
X98339727Y-34502450D01*
X98339729Y-34502453D01*
X98339730Y-34502454D01*
X98483406Y-34689697D01*
X98483412Y-34689704D01*
X98650295Y-34856587D01*
X98650302Y-34856593D01*
X98666909Y-34869336D01*
X98837550Y-35000273D01*
X98968918Y-35076118D01*
X99041943Y-35118280D01*
X99041948Y-35118282D01*
X99041951Y-35118284D01*
X99260007Y-35208606D01*
X99487986Y-35269693D01*
X99721989Y-35300500D01*
X99721996Y-35300500D01*
X99958004Y-35300500D01*
X99958011Y-35300500D01*
X100192014Y-35269693D01*
X100419993Y-35208606D01*
X100638049Y-35118284D01*
X100842450Y-35000273D01*
X101029699Y-34856592D01*
X101196592Y-34689699D01*
X101340273Y-34502450D01*
X101458284Y-34298049D01*
X101548606Y-34079993D01*
X101609693Y-33852014D01*
X101640500Y-33618011D01*
X101640500Y-33381995D01*
X103119500Y-33381995D01*
X103119500Y-33618004D01*
X103119501Y-33618020D01*
X103150306Y-33852010D01*
X103211394Y-34079993D01*
X103301714Y-34298045D01*
X103301719Y-34298056D01*
X103372677Y-34420957D01*
X103419727Y-34502450D01*
X103419729Y-34502453D01*
X103419730Y-34502454D01*
X103563406Y-34689697D01*
X103563412Y-34689704D01*
X103730295Y-34856587D01*
X103730302Y-34856593D01*
X103746909Y-34869336D01*
X103917550Y-35000273D01*
X104048918Y-35076118D01*
X104121943Y-35118280D01*
X104121948Y-35118282D01*
X104121951Y-35118284D01*
X104340007Y-35208606D01*
X104567986Y-35269693D01*
X104801989Y-35300500D01*
X104801996Y-35300500D01*
X105038004Y-35300500D01*
X105038011Y-35300500D01*
X105272014Y-35269693D01*
X105499993Y-35208606D01*
X105718049Y-35118284D01*
X105922450Y-35000273D01*
X106109699Y-34856592D01*
X106276592Y-34689699D01*
X106420273Y-34502450D01*
X106538284Y-34298049D01*
X106628606Y-34079993D01*
X106689693Y-33852014D01*
X106720500Y-33618011D01*
X106720500Y-33381995D01*
X108199500Y-33381995D01*
X108199500Y-33618004D01*
X108199501Y-33618020D01*
X108230306Y-33852010D01*
X108291394Y-34079993D01*
X108381714Y-34298045D01*
X108381719Y-34298056D01*
X108452677Y-34420957D01*
X108499727Y-34502450D01*
X108499729Y-34502453D01*
X108499730Y-34502454D01*
X108643406Y-34689697D01*
X108643412Y-34689704D01*
X108810295Y-34856587D01*
X108810302Y-34856593D01*
X108826909Y-34869336D01*
X108997550Y-35000273D01*
X109128918Y-35076118D01*
X109201943Y-35118280D01*
X109201948Y-35118282D01*
X109201951Y-35118284D01*
X109420007Y-35208606D01*
X109647986Y-35269693D01*
X109881989Y-35300500D01*
X109881996Y-35300500D01*
X110118004Y-35300500D01*
X110118011Y-35300500D01*
X110352014Y-35269693D01*
X110579993Y-35208606D01*
X110798049Y-35118284D01*
X111002450Y-35000273D01*
X111189699Y-34856592D01*
X111356592Y-34689699D01*
X111500273Y-34502450D01*
X111618284Y-34298049D01*
X111708606Y-34079993D01*
X111769693Y-33852014D01*
X111800500Y-33618011D01*
X111800500Y-33381989D01*
X111769693Y-33147986D01*
X111708606Y-32920007D01*
X111618284Y-32701951D01*
X111618281Y-32701947D01*
X111618278Y-32701939D01*
X111611345Y-32689931D01*
X111611344Y-32689930D01*
X111577895Y-32631995D01*
X121049500Y-32631995D01*
X121049500Y-32868004D01*
X121049501Y-32868020D01*
X121080306Y-33102010D01*
X121141394Y-33329993D01*
X121231714Y-33548045D01*
X121231719Y-33548056D01*
X121302677Y-33670957D01*
X121349727Y-33752450D01*
X121349729Y-33752453D01*
X121349730Y-33752454D01*
X121493406Y-33939697D01*
X121493412Y-33939704D01*
X121660295Y-34106587D01*
X121660302Y-34106593D01*
X121676633Y-34119124D01*
X121847550Y-34250273D01*
X121930313Y-34298056D01*
X122051943Y-34368280D01*
X122051948Y-34368282D01*
X122051951Y-34368284D01*
X122270007Y-34458606D01*
X122497986Y-34519693D01*
X122731989Y-34550500D01*
X122731996Y-34550500D01*
X122968004Y-34550500D01*
X122968011Y-34550500D01*
X123202014Y-34519693D01*
X123429993Y-34458606D01*
X123648049Y-34368284D01*
X123852450Y-34250273D01*
X124039699Y-34106592D01*
X124206592Y-33939699D01*
X124350273Y-33752450D01*
X124468284Y-33548049D01*
X124558606Y-33329993D01*
X124619693Y-33102014D01*
X124650500Y-32868011D01*
X124650500Y-32631995D01*
X126129500Y-32631995D01*
X126129500Y-32868004D01*
X126129501Y-32868020D01*
X126160306Y-33102010D01*
X126221394Y-33329993D01*
X126311714Y-33548045D01*
X126311719Y-33548056D01*
X126382677Y-33670957D01*
X126429727Y-33752450D01*
X126429729Y-33752453D01*
X126429730Y-33752454D01*
X126573406Y-33939697D01*
X126573412Y-33939704D01*
X126740295Y-34106587D01*
X126740302Y-34106593D01*
X126756633Y-34119124D01*
X126927550Y-34250273D01*
X127010313Y-34298056D01*
X127131943Y-34368280D01*
X127131948Y-34368282D01*
X127131951Y-34368284D01*
X127350007Y-34458606D01*
X127577986Y-34519693D01*
X127811989Y-34550500D01*
X127811996Y-34550500D01*
X128048004Y-34550500D01*
X128048011Y-34550500D01*
X128282014Y-34519693D01*
X128493877Y-34462924D01*
X128563725Y-34464587D01*
X128613650Y-34495018D01*
X130713181Y-36594548D01*
X130746666Y-36655871D01*
X130749500Y-36682229D01*
X130749500Y-69445396D01*
X130740062Y-69492844D01*
X130730263Y-69516503D01*
X130730262Y-69516506D01*
X130730260Y-69516511D01*
X130699500Y-69671153D01*
X130699500Y-69828846D01*
X130730261Y-69983489D01*
X130730264Y-69983501D01*
X130790602Y-70129172D01*
X130790609Y-70129185D01*
X130878210Y-70260288D01*
X130878213Y-70260292D01*
X130989707Y-70371786D01*
X130989711Y-70371789D01*
X131120814Y-70459390D01*
X131120827Y-70459397D01*
X131219244Y-70500162D01*
X131266503Y-70519737D01*
X131421153Y-70550499D01*
X131421156Y-70550500D01*
X131421158Y-70550500D01*
X131578844Y-70550500D01*
X131578845Y-70550499D01*
X131733497Y-70519737D01*
X131879179Y-70459394D01*
X132010289Y-70371789D01*
X132121789Y-70260289D01*
X132209394Y-70129179D01*
X132269737Y-69983497D01*
X132300500Y-69828842D01*
X132300500Y-69671158D01*
X132300500Y-69671155D01*
X132300499Y-69671153D01*
X132269739Y-69516511D01*
X132269738Y-69516508D01*
X132269737Y-69516503D01*
X132259937Y-69492844D01*
X132250500Y-69445396D01*
X132250500Y-53921995D01*
X144372000Y-53921995D01*
X144372000Y-54158004D01*
X144372001Y-54158020D01*
X144394707Y-54330494D01*
X144402807Y-54392014D01*
X144411383Y-54424019D01*
X144463894Y-54619993D01*
X144554214Y-54838045D01*
X144554219Y-54838056D01*
X144612298Y-54938650D01*
X144672227Y-55042450D01*
X144672229Y-55042453D01*
X144672230Y-55042454D01*
X144815906Y-55229697D01*
X144815912Y-55229704D01*
X144982795Y-55396587D01*
X144982801Y-55396592D01*
X145170050Y-55540273D01*
X145301418Y-55616118D01*
X145374443Y-55658280D01*
X145374448Y-55658282D01*
X145374451Y-55658284D01*
X145592507Y-55748606D01*
X145820486Y-55809693D01*
X146054489Y-55840500D01*
X146054496Y-55840500D01*
X146290504Y-55840500D01*
X146290511Y-55840500D01*
X146524514Y-55809693D01*
X146752493Y-55748606D01*
X146970549Y-55658284D01*
X146973953Y-55656319D01*
X146975447Y-55655455D01*
X147174950Y-55540273D01*
X147362199Y-55396592D01*
X147529092Y-55229699D01*
X147672773Y-55042450D01*
X147790784Y-54838049D01*
X147881106Y-54619993D01*
X147942193Y-54392014D01*
X147973000Y-54158011D01*
X147973000Y-53921989D01*
X147942193Y-53687986D01*
X147881106Y-53460007D01*
X147790784Y-53241951D01*
X147790782Y-53241948D01*
X147790780Y-53241943D01*
X147740321Y-53154547D01*
X147672773Y-53037550D01*
X147584661Y-52922720D01*
X147529093Y-52850302D01*
X147529087Y-52850295D01*
X147362204Y-52683412D01*
X147362197Y-52683406D01*
X147174954Y-52539730D01*
X147174953Y-52539729D01*
X147174950Y-52539727D01*
X147033795Y-52458231D01*
X146970553Y-52421718D01*
X146970545Y-52421714D01*
X146752493Y-52331394D01*
X146524510Y-52270306D01*
X146290520Y-52239501D01*
X146290517Y-52239500D01*
X146290511Y-52239500D01*
X146054489Y-52239500D01*
X146054483Y-52239500D01*
X146054479Y-52239501D01*
X145820489Y-52270306D01*
X145592506Y-52331394D01*
X145374454Y-52421714D01*
X145374447Y-52421718D01*
X145170045Y-52539730D01*
X144982802Y-52683406D01*
X144982795Y-52683412D01*
X144815912Y-52850295D01*
X144815906Y-52850302D01*
X144672230Y-53037545D01*
X144554219Y-53241943D01*
X144554214Y-53241954D01*
X144463894Y-53460006D01*
X144402806Y-53687989D01*
X144372001Y-53921979D01*
X144372000Y-53921995D01*
X132250500Y-53921995D01*
X132250500Y-48842014D01*
X144372500Y-48842014D01*
X144372500Y-49077985D01*
X144403299Y-49311914D01*
X144464370Y-49539837D01*
X144554660Y-49757819D01*
X144554665Y-49757828D01*
X144672644Y-49962171D01*
X144672645Y-49962172D01*
X144735221Y-50043723D01*
X145571458Y-49207487D01*
X145596478Y-49267890D01*
X145667612Y-49374351D01*
X145758149Y-49464888D01*
X145864610Y-49536022D01*
X145925011Y-49561041D01*
X145088775Y-50397277D01*
X145170327Y-50459854D01*
X145170328Y-50459855D01*
X145374671Y-50577834D01*
X145374680Y-50577839D01*
X145592663Y-50668129D01*
X145592661Y-50668129D01*
X145820585Y-50729200D01*
X146054514Y-50759999D01*
X146054529Y-50760000D01*
X146290471Y-50760000D01*
X146290485Y-50759999D01*
X146524414Y-50729200D01*
X146752337Y-50668129D01*
X146970319Y-50577839D01*
X146970328Y-50577834D01*
X147174681Y-50459850D01*
X147256223Y-50397279D01*
X147256223Y-50397276D01*
X146419987Y-49561041D01*
X146480390Y-49536022D01*
X146586851Y-49464888D01*
X146677388Y-49374351D01*
X146748522Y-49267890D01*
X146773541Y-49207488D01*
X147609776Y-50043723D01*
X147609779Y-50043723D01*
X147672350Y-49962181D01*
X147790334Y-49757828D01*
X147790339Y-49757819D01*
X147880629Y-49539837D01*
X147941700Y-49311914D01*
X147972499Y-49077985D01*
X147972500Y-49077971D01*
X147972500Y-48842028D01*
X147972499Y-48842014D01*
X147941700Y-48608085D01*
X147880629Y-48380162D01*
X147790339Y-48162180D01*
X147790334Y-48162171D01*
X147672355Y-47957828D01*
X147672354Y-47957827D01*
X147609777Y-47876275D01*
X146773541Y-48712511D01*
X146748522Y-48652110D01*
X146677388Y-48545649D01*
X146586851Y-48455112D01*
X146480390Y-48383978D01*
X146419988Y-48358958D01*
X147256223Y-47522721D01*
X147174672Y-47460145D01*
X147174671Y-47460144D01*
X146970328Y-47342165D01*
X146970319Y-47342160D01*
X146752336Y-47251870D01*
X146752338Y-47251870D01*
X146524414Y-47190799D01*
X146290485Y-47160000D01*
X146054514Y-47160000D01*
X145820585Y-47190799D01*
X145592662Y-47251870D01*
X145374680Y-47342160D01*
X145374671Y-47342165D01*
X145170328Y-47460144D01*
X145170318Y-47460150D01*
X145088775Y-47522720D01*
X145088775Y-47522721D01*
X145925012Y-48358958D01*
X145864610Y-48383978D01*
X145758149Y-48455112D01*
X145667612Y-48545649D01*
X145596478Y-48652110D01*
X145571458Y-48712512D01*
X144735221Y-47876275D01*
X144735220Y-47876275D01*
X144672650Y-47957818D01*
X144672644Y-47957828D01*
X144554665Y-48162171D01*
X144554660Y-48162180D01*
X144464370Y-48380162D01*
X144403299Y-48608085D01*
X144372500Y-48842014D01*
X132250500Y-48842014D01*
X132250500Y-36246079D01*
X132221659Y-36101092D01*
X132221658Y-36101091D01*
X132221658Y-36101087D01*
X132221656Y-36101082D01*
X132165087Y-35964511D01*
X132165080Y-35964498D01*
X132082952Y-35841585D01*
X132082951Y-35841584D01*
X131978416Y-35737049D01*
X129675018Y-33433650D01*
X129641533Y-33372327D01*
X129642923Y-33313878D01*
X129699693Y-33102014D01*
X129730500Y-32868011D01*
X129730500Y-32631995D01*
X131209500Y-32631995D01*
X131209500Y-32868004D01*
X131209501Y-32868020D01*
X131240306Y-33102010D01*
X131301394Y-33329993D01*
X131391714Y-33548045D01*
X131391719Y-33548056D01*
X131462677Y-33670957D01*
X131509727Y-33752450D01*
X131509729Y-33752453D01*
X131509730Y-33752454D01*
X131653406Y-33939697D01*
X131653412Y-33939704D01*
X131820295Y-34106587D01*
X131820302Y-34106593D01*
X131836633Y-34119124D01*
X132007550Y-34250273D01*
X132090313Y-34298056D01*
X132211943Y-34368280D01*
X132211948Y-34368282D01*
X132211951Y-34368284D01*
X132430007Y-34458606D01*
X132657986Y-34519693D01*
X132891989Y-34550500D01*
X132891996Y-34550500D01*
X133128004Y-34550500D01*
X133128011Y-34550500D01*
X133362014Y-34519693D01*
X133573877Y-34462924D01*
X133643725Y-34464587D01*
X133693650Y-34495018D01*
X136713181Y-37514549D01*
X136746666Y-37575872D01*
X136749500Y-37602230D01*
X136749500Y-44445396D01*
X136740062Y-44492844D01*
X136730263Y-44516503D01*
X136730262Y-44516506D01*
X136730260Y-44516511D01*
X136699500Y-44671153D01*
X136699500Y-44828846D01*
X136730261Y-44983489D01*
X136730264Y-44983501D01*
X136790602Y-45129172D01*
X136790609Y-45129185D01*
X136878210Y-45260288D01*
X136878213Y-45260292D01*
X136989707Y-45371786D01*
X136989711Y-45371789D01*
X137120814Y-45459390D01*
X137120827Y-45459397D01*
X137266498Y-45519735D01*
X137266503Y-45519737D01*
X137421153Y-45550499D01*
X137421156Y-45550500D01*
X137421158Y-45550500D01*
X137578844Y-45550500D01*
X137578845Y-45550499D01*
X137733497Y-45519737D01*
X137879179Y-45459394D01*
X138010289Y-45371789D01*
X138121789Y-45260289D01*
X138209394Y-45129179D01*
X138269737Y-44983497D01*
X138300500Y-44828842D01*
X138300500Y-44671158D01*
X138300500Y-44671155D01*
X138300499Y-44671153D01*
X138269739Y-44516511D01*
X138269738Y-44516508D01*
X138269737Y-44516503D01*
X138259937Y-44492844D01*
X138250500Y-44445396D01*
X138250500Y-37166079D01*
X138221659Y-37021092D01*
X138221658Y-37021091D01*
X138221658Y-37021087D01*
X138221656Y-37021082D01*
X138165086Y-36884508D01*
X138107561Y-36798415D01*
X138107561Y-36798414D01*
X138107559Y-36798413D01*
X138082952Y-36761584D01*
X134755018Y-33433650D01*
X134721533Y-33372327D01*
X134722923Y-33313878D01*
X134779693Y-33102014D01*
X134810500Y-32868011D01*
X134810500Y-32631995D01*
X136289500Y-32631995D01*
X136289500Y-32868004D01*
X136289501Y-32868020D01*
X136320306Y-33102010D01*
X136381394Y-33329993D01*
X136471714Y-33548045D01*
X136471719Y-33548056D01*
X136542677Y-33670957D01*
X136589727Y-33752450D01*
X136589729Y-33752453D01*
X136589730Y-33752454D01*
X136733406Y-33939697D01*
X136733412Y-33939704D01*
X136900295Y-34106587D01*
X136900302Y-34106593D01*
X136916633Y-34119124D01*
X137087550Y-34250273D01*
X137170313Y-34298056D01*
X137291943Y-34368280D01*
X137291948Y-34368282D01*
X137291951Y-34368284D01*
X137510007Y-34458606D01*
X137737986Y-34519693D01*
X137971989Y-34550500D01*
X137971996Y-34550500D01*
X138208004Y-34550500D01*
X138208011Y-34550500D01*
X138442014Y-34519693D01*
X138669993Y-34458606D01*
X138888049Y-34368284D01*
X139092450Y-34250273D01*
X139279699Y-34106592D01*
X139446592Y-33939699D01*
X139590273Y-33752450D01*
X139708284Y-33548049D01*
X139798606Y-33329993D01*
X139859693Y-33102014D01*
X139890500Y-32868011D01*
X139890500Y-32631995D01*
X141369500Y-32631995D01*
X141369500Y-32868004D01*
X141369501Y-32868020D01*
X141400306Y-33102010D01*
X141461394Y-33329993D01*
X141551714Y-33548045D01*
X141551719Y-33548056D01*
X141622677Y-33670957D01*
X141669727Y-33752450D01*
X141669729Y-33752453D01*
X141669730Y-33752454D01*
X141813406Y-33939697D01*
X141813412Y-33939704D01*
X141980295Y-34106587D01*
X141980302Y-34106593D01*
X141996633Y-34119124D01*
X142167550Y-34250273D01*
X142250313Y-34298056D01*
X142371943Y-34368280D01*
X142371948Y-34368282D01*
X142371951Y-34368284D01*
X142590007Y-34458606D01*
X142817986Y-34519693D01*
X143051989Y-34550500D01*
X143051996Y-34550500D01*
X143288004Y-34550500D01*
X143288011Y-34550500D01*
X143522014Y-34519693D01*
X143749993Y-34458606D01*
X143968049Y-34368284D01*
X144172450Y-34250273D01*
X144359699Y-34106592D01*
X144526592Y-33939699D01*
X144670273Y-33752450D01*
X144788284Y-33548049D01*
X144878606Y-33329993D01*
X144939693Y-33102014D01*
X144970500Y-32868011D01*
X144970500Y-32631989D01*
X144939693Y-32397986D01*
X144878606Y-32170007D01*
X144788284Y-31951951D01*
X144788282Y-31951948D01*
X144788280Y-31951943D01*
X144695586Y-31791394D01*
X144670273Y-31747550D01*
X144657042Y-31730307D01*
X144650936Y-31722349D01*
X144650935Y-31722348D01*
X144595431Y-31650013D01*
X146450000Y-31650013D01*
X146450000Y-32500000D01*
X147649999Y-32500000D01*
X147624979Y-32560402D01*
X147600000Y-32685981D01*
X147600000Y-32814019D01*
X147624979Y-32939598D01*
X147649999Y-33000000D01*
X146450001Y-33000000D01*
X146450001Y-33849986D01*
X146460494Y-33952697D01*
X146515641Y-34119119D01*
X146515643Y-34119124D01*
X146607684Y-34268345D01*
X146731654Y-34392315D01*
X146880875Y-34484356D01*
X146880880Y-34484358D01*
X147047302Y-34539505D01*
X147047309Y-34539506D01*
X147150019Y-34549999D01*
X147999999Y-34549999D01*
X148000000Y-34549998D01*
X148000000Y-33350001D01*
X148060402Y-33375021D01*
X148185981Y-33400000D01*
X148314019Y-33400000D01*
X148439598Y-33375021D01*
X148500000Y-33350001D01*
X148500000Y-34549999D01*
X149349972Y-34549999D01*
X149349986Y-34549998D01*
X149452697Y-34539505D01*
X149619119Y-34484358D01*
X149619124Y-34484356D01*
X149768345Y-34392315D01*
X149892315Y-34268345D01*
X149984356Y-34119124D01*
X149984358Y-34119119D01*
X150039505Y-33952697D01*
X150039506Y-33952690D01*
X150049999Y-33849986D01*
X150050000Y-33849973D01*
X150050000Y-33000000D01*
X148850001Y-33000000D01*
X148875021Y-32939598D01*
X148900000Y-32814019D01*
X148900000Y-32685981D01*
X148875021Y-32560402D01*
X148850001Y-32500000D01*
X150049999Y-32500000D01*
X150049999Y-31650028D01*
X150049998Y-31650013D01*
X150039505Y-31547302D01*
X149984358Y-31380880D01*
X149984356Y-31380875D01*
X149892315Y-31231654D01*
X149768345Y-31107684D01*
X149619124Y-31015643D01*
X149619119Y-31015641D01*
X149452697Y-30960494D01*
X149452690Y-30960493D01*
X149349986Y-30950000D01*
X148500000Y-30950000D01*
X148500000Y-32149998D01*
X148439598Y-32124979D01*
X148314019Y-32100000D01*
X148185981Y-32100000D01*
X148060402Y-32124979D01*
X148000000Y-32149998D01*
X148000000Y-30950000D01*
X147150028Y-30950000D01*
X147150012Y-30950001D01*
X147047302Y-30960494D01*
X146880880Y-31015641D01*
X146880875Y-31015643D01*
X146731654Y-31107684D01*
X146607684Y-31231654D01*
X146515643Y-31380875D01*
X146515641Y-31380880D01*
X146460494Y-31547302D01*
X146460493Y-31547309D01*
X146450000Y-31650013D01*
X144595431Y-31650013D01*
X144526593Y-31560302D01*
X144526587Y-31560295D01*
X144359704Y-31393412D01*
X144359697Y-31393406D01*
X144172454Y-31249730D01*
X144172453Y-31249729D01*
X144172450Y-31249727D01*
X144090957Y-31202677D01*
X143968056Y-31131719D01*
X143968045Y-31131714D01*
X143749993Y-31041394D01*
X143522010Y-30980306D01*
X143288020Y-30949501D01*
X143288017Y-30949500D01*
X143288011Y-30949500D01*
X143051989Y-30949500D01*
X143051983Y-30949500D01*
X143051979Y-30949501D01*
X142817989Y-30980306D01*
X142590006Y-31041394D01*
X142371954Y-31131714D01*
X142371943Y-31131719D01*
X142167545Y-31249730D01*
X141980302Y-31393406D01*
X141980295Y-31393412D01*
X141813412Y-31560295D01*
X141813406Y-31560302D01*
X141669730Y-31747545D01*
X141551719Y-31951943D01*
X141551714Y-31951954D01*
X141461394Y-32170006D01*
X141400306Y-32397989D01*
X141369501Y-32631979D01*
X141369500Y-32631995D01*
X139890500Y-32631995D01*
X139890500Y-32631989D01*
X139859693Y-32397986D01*
X139798606Y-32170007D01*
X139708284Y-31951951D01*
X139708282Y-31951948D01*
X139708280Y-31951943D01*
X139653630Y-31857288D01*
X139590273Y-31747550D01*
X139446592Y-31560301D01*
X139446587Y-31560295D01*
X139279704Y-31393412D01*
X139279697Y-31393406D01*
X139092454Y-31249730D01*
X139092453Y-31249729D01*
X139092450Y-31249727D01*
X139010957Y-31202677D01*
X138888056Y-31131719D01*
X138888045Y-31131714D01*
X138669993Y-31041394D01*
X138442010Y-30980306D01*
X138208020Y-30949501D01*
X138208017Y-30949500D01*
X138208011Y-30949500D01*
X137971989Y-30949500D01*
X137971983Y-30949500D01*
X137971979Y-30949501D01*
X137737989Y-30980306D01*
X137510006Y-31041394D01*
X137291954Y-31131714D01*
X137291943Y-31131719D01*
X137087545Y-31249730D01*
X136900302Y-31393406D01*
X136900295Y-31393412D01*
X136733412Y-31560295D01*
X136733406Y-31560302D01*
X136589730Y-31747545D01*
X136471719Y-31951943D01*
X136471714Y-31951954D01*
X136381394Y-32170006D01*
X136320306Y-32397989D01*
X136289501Y-32631979D01*
X136289500Y-32631995D01*
X134810500Y-32631995D01*
X134810500Y-32631989D01*
X134779693Y-32397986D01*
X134718606Y-32170007D01*
X134628284Y-31951951D01*
X134628282Y-31951948D01*
X134628280Y-31951943D01*
X134573630Y-31857288D01*
X134510273Y-31747550D01*
X134366592Y-31560301D01*
X134366587Y-31560295D01*
X134199704Y-31393412D01*
X134199697Y-31393406D01*
X134012454Y-31249730D01*
X134012453Y-31249729D01*
X134012450Y-31249727D01*
X133930957Y-31202677D01*
X133808056Y-31131719D01*
X133808045Y-31131714D01*
X133589993Y-31041394D01*
X133362010Y-30980306D01*
X133128020Y-30949501D01*
X133128017Y-30949500D01*
X133128011Y-30949500D01*
X132891989Y-30949500D01*
X132891983Y-30949500D01*
X132891979Y-30949501D01*
X132657989Y-30980306D01*
X132430006Y-31041394D01*
X132211954Y-31131714D01*
X132211943Y-31131719D01*
X132007545Y-31249730D01*
X131820302Y-31393406D01*
X131820295Y-31393412D01*
X131653412Y-31560295D01*
X131653406Y-31560302D01*
X131509730Y-31747545D01*
X131391719Y-31951943D01*
X131391714Y-31951954D01*
X131301394Y-32170006D01*
X131240306Y-32397989D01*
X131209501Y-32631979D01*
X131209500Y-32631995D01*
X129730500Y-32631995D01*
X129730500Y-32631989D01*
X129699693Y-32397986D01*
X129638606Y-32170007D01*
X129548284Y-31951951D01*
X129548282Y-31951948D01*
X129548280Y-31951943D01*
X129493630Y-31857288D01*
X129430273Y-31747550D01*
X129286592Y-31560301D01*
X129286587Y-31560295D01*
X129119704Y-31393412D01*
X129119697Y-31393406D01*
X128932454Y-31249730D01*
X128932453Y-31249729D01*
X128932450Y-31249727D01*
X128850957Y-31202677D01*
X128728056Y-31131719D01*
X128728045Y-31131714D01*
X128509993Y-31041394D01*
X128282010Y-30980306D01*
X128048020Y-30949501D01*
X128048017Y-30949500D01*
X128048011Y-30949500D01*
X127811989Y-30949500D01*
X127811983Y-30949500D01*
X127811979Y-30949501D01*
X127577989Y-30980306D01*
X127350006Y-31041394D01*
X127131954Y-31131714D01*
X127131943Y-31131719D01*
X126927545Y-31249730D01*
X126740302Y-31393406D01*
X126740295Y-31393412D01*
X126573412Y-31560295D01*
X126573406Y-31560302D01*
X126429730Y-31747545D01*
X126311719Y-31951943D01*
X126311714Y-31951954D01*
X126221394Y-32170006D01*
X126160306Y-32397989D01*
X126129501Y-32631979D01*
X126129500Y-32631995D01*
X124650500Y-32631995D01*
X124650500Y-32631989D01*
X124619693Y-32397986D01*
X124558606Y-32170007D01*
X124468284Y-31951951D01*
X124468282Y-31951948D01*
X124468280Y-31951943D01*
X124413630Y-31857288D01*
X124350273Y-31747550D01*
X124206592Y-31560301D01*
X124206587Y-31560295D01*
X124039704Y-31393412D01*
X124039697Y-31393406D01*
X123852454Y-31249730D01*
X123852453Y-31249729D01*
X123852450Y-31249727D01*
X123770957Y-31202677D01*
X123648056Y-31131719D01*
X123648045Y-31131714D01*
X123429993Y-31041394D01*
X123202010Y-30980306D01*
X122968020Y-30949501D01*
X122968017Y-30949500D01*
X122968011Y-30949500D01*
X122731989Y-30949500D01*
X122731983Y-30949500D01*
X122731979Y-30949501D01*
X122497989Y-30980306D01*
X122270006Y-31041394D01*
X122051954Y-31131714D01*
X122051943Y-31131719D01*
X121847545Y-31249730D01*
X121660302Y-31393406D01*
X121660295Y-31393412D01*
X121493412Y-31560295D01*
X121493406Y-31560302D01*
X121349730Y-31747545D01*
X121231719Y-31951943D01*
X121231714Y-31951954D01*
X121141394Y-32170006D01*
X121080306Y-32397989D01*
X121049501Y-32631979D01*
X121049500Y-32631995D01*
X111577895Y-32631995D01*
X111576885Y-32630246D01*
X111500273Y-32497550D01*
X111356592Y-32310301D01*
X111356587Y-32310295D01*
X111189704Y-32143412D01*
X111189697Y-32143406D01*
X111002454Y-31999730D01*
X111002453Y-31999729D01*
X111002450Y-31999727D01*
X110919686Y-31951943D01*
X110798056Y-31881719D01*
X110798045Y-31881714D01*
X110579993Y-31791394D01*
X110482180Y-31765185D01*
X110352014Y-31730307D01*
X110352013Y-31730306D01*
X110352010Y-31730306D01*
X110118020Y-31699501D01*
X110118017Y-31699500D01*
X110118011Y-31699500D01*
X109881989Y-31699500D01*
X109881983Y-31699500D01*
X109881979Y-31699501D01*
X109647989Y-31730306D01*
X109420006Y-31791394D01*
X109201954Y-31881714D01*
X109201943Y-31881719D01*
X108997545Y-31999730D01*
X108810302Y-32143406D01*
X108810295Y-32143412D01*
X108643412Y-32310295D01*
X108643406Y-32310302D01*
X108499730Y-32497545D01*
X108499727Y-32497549D01*
X108499727Y-32497550D01*
X108492014Y-32510909D01*
X108381719Y-32701943D01*
X108381714Y-32701954D01*
X108291394Y-32920006D01*
X108230306Y-33147989D01*
X108199501Y-33381979D01*
X108199500Y-33381995D01*
X106720500Y-33381995D01*
X106720500Y-33381989D01*
X106689693Y-33147986D01*
X106628606Y-32920007D01*
X106538284Y-32701951D01*
X106538282Y-32701948D01*
X106538280Y-32701943D01*
X106496118Y-32628918D01*
X106420273Y-32497550D01*
X106276592Y-32310301D01*
X106276587Y-32310295D01*
X106109704Y-32143412D01*
X106109697Y-32143406D01*
X105922454Y-31999730D01*
X105922453Y-31999729D01*
X105922450Y-31999727D01*
X105839686Y-31951943D01*
X105718056Y-31881719D01*
X105718045Y-31881714D01*
X105499993Y-31791394D01*
X105402180Y-31765185D01*
X105272014Y-31730307D01*
X105272013Y-31730306D01*
X105272010Y-31730306D01*
X105038020Y-31699501D01*
X105038017Y-31699500D01*
X105038011Y-31699500D01*
X104801989Y-31699500D01*
X104801983Y-31699500D01*
X104801979Y-31699501D01*
X104567989Y-31730306D01*
X104340006Y-31791394D01*
X104121954Y-31881714D01*
X104121943Y-31881719D01*
X103917545Y-31999730D01*
X103730302Y-32143406D01*
X103730295Y-32143412D01*
X103563412Y-32310295D01*
X103563406Y-32310302D01*
X103419730Y-32497545D01*
X103419727Y-32497549D01*
X103419727Y-32497550D01*
X103412014Y-32510909D01*
X103301719Y-32701943D01*
X103301714Y-32701954D01*
X103211394Y-32920006D01*
X103150306Y-33147989D01*
X103119501Y-33381979D01*
X103119500Y-33381995D01*
X101640500Y-33381995D01*
X101640500Y-33381989D01*
X101609693Y-33147986D01*
X101548606Y-32920007D01*
X101458284Y-32701951D01*
X101458282Y-32701948D01*
X101458280Y-32701943D01*
X101416118Y-32628918D01*
X101340273Y-32497550D01*
X101196592Y-32310301D01*
X101196587Y-32310295D01*
X101029704Y-32143412D01*
X101029697Y-32143406D01*
X100842454Y-31999730D01*
X100842453Y-31999729D01*
X100842450Y-31999727D01*
X100759686Y-31951943D01*
X100638056Y-31881719D01*
X100638045Y-31881714D01*
X100419993Y-31791394D01*
X100322180Y-31765185D01*
X100192014Y-31730307D01*
X100192013Y-31730306D01*
X100192010Y-31730306D01*
X99958020Y-31699501D01*
X99958017Y-31699500D01*
X99958011Y-31699500D01*
X99721989Y-31699500D01*
X99721983Y-31699500D01*
X99721979Y-31699501D01*
X99487989Y-31730306D01*
X99260006Y-31791394D01*
X99041954Y-31881714D01*
X99041943Y-31881719D01*
X98837545Y-31999730D01*
X98650302Y-32143406D01*
X98650295Y-32143412D01*
X98483412Y-32310295D01*
X98483406Y-32310302D01*
X98339730Y-32497545D01*
X98339727Y-32497549D01*
X98339727Y-32497550D01*
X98332014Y-32510909D01*
X98221719Y-32701943D01*
X98221714Y-32701954D01*
X98131394Y-32920006D01*
X98070306Y-33147989D01*
X98039501Y-33381979D01*
X98039500Y-33381995D01*
X96560499Y-33381995D01*
X96560499Y-32399992D01*
X96560294Y-32397989D01*
X96549999Y-32297203D01*
X96549998Y-32297200D01*
X96507850Y-32170006D01*
X96494814Y-32130666D01*
X96402712Y-31981344D01*
X96278656Y-31857288D01*
X96185888Y-31800069D01*
X96129336Y-31765187D01*
X96129331Y-31765185D01*
X96076112Y-31747550D01*
X95962797Y-31710001D01*
X95962795Y-31710000D01*
X95860010Y-31699500D01*
X93659998Y-31699500D01*
X93659981Y-31699501D01*
X93557203Y-31710000D01*
X93557200Y-31710001D01*
X93390668Y-31765185D01*
X93390663Y-31765187D01*
X93241342Y-31857289D01*
X93117289Y-31981342D01*
X93025187Y-32130663D01*
X93025185Y-32130668D01*
X93010834Y-32173978D01*
X92970001Y-32297203D01*
X92970001Y-32297204D01*
X92970000Y-32297204D01*
X92959500Y-32399983D01*
X92959500Y-34187769D01*
X92939815Y-34254808D01*
X92923181Y-34275450D01*
X85917050Y-41281580D01*
X85917044Y-41281588D01*
X85867812Y-41355268D01*
X85867813Y-41355269D01*
X85834921Y-41404496D01*
X85834914Y-41404508D01*
X85778342Y-41541086D01*
X85778340Y-41541092D01*
X85749500Y-41686079D01*
X85749500Y-41686082D01*
X85749500Y-58073918D01*
X85749500Y-58073920D01*
X85749499Y-58073920D01*
X80500500Y-58073920D01*
X80500500Y-29831491D01*
X81999500Y-29831491D01*
X81999500Y-30168508D01*
X82037231Y-30503381D01*
X82037233Y-30503397D01*
X82112223Y-30831953D01*
X82112227Y-30831965D01*
X82223532Y-31150054D01*
X82369752Y-31453683D01*
X82369754Y-31453686D01*
X82549054Y-31739039D01*
X82643354Y-31857288D01*
X82756947Y-31999730D01*
X82759175Y-32002523D01*
X82997477Y-32240825D01*
X83260961Y-32450946D01*
X83546314Y-32630246D01*
X83849949Y-32776469D01*
X84088848Y-32860063D01*
X84168034Y-32887772D01*
X84168046Y-32887776D01*
X84496606Y-32962767D01*
X84831492Y-33000499D01*
X84831493Y-33000500D01*
X84831496Y-33000500D01*
X85168507Y-33000500D01*
X85168507Y-33000499D01*
X85503394Y-32962767D01*
X85831954Y-32887776D01*
X86150051Y-32776469D01*
X86453686Y-32630246D01*
X86739039Y-32450946D01*
X87002523Y-32240825D01*
X87240825Y-32002523D01*
X87450946Y-31739039D01*
X87630246Y-31453686D01*
X87776469Y-31150051D01*
X87887776Y-30831954D01*
X87962767Y-30503394D01*
X88000500Y-30168504D01*
X88000500Y-29831496D01*
X88000499Y-29831491D01*
X151999500Y-29831491D01*
X151999500Y-30168508D01*
X152037231Y-30503381D01*
X152037233Y-30503397D01*
X152112223Y-30831953D01*
X152112227Y-30831965D01*
X152223532Y-31150054D01*
X152369752Y-31453683D01*
X152369754Y-31453686D01*
X152549054Y-31739039D01*
X152643354Y-31857288D01*
X152756947Y-31999730D01*
X152759175Y-32002523D01*
X152997477Y-32240825D01*
X153260961Y-32450946D01*
X153546314Y-32630246D01*
X153849949Y-32776469D01*
X154088848Y-32860063D01*
X154168034Y-32887772D01*
X154168046Y-32887776D01*
X154496606Y-32962767D01*
X154831492Y-33000499D01*
X154831493Y-33000500D01*
X154831496Y-33000500D01*
X155168507Y-33000500D01*
X155168507Y-33000499D01*
X155503394Y-32962767D01*
X155831954Y-32887776D01*
X156150051Y-32776469D01*
X156453686Y-32630246D01*
X156739039Y-32450946D01*
X157002523Y-32240825D01*
X157240825Y-32002523D01*
X157450946Y-31739039D01*
X157630246Y-31453686D01*
X157776469Y-31150051D01*
X157887776Y-30831954D01*
X157962767Y-30503394D01*
X158000500Y-30168504D01*
X158000500Y-29831496D01*
X157962767Y-29496606D01*
X157887776Y-29168046D01*
X157776469Y-28849949D01*
X157630246Y-28546314D01*
X157450946Y-28260961D01*
X157240825Y-27997477D01*
X157002523Y-27759175D01*
X156739039Y-27549054D01*
X156453686Y-27369754D01*
X156453683Y-27369752D01*
X156150054Y-27223532D01*
X155831965Y-27112227D01*
X155831953Y-27112223D01*
X155503397Y-27037233D01*
X155503381Y-27037231D01*
X155168508Y-26999500D01*
X155168504Y-26999500D01*
X154831496Y-26999500D01*
X154831491Y-26999500D01*
X154496618Y-27037231D01*
X154496602Y-27037233D01*
X154168046Y-27112223D01*
X154168034Y-27112227D01*
X153849945Y-27223532D01*
X153546316Y-27369752D01*
X153260962Y-27549053D01*
X152997477Y-27759174D01*
X152759174Y-27997477D01*
X152549053Y-28260962D01*
X152369752Y-28546316D01*
X152223532Y-28849945D01*
X152112227Y-29168034D01*
X152112223Y-29168046D01*
X152037233Y-29496602D01*
X152037231Y-29496618D01*
X151999500Y-29831491D01*
X88000499Y-29831491D01*
X87962767Y-29496606D01*
X87887776Y-29168046D01*
X87776469Y-28849949D01*
X87630246Y-28546314D01*
X87450946Y-28260961D01*
X87240825Y-27997477D01*
X87002523Y-27759175D01*
X86739039Y-27549054D01*
X86453686Y-27369754D01*
X86453683Y-27369752D01*
X86150054Y-27223532D01*
X85831965Y-27112227D01*
X85831953Y-27112223D01*
X85503397Y-27037233D01*
X85503381Y-27037231D01*
X85168508Y-26999500D01*
X85168504Y-26999500D01*
X84831496Y-26999500D01*
X84831491Y-26999500D01*
X84496618Y-27037231D01*
X84496602Y-27037233D01*
X84168046Y-27112223D01*
X84168034Y-27112227D01*
X83849945Y-27223532D01*
X83546316Y-27369752D01*
X83260962Y-27549053D01*
X82997477Y-27759174D01*
X82759174Y-27997477D01*
X82549053Y-28260962D01*
X82369752Y-28546316D01*
X82223532Y-28849945D01*
X82112227Y-29168034D01*
X82112223Y-29168046D01*
X82037233Y-29496602D01*
X82037231Y-29496618D01*
X81999500Y-29831491D01*
X80500500Y-29831491D01*
X80500500Y-24424500D01*
X80520185Y-24357461D01*
X80572989Y-24311706D01*
X80624500Y-24300500D01*
X159175500Y-24300500D01*
X159242539Y-24320185D01*
G37*
%TD.AperFunction*%
%TD*%
M02*
