%TF.GenerationSoftware,KiCad,Pcbnew,9.0.6-9.0.6~ubuntu22.04.1*%
%TF.CreationDate,2026-01-09T12:45:32+01:00*%
%TF.ProjectId,CS616_reader,43533631-365f-4726-9561-6465722e6b69,rev?*%
%TF.SameCoordinates,Original*%
%TF.FileFunction,Soldermask,Bot*%
%TF.FilePolarity,Negative*%
%FSLAX46Y46*%
G04 Gerber Fmt 4.6, Leading zero omitted, Abs format (unit mm)*
G04 Created by KiCad (PCBNEW 9.0.6-9.0.6~ubuntu22.04.1) date 2026-01-09 12:45:32*
%MOMM*%
%LPD*%
G01*
G04 APERTURE LIST*
G04 Aperture macros list*
%AMRoundRect*
0 Rectangle with rounded corners*
0 $1 Rounding radius*
0 $2 $3 $4 $5 $6 $7 $8 $9 X,Y pos of 4 corners*
0 Add a 4 corners polygon primitive as box body*
4,1,4,$2,$3,$4,$5,$6,$7,$8,$9,$2,$3,0*
0 Add four circle primitives for the rounded corners*
1,1,$1+$1,$2,$3*
1,1,$1+$1,$4,$5*
1,1,$1+$1,$6,$7*
1,1,$1+$1,$8,$9*
0 Add four rect primitives between the rounded corners*
20,1,$1+$1,$2,$3,$4,$5,0*
20,1,$1+$1,$4,$5,$6,$7,0*
20,1,$1+$1,$6,$7,$8,$9,0*
20,1,$1+$1,$8,$9,$2,$3,0*%
G04 Aperture macros list end*
%ADD10C,1.400000*%
%ADD11RoundRect,0.250000X1.050000X-1.050000X1.050000X1.050000X-1.050000X1.050000X-1.050000X-1.050000X0*%
%ADD12C,2.600000*%
%ADD13RoundRect,0.250000X-1.050000X1.050000X-1.050000X-1.050000X1.050000X-1.050000X1.050000X1.050000X0*%
%ADD14RoundRect,0.250000X0.550000X0.550000X-0.550000X0.550000X-0.550000X-0.550000X0.550000X-0.550000X0*%
%ADD15C,1.600000*%
%ADD16RoundRect,0.250000X1.050000X1.050000X-1.050000X1.050000X-1.050000X-1.050000X1.050000X-1.050000X0*%
%ADD17RoundRect,0.250000X-1.050000X-1.050000X1.050000X-1.050000X1.050000X1.050000X-1.050000X1.050000X0*%
%ADD18RoundRect,0.250000X0.550000X-0.550000X0.550000X0.550000X-0.550000X0.550000X-0.550000X-0.550000X0*%
G04 APERTURE END LIST*
D10*
%TO.C,10 kOhm*%
X117400000Y-43750000D03*
X112320000Y-43750000D03*
%TD*%
D11*
%TO.C,TDR8*%
X146172500Y-125870000D03*
D12*
X146172500Y-120790000D03*
X146172500Y-115710000D03*
X146172500Y-110630000D03*
%TD*%
D13*
%TO.C,TDR4*%
X91000000Y-111420000D03*
D12*
X91000000Y-116500000D03*
X91000000Y-121580000D03*
X91000000Y-126660000D03*
%TD*%
D14*
%TO.C,CD4051*%
X123000000Y-79200000D03*
D15*
X123000000Y-76660000D03*
X123000000Y-74120000D03*
X123000000Y-71580000D03*
X123000000Y-69040000D03*
X123000000Y-66500000D03*
X123000000Y-63960000D03*
X123000000Y-61420000D03*
X112840000Y-61420000D03*
X112840000Y-63960000D03*
X112840000Y-66500000D03*
X112840000Y-69040000D03*
X112840000Y-71580000D03*
X112840000Y-74120000D03*
X112840000Y-76660000D03*
X112840000Y-79200000D03*
%TD*%
D16*
%TO.C,uC_Connector1*%
X148250000Y-32750000D03*
D12*
X143170000Y-32750000D03*
X138090000Y-32750000D03*
X133010000Y-32750000D03*
X127930000Y-32750000D03*
X122850000Y-32750000D03*
%TD*%
D13*
%TO.C,TDR3*%
X91000000Y-88500000D03*
D12*
X91000000Y-93580000D03*
X91000000Y-98660000D03*
X91000000Y-103740000D03*
%TD*%
D11*
%TO.C,TDR6*%
X146250000Y-81240000D03*
D12*
X146250000Y-76160000D03*
X146250000Y-71080000D03*
X146250000Y-66000000D03*
%TD*%
D11*
%TO.C,TDR7*%
X146250000Y-103660000D03*
D12*
X146250000Y-98580000D03*
X146250000Y-93500000D03*
X146250000Y-88420000D03*
%TD*%
D11*
%TO.C,TDR5*%
X146172500Y-59120000D03*
D12*
X146172500Y-54040000D03*
X146172500Y-48960000D03*
X146172500Y-43880000D03*
%TD*%
D13*
%TO.C,TDR2*%
X91000000Y-66500000D03*
D12*
X91000000Y-71580000D03*
X91000000Y-76660000D03*
X91000000Y-81740000D03*
%TD*%
D17*
%TO.C,J9*%
X94760000Y-33500000D03*
D12*
X99840000Y-33500000D03*
X104920000Y-33500000D03*
X110000000Y-33500000D03*
%TD*%
D14*
%TO.C,CD4051*%
X123000000Y-112750000D03*
D15*
X123000000Y-110210000D03*
X123000000Y-107670000D03*
X123000000Y-105130000D03*
X123000000Y-102590000D03*
X123000000Y-100050000D03*
X123000000Y-97510000D03*
X123000000Y-94970000D03*
X112840000Y-94970000D03*
X112840000Y-97510000D03*
X112840000Y-100050000D03*
X112840000Y-102590000D03*
X112840000Y-105130000D03*
X112840000Y-107670000D03*
X112840000Y-110210000D03*
X112840000Y-112750000D03*
%TD*%
D18*
%TO.C,LM311*%
X113880000Y-55620000D03*
D15*
X116420000Y-55620000D03*
X118960000Y-55620000D03*
X121500000Y-55620000D03*
X121500000Y-48000000D03*
X118960000Y-48000000D03*
X116420000Y-48000000D03*
X113880000Y-48000000D03*
%TD*%
D13*
%TO.C,TDR 1*%
X91000000Y-44200000D03*
D12*
X91000000Y-49280000D03*
X91000000Y-54360000D03*
X91000000Y-59440000D03*
%TD*%
M02*
