%TF.GenerationSoftware,KiCad,Pcbnew,9.0.6-9.0.6~ubuntu22.04.1*%
%TF.CreationDate,2026-01-09T12:45:32+01:00*%
%TF.ProjectId,CS616_reader,43533631-365f-4726-9561-6465722e6b69,rev?*%
%TF.SameCoordinates,Original*%
%TF.FileFunction,Copper,L1,Top*%
%TF.FilePolarity,Positive*%
%FSLAX46Y46*%
G04 Gerber Fmt 4.6, Leading zero omitted, Abs format (unit mm)*
G04 Created by KiCad (PCBNEW 9.0.6-9.0.6~ubuntu22.04.1) date 2026-01-09 12:45:32*
%MOMM*%
%LPD*%
G01*
G04 APERTURE LIST*
G04 Aperture macros list*
%AMRoundRect*
0 Rectangle with rounded corners*
0 $1 Rounding radius*
0 $2 $3 $4 $5 $6 $7 $8 $9 X,Y pos of 4 corners*
0 Add a 4 corners polygon primitive as box body*
4,1,4,$2,$3,$4,$5,$6,$7,$8,$9,$2,$3,0*
0 Add four circle primitives for the rounded corners*
1,1,$1+$1,$2,$3*
1,1,$1+$1,$4,$5*
1,1,$1+$1,$6,$7*
1,1,$1+$1,$8,$9*
0 Add four rect primitives between the rounded corners*
20,1,$1+$1,$2,$3,$4,$5,0*
20,1,$1+$1,$4,$5,$6,$7,0*
20,1,$1+$1,$6,$7,$8,$9,0*
20,1,$1+$1,$8,$9,$2,$3,0*%
G04 Aperture macros list end*
%TA.AperFunction,ComponentPad*%
%ADD10C,1.400000*%
%TD*%
%TA.AperFunction,ComponentPad*%
%ADD11RoundRect,0.250000X1.050000X-1.050000X1.050000X1.050000X-1.050000X1.050000X-1.050000X-1.050000X0*%
%TD*%
%TA.AperFunction,ComponentPad*%
%ADD12C,2.600000*%
%TD*%
%TA.AperFunction,ComponentPad*%
%ADD13RoundRect,0.250000X-1.050000X1.050000X-1.050000X-1.050000X1.050000X-1.050000X1.050000X1.050000X0*%
%TD*%
%TA.AperFunction,ComponentPad*%
%ADD14RoundRect,0.250000X0.550000X0.550000X-0.550000X0.550000X-0.550000X-0.550000X0.550000X-0.550000X0*%
%TD*%
%TA.AperFunction,ComponentPad*%
%ADD15C,1.600000*%
%TD*%
%TA.AperFunction,ComponentPad*%
%ADD16RoundRect,0.250000X1.050000X1.050000X-1.050000X1.050000X-1.050000X-1.050000X1.050000X-1.050000X0*%
%TD*%
%TA.AperFunction,SMDPad,CuDef*%
%ADD17RoundRect,0.250000X-1.450000X0.537500X-1.450000X-0.537500X1.450000X-0.537500X1.450000X0.537500X0*%
%TD*%
%TA.AperFunction,ComponentPad*%
%ADD18RoundRect,0.250000X-1.050000X-1.050000X1.050000X-1.050000X1.050000X1.050000X-1.050000X1.050000X0*%
%TD*%
%TA.AperFunction,ComponentPad*%
%ADD19RoundRect,0.250000X0.550000X-0.550000X0.550000X0.550000X-0.550000X0.550000X-0.550000X-0.550000X0*%
%TD*%
%TA.AperFunction,ViaPad*%
%ADD20C,0.600000*%
%TD*%
%TA.AperFunction,Conductor*%
%ADD21C,0.500000*%
%TD*%
G04 APERTURE END LIST*
D10*
%TO.P,10 kOhm,1*%
%TO.N,/SIGOUT*%
X117400000Y-43750000D03*
%TO.P,10 kOhm,2*%
%TO.N,+3.3V*%
X112320000Y-43750000D03*
%TD*%
D11*
%TO.P,TDR8,1,Pin_1*%
%TO.N,/SIG8*%
X146172500Y-125870000D03*
D12*
%TO.P,TDR8,2,Pin_2*%
%TO.N,/EN8*%
X146172500Y-120790000D03*
%TO.P,TDR8,3,Pin_3*%
%TO.N,GND*%
X146172500Y-115710000D03*
%TO.P,TDR8,4,Pin_4*%
%TO.N,+12V*%
X146172500Y-110630000D03*
%TD*%
D13*
%TO.P,TDR4,1,Pin_1*%
%TO.N,/SIG4*%
X91000000Y-111420000D03*
D12*
%TO.P,TDR4,2,Pin_2*%
%TO.N,/EN4*%
X91000000Y-116500000D03*
%TO.P,TDR4,3,Pin_3*%
%TO.N,GND*%
X91000000Y-121580000D03*
%TO.P,TDR4,4,Pin_4*%
%TO.N,+12V*%
X91000000Y-126660000D03*
%TD*%
D14*
%TO.P,CD4051,1,X4*%
%TO.N,/SIG5*%
X123000000Y-79200000D03*
D15*
%TO.P,CD4051,2,X6*%
%TO.N,/SIG7*%
X123000000Y-76660000D03*
%TO.P,CD4051,3,X*%
%TO.N,/SIG*%
X123000000Y-74120000D03*
%TO.P,CD4051,4,X7*%
%TO.N,/SIG8*%
X123000000Y-71580000D03*
%TO.P,CD4051,5,X5*%
%TO.N,/SIG6*%
X123000000Y-69040000D03*
%TO.P,CD4051,6,INH*%
%TO.N,GND*%
X123000000Y-66500000D03*
%TO.P,CD4051,7,VEE*%
X123000000Y-63960000D03*
%TO.P,CD4051,8,VSS*%
X123000000Y-61420000D03*
%TO.P,CD4051,9,C*%
%TO.N,/Ctrl3*%
X112840000Y-61420000D03*
%TO.P,CD4051,10,B*%
%TO.N,/Ctrl2*%
X112840000Y-63960000D03*
%TO.P,CD4051,11,A*%
%TO.N,/Ctrl1*%
X112840000Y-66500000D03*
%TO.P,CD4051,12,X3*%
%TO.N,/SIG4*%
X112840000Y-69040000D03*
%TO.P,CD4051,13,X0*%
%TO.N,/SIG1*%
X112840000Y-71580000D03*
%TO.P,CD4051,14,X1*%
%TO.N,/SIG2*%
X112840000Y-74120000D03*
%TO.P,CD4051,15,X2*%
%TO.N,/SIG3*%
X112840000Y-76660000D03*
%TO.P,CD4051,16,VDD*%
%TO.N,+5V*%
X112840000Y-79200000D03*
%TD*%
D16*
%TO.P,uC_Connector1,1,Pin_1*%
%TO.N,GND*%
X148250000Y-32750000D03*
D12*
%TO.P,uC_Connector1,2,Pin_2*%
%TO.N,+5V*%
X143170000Y-32750000D03*
%TO.P,uC_Connector1,3,Pin_3*%
%TO.N,+3.3V*%
X138090000Y-32750000D03*
%TO.P,uC_Connector1,4,Pin_4*%
%TO.N,/ENABLE*%
X133010000Y-32750000D03*
%TO.P,uC_Connector1,5,Pin_5*%
%TO.N,/DISABLE*%
X127930000Y-32750000D03*
%TO.P,uC_Connector1,6,Pin_6*%
%TO.N,/SIGOUT*%
X122850000Y-32750000D03*
%TD*%
D13*
%TO.P,TDR3,1,Pin_1*%
%TO.N,/SIG3*%
X91000000Y-88500000D03*
D12*
%TO.P,TDR3,2,Pin_2*%
%TO.N,/EN3*%
X91000000Y-93580000D03*
%TO.P,TDR3,3,Pin_3*%
%TO.N,GND*%
X91000000Y-98660000D03*
%TO.P,TDR3,4,Pin_4*%
%TO.N,+12V*%
X91000000Y-103740000D03*
%TD*%
D17*
%TO.P,0.1 uF,1*%
%TO.N,+5V*%
X133250000Y-53475000D03*
%TO.P,0.1 uF,2*%
%TO.N,GND*%
X133250000Y-57750000D03*
%TD*%
D11*
%TO.P,TDR6,1,Pin_1*%
%TO.N,/SIG6*%
X146250000Y-81240000D03*
D12*
%TO.P,TDR6,2,Pin_2*%
%TO.N,/EN6*%
X146250000Y-76160000D03*
%TO.P,TDR6,3,Pin_3*%
%TO.N,GND*%
X146250000Y-71080000D03*
%TO.P,TDR6,4,Pin_4*%
%TO.N,+12V*%
X146250000Y-66000000D03*
%TD*%
D11*
%TO.P,TDR7,1,Pin_1*%
%TO.N,/SIG7*%
X146250000Y-103660000D03*
D12*
%TO.P,TDR7,2,Pin_2*%
%TO.N,/EN7*%
X146250000Y-98580000D03*
%TO.P,TDR7,3,Pin_3*%
%TO.N,GND*%
X146250000Y-93500000D03*
%TO.P,TDR7,4,Pin_4*%
%TO.N,+12V*%
X146250000Y-88420000D03*
%TD*%
D11*
%TO.P,TDR5,1,Pin_1*%
%TO.N,/SIG5*%
X146172500Y-59120000D03*
D12*
%TO.P,TDR5,2,Pin_2*%
%TO.N,/EN5*%
X146172500Y-54040000D03*
%TO.P,TDR5,3,Pin_3*%
%TO.N,GND*%
X146172500Y-48960000D03*
%TO.P,TDR5,4,Pin_4*%
%TO.N,+12V*%
X146172500Y-43880000D03*
%TD*%
D13*
%TO.P,TDR2,1,Pin_1*%
%TO.N,/SIG2*%
X91000000Y-66500000D03*
D12*
%TO.P,TDR2,2,Pin_2*%
%TO.N,/EN2*%
X91000000Y-71580000D03*
%TO.P,TDR2,3,Pin_3*%
%TO.N,GND*%
X91000000Y-76660000D03*
%TO.P,TDR2,4,Pin_4*%
%TO.N,+12V*%
X91000000Y-81740000D03*
%TD*%
D18*
%TO.P,J9,1,Pin_1*%
%TO.N,+12V*%
X94760000Y-33500000D03*
D12*
%TO.P,J9,2,Pin_2*%
%TO.N,/Ctrl1*%
X99840000Y-33500000D03*
%TO.P,J9,3,Pin_3*%
%TO.N,/Ctrl2*%
X104920000Y-33500000D03*
%TO.P,J9,4,Pin_4*%
%TO.N,/Ctrl3*%
X110000000Y-33500000D03*
%TD*%
D14*
%TO.P,CD4051,1,X4*%
%TO.N,/EN5*%
X123000000Y-112750000D03*
D15*
%TO.P,CD4051,2,X6*%
%TO.N,/EN7*%
X123000000Y-110210000D03*
%TO.P,CD4051,3,X*%
%TO.N,/ENABLE*%
X123000000Y-107670000D03*
%TO.P,CD4051,4,X7*%
%TO.N,/EN8*%
X123000000Y-105130000D03*
%TO.P,CD4051,5,X5*%
%TO.N,/EN6*%
X123000000Y-102590000D03*
%TO.P,CD4051,6,INH*%
%TO.N,/DISABLE*%
X123000000Y-100050000D03*
%TO.P,CD4051,7,VEE*%
%TO.N,GND*%
X123000000Y-97510000D03*
%TO.P,CD4051,8,VSS*%
X123000000Y-94970000D03*
%TO.P,CD4051,9,C*%
%TO.N,/Ctrl3*%
X112840000Y-94970000D03*
%TO.P,CD4051,10,B*%
%TO.N,/Ctrl2*%
X112840000Y-97510000D03*
%TO.P,CD4051,11,A*%
%TO.N,/Ctrl1*%
X112840000Y-100050000D03*
%TO.P,CD4051,12,X3*%
%TO.N,/EN4*%
X112840000Y-102590000D03*
%TO.P,CD4051,13,X0*%
%TO.N,/EN1*%
X112840000Y-105130000D03*
%TO.P,CD4051,14,X1*%
%TO.N,/EN2*%
X112840000Y-107670000D03*
%TO.P,CD4051,15,X2*%
%TO.N,/EN3*%
X112840000Y-110210000D03*
%TO.P,CD4051,16,VDD*%
%TO.N,+5V*%
X112840000Y-112750000D03*
%TD*%
D19*
%TO.P,LM311,1,GND*%
%TO.N,GND*%
X113880000Y-55620000D03*
D15*
%TO.P,LM311,2,+*%
%TO.N,/SIG*%
X116420000Y-55620000D03*
%TO.P,LM311,3,-*%
%TO.N,GND*%
X118960000Y-55620000D03*
%TO.P,LM311,4,V-*%
X121500000Y-55620000D03*
%TO.P,LM311,5,BAL*%
%TO.N,unconnected-(U3-BAL-Pad5)*%
X121500000Y-48000000D03*
%TO.P,LM311,6,STRB*%
%TO.N,unconnected-(U3-STRB-Pad6)*%
X118960000Y-48000000D03*
%TO.P,LM311,7*%
%TO.N,/SIGOUT*%
X116420000Y-48000000D03*
%TO.P,LM311,8,V+*%
%TO.N,+5V*%
X113880000Y-48000000D03*
%TD*%
D13*
%TO.P,TDR 1,1,Pin_1*%
%TO.N,/SIG1*%
X91000000Y-44200000D03*
D12*
%TO.P,TDR 1,2,Pin_2*%
%TO.N,/EN1*%
X91000000Y-49280000D03*
%TO.P,TDR 1,3,Pin_3*%
%TO.N,GND*%
X91000000Y-54360000D03*
%TO.P,TDR 1,4,Pin_4*%
%TO.N,+12V*%
X91000000Y-59440000D03*
%TD*%
D20*
%TO.N,/EN1*%
X99400000Y-91000000D03*
X108300000Y-102300000D03*
%TO.N,/EN2*%
X95250000Y-93250000D03*
%TO.N,/SIG4*%
X106460000Y-69040000D03*
%TO.N,/EN6*%
X139250000Y-83250000D03*
%TO.N,/EN7*%
X133000000Y-108750000D03*
%TO.N,/DISABLE*%
X132500000Y-85750000D03*
X131500000Y-69750000D03*
%TO.N,/ENABLE*%
X127750000Y-100000000D03*
X137500000Y-44750000D03*
X135250000Y-84000000D03*
%TO.N,GND*%
X108400000Y-108600000D03*
X112800000Y-88000000D03*
X109800000Y-100200000D03*
%TD*%
D21*
%TO.N,/EN1*%
X108300000Y-102300000D02*
X99400000Y-93400000D01*
X99400000Y-93400000D02*
X99400000Y-91000000D01*
%TO.N,/Ctrl1*%
X112840000Y-66500000D02*
X106500000Y-66500000D01*
X106500000Y-66500000D02*
X102000000Y-62000000D01*
X102000000Y-62000000D02*
X102000000Y-46000000D01*
X99840000Y-43840000D02*
X99840000Y-33500000D01*
X102000000Y-46000000D02*
X99840000Y-43840000D01*
%TO.N,/Ctrl2*%
X104920000Y-33500000D02*
X104920000Y-60170000D01*
X104920000Y-60170000D02*
X108710000Y-63960000D01*
X108710000Y-63960000D02*
X112840000Y-63960000D01*
%TO.N,+5V*%
X112840000Y-79200000D02*
X112800000Y-79200000D01*
X116000000Y-52750000D02*
X125750000Y-52750000D01*
X132750000Y-45750000D02*
X132800000Y-45700000D01*
X143170000Y-35170000D02*
X143170000Y-32750000D01*
X132800000Y-43000000D02*
X140550000Y-35250000D01*
X132800000Y-45700000D02*
X132800000Y-43000000D01*
X133250000Y-46250000D02*
X133250000Y-53475000D01*
X140550000Y-35250000D02*
X143250000Y-35250000D01*
X113880000Y-50630000D02*
X116000000Y-52750000D01*
X132750000Y-45750000D02*
X133250000Y-46250000D01*
X143250000Y-35250000D02*
X143170000Y-35170000D01*
X113880000Y-48000000D02*
X113880000Y-50630000D01*
X125750000Y-52750000D02*
X132750000Y-45750000D01*
%TO.N,+12V*%
X94760000Y-33500000D02*
X93500000Y-33500000D01*
%TO.N,/SIG1*%
X101500000Y-71250000D02*
X99250000Y-69000000D01*
X99250000Y-69000000D02*
X99250000Y-52450000D01*
X99250000Y-52450000D02*
X91000000Y-44200000D01*
X112510000Y-71250000D02*
X101500000Y-71250000D01*
X112840000Y-71580000D02*
X112510000Y-71250000D01*
%TO.N,/EN2*%
X112840000Y-107670000D02*
X109670000Y-107670000D01*
X109670000Y-107670000D02*
X95250000Y-93250000D01*
%TO.N,/SIG2*%
X100870000Y-74120000D02*
X112840000Y-74120000D01*
X91000000Y-66500000D02*
X93250000Y-66500000D01*
X93250000Y-66500000D02*
X100870000Y-74120000D01*
%TO.N,/EN3*%
X107630000Y-110210000D02*
X91000000Y-93580000D01*
X112840000Y-110210000D02*
X107630000Y-110210000D01*
%TO.N,/SIG3*%
X110090000Y-76660000D02*
X112840000Y-76660000D01*
X91000000Y-88500000D02*
X98250000Y-88500000D01*
X98250000Y-88500000D02*
X110090000Y-76660000D01*
%TO.N,/SIG4*%
X106460000Y-69040000D02*
X112840000Y-69040000D01*
%TO.N,/EN5*%
X151800000Y-128800000D02*
X151800000Y-55800000D01*
X151350000Y-129250000D02*
X151800000Y-128800000D01*
X150040000Y-54040000D02*
X146172500Y-54040000D01*
X125750000Y-112750000D02*
X142250000Y-129250000D01*
X151800000Y-55800000D02*
X150040000Y-54040000D01*
X123000000Y-112750000D02*
X125750000Y-112750000D01*
X142250000Y-129250000D02*
X151350000Y-129250000D01*
%TO.N,/EN6*%
X139250000Y-83250000D02*
X139250000Y-83160000D01*
X139250000Y-83160000D02*
X146250000Y-76160000D01*
%TO.N,/EN7*%
X133000000Y-108750000D02*
X131540000Y-110210000D01*
X131540000Y-110210000D02*
X123000000Y-110210000D01*
%TO.N,/SIG7*%
X130000000Y-80500000D02*
X126160000Y-76660000D01*
X146250000Y-103660000D02*
X130000000Y-87410000D01*
X130000000Y-87410000D02*
X130000000Y-80500000D01*
X126160000Y-76660000D02*
X123000000Y-76660000D01*
%TO.N,/SIG8*%
X137250000Y-116947500D02*
X137250000Y-100000000D01*
X146172500Y-125870000D02*
X137250000Y-116947500D01*
X120750000Y-83500000D02*
X120750000Y-72250000D01*
X121420000Y-71580000D02*
X123000000Y-71580000D01*
X120750000Y-72250000D02*
X121420000Y-71580000D01*
X137250000Y-100000000D02*
X120750000Y-83500000D01*
%TO.N,/SIGOUT*%
X116420000Y-48000000D02*
X116420000Y-46780000D01*
X116500000Y-39100000D02*
X122850000Y-32750000D01*
X116500000Y-41500000D02*
X116500000Y-39100000D01*
X117400000Y-42400000D02*
X116500000Y-41500000D01*
X117400000Y-45800000D02*
X117400000Y-42400000D01*
X116420000Y-46780000D02*
X117400000Y-45800000D01*
%TO.N,+3.3V*%
X112320000Y-38180000D02*
X120750000Y-29750000D01*
X120750000Y-29750000D02*
X135090000Y-29750000D01*
X112320000Y-43750000D02*
X112320000Y-38180000D01*
X135090000Y-29750000D02*
X138090000Y-32750000D01*
%TO.N,/DISABLE*%
X131500000Y-69750000D02*
X131500000Y-73750000D01*
X131500000Y-73750000D02*
X132250000Y-74500000D01*
X132500000Y-85250000D02*
X132500000Y-85750000D01*
X132500000Y-74750000D02*
X132500000Y-84000000D01*
X132250000Y-74500000D02*
X132500000Y-74750000D01*
X132500000Y-84000000D02*
X132500000Y-85250000D01*
%TO.N,/Ctrl2*%
X115000000Y-81000000D02*
X115000000Y-65000000D01*
X109000000Y-96200000D02*
X109000000Y-87000000D01*
X110310000Y-97510000D02*
X109000000Y-96200000D01*
X109000000Y-87000000D02*
X115000000Y-81000000D01*
X112840000Y-97510000D02*
X110310000Y-97510000D01*
X113960000Y-63960000D02*
X112840000Y-63960000D01*
X115000000Y-65000000D02*
X113960000Y-63960000D01*
%TO.N,/Ctrl3*%
X112840000Y-61420000D02*
X109000000Y-57580000D01*
X112840000Y-61420000D02*
X112920000Y-61500000D01*
X118750000Y-89060000D02*
X112840000Y-94970000D01*
X109000000Y-36750000D02*
X110000000Y-35750000D01*
X118750000Y-62500000D02*
X118750000Y-89060000D01*
X109000000Y-57580000D02*
X109000000Y-36750000D01*
X117750000Y-61500000D02*
X118750000Y-62500000D01*
X112920000Y-61500000D02*
X117750000Y-61500000D01*
X110000000Y-35750000D02*
X110000000Y-33500000D01*
%TO.N,/ENABLE*%
X127750000Y-100000000D02*
X127750000Y-102920000D01*
X138250000Y-60500000D02*
X138250000Y-45500000D01*
X135250000Y-63500000D02*
X138250000Y-60500000D01*
X127750000Y-102920000D02*
X123000000Y-107670000D01*
X138250000Y-45500000D02*
X137500000Y-44750000D01*
X135250000Y-84000000D02*
X135250000Y-63500000D01*
%TD*%
%TA.AperFunction,Conductor*%
%TO.N,GND*%
G36*
X117454809Y-62270185D02*
G01*
X117475451Y-62286819D01*
X117963181Y-62774548D01*
X117996666Y-62835871D01*
X117999500Y-62862229D01*
X117999500Y-88697770D01*
X117979815Y-88764809D01*
X117963181Y-88785451D01*
X113105105Y-93643526D01*
X113043782Y-93677011D01*
X112998026Y-93678318D01*
X112942352Y-93669500D01*
X112737648Y-93669500D01*
X112713329Y-93673351D01*
X112535465Y-93701522D01*
X112340776Y-93764781D01*
X112158386Y-93857715D01*
X111992786Y-93978028D01*
X111848028Y-94122786D01*
X111727715Y-94288386D01*
X111634781Y-94470776D01*
X111571522Y-94665465D01*
X111539500Y-94867648D01*
X111539500Y-95072351D01*
X111571522Y-95274534D01*
X111634781Y-95469223D01*
X111698691Y-95594653D01*
X111727585Y-95651359D01*
X111727715Y-95651613D01*
X111848028Y-95817213D01*
X111992786Y-95961971D01*
X112113226Y-96049474D01*
X112158390Y-96082287D01*
X112249840Y-96128883D01*
X112251080Y-96129515D01*
X112301876Y-96177490D01*
X112318671Y-96245311D01*
X112296134Y-96311446D01*
X112251080Y-96350485D01*
X112158386Y-96397715D01*
X111992786Y-96518028D01*
X111848032Y-96662782D01*
X111848028Y-96662787D01*
X111814900Y-96708385D01*
X111759571Y-96751051D01*
X111714582Y-96759500D01*
X110672230Y-96759500D01*
X110605191Y-96739815D01*
X110584549Y-96723181D01*
X109786819Y-95925451D01*
X109753334Y-95864128D01*
X109750500Y-95837770D01*
X109750500Y-87362229D01*
X109770185Y-87295190D01*
X109786819Y-87274548D01*
X115582948Y-81478419D01*
X115582951Y-81478416D01*
X115665084Y-81355495D01*
X115721658Y-81218913D01*
X115750500Y-81073918D01*
X115750500Y-80926083D01*
X115750500Y-64926082D01*
X115750500Y-64926079D01*
X115721659Y-64781092D01*
X115721658Y-64781091D01*
X115721658Y-64781087D01*
X115715071Y-64765185D01*
X115665087Y-64644511D01*
X115665080Y-64644498D01*
X115582952Y-64521585D01*
X115561094Y-64499727D01*
X115478416Y-64417049D01*
X115260867Y-64199500D01*
X114438421Y-63377052D01*
X114438414Y-63377046D01*
X114364729Y-63327812D01*
X114364729Y-63327813D01*
X114315491Y-63294913D01*
X114178917Y-63238343D01*
X114178907Y-63238340D01*
X114033920Y-63209500D01*
X114033918Y-63209500D01*
X113965418Y-63209500D01*
X113898379Y-63189815D01*
X113865100Y-63158385D01*
X113831971Y-63112787D01*
X113831967Y-63112782D01*
X113687213Y-62968028D01*
X113521614Y-62847715D01*
X113498369Y-62835871D01*
X113428917Y-62800483D01*
X113378123Y-62752511D01*
X113361328Y-62684690D01*
X113383865Y-62618555D01*
X113428917Y-62579516D01*
X113521610Y-62532287D01*
X113595758Y-62478416D01*
X113687213Y-62411971D01*
X113687215Y-62411968D01*
X113687219Y-62411966D01*
X113812366Y-62286819D01*
X113873689Y-62253334D01*
X113900047Y-62250500D01*
X117387770Y-62250500D01*
X117454809Y-62270185D01*
G37*
%TD.AperFunction*%
%TA.AperFunction,Conductor*%
G36*
X159242539Y-24320185D02*
G01*
X159288294Y-24372989D01*
X159299500Y-24424500D01*
X159299500Y-131575500D01*
X159279815Y-131642539D01*
X159227011Y-131688294D01*
X159175500Y-131699500D01*
X80624500Y-131699500D01*
X80557461Y-131679815D01*
X80511706Y-131627011D01*
X80500500Y-131575500D01*
X80500500Y-126541995D01*
X89199500Y-126541995D01*
X89199500Y-126778004D01*
X89199501Y-126778020D01*
X89230306Y-127012010D01*
X89291394Y-127239993D01*
X89381714Y-127458045D01*
X89381719Y-127458056D01*
X89452677Y-127580957D01*
X89499727Y-127662450D01*
X89499729Y-127662453D01*
X89499730Y-127662454D01*
X89643406Y-127849697D01*
X89643412Y-127849704D01*
X89810295Y-128016587D01*
X89810301Y-128016592D01*
X89997550Y-128160273D01*
X90128918Y-128236118D01*
X90201943Y-128278280D01*
X90201948Y-128278282D01*
X90201951Y-128278284D01*
X90420007Y-128368606D01*
X90647986Y-128429693D01*
X90881989Y-128460500D01*
X90881996Y-128460500D01*
X91118004Y-128460500D01*
X91118011Y-128460500D01*
X91352014Y-128429693D01*
X91579993Y-128368606D01*
X91798049Y-128278284D01*
X92002450Y-128160273D01*
X92189699Y-128016592D01*
X92356592Y-127849699D01*
X92500273Y-127662450D01*
X92618284Y-127458049D01*
X92708606Y-127239993D01*
X92769693Y-127012014D01*
X92800500Y-126778011D01*
X92800500Y-126541989D01*
X92769693Y-126307986D01*
X92708606Y-126080007D01*
X92618284Y-125861951D01*
X92618282Y-125861948D01*
X92618280Y-125861943D01*
X92576118Y-125788918D01*
X92500273Y-125657550D01*
X92441001Y-125580306D01*
X92356593Y-125470302D01*
X92356587Y-125470295D01*
X92189704Y-125303412D01*
X92189697Y-125303406D01*
X92002454Y-125159730D01*
X92002453Y-125159729D01*
X92002450Y-125159727D01*
X91889557Y-125094548D01*
X91798056Y-125041719D01*
X91798045Y-125041714D01*
X91579993Y-124951394D01*
X91352014Y-124890307D01*
X91352013Y-124890306D01*
X91352010Y-124890306D01*
X91118020Y-124859501D01*
X91118017Y-124859500D01*
X91118011Y-124859500D01*
X90881989Y-124859500D01*
X90881983Y-124859500D01*
X90881979Y-124859501D01*
X90647989Y-124890306D01*
X90420006Y-124951394D01*
X90201954Y-125041714D01*
X90201943Y-125041719D01*
X89997545Y-125159730D01*
X89810302Y-125303406D01*
X89810295Y-125303412D01*
X89643412Y-125470295D01*
X89643406Y-125470302D01*
X89499730Y-125657545D01*
X89381719Y-125861943D01*
X89381714Y-125861954D01*
X89291394Y-126080006D01*
X89230306Y-126307989D01*
X89199501Y-126541979D01*
X89199500Y-126541995D01*
X80500500Y-126541995D01*
X80500500Y-124831491D01*
X116999500Y-124831491D01*
X116999500Y-125168508D01*
X117037231Y-125503381D01*
X117037233Y-125503397D01*
X117112223Y-125831953D01*
X117112227Y-125831965D01*
X117223532Y-126150054D01*
X117369752Y-126453683D01*
X117369754Y-126453686D01*
X117549054Y-126739039D01*
X117672142Y-126893387D01*
X117733251Y-126970016D01*
X117759175Y-127002523D01*
X117997477Y-127240825D01*
X118260961Y-127450946D01*
X118546314Y-127630246D01*
X118849949Y-127776469D01*
X119059223Y-127849697D01*
X119168034Y-127887772D01*
X119168046Y-127887776D01*
X119496606Y-127962767D01*
X119831492Y-128000499D01*
X119831493Y-128000500D01*
X119831496Y-128000500D01*
X120168507Y-128000500D01*
X120168507Y-128000499D01*
X120503394Y-127962767D01*
X120831954Y-127887776D01*
X121150051Y-127776469D01*
X121453686Y-127630246D01*
X121739039Y-127450946D01*
X122002523Y-127240825D01*
X122240825Y-127002523D01*
X122450946Y-126739039D01*
X122630246Y-126453686D01*
X122776469Y-126150051D01*
X122887776Y-125831954D01*
X122962767Y-125503394D01*
X123000500Y-125168504D01*
X123000500Y-124831496D01*
X122962767Y-124496606D01*
X122887776Y-124168046D01*
X122876277Y-124135185D01*
X122790181Y-123889137D01*
X122776469Y-123849949D01*
X122630246Y-123546314D01*
X122450946Y-123260961D01*
X122240825Y-122997477D01*
X122002523Y-122759175D01*
X121739039Y-122549054D01*
X121541953Y-122425216D01*
X121453683Y-122369752D01*
X121150054Y-122223532D01*
X120831965Y-122112227D01*
X120831953Y-122112223D01*
X120503397Y-122037233D01*
X120503381Y-122037231D01*
X120168508Y-121999500D01*
X120168504Y-121999500D01*
X119831496Y-121999500D01*
X119831491Y-121999500D01*
X119496618Y-122037231D01*
X119496602Y-122037233D01*
X119168046Y-122112223D01*
X119168034Y-122112227D01*
X118849945Y-122223532D01*
X118546316Y-122369752D01*
X118260962Y-122549053D01*
X117997477Y-122759174D01*
X117759174Y-122997477D01*
X117549053Y-123260962D01*
X117369752Y-123546316D01*
X117223532Y-123849945D01*
X117112227Y-124168034D01*
X117112223Y-124168046D01*
X117037233Y-124496602D01*
X117037231Y-124496618D01*
X116999500Y-124831491D01*
X80500500Y-124831491D01*
X80500500Y-121462014D01*
X89200000Y-121462014D01*
X89200000Y-121697985D01*
X89230799Y-121931914D01*
X89291870Y-122159837D01*
X89382160Y-122377819D01*
X89382165Y-122377828D01*
X89500144Y-122582171D01*
X89500145Y-122582172D01*
X89562721Y-122663723D01*
X90398958Y-121827487D01*
X90423978Y-121887890D01*
X90495112Y-121994351D01*
X90585649Y-122084888D01*
X90692110Y-122156022D01*
X90752511Y-122181041D01*
X89916275Y-123017277D01*
X89997827Y-123079854D01*
X89997828Y-123079855D01*
X90202171Y-123197834D01*
X90202180Y-123197839D01*
X90420163Y-123288129D01*
X90420161Y-123288129D01*
X90648085Y-123349200D01*
X90882014Y-123379999D01*
X90882029Y-123380000D01*
X91117971Y-123380000D01*
X91117985Y-123379999D01*
X91351914Y-123349200D01*
X91579837Y-123288129D01*
X91797819Y-123197839D01*
X91797828Y-123197834D01*
X92002181Y-123079850D01*
X92083723Y-123017279D01*
X92083723Y-123017276D01*
X91247487Y-122181041D01*
X91307890Y-122156022D01*
X91414351Y-122084888D01*
X91504888Y-121994351D01*
X91576022Y-121887890D01*
X91601041Y-121827487D01*
X92437276Y-122663723D01*
X92437279Y-122663723D01*
X92499850Y-122582181D01*
X92617834Y-122377828D01*
X92617839Y-122377819D01*
X92708129Y-122159837D01*
X92769200Y-121931914D01*
X92799999Y-121697985D01*
X92800000Y-121697971D01*
X92800000Y-121462028D01*
X92799999Y-121462014D01*
X92769200Y-121228085D01*
X92708129Y-121000162D01*
X92617839Y-120782180D01*
X92617834Y-120782171D01*
X92499855Y-120577828D01*
X92499854Y-120577827D01*
X92437277Y-120496275D01*
X91601041Y-121332511D01*
X91576022Y-121272110D01*
X91504888Y-121165649D01*
X91414351Y-121075112D01*
X91307890Y-121003978D01*
X91247488Y-120978958D01*
X92083723Y-120142721D01*
X92002172Y-120080145D01*
X92002171Y-120080144D01*
X91797828Y-119962165D01*
X91797819Y-119962160D01*
X91579836Y-119871870D01*
X91579838Y-119871870D01*
X91351914Y-119810799D01*
X91117985Y-119780000D01*
X90882014Y-119780000D01*
X90648085Y-119810799D01*
X90420162Y-119871870D01*
X90202180Y-119962160D01*
X90202171Y-119962165D01*
X89997828Y-120080144D01*
X89997818Y-120080150D01*
X89916275Y-120142720D01*
X89916275Y-120142721D01*
X90752512Y-120978958D01*
X90692110Y-121003978D01*
X90585649Y-121075112D01*
X90495112Y-121165649D01*
X90423978Y-121272110D01*
X90398958Y-121332512D01*
X89562721Y-120496275D01*
X89562720Y-120496275D01*
X89500150Y-120577818D01*
X89500144Y-120577828D01*
X89382165Y-120782171D01*
X89382160Y-120782180D01*
X89291870Y-121000162D01*
X89230799Y-121228085D01*
X89200000Y-121462014D01*
X80500500Y-121462014D01*
X80500500Y-116381995D01*
X89199500Y-116381995D01*
X89199500Y-116618004D01*
X89199501Y-116618020D01*
X89230306Y-116852010D01*
X89291394Y-117079993D01*
X89381714Y-117298045D01*
X89381719Y-117298056D01*
X89412997Y-117352230D01*
X89499727Y-117502450D01*
X89499729Y-117502453D01*
X89499730Y-117502454D01*
X89643406Y-117689697D01*
X89643412Y-117689704D01*
X89810295Y-117856587D01*
X89810301Y-117856592D01*
X89997550Y-118000273D01*
X90128918Y-118076118D01*
X90201943Y-118118280D01*
X90201948Y-118118282D01*
X90201951Y-118118284D01*
X90420007Y-118208606D01*
X90647986Y-118269693D01*
X90881989Y-118300500D01*
X90881996Y-118300500D01*
X91118004Y-118300500D01*
X91118011Y-118300500D01*
X91352014Y-118269693D01*
X91579993Y-118208606D01*
X91798049Y-118118284D01*
X92002450Y-118000273D01*
X92189699Y-117856592D01*
X92356592Y-117689699D01*
X92500273Y-117502450D01*
X92618284Y-117298049D01*
X92708606Y-117079993D01*
X92769693Y-116852014D01*
X92800500Y-116618011D01*
X92800500Y-116381989D01*
X92769693Y-116147986D01*
X92708606Y-115920007D01*
X92618284Y-115701951D01*
X92618282Y-115701948D01*
X92618280Y-115701943D01*
X92554812Y-115592014D01*
X92500273Y-115497550D01*
X92356592Y-115310301D01*
X92356587Y-115310295D01*
X92189704Y-115143412D01*
X92189697Y-115143406D01*
X92002454Y-114999730D01*
X92002453Y-114999729D01*
X92002450Y-114999727D01*
X91920957Y-114952677D01*
X91798056Y-114881719D01*
X91798045Y-114881714D01*
X91579993Y-114791394D01*
X91352010Y-114730306D01*
X91118020Y-114699501D01*
X91118017Y-114699500D01*
X91118011Y-114699500D01*
X90881989Y-114699500D01*
X90881983Y-114699500D01*
X90881979Y-114699501D01*
X90647989Y-114730306D01*
X90420006Y-114791394D01*
X90201954Y-114881714D01*
X90201943Y-114881719D01*
X89997545Y-114999730D01*
X89810302Y-115143406D01*
X89810295Y-115143412D01*
X89643412Y-115310295D01*
X89643406Y-115310302D01*
X89499730Y-115497545D01*
X89381719Y-115701943D01*
X89381714Y-115701954D01*
X89291394Y-115920006D01*
X89230306Y-116147989D01*
X89199501Y-116381979D01*
X89199500Y-116381995D01*
X80500500Y-116381995D01*
X80500500Y-110319983D01*
X89199500Y-110319983D01*
X89199500Y-112520001D01*
X89199501Y-112520018D01*
X89210000Y-112622796D01*
X89210001Y-112622799D01*
X89265185Y-112789331D01*
X89265186Y-112789334D01*
X89357288Y-112938656D01*
X89481344Y-113062712D01*
X89630666Y-113154814D01*
X89797203Y-113209999D01*
X89899991Y-113220500D01*
X92100008Y-113220499D01*
X92202797Y-113209999D01*
X92369334Y-113154814D01*
X92518656Y-113062712D01*
X92642712Y-112938656D01*
X92734814Y-112789334D01*
X92789999Y-112622797D01*
X92800500Y-112520009D01*
X92800499Y-110319992D01*
X92799718Y-110312351D01*
X92789999Y-110217203D01*
X92789998Y-110217200D01*
X92753696Y-110107648D01*
X92734814Y-110050666D01*
X92642712Y-109901344D01*
X92518656Y-109777288D01*
X92369334Y-109685186D01*
X92202797Y-109630001D01*
X92202795Y-109630000D01*
X92100010Y-109619500D01*
X89899998Y-109619500D01*
X89899981Y-109619501D01*
X89797203Y-109630000D01*
X89797200Y-109630001D01*
X89630668Y-109685185D01*
X89630663Y-109685187D01*
X89481342Y-109777289D01*
X89357289Y-109901342D01*
X89265187Y-110050663D01*
X89265186Y-110050666D01*
X89210001Y-110217203D01*
X89210001Y-110217204D01*
X89210000Y-110217204D01*
X89199500Y-110319983D01*
X80500500Y-110319983D01*
X80500500Y-103621995D01*
X89199500Y-103621995D01*
X89199500Y-103858004D01*
X89199501Y-103858020D01*
X89207991Y-103922511D01*
X89230307Y-104092014D01*
X89242638Y-104138034D01*
X89291394Y-104319993D01*
X89381714Y-104538045D01*
X89381719Y-104538056D01*
X89435252Y-104630776D01*
X89499727Y-104742450D01*
X89499729Y-104742453D01*
X89499730Y-104742454D01*
X89643406Y-104929697D01*
X89643412Y-104929704D01*
X89810295Y-105096587D01*
X89810302Y-105096593D01*
X89917249Y-105178656D01*
X89997550Y-105240273D01*
X90128918Y-105316118D01*
X90201943Y-105358280D01*
X90201948Y-105358282D01*
X90201951Y-105358284D01*
X90420007Y-105448606D01*
X90647986Y-105509693D01*
X90881989Y-105540500D01*
X90881996Y-105540500D01*
X91118004Y-105540500D01*
X91118011Y-105540500D01*
X91352014Y-105509693D01*
X91579993Y-105448606D01*
X91798049Y-105358284D01*
X92002450Y-105240273D01*
X92189699Y-105096592D01*
X92356592Y-104929699D01*
X92500273Y-104742450D01*
X92618284Y-104538049D01*
X92708606Y-104319993D01*
X92769693Y-104092014D01*
X92800500Y-103858011D01*
X92800500Y-103621989D01*
X92769693Y-103387986D01*
X92708606Y-103160007D01*
X92618284Y-102941951D01*
X92618282Y-102941948D01*
X92618280Y-102941943D01*
X92576118Y-102868918D01*
X92500273Y-102737550D01*
X92364020Y-102559981D01*
X92356593Y-102550302D01*
X92356587Y-102550295D01*
X92189704Y-102383412D01*
X92189697Y-102383406D01*
X92002454Y-102239730D01*
X92002453Y-102239729D01*
X92002450Y-102239727D01*
X91920957Y-102192677D01*
X91798056Y-102121719D01*
X91798045Y-102121714D01*
X91579993Y-102031394D01*
X91352010Y-101970306D01*
X91118020Y-101939501D01*
X91118017Y-101939500D01*
X91118011Y-101939500D01*
X90881989Y-101939500D01*
X90881983Y-101939500D01*
X90881979Y-101939501D01*
X90647989Y-101970306D01*
X90420006Y-102031394D01*
X90201954Y-102121714D01*
X90201943Y-102121719D01*
X89997545Y-102239730D01*
X89810302Y-102383406D01*
X89810295Y-102383412D01*
X89643412Y-102550295D01*
X89643406Y-102550302D01*
X89499730Y-102737545D01*
X89381719Y-102941943D01*
X89381714Y-102941954D01*
X89291394Y-103160006D01*
X89230306Y-103387989D01*
X89199501Y-103621979D01*
X89199500Y-103621995D01*
X80500500Y-103621995D01*
X80500500Y-98542014D01*
X89200000Y-98542014D01*
X89200000Y-98777985D01*
X89230799Y-99011914D01*
X89291870Y-99239837D01*
X89382160Y-99457819D01*
X89382165Y-99457828D01*
X89500144Y-99662171D01*
X89500145Y-99662172D01*
X89562721Y-99743723D01*
X90398958Y-98907487D01*
X90423978Y-98967890D01*
X90495112Y-99074351D01*
X90585649Y-99164888D01*
X90692110Y-99236022D01*
X90752511Y-99261041D01*
X89916275Y-100097277D01*
X89997827Y-100159854D01*
X89997828Y-100159855D01*
X90202171Y-100277834D01*
X90202180Y-100277839D01*
X90420163Y-100368129D01*
X90420161Y-100368129D01*
X90648085Y-100429200D01*
X90882014Y-100459999D01*
X90882029Y-100460000D01*
X91117971Y-100460000D01*
X91117985Y-100459999D01*
X91351914Y-100429200D01*
X91579837Y-100368129D01*
X91797819Y-100277839D01*
X91797828Y-100277834D01*
X92002181Y-100159850D01*
X92083723Y-100097279D01*
X92083723Y-100097276D01*
X91247487Y-99261041D01*
X91307890Y-99236022D01*
X91414351Y-99164888D01*
X91504888Y-99074351D01*
X91576022Y-98967890D01*
X91601041Y-98907487D01*
X92437276Y-99743723D01*
X92437279Y-99743723D01*
X92499850Y-99662181D01*
X92617834Y-99457828D01*
X92617839Y-99457819D01*
X92708129Y-99239837D01*
X92769200Y-99011914D01*
X92799999Y-98777985D01*
X92800000Y-98777971D01*
X92800000Y-98542028D01*
X92799999Y-98542014D01*
X92769200Y-98308085D01*
X92708129Y-98080162D01*
X92617839Y-97862180D01*
X92617834Y-97862171D01*
X92499855Y-97657828D01*
X92499854Y-97657827D01*
X92437277Y-97576275D01*
X91601041Y-98412511D01*
X91576022Y-98352110D01*
X91504888Y-98245649D01*
X91414351Y-98155112D01*
X91307890Y-98083978D01*
X91247488Y-98058958D01*
X92083723Y-97222721D01*
X92002172Y-97160145D01*
X92002171Y-97160144D01*
X91797828Y-97042165D01*
X91797819Y-97042160D01*
X91579836Y-96951870D01*
X91579838Y-96951870D01*
X91351914Y-96890799D01*
X91117985Y-96860000D01*
X90882014Y-96860000D01*
X90648085Y-96890799D01*
X90420162Y-96951870D01*
X90202180Y-97042160D01*
X90202171Y-97042165D01*
X89997828Y-97160144D01*
X89997818Y-97160150D01*
X89916275Y-97222720D01*
X89916275Y-97222721D01*
X90752512Y-98058958D01*
X90692110Y-98083978D01*
X90585649Y-98155112D01*
X90495112Y-98245649D01*
X90423978Y-98352110D01*
X90398958Y-98412512D01*
X89562721Y-97576275D01*
X89562720Y-97576275D01*
X89500150Y-97657818D01*
X89500144Y-97657828D01*
X89382165Y-97862171D01*
X89382160Y-97862180D01*
X89291870Y-98080162D01*
X89230799Y-98308085D01*
X89200000Y-98542014D01*
X80500500Y-98542014D01*
X80500500Y-90921153D01*
X98599500Y-90921153D01*
X98599500Y-91078846D01*
X98630261Y-91233489D01*
X98630263Y-91233497D01*
X98640061Y-91257151D01*
X98649500Y-91304604D01*
X98649500Y-93473918D01*
X98649500Y-93473920D01*
X98649499Y-93473920D01*
X98678340Y-93618907D01*
X98678343Y-93618917D01*
X98712560Y-93701523D01*
X98734916Y-93755495D01*
X98741120Y-93764780D01*
X98763925Y-93798911D01*
X98817049Y-93878418D01*
X98817052Y-93878421D01*
X107553927Y-102615295D01*
X107580807Y-102655523D01*
X107590604Y-102679175D01*
X107590609Y-102679185D01*
X107678210Y-102810288D01*
X107678213Y-102810292D01*
X107789707Y-102921786D01*
X107789711Y-102921789D01*
X107920814Y-103009390D01*
X107920827Y-103009397D01*
X108066498Y-103069735D01*
X108066503Y-103069737D01*
X108221153Y-103100499D01*
X108221156Y-103100500D01*
X108221158Y-103100500D01*
X108378844Y-103100500D01*
X108378845Y-103100499D01*
X108533497Y-103069737D01*
X108679179Y-103009394D01*
X108810289Y-102921789D01*
X108921789Y-102810289D01*
X109009394Y-102679179D01*
X109069737Y-102533497D01*
X109100500Y-102378842D01*
X109100500Y-102221158D01*
X109100500Y-102221155D01*
X109100499Y-102221153D01*
X109084624Y-102141344D01*
X109069737Y-102066503D01*
X109069735Y-102066498D01*
X109009397Y-101920827D01*
X109009390Y-101920814D01*
X108921789Y-101789711D01*
X108921786Y-101789707D01*
X108810292Y-101678213D01*
X108810288Y-101678210D01*
X108679185Y-101590609D01*
X108679175Y-101590604D01*
X108655523Y-101580807D01*
X108615295Y-101553927D01*
X100186819Y-93125451D01*
X100153334Y-93064128D01*
X100150500Y-93037770D01*
X100150500Y-91304604D01*
X100159939Y-91257151D01*
X100169737Y-91233497D01*
X100200500Y-91078842D01*
X100200500Y-90921158D01*
X100200500Y-90921155D01*
X100200499Y-90921153D01*
X100169738Y-90766510D01*
X100169737Y-90766503D01*
X100169735Y-90766498D01*
X100109397Y-90620827D01*
X100109390Y-90620814D01*
X100021789Y-90489711D01*
X100021786Y-90489707D01*
X99910292Y-90378213D01*
X99910288Y-90378210D01*
X99779185Y-90290609D01*
X99779172Y-90290602D01*
X99633501Y-90230264D01*
X99633489Y-90230261D01*
X99478845Y-90199500D01*
X99478842Y-90199500D01*
X99321158Y-90199500D01*
X99321155Y-90199500D01*
X99166510Y-90230261D01*
X99166498Y-90230264D01*
X99020827Y-90290602D01*
X99020814Y-90290609D01*
X98889711Y-90378210D01*
X98889707Y-90378213D01*
X98778213Y-90489707D01*
X98778210Y-90489711D01*
X98690609Y-90620814D01*
X98690602Y-90620827D01*
X98630264Y-90766498D01*
X98630261Y-90766510D01*
X98599500Y-90921153D01*
X80500500Y-90921153D01*
X80500500Y-81621995D01*
X89199500Y-81621995D01*
X89199500Y-81858004D01*
X89199501Y-81858020D01*
X89230306Y-82092010D01*
X89291394Y-82319993D01*
X89381714Y-82538045D01*
X89381719Y-82538056D01*
X89452677Y-82660957D01*
X89499727Y-82742450D01*
X89499729Y-82742453D01*
X89499730Y-82742454D01*
X89643406Y-82929697D01*
X89643412Y-82929704D01*
X89810295Y-83096587D01*
X89810301Y-83096592D01*
X89997550Y-83240273D01*
X90128918Y-83316118D01*
X90201943Y-83358280D01*
X90201948Y-83358282D01*
X90201951Y-83358284D01*
X90420007Y-83448606D01*
X90647986Y-83509693D01*
X90881989Y-83540500D01*
X90881996Y-83540500D01*
X91118004Y-83540500D01*
X91118011Y-83540500D01*
X91352014Y-83509693D01*
X91579993Y-83448606D01*
X91798049Y-83358284D01*
X92002450Y-83240273D01*
X92189699Y-83096592D01*
X92356592Y-82929699D01*
X92500273Y-82742450D01*
X92618284Y-82538049D01*
X92708606Y-82319993D01*
X92769693Y-82092014D01*
X92800500Y-81858011D01*
X92800500Y-81621989D01*
X92769693Y-81387986D01*
X92708606Y-81160007D01*
X92618284Y-80941951D01*
X92618282Y-80941948D01*
X92618280Y-80941943D01*
X92521634Y-80774549D01*
X92500273Y-80737550D01*
X92441001Y-80660306D01*
X92356593Y-80550302D01*
X92356587Y-80550295D01*
X92189704Y-80383412D01*
X92189697Y-80383406D01*
X92002454Y-80239730D01*
X92002453Y-80239729D01*
X92002450Y-80239727D01*
X91919726Y-80191966D01*
X91798056Y-80121719D01*
X91798045Y-80121714D01*
X91579993Y-80031394D01*
X91352010Y-79970306D01*
X91118020Y-79939501D01*
X91118017Y-79939500D01*
X91118011Y-79939500D01*
X90881989Y-79939500D01*
X90881983Y-79939500D01*
X90881979Y-79939501D01*
X90647989Y-79970306D01*
X90420006Y-80031394D01*
X90201954Y-80121714D01*
X90201943Y-80121719D01*
X89997545Y-80239730D01*
X89810302Y-80383406D01*
X89810295Y-80383412D01*
X89643412Y-80550295D01*
X89643406Y-80550302D01*
X89499730Y-80737545D01*
X89381719Y-80941943D01*
X89381714Y-80941954D01*
X89291394Y-81160006D01*
X89230306Y-81387989D01*
X89199501Y-81621979D01*
X89199500Y-81621995D01*
X80500500Y-81621995D01*
X80500500Y-76542014D01*
X89200000Y-76542014D01*
X89200000Y-76777985D01*
X89230799Y-77011914D01*
X89291870Y-77239837D01*
X89382160Y-77457819D01*
X89382165Y-77457828D01*
X89500144Y-77662171D01*
X89500145Y-77662172D01*
X89562721Y-77743723D01*
X90398958Y-76907487D01*
X90423978Y-76967890D01*
X90495112Y-77074351D01*
X90585649Y-77164888D01*
X90692110Y-77236022D01*
X90752511Y-77261041D01*
X89916275Y-78097277D01*
X89997827Y-78159854D01*
X89997828Y-78159855D01*
X90202171Y-78277834D01*
X90202180Y-78277839D01*
X90420163Y-78368129D01*
X90420161Y-78368129D01*
X90648085Y-78429200D01*
X90882014Y-78459999D01*
X90882029Y-78460000D01*
X91117971Y-78460000D01*
X91117985Y-78459999D01*
X91351914Y-78429200D01*
X91579837Y-78368129D01*
X91797819Y-78277839D01*
X91797828Y-78277834D01*
X92002181Y-78159850D01*
X92083723Y-78097279D01*
X92083723Y-78097276D01*
X91247487Y-77261041D01*
X91307890Y-77236022D01*
X91414351Y-77164888D01*
X91504888Y-77074351D01*
X91576022Y-76967890D01*
X91601041Y-76907487D01*
X92437276Y-77743723D01*
X92437279Y-77743723D01*
X92499850Y-77662181D01*
X92617834Y-77457828D01*
X92617839Y-77457819D01*
X92708129Y-77239837D01*
X92769200Y-77011914D01*
X92799999Y-76777985D01*
X92800000Y-76777971D01*
X92800000Y-76542028D01*
X92799999Y-76542014D01*
X92769200Y-76308085D01*
X92708129Y-76080162D01*
X92617839Y-75862180D01*
X92617834Y-75862171D01*
X92499855Y-75657828D01*
X92499854Y-75657827D01*
X92437277Y-75576275D01*
X91601041Y-76412511D01*
X91576022Y-76352110D01*
X91504888Y-76245649D01*
X91414351Y-76155112D01*
X91307890Y-76083978D01*
X91247488Y-76058958D01*
X92083723Y-75222721D01*
X92002172Y-75160145D01*
X92002171Y-75160144D01*
X91797828Y-75042165D01*
X91797819Y-75042160D01*
X91579836Y-74951870D01*
X91579838Y-74951870D01*
X91351914Y-74890799D01*
X91117985Y-74860000D01*
X90882014Y-74860000D01*
X90648085Y-74890799D01*
X90420162Y-74951870D01*
X90202180Y-75042160D01*
X90202171Y-75042165D01*
X89997828Y-75160144D01*
X89997818Y-75160150D01*
X89916275Y-75222720D01*
X89916275Y-75222721D01*
X90752512Y-76058958D01*
X90692110Y-76083978D01*
X90585649Y-76155112D01*
X90495112Y-76245649D01*
X90423978Y-76352110D01*
X90398958Y-76412512D01*
X89562721Y-75576275D01*
X89562720Y-75576275D01*
X89500150Y-75657818D01*
X89500144Y-75657828D01*
X89382165Y-75862171D01*
X89382160Y-75862180D01*
X89291870Y-76080162D01*
X89230799Y-76308085D01*
X89200000Y-76542014D01*
X80500500Y-76542014D01*
X80500500Y-71461995D01*
X89199500Y-71461995D01*
X89199500Y-71698004D01*
X89199501Y-71698020D01*
X89230306Y-71932010D01*
X89291394Y-72159993D01*
X89381714Y-72378045D01*
X89381719Y-72378056D01*
X89410103Y-72427217D01*
X89499727Y-72582450D01*
X89499729Y-72582453D01*
X89499730Y-72582454D01*
X89643406Y-72769697D01*
X89643412Y-72769704D01*
X89810295Y-72936587D01*
X89810301Y-72936592D01*
X89997550Y-73080273D01*
X90128918Y-73156118D01*
X90201943Y-73198280D01*
X90201948Y-73198282D01*
X90201951Y-73198284D01*
X90420007Y-73288606D01*
X90647986Y-73349693D01*
X90881989Y-73380500D01*
X90881996Y-73380500D01*
X91118004Y-73380500D01*
X91118011Y-73380500D01*
X91352014Y-73349693D01*
X91579993Y-73288606D01*
X91798049Y-73198284D01*
X92002450Y-73080273D01*
X92189699Y-72936592D01*
X92356592Y-72769699D01*
X92500273Y-72582450D01*
X92618284Y-72378049D01*
X92708606Y-72159993D01*
X92769693Y-71932014D01*
X92800500Y-71698011D01*
X92800500Y-71461989D01*
X92769693Y-71227986D01*
X92708606Y-71000007D01*
X92618284Y-70781951D01*
X92618282Y-70781948D01*
X92618280Y-70781943D01*
X92551137Y-70665649D01*
X92500273Y-70577550D01*
X92376136Y-70415771D01*
X92356593Y-70390302D01*
X92356587Y-70390295D01*
X92189704Y-70223412D01*
X92189697Y-70223406D01*
X92002454Y-70079730D01*
X92002453Y-70079729D01*
X92002450Y-70079727D01*
X91876745Y-70007151D01*
X91798056Y-69961719D01*
X91798045Y-69961714D01*
X91579993Y-69871394D01*
X91352010Y-69810306D01*
X91118020Y-69779501D01*
X91118017Y-69779500D01*
X91118011Y-69779500D01*
X90881989Y-69779500D01*
X90881983Y-69779500D01*
X90881979Y-69779501D01*
X90647989Y-69810306D01*
X90420006Y-69871394D01*
X90201954Y-69961714D01*
X90201943Y-69961719D01*
X90041064Y-70054604D01*
X90000857Y-70077818D01*
X89997545Y-70079730D01*
X89810302Y-70223406D01*
X89810295Y-70223412D01*
X89643412Y-70390295D01*
X89643406Y-70390302D01*
X89499730Y-70577545D01*
X89381719Y-70781943D01*
X89381714Y-70781954D01*
X89291394Y-71000006D01*
X89230306Y-71227989D01*
X89199501Y-71461979D01*
X89199500Y-71461995D01*
X80500500Y-71461995D01*
X80500500Y-59321989D01*
X89199500Y-59321989D01*
X89199500Y-59558011D01*
X89230307Y-59792014D01*
X89248291Y-59859132D01*
X89291394Y-60019993D01*
X89381714Y-60238045D01*
X89381719Y-60238056D01*
X89430645Y-60322797D01*
X89499727Y-60442450D01*
X89499729Y-60442453D01*
X89499730Y-60442454D01*
X89643406Y-60629697D01*
X89643412Y-60629704D01*
X89810295Y-60796587D01*
X89810301Y-60796592D01*
X89997550Y-60940273D01*
X90128918Y-61016118D01*
X90201943Y-61058280D01*
X90201948Y-61058282D01*
X90201951Y-61058284D01*
X90420007Y-61148606D01*
X90647986Y-61209693D01*
X90881989Y-61240500D01*
X90881996Y-61240500D01*
X91118004Y-61240500D01*
X91118011Y-61240500D01*
X91352014Y-61209693D01*
X91579993Y-61148606D01*
X91798049Y-61058284D01*
X92002450Y-60940273D01*
X92189699Y-60796592D01*
X92356592Y-60629699D01*
X92500273Y-60442450D01*
X92618284Y-60238049D01*
X92708606Y-60019993D01*
X92769693Y-59792014D01*
X92800500Y-59558011D01*
X92800500Y-59321989D01*
X92769693Y-59087986D01*
X92708606Y-58860007D01*
X92618284Y-58641951D01*
X92618282Y-58641948D01*
X92618280Y-58641943D01*
X92576118Y-58568918D01*
X92500273Y-58437550D01*
X92356592Y-58250301D01*
X92356587Y-58250295D01*
X92189704Y-58083412D01*
X92189697Y-58083406D01*
X92002454Y-57939730D01*
X92002453Y-57939729D01*
X92002450Y-57939727D01*
X91920957Y-57892677D01*
X91798056Y-57821719D01*
X91798045Y-57821714D01*
X91579993Y-57731394D01*
X91352010Y-57670306D01*
X91118020Y-57639501D01*
X91118017Y-57639500D01*
X91118011Y-57639500D01*
X90881989Y-57639500D01*
X90881983Y-57639500D01*
X90881979Y-57639501D01*
X90647989Y-57670306D01*
X90420006Y-57731394D01*
X90201954Y-57821714D01*
X90201943Y-57821719D01*
X89997545Y-57939730D01*
X89810302Y-58083406D01*
X89810295Y-58083412D01*
X89643412Y-58250295D01*
X89643406Y-58250302D01*
X89499730Y-58437545D01*
X89381719Y-58641943D01*
X89381714Y-58641954D01*
X89291394Y-58860006D01*
X89230306Y-59087989D01*
X89199501Y-59321979D01*
X89199500Y-59321989D01*
X80500500Y-59321989D01*
X80500500Y-54242014D01*
X89200000Y-54242014D01*
X89200000Y-54477985D01*
X89230799Y-54711914D01*
X89291870Y-54939837D01*
X89382160Y-55157819D01*
X89382165Y-55157828D01*
X89500144Y-55362171D01*
X89500145Y-55362172D01*
X89562721Y-55443723D01*
X90398958Y-54607487D01*
X90423978Y-54667890D01*
X90495112Y-54774351D01*
X90585649Y-54864888D01*
X90692110Y-54936022D01*
X90752511Y-54961041D01*
X89916275Y-55797277D01*
X89997827Y-55859854D01*
X89997828Y-55859855D01*
X90202171Y-55977834D01*
X90202180Y-55977839D01*
X90420163Y-56068129D01*
X90420161Y-56068129D01*
X90648085Y-56129200D01*
X90882014Y-56159999D01*
X90882029Y-56160000D01*
X91117971Y-56160000D01*
X91117985Y-56159999D01*
X91351914Y-56129200D01*
X91579837Y-56068129D01*
X91797819Y-55977839D01*
X91797828Y-55977834D01*
X92002181Y-55859850D01*
X92083723Y-55797279D01*
X92083723Y-55797276D01*
X91247487Y-54961041D01*
X91307890Y-54936022D01*
X91414351Y-54864888D01*
X91504888Y-54774351D01*
X91576022Y-54667890D01*
X91601041Y-54607487D01*
X92437276Y-55443723D01*
X92437279Y-55443723D01*
X92499850Y-55362181D01*
X92617834Y-55157828D01*
X92617839Y-55157819D01*
X92708129Y-54939837D01*
X92769200Y-54711914D01*
X92799999Y-54477985D01*
X92800000Y-54477971D01*
X92800000Y-54242028D01*
X92799999Y-54242014D01*
X92769200Y-54008085D01*
X92708129Y-53780162D01*
X92617839Y-53562180D01*
X92617834Y-53562171D01*
X92499855Y-53357828D01*
X92499854Y-53357827D01*
X92437277Y-53276275D01*
X91601041Y-54112511D01*
X91576022Y-54052110D01*
X91504888Y-53945649D01*
X91414351Y-53855112D01*
X91307890Y-53783978D01*
X91247488Y-53758958D01*
X92083723Y-52922721D01*
X92002172Y-52860145D01*
X92002171Y-52860144D01*
X91797828Y-52742165D01*
X91797819Y-52742160D01*
X91579836Y-52651870D01*
X91579838Y-52651870D01*
X91351914Y-52590799D01*
X91117985Y-52560000D01*
X90882014Y-52560000D01*
X90648085Y-52590799D01*
X90420162Y-52651870D01*
X90202180Y-52742160D01*
X90202171Y-52742165D01*
X89997828Y-52860144D01*
X89997818Y-52860150D01*
X89916275Y-52922720D01*
X89916275Y-52922721D01*
X90752512Y-53758958D01*
X90692110Y-53783978D01*
X90585649Y-53855112D01*
X90495112Y-53945649D01*
X90423978Y-54052110D01*
X90398958Y-54112512D01*
X89562721Y-53276275D01*
X89562720Y-53276275D01*
X89500150Y-53357818D01*
X89500144Y-53357828D01*
X89382165Y-53562171D01*
X89382160Y-53562180D01*
X89291870Y-53780162D01*
X89230799Y-54008085D01*
X89200000Y-54242014D01*
X80500500Y-54242014D01*
X80500500Y-49161995D01*
X89199500Y-49161995D01*
X89199500Y-49398004D01*
X89199501Y-49398020D01*
X89230306Y-49632010D01*
X89291394Y-49859993D01*
X89381714Y-50078045D01*
X89381719Y-50078056D01*
X89452677Y-50200957D01*
X89499727Y-50282450D01*
X89499729Y-50282453D01*
X89499730Y-50282454D01*
X89643406Y-50469697D01*
X89643412Y-50469704D01*
X89810295Y-50636587D01*
X89810301Y-50636592D01*
X89997550Y-50780273D01*
X90116428Y-50848907D01*
X90201943Y-50898280D01*
X90201948Y-50898282D01*
X90201951Y-50898284D01*
X90420007Y-50988606D01*
X90647986Y-51049693D01*
X90881989Y-51080500D01*
X90881996Y-51080500D01*
X91118004Y-51080500D01*
X91118011Y-51080500D01*
X91352014Y-51049693D01*
X91579993Y-50988606D01*
X91798049Y-50898284D01*
X92002450Y-50780273D01*
X92189699Y-50636592D01*
X92356592Y-50469699D01*
X92500273Y-50282450D01*
X92618284Y-50078049D01*
X92708606Y-49859993D01*
X92769693Y-49632014D01*
X92800500Y-49398011D01*
X92800500Y-49161989D01*
X92769693Y-48927986D01*
X92708606Y-48700007D01*
X92618284Y-48481951D01*
X92618282Y-48481948D01*
X92618280Y-48481943D01*
X92559516Y-48380162D01*
X92500273Y-48277550D01*
X92356592Y-48090301D01*
X92356587Y-48090295D01*
X92189704Y-47923412D01*
X92189697Y-47923406D01*
X92002454Y-47779730D01*
X92002453Y-47779729D01*
X92002450Y-47779727D01*
X91920957Y-47732677D01*
X91798056Y-47661719D01*
X91798045Y-47661714D01*
X91579993Y-47571394D01*
X91352014Y-47510307D01*
X91352013Y-47510306D01*
X91352010Y-47510306D01*
X91118020Y-47479501D01*
X91118017Y-47479500D01*
X91118011Y-47479500D01*
X90881989Y-47479500D01*
X90881983Y-47479500D01*
X90881979Y-47479501D01*
X90647989Y-47510306D01*
X90420006Y-47571394D01*
X90201954Y-47661714D01*
X90201943Y-47661719D01*
X89997545Y-47779730D01*
X89810302Y-47923406D01*
X89810295Y-47923412D01*
X89643412Y-48090295D01*
X89643406Y-48090302D01*
X89499730Y-48277545D01*
X89381719Y-48481943D01*
X89381714Y-48481954D01*
X89291394Y-48700006D01*
X89230306Y-48927989D01*
X89199501Y-49161979D01*
X89199500Y-49161995D01*
X80500500Y-49161995D01*
X80500500Y-43099983D01*
X89199500Y-43099983D01*
X89199500Y-45300001D01*
X89199501Y-45300018D01*
X89210000Y-45402796D01*
X89210001Y-45402799D01*
X89265185Y-45569331D01*
X89265186Y-45569334D01*
X89357288Y-45718656D01*
X89481344Y-45842712D01*
X89630666Y-45934814D01*
X89797203Y-45989999D01*
X89899991Y-46000500D01*
X91687769Y-46000499D01*
X91754808Y-46020184D01*
X91775450Y-46036818D01*
X98463181Y-52724549D01*
X98496666Y-52785872D01*
X98499500Y-52812230D01*
X98499500Y-69073918D01*
X98499500Y-69073920D01*
X98499499Y-69073920D01*
X98528340Y-69218907D01*
X98528343Y-69218917D01*
X98584913Y-69355490D01*
X98584914Y-69355492D01*
X98610982Y-69394505D01*
X98610983Y-69394507D01*
X98667043Y-69478410D01*
X98667047Y-69478415D01*
X101021579Y-71832947D01*
X101021582Y-71832949D01*
X101021585Y-71832952D01*
X101046215Y-71849409D01*
X101144505Y-71915084D01*
X101185378Y-71932014D01*
X101281088Y-71971659D01*
X101397241Y-71994763D01*
X101421033Y-71999495D01*
X101426081Y-72000500D01*
X101426082Y-72000500D01*
X101426083Y-72000500D01*
X101573918Y-72000500D01*
X111519319Y-72000500D01*
X111586358Y-72020185D01*
X111632113Y-72072989D01*
X111633880Y-72077048D01*
X111634776Y-72079212D01*
X111664985Y-72138499D01*
X111693668Y-72194794D01*
X111727715Y-72261613D01*
X111848028Y-72427213D01*
X111992786Y-72571971D01*
X112147749Y-72684556D01*
X112158390Y-72692287D01*
X112249840Y-72738883D01*
X112251080Y-72739515D01*
X112301876Y-72787490D01*
X112318671Y-72855311D01*
X112296134Y-72921446D01*
X112251080Y-72960485D01*
X112158386Y-73007715D01*
X111992786Y-73128028D01*
X111848032Y-73272782D01*
X111848028Y-73272787D01*
X111814900Y-73318385D01*
X111759571Y-73361051D01*
X111714582Y-73369500D01*
X101232229Y-73369500D01*
X101165190Y-73349815D01*
X101144548Y-73333181D01*
X93728421Y-65917052D01*
X93728414Y-65917046D01*
X93654729Y-65867812D01*
X93654729Y-65867813D01*
X93605491Y-65834913D01*
X93468917Y-65778343D01*
X93468907Y-65778340D01*
X93323920Y-65749500D01*
X93323918Y-65749500D01*
X92924499Y-65749500D01*
X92857460Y-65729815D01*
X92811705Y-65677011D01*
X92800499Y-65625500D01*
X92800499Y-65399998D01*
X92800498Y-65399981D01*
X92789999Y-65297203D01*
X92789998Y-65297200D01*
X92769490Y-65235311D01*
X92734814Y-65130666D01*
X92642712Y-64981344D01*
X92518656Y-64857288D01*
X92369334Y-64765186D01*
X92202797Y-64710001D01*
X92202795Y-64710000D01*
X92100010Y-64699500D01*
X89899998Y-64699500D01*
X89899981Y-64699501D01*
X89797203Y-64710000D01*
X89797200Y-64710001D01*
X89630668Y-64765185D01*
X89630663Y-64765187D01*
X89481342Y-64857289D01*
X89357289Y-64981342D01*
X89265187Y-65130663D01*
X89265186Y-65130666D01*
X89210001Y-65297203D01*
X89210001Y-65297204D01*
X89210000Y-65297204D01*
X89199500Y-65399983D01*
X89199500Y-67600001D01*
X89199501Y-67600018D01*
X89210000Y-67702796D01*
X89210001Y-67702799D01*
X89252984Y-67832511D01*
X89265186Y-67869334D01*
X89357288Y-68018656D01*
X89481344Y-68142712D01*
X89630666Y-68234814D01*
X89797203Y-68289999D01*
X89899991Y-68300500D01*
X92100008Y-68300499D01*
X92202797Y-68289999D01*
X92369334Y-68234814D01*
X92518656Y-68142712D01*
X92642712Y-68018656D01*
X92734814Y-67869334D01*
X92789999Y-67702797D01*
X92800500Y-67600009D01*
X92800500Y-67411230D01*
X92820185Y-67344191D01*
X92872989Y-67298436D01*
X92942147Y-67288492D01*
X93005703Y-67317517D01*
X93012181Y-67323549D01*
X100391580Y-74702948D01*
X100391584Y-74702951D01*
X100514498Y-74785080D01*
X100514511Y-74785087D01*
X100651082Y-74841656D01*
X100651087Y-74841658D01*
X100651091Y-74841658D01*
X100651092Y-74841659D01*
X100796079Y-74870500D01*
X100796082Y-74870500D01*
X100943917Y-74870500D01*
X111714582Y-74870500D01*
X111781621Y-74890185D01*
X111814900Y-74921615D01*
X111848028Y-74967212D01*
X111848032Y-74967217D01*
X111992786Y-75111971D01*
X112145222Y-75222720D01*
X112158390Y-75232287D01*
X112249840Y-75278883D01*
X112251080Y-75279515D01*
X112301876Y-75327490D01*
X112318671Y-75395311D01*
X112296134Y-75461446D01*
X112251080Y-75500485D01*
X112158386Y-75547715D01*
X111992786Y-75668028D01*
X111848032Y-75812782D01*
X111848028Y-75812787D01*
X111814900Y-75858385D01*
X111759571Y-75901051D01*
X111714582Y-75909500D01*
X110016076Y-75909500D01*
X109987242Y-75915234D01*
X109987243Y-75915235D01*
X109871093Y-75938339D01*
X109871083Y-75938342D01*
X109791081Y-75971479D01*
X109791082Y-75971480D01*
X109734506Y-75994915D01*
X109664055Y-76041989D01*
X109611582Y-76077049D01*
X109611579Y-76077052D01*
X97975451Y-87713181D01*
X97914128Y-87746666D01*
X97887770Y-87749500D01*
X92924499Y-87749500D01*
X92857460Y-87729815D01*
X92811705Y-87677011D01*
X92800499Y-87625500D01*
X92800499Y-87399998D01*
X92800498Y-87399981D01*
X92789999Y-87297203D01*
X92789998Y-87297200D01*
X92767828Y-87230295D01*
X92734814Y-87130666D01*
X92642712Y-86981344D01*
X92518656Y-86857288D01*
X92369334Y-86765186D01*
X92202797Y-86710001D01*
X92202795Y-86710000D01*
X92100010Y-86699500D01*
X89899998Y-86699500D01*
X89899981Y-86699501D01*
X89797203Y-86710000D01*
X89797200Y-86710001D01*
X89630668Y-86765185D01*
X89630663Y-86765187D01*
X89481342Y-86857289D01*
X89357289Y-86981342D01*
X89265187Y-87130663D01*
X89265186Y-87130666D01*
X89210001Y-87297203D01*
X89210001Y-87297204D01*
X89210000Y-87297204D01*
X89199500Y-87399983D01*
X89199500Y-89600001D01*
X89199501Y-89600018D01*
X89210000Y-89702796D01*
X89210001Y-89702799D01*
X89265185Y-89869331D01*
X89265186Y-89869334D01*
X89357288Y-90018656D01*
X89481344Y-90142712D01*
X89630666Y-90234814D01*
X89797203Y-90289999D01*
X89899991Y-90300500D01*
X92100008Y-90300499D01*
X92202797Y-90289999D01*
X92369334Y-90234814D01*
X92518656Y-90142712D01*
X92642712Y-90018656D01*
X92734814Y-89869334D01*
X92789999Y-89702797D01*
X92800500Y-89600009D01*
X92800500Y-89374500D01*
X92820185Y-89307461D01*
X92872989Y-89261706D01*
X92924500Y-89250500D01*
X98323920Y-89250500D01*
X98421462Y-89231096D01*
X98468913Y-89221658D01*
X98605495Y-89165084D01*
X98654729Y-89132186D01*
X98728416Y-89082952D01*
X110364548Y-77446818D01*
X110425871Y-77413334D01*
X110452229Y-77410500D01*
X111714582Y-77410500D01*
X111781621Y-77430185D01*
X111814900Y-77461615D01*
X111848028Y-77507212D01*
X111848032Y-77507217D01*
X111992786Y-77651971D01*
X112147749Y-77764556D01*
X112158390Y-77772287D01*
X112249840Y-77818883D01*
X112251080Y-77819515D01*
X112301876Y-77867490D01*
X112318671Y-77935311D01*
X112296134Y-78001446D01*
X112251080Y-78040485D01*
X112158386Y-78087715D01*
X111992786Y-78208028D01*
X111848028Y-78352786D01*
X111727715Y-78518386D01*
X111634781Y-78700776D01*
X111571522Y-78895465D01*
X111539500Y-79097648D01*
X111539500Y-79302351D01*
X111571522Y-79504534D01*
X111634781Y-79699223D01*
X111686135Y-79800009D01*
X111722135Y-79870663D01*
X111727715Y-79881613D01*
X111848028Y-80047213D01*
X111992786Y-80191971D01*
X112115453Y-80281092D01*
X112158390Y-80312287D01*
X112274607Y-80371503D01*
X112340776Y-80405218D01*
X112340778Y-80405218D01*
X112340781Y-80405220D01*
X112404988Y-80426082D01*
X112535465Y-80468477D01*
X112636557Y-80484488D01*
X112737648Y-80500500D01*
X112737649Y-80500500D01*
X112942351Y-80500500D01*
X112942352Y-80500500D01*
X113144534Y-80468477D01*
X113339219Y-80405220D01*
X113521610Y-80312287D01*
X113650482Y-80218657D01*
X113687213Y-80191971D01*
X113687215Y-80191968D01*
X113687219Y-80191966D01*
X113831966Y-80047219D01*
X113831968Y-80047215D01*
X113831971Y-80047213D01*
X113952284Y-79881614D01*
X113952285Y-79881613D01*
X113952287Y-79881610D01*
X114015015Y-79758498D01*
X114062990Y-79707703D01*
X114130810Y-79690908D01*
X114196945Y-79713445D01*
X114240397Y-79768160D01*
X114249500Y-79814794D01*
X114249500Y-80637769D01*
X114229815Y-80704808D01*
X114213181Y-80725450D01*
X108417050Y-86521580D01*
X108417044Y-86521588D01*
X108367812Y-86595268D01*
X108367813Y-86595269D01*
X108334921Y-86644496D01*
X108334914Y-86644508D01*
X108278342Y-86781086D01*
X108278340Y-86781092D01*
X108249500Y-86926079D01*
X108249500Y-86926082D01*
X108249500Y-96273918D01*
X108249500Y-96273920D01*
X108249499Y-96273920D01*
X108278340Y-96418907D01*
X108278343Y-96418917D01*
X108334914Y-96555492D01*
X108367812Y-96604727D01*
X108367813Y-96604730D01*
X108417046Y-96678414D01*
X108417052Y-96678421D01*
X109128927Y-97390295D01*
X109831584Y-98092952D01*
X109899545Y-98138361D01*
X109899546Y-98138362D01*
X109954498Y-98175080D01*
X109954511Y-98175087D01*
X110082222Y-98227986D01*
X110091087Y-98231658D01*
X110091091Y-98231658D01*
X110091092Y-98231659D01*
X110236079Y-98260500D01*
X110236082Y-98260500D01*
X110236083Y-98260500D01*
X110383918Y-98260500D01*
X111714582Y-98260500D01*
X111781621Y-98280185D01*
X111814900Y-98311615D01*
X111848028Y-98357212D01*
X111848032Y-98357217D01*
X111992786Y-98501971D01*
X112147749Y-98614556D01*
X112158390Y-98622287D01*
X112232404Y-98659999D01*
X112251080Y-98669515D01*
X112301876Y-98717490D01*
X112318671Y-98785311D01*
X112296134Y-98851446D01*
X112251080Y-98890485D01*
X112158386Y-98937715D01*
X111992786Y-99058028D01*
X111848028Y-99202786D01*
X111727715Y-99368386D01*
X111634781Y-99550776D01*
X111571522Y-99745465D01*
X111539500Y-99947648D01*
X111539500Y-100152351D01*
X111571522Y-100354534D01*
X111634781Y-100549223D01*
X111727715Y-100731613D01*
X111848028Y-100897213D01*
X111992786Y-101041971D01*
X112147749Y-101154556D01*
X112158390Y-101162287D01*
X112249840Y-101208883D01*
X112251080Y-101209515D01*
X112301876Y-101257490D01*
X112318671Y-101325311D01*
X112296134Y-101391446D01*
X112251080Y-101430485D01*
X112158386Y-101477715D01*
X111992786Y-101598028D01*
X111848028Y-101742786D01*
X111727715Y-101908386D01*
X111634781Y-102090776D01*
X111571522Y-102285465D01*
X111539500Y-102487648D01*
X111539500Y-102692351D01*
X111571522Y-102894534D01*
X111634781Y-103089223D01*
X111727715Y-103271613D01*
X111848028Y-103437213D01*
X111992786Y-103581971D01*
X112147749Y-103694556D01*
X112158390Y-103702287D01*
X112249840Y-103748883D01*
X112251080Y-103749515D01*
X112301876Y-103797490D01*
X112318671Y-103865311D01*
X112296134Y-103931446D01*
X112251080Y-103970485D01*
X112158386Y-104017715D01*
X111992786Y-104138028D01*
X111848028Y-104282786D01*
X111727715Y-104448386D01*
X111634781Y-104630776D01*
X111571522Y-104825465D01*
X111539500Y-105027648D01*
X111539500Y-105232351D01*
X111571522Y-105434534D01*
X111634781Y-105629223D01*
X111727715Y-105811613D01*
X111848028Y-105977213D01*
X111992786Y-106121971D01*
X112147749Y-106234556D01*
X112158390Y-106242287D01*
X112249840Y-106288883D01*
X112251080Y-106289515D01*
X112301876Y-106337490D01*
X112318671Y-106405311D01*
X112296134Y-106471446D01*
X112251080Y-106510485D01*
X112158386Y-106557715D01*
X111992786Y-106678028D01*
X111848032Y-106822782D01*
X111848028Y-106822787D01*
X111814900Y-106868385D01*
X111759571Y-106911051D01*
X111714582Y-106919500D01*
X110032229Y-106919500D01*
X109965190Y-106899815D01*
X109944548Y-106883181D01*
X95996071Y-92934703D01*
X95969191Y-92894475D01*
X95959394Y-92870821D01*
X95900008Y-92781943D01*
X95871789Y-92739710D01*
X95760292Y-92628213D01*
X95760288Y-92628210D01*
X95629185Y-92540609D01*
X95629172Y-92540602D01*
X95483501Y-92480264D01*
X95483489Y-92480261D01*
X95328845Y-92449500D01*
X95328842Y-92449500D01*
X95171158Y-92449500D01*
X95171155Y-92449500D01*
X95016510Y-92480261D01*
X95016498Y-92480264D01*
X94870827Y-92540602D01*
X94870814Y-92540609D01*
X94739711Y-92628210D01*
X94739707Y-92628213D01*
X94628213Y-92739707D01*
X94628210Y-92739711D01*
X94540609Y-92870814D01*
X94540602Y-92870827D01*
X94480264Y-93016498D01*
X94480261Y-93016510D01*
X94449500Y-93171153D01*
X94449500Y-93328846D01*
X94480261Y-93483489D01*
X94480264Y-93483501D01*
X94540602Y-93629172D01*
X94540609Y-93629185D01*
X94628210Y-93760288D01*
X94628213Y-93760292D01*
X94739710Y-93871789D01*
X94803409Y-93914351D01*
X94870821Y-93959394D01*
X94894475Y-93969191D01*
X94934703Y-93996071D01*
X109087049Y-108148416D01*
X109191584Y-108252951D01*
X109191587Y-108252953D01*
X109191588Y-108252954D01*
X109314503Y-108335083D01*
X109314506Y-108335085D01*
X109364665Y-108355861D01*
X109371080Y-108358518D01*
X109451088Y-108391659D01*
X109567241Y-108414763D01*
X109590380Y-108419365D01*
X109596081Y-108420500D01*
X109596082Y-108420500D01*
X109596083Y-108420500D01*
X109743918Y-108420500D01*
X111714582Y-108420500D01*
X111781621Y-108440185D01*
X111814900Y-108471615D01*
X111848028Y-108517212D01*
X111848032Y-108517217D01*
X111992786Y-108661971D01*
X112147749Y-108774556D01*
X112158390Y-108782287D01*
X112249759Y-108828842D01*
X112251080Y-108829515D01*
X112301876Y-108877490D01*
X112318671Y-108945311D01*
X112296134Y-109011446D01*
X112251080Y-109050485D01*
X112158386Y-109097715D01*
X111992786Y-109218028D01*
X111848032Y-109362782D01*
X111848028Y-109362787D01*
X111814900Y-109408385D01*
X111759571Y-109451051D01*
X111714582Y-109459500D01*
X107992229Y-109459500D01*
X107925190Y-109439815D01*
X107904548Y-109423181D01*
X92745018Y-94263650D01*
X92711533Y-94202327D01*
X92712923Y-94143878D01*
X92769693Y-93932014D01*
X92800500Y-93698011D01*
X92800500Y-93461989D01*
X92769693Y-93227986D01*
X92708606Y-93000007D01*
X92618284Y-92781951D01*
X92618282Y-92781948D01*
X92618280Y-92781943D01*
X92529523Y-92628213D01*
X92500273Y-92577550D01*
X92356592Y-92390301D01*
X92356587Y-92390295D01*
X92189704Y-92223412D01*
X92189697Y-92223406D01*
X92002454Y-92079730D01*
X92002453Y-92079729D01*
X92002450Y-92079727D01*
X91864619Y-92000150D01*
X91798056Y-91961719D01*
X91798045Y-91961714D01*
X91579993Y-91871394D01*
X91352010Y-91810306D01*
X91118020Y-91779501D01*
X91118017Y-91779500D01*
X91118011Y-91779500D01*
X90881989Y-91779500D01*
X90881983Y-91779500D01*
X90881979Y-91779501D01*
X90647989Y-91810306D01*
X90420006Y-91871394D01*
X90201954Y-91961714D01*
X90201943Y-91961719D01*
X89997545Y-92079730D01*
X89810302Y-92223406D01*
X89810295Y-92223412D01*
X89643412Y-92390295D01*
X89643406Y-92390302D01*
X89499730Y-92577545D01*
X89381719Y-92781943D01*
X89381714Y-92781954D01*
X89291394Y-93000006D01*
X89230306Y-93227989D01*
X89199501Y-93461979D01*
X89199500Y-93461995D01*
X89199500Y-93698004D01*
X89199501Y-93698020D01*
X89227981Y-93914351D01*
X89230307Y-93932014D01*
X89242638Y-93978034D01*
X89291394Y-94159993D01*
X89381714Y-94378045D01*
X89381719Y-94378056D01*
X89435252Y-94470776D01*
X89499727Y-94582450D01*
X89499729Y-94582453D01*
X89499730Y-94582454D01*
X89643406Y-94769697D01*
X89643412Y-94769704D01*
X89810295Y-94936587D01*
X89810302Y-94936593D01*
X89892746Y-94999854D01*
X89997550Y-95080273D01*
X90128918Y-95156118D01*
X90201943Y-95198280D01*
X90201948Y-95198282D01*
X90201951Y-95198284D01*
X90420007Y-95288606D01*
X90647986Y-95349693D01*
X90881989Y-95380500D01*
X90881996Y-95380500D01*
X91118004Y-95380500D01*
X91118011Y-95380500D01*
X91352014Y-95349693D01*
X91563877Y-95292924D01*
X91633725Y-95294587D01*
X91683650Y-95325018D01*
X99368023Y-103009390D01*
X107047049Y-110688416D01*
X107151584Y-110792951D01*
X107151587Y-110792953D01*
X107151588Y-110792954D01*
X107274503Y-110875083D01*
X107274506Y-110875085D01*
X107324665Y-110895861D01*
X107331080Y-110898518D01*
X107411088Y-110931659D01*
X107527241Y-110954763D01*
X107550380Y-110959365D01*
X107556081Y-110960500D01*
X107556082Y-110960500D01*
X107556083Y-110960500D01*
X107703918Y-110960500D01*
X111714582Y-110960500D01*
X111781621Y-110980185D01*
X111814900Y-111011615D01*
X111848028Y-111057212D01*
X111848032Y-111057217D01*
X111992786Y-111201971D01*
X112147749Y-111314556D01*
X112158390Y-111322287D01*
X112249840Y-111368883D01*
X112251080Y-111369515D01*
X112301876Y-111417490D01*
X112318671Y-111485311D01*
X112296134Y-111551446D01*
X112251080Y-111590485D01*
X112158386Y-111637715D01*
X111992786Y-111758028D01*
X111848028Y-111902786D01*
X111727715Y-112068386D01*
X111634781Y-112250776D01*
X111571522Y-112445465D01*
X111539500Y-112647648D01*
X111539500Y-112852351D01*
X111571522Y-113054534D01*
X111634781Y-113249223D01*
X111727715Y-113431613D01*
X111848028Y-113597213D01*
X111992786Y-113741971D01*
X112147749Y-113854556D01*
X112158390Y-113862287D01*
X112252032Y-113910000D01*
X112340776Y-113955218D01*
X112340778Y-113955218D01*
X112340781Y-113955220D01*
X112431856Y-113984812D01*
X112535465Y-114018477D01*
X112636557Y-114034488D01*
X112737648Y-114050500D01*
X112737649Y-114050500D01*
X112942351Y-114050500D01*
X112942352Y-114050500D01*
X113144534Y-114018477D01*
X113339219Y-113955220D01*
X113521610Y-113862287D01*
X113650482Y-113768657D01*
X113687213Y-113741971D01*
X113687215Y-113741968D01*
X113687219Y-113741966D01*
X113831966Y-113597219D01*
X113831968Y-113597215D01*
X113831971Y-113597213D01*
X113936892Y-113452799D01*
X113952287Y-113431610D01*
X114045220Y-113249219D01*
X114108477Y-113054534D01*
X114140500Y-112852352D01*
X114140500Y-112647648D01*
X114120284Y-112520009D01*
X114108477Y-112445465D01*
X114045218Y-112250776D01*
X113993865Y-112149991D01*
X113952287Y-112068390D01*
X113936894Y-112047203D01*
X113831971Y-111902786D01*
X113687213Y-111758028D01*
X113521614Y-111637715D01*
X113511281Y-111632450D01*
X113428917Y-111590483D01*
X113378123Y-111542511D01*
X113361328Y-111474690D01*
X113383865Y-111408555D01*
X113428917Y-111369516D01*
X113521610Y-111322287D01*
X113593550Y-111270020D01*
X113687213Y-111201971D01*
X113687215Y-111201968D01*
X113687219Y-111201966D01*
X113831966Y-111057219D01*
X113831968Y-111057215D01*
X113831971Y-111057213D01*
X113906404Y-110954763D01*
X113952287Y-110891610D01*
X114045220Y-110709219D01*
X114108477Y-110514534D01*
X114140500Y-110312352D01*
X114140500Y-110107648D01*
X114108477Y-109905466D01*
X114084591Y-109831954D01*
X114045218Y-109710776D01*
X114004060Y-109630000D01*
X113952287Y-109528390D01*
X113902159Y-109459394D01*
X113831971Y-109362786D01*
X113687213Y-109218028D01*
X113521614Y-109097715D01*
X113515006Y-109094348D01*
X113428917Y-109050483D01*
X113378123Y-109002511D01*
X113361328Y-108934690D01*
X113383865Y-108868555D01*
X113428917Y-108829516D01*
X113521610Y-108782287D01*
X113542770Y-108766913D01*
X113687213Y-108661971D01*
X113687215Y-108661968D01*
X113687219Y-108661966D01*
X113831966Y-108517219D01*
X113831968Y-108517215D01*
X113831971Y-108517213D01*
X113921140Y-108394480D01*
X113952287Y-108351610D01*
X114045220Y-108169219D01*
X114108477Y-107974534D01*
X114140500Y-107772352D01*
X114140500Y-107567648D01*
X114108477Y-107365466D01*
X114045220Y-107170781D01*
X114045218Y-107170778D01*
X114045218Y-107170776D01*
X114011503Y-107104607D01*
X113952287Y-106988390D01*
X113902236Y-106919500D01*
X113831971Y-106822786D01*
X113687213Y-106678028D01*
X113521614Y-106557715D01*
X113515006Y-106554348D01*
X113428917Y-106510483D01*
X113378123Y-106462511D01*
X113361328Y-106394690D01*
X113383865Y-106328555D01*
X113428917Y-106289516D01*
X113521610Y-106242287D01*
X113542770Y-106226913D01*
X113687213Y-106121971D01*
X113687215Y-106121968D01*
X113687219Y-106121966D01*
X113831966Y-105977219D01*
X113831968Y-105977215D01*
X113831971Y-105977213D01*
X113884732Y-105904590D01*
X113952287Y-105811610D01*
X114045220Y-105629219D01*
X114108477Y-105434534D01*
X114140500Y-105232352D01*
X114140500Y-105027648D01*
X114114390Y-104862796D01*
X114108477Y-104825465D01*
X114045218Y-104630776D01*
X113997974Y-104538056D01*
X113952287Y-104448390D01*
X113944556Y-104437749D01*
X113831971Y-104282786D01*
X113687213Y-104138028D01*
X113521614Y-104017715D01*
X113515006Y-104014348D01*
X113428917Y-103970483D01*
X113378123Y-103922511D01*
X113361328Y-103854690D01*
X113383865Y-103788555D01*
X113428917Y-103749516D01*
X113521610Y-103702287D01*
X113542770Y-103686913D01*
X113687213Y-103581971D01*
X113687215Y-103581968D01*
X113687219Y-103581966D01*
X113831966Y-103437219D01*
X113831968Y-103437215D01*
X113831971Y-103437213D01*
X113884732Y-103364590D01*
X113952287Y-103271610D01*
X114045220Y-103089219D01*
X114108477Y-102894534D01*
X114140500Y-102692352D01*
X114140500Y-102487648D01*
X114123990Y-102383408D01*
X114108477Y-102285465D01*
X114055271Y-102121716D01*
X114045220Y-102090781D01*
X114045218Y-102090778D01*
X114045218Y-102090776D01*
X113983835Y-101970307D01*
X113952287Y-101908390D01*
X113924396Y-101870001D01*
X113831971Y-101742786D01*
X113687213Y-101598028D01*
X113521614Y-101477715D01*
X113515006Y-101474348D01*
X113428917Y-101430483D01*
X113378123Y-101382511D01*
X113361328Y-101314690D01*
X113383865Y-101248555D01*
X113428917Y-101209516D01*
X113521610Y-101162287D01*
X113542770Y-101146913D01*
X113687213Y-101041971D01*
X113687215Y-101041968D01*
X113687219Y-101041966D01*
X113831966Y-100897219D01*
X113831968Y-100897215D01*
X113831971Y-100897213D01*
X113884732Y-100824590D01*
X113952287Y-100731610D01*
X114045220Y-100549219D01*
X114108477Y-100354534D01*
X114140500Y-100152352D01*
X114140500Y-99947648D01*
X121699500Y-99947648D01*
X121699500Y-100152351D01*
X121731522Y-100354534D01*
X121794781Y-100549223D01*
X121887715Y-100731613D01*
X122008028Y-100897213D01*
X122152786Y-101041971D01*
X122307749Y-101154556D01*
X122318390Y-101162287D01*
X122409840Y-101208883D01*
X122411080Y-101209515D01*
X122461876Y-101257490D01*
X122478671Y-101325311D01*
X122456134Y-101391446D01*
X122411080Y-101430485D01*
X122318386Y-101477715D01*
X122152786Y-101598028D01*
X122008028Y-101742786D01*
X121887715Y-101908386D01*
X121794781Y-102090776D01*
X121731522Y-102285465D01*
X121699500Y-102487648D01*
X121699500Y-102692351D01*
X121731522Y-102894534D01*
X121794781Y-103089223D01*
X121887715Y-103271613D01*
X122008028Y-103437213D01*
X122152786Y-103581971D01*
X122307749Y-103694556D01*
X122318390Y-103702287D01*
X122409840Y-103748883D01*
X122411080Y-103749515D01*
X122461876Y-103797490D01*
X122478671Y-103865311D01*
X122456134Y-103931446D01*
X122411080Y-103970485D01*
X122318386Y-104017715D01*
X122152786Y-104138028D01*
X122008028Y-104282786D01*
X121887715Y-104448386D01*
X121794781Y-104630776D01*
X121731522Y-104825465D01*
X121699500Y-105027648D01*
X121699500Y-105232351D01*
X121731522Y-105434534D01*
X121794781Y-105629223D01*
X121887715Y-105811613D01*
X122008028Y-105977213D01*
X122152786Y-106121971D01*
X122307749Y-106234556D01*
X122318390Y-106242287D01*
X122409840Y-106288883D01*
X122411080Y-106289515D01*
X122461876Y-106337490D01*
X122478671Y-106405311D01*
X122456134Y-106471446D01*
X122411080Y-106510485D01*
X122318386Y-106557715D01*
X122152786Y-106678028D01*
X122008028Y-106822786D01*
X121887715Y-106988386D01*
X121794781Y-107170776D01*
X121731522Y-107365465D01*
X121699500Y-107567648D01*
X121699500Y-107772351D01*
X121731522Y-107974534D01*
X121794781Y-108169223D01*
X121887715Y-108351613D01*
X122008028Y-108517213D01*
X122152786Y-108661971D01*
X122307749Y-108774556D01*
X122318390Y-108782287D01*
X122409759Y-108828842D01*
X122411080Y-108829515D01*
X122461876Y-108877490D01*
X122478671Y-108945311D01*
X122456134Y-109011446D01*
X122411080Y-109050485D01*
X122318386Y-109097715D01*
X122152786Y-109218028D01*
X122008028Y-109362786D01*
X121887715Y-109528386D01*
X121794781Y-109710776D01*
X121731522Y-109905465D01*
X121699500Y-110107648D01*
X121699500Y-110312351D01*
X121731522Y-110514534D01*
X121794781Y-110709223D01*
X121887715Y-110891613D01*
X122008028Y-111057213D01*
X122008034Y-111057219D01*
X122152781Y-111201966D01*
X122246452Y-111270021D01*
X122289117Y-111325350D01*
X122295096Y-111394963D01*
X122262491Y-111456759D01*
X122212571Y-111488045D01*
X122130666Y-111515186D01*
X122130663Y-111515187D01*
X121981342Y-111607289D01*
X121857289Y-111731342D01*
X121765187Y-111880663D01*
X121765185Y-111880668D01*
X121749829Y-111927011D01*
X121710001Y-112047203D01*
X121710001Y-112047204D01*
X121710000Y-112047204D01*
X121699500Y-112149983D01*
X121699500Y-113350001D01*
X121699501Y-113350018D01*
X121710000Y-113452796D01*
X121710001Y-113452799D01*
X121757856Y-113597213D01*
X121765186Y-113619334D01*
X121857288Y-113768656D01*
X121981344Y-113892712D01*
X122130666Y-113984814D01*
X122297203Y-114039999D01*
X122399991Y-114050500D01*
X123600008Y-114050499D01*
X123702797Y-114039999D01*
X123869334Y-113984814D01*
X124018656Y-113892712D01*
X124142712Y-113768656D01*
X124234814Y-113619334D01*
X124246028Y-113585494D01*
X124285801Y-113528050D01*
X124350317Y-113501228D01*
X124363733Y-113500500D01*
X125387770Y-113500500D01*
X125454809Y-113520185D01*
X125475451Y-113536819D01*
X141771586Y-129832954D01*
X141801058Y-129852645D01*
X141845270Y-129882186D01*
X141894505Y-129915084D01*
X141894506Y-129915084D01*
X141894507Y-129915085D01*
X141894509Y-129915086D01*
X142031082Y-129971656D01*
X142031087Y-129971658D01*
X142031091Y-129971658D01*
X142031092Y-129971659D01*
X142176079Y-130000500D01*
X142176082Y-130000500D01*
X151423920Y-130000500D01*
X151521462Y-129981096D01*
X151568913Y-129971658D01*
X151705495Y-129915084D01*
X151754729Y-129882186D01*
X151754734Y-129882183D01*
X151779071Y-129865921D01*
X151828416Y-129832952D01*
X152382951Y-129278416D01*
X152465084Y-129155495D01*
X152521658Y-129018913D01*
X152550500Y-128873918D01*
X152550500Y-55726082D01*
X152550500Y-55726079D01*
X152521659Y-55581092D01*
X152521658Y-55581091D01*
X152521658Y-55581087D01*
X152521656Y-55581082D01*
X152465086Y-55444509D01*
X152465085Y-55444507D01*
X152432186Y-55395270D01*
X152432185Y-55395268D01*
X152382956Y-55321589D01*
X152382952Y-55321584D01*
X150518421Y-53457052D01*
X150518414Y-53457046D01*
X150444729Y-53407812D01*
X150444729Y-53407813D01*
X150395491Y-53374913D01*
X150258917Y-53318343D01*
X150258907Y-53318340D01*
X150113920Y-53289500D01*
X150113918Y-53289500D01*
X147889828Y-53289500D01*
X147822789Y-53269815D01*
X147782441Y-53227500D01*
X147759732Y-53188168D01*
X147672773Y-53037550D01*
X147557621Y-52887481D01*
X147529093Y-52850302D01*
X147529087Y-52850295D01*
X147362204Y-52683412D01*
X147362197Y-52683406D01*
X147174954Y-52539730D01*
X147174953Y-52539729D01*
X147174950Y-52539727D01*
X147093457Y-52492677D01*
X146970556Y-52421719D01*
X146970545Y-52421714D01*
X146752493Y-52331394D01*
X146524510Y-52270306D01*
X146290520Y-52239501D01*
X146290517Y-52239500D01*
X146290511Y-52239500D01*
X146054489Y-52239500D01*
X146054483Y-52239500D01*
X146054479Y-52239501D01*
X145820489Y-52270306D01*
X145592506Y-52331394D01*
X145374454Y-52421714D01*
X145374443Y-52421719D01*
X145170045Y-52539730D01*
X144982802Y-52683406D01*
X144982795Y-52683412D01*
X144815912Y-52850295D01*
X144815906Y-52850302D01*
X144672230Y-53037545D01*
X144554219Y-53241943D01*
X144554214Y-53241954D01*
X144463894Y-53460006D01*
X144402806Y-53687989D01*
X144372001Y-53921979D01*
X144372000Y-53921995D01*
X144372000Y-54158004D01*
X144372001Y-54158020D01*
X144394883Y-54331831D01*
X144402807Y-54392014D01*
X144411383Y-54424019D01*
X144463894Y-54619993D01*
X144554214Y-54838045D01*
X144554219Y-54838056D01*
X144612298Y-54938650D01*
X144672227Y-55042450D01*
X144672229Y-55042453D01*
X144672230Y-55042454D01*
X144815906Y-55229697D01*
X144815912Y-55229704D01*
X144982795Y-55396587D01*
X144982802Y-55396593D01*
X145045245Y-55444507D01*
X145170050Y-55540273D01*
X145240751Y-55581092D01*
X145374443Y-55658280D01*
X145374448Y-55658282D01*
X145374451Y-55658284D01*
X145592507Y-55748606D01*
X145820486Y-55809693D01*
X146054489Y-55840500D01*
X146054496Y-55840500D01*
X146290504Y-55840500D01*
X146290511Y-55840500D01*
X146524514Y-55809693D01*
X146752493Y-55748606D01*
X146970549Y-55658284D01*
X147174950Y-55540273D01*
X147362199Y-55396592D01*
X147529092Y-55229699D01*
X147672773Y-55042450D01*
X147774099Y-54866949D01*
X147782441Y-54852500D01*
X147833008Y-54804284D01*
X147889828Y-54790500D01*
X149677770Y-54790500D01*
X149744809Y-54810185D01*
X149765451Y-54826819D01*
X151013181Y-56074549D01*
X151046666Y-56135872D01*
X151049500Y-56162230D01*
X151049500Y-128375500D01*
X151029815Y-128442539D01*
X150977011Y-128488294D01*
X150925500Y-128499500D01*
X142612230Y-128499500D01*
X142545191Y-128479815D01*
X142524549Y-128463181D01*
X126228421Y-112167052D01*
X126228414Y-112167046D01*
X126154729Y-112117812D01*
X126154729Y-112117813D01*
X126105491Y-112084913D01*
X125968917Y-112028343D01*
X125968907Y-112028340D01*
X125823920Y-111999500D01*
X125823918Y-111999500D01*
X124363733Y-111999500D01*
X124296694Y-111979815D01*
X124250939Y-111927011D01*
X124246028Y-111914506D01*
X124241495Y-111900829D01*
X124234814Y-111880666D01*
X124142712Y-111731344D01*
X124018656Y-111607288D01*
X123869334Y-111515186D01*
X123787427Y-111488044D01*
X123729984Y-111448272D01*
X123703161Y-111383756D01*
X123715476Y-111314980D01*
X123753547Y-111270021D01*
X123847219Y-111201966D01*
X123991966Y-111057219D01*
X123994650Y-111053524D01*
X124025100Y-111011615D01*
X124080429Y-110968949D01*
X124125418Y-110960500D01*
X131613920Y-110960500D01*
X131711462Y-110941096D01*
X131758913Y-110931658D01*
X131895495Y-110875084D01*
X131944729Y-110842186D01*
X132018416Y-110792952D01*
X133315297Y-109496069D01*
X133355524Y-109469191D01*
X133379179Y-109459394D01*
X133510289Y-109371789D01*
X133621789Y-109260289D01*
X133709394Y-109129179D01*
X133769737Y-108983497D01*
X133800500Y-108828842D01*
X133800500Y-108671158D01*
X133800500Y-108671155D01*
X133800499Y-108671153D01*
X133769738Y-108516510D01*
X133769737Y-108516503D01*
X133751144Y-108471615D01*
X133709397Y-108370827D01*
X133709390Y-108370814D01*
X133621789Y-108239711D01*
X133621786Y-108239707D01*
X133510292Y-108128213D01*
X133510288Y-108128210D01*
X133379185Y-108040609D01*
X133379172Y-108040602D01*
X133233501Y-107980264D01*
X133233489Y-107980261D01*
X133078845Y-107949500D01*
X133078842Y-107949500D01*
X132921158Y-107949500D01*
X132921155Y-107949500D01*
X132766510Y-107980261D01*
X132766498Y-107980264D01*
X132620827Y-108040602D01*
X132620814Y-108040609D01*
X132489711Y-108128210D01*
X132489707Y-108128213D01*
X132378213Y-108239707D01*
X132378207Y-108239715D01*
X132290607Y-108370818D01*
X132290606Y-108370819D01*
X132280805Y-108394480D01*
X132253927Y-108434703D01*
X131265451Y-109423181D01*
X131204128Y-109456666D01*
X131177770Y-109459500D01*
X124125418Y-109459500D01*
X124058379Y-109439815D01*
X124025100Y-109408385D01*
X123991971Y-109362787D01*
X123991967Y-109362782D01*
X123847213Y-109218028D01*
X123681614Y-109097715D01*
X123675006Y-109094348D01*
X123588917Y-109050483D01*
X123538123Y-109002511D01*
X123521328Y-108934690D01*
X123543865Y-108868555D01*
X123588917Y-108829516D01*
X123681610Y-108782287D01*
X123702770Y-108766913D01*
X123847213Y-108661971D01*
X123847215Y-108661968D01*
X123847219Y-108661966D01*
X123991966Y-108517219D01*
X123991968Y-108517215D01*
X123991971Y-108517213D01*
X124081140Y-108394480D01*
X124112287Y-108351610D01*
X124205220Y-108169219D01*
X124268477Y-107974534D01*
X124300500Y-107772352D01*
X124300500Y-107567648D01*
X124291681Y-107511971D01*
X124300635Y-107442679D01*
X124326470Y-107404895D01*
X128332951Y-103398416D01*
X128415084Y-103275495D01*
X128471658Y-103138913D01*
X128497422Y-103009394D01*
X128500500Y-102993920D01*
X128500500Y-100304604D01*
X128509939Y-100257151D01*
X128519737Y-100233497D01*
X128550500Y-100078842D01*
X128550500Y-99921158D01*
X128550500Y-99921155D01*
X128550499Y-99921153D01*
X128522637Y-99781082D01*
X128519737Y-99766503D01*
X128469205Y-99644507D01*
X128459397Y-99620827D01*
X128459390Y-99620814D01*
X128371789Y-99489711D01*
X128371786Y-99489707D01*
X128260292Y-99378213D01*
X128260288Y-99378210D01*
X128129185Y-99290609D01*
X128129172Y-99290602D01*
X127983501Y-99230264D01*
X127983489Y-99230261D01*
X127828845Y-99199500D01*
X127828842Y-99199500D01*
X127671158Y-99199500D01*
X127671155Y-99199500D01*
X127516510Y-99230261D01*
X127516498Y-99230264D01*
X127370827Y-99290602D01*
X127370814Y-99290609D01*
X127239711Y-99378210D01*
X127239707Y-99378213D01*
X127128213Y-99489707D01*
X127128210Y-99489711D01*
X127040609Y-99620814D01*
X127040602Y-99620827D01*
X126980264Y-99766498D01*
X126980261Y-99766510D01*
X126949500Y-99921153D01*
X126949500Y-100078846D01*
X126980261Y-100233489D01*
X126980263Y-100233497D01*
X126990061Y-100257151D01*
X126999500Y-100304604D01*
X126999500Y-102557769D01*
X126979815Y-102624808D01*
X126963181Y-102645450D01*
X124510933Y-105097697D01*
X124449610Y-105131182D01*
X124379918Y-105126198D01*
X124323985Y-105084326D01*
X124300779Y-105029414D01*
X124300500Y-105027652D01*
X124300500Y-105027648D01*
X124268477Y-104825466D01*
X124205220Y-104630781D01*
X124205218Y-104630778D01*
X124205218Y-104630776D01*
X124157974Y-104538056D01*
X124112287Y-104448390D01*
X124104556Y-104437749D01*
X123991971Y-104282786D01*
X123847213Y-104138028D01*
X123681614Y-104017715D01*
X123675006Y-104014348D01*
X123588917Y-103970483D01*
X123538123Y-103922511D01*
X123521328Y-103854690D01*
X123543865Y-103788555D01*
X123588917Y-103749516D01*
X123681610Y-103702287D01*
X123702770Y-103686913D01*
X123847213Y-103581971D01*
X123847215Y-103581968D01*
X123847219Y-103581966D01*
X123991966Y-103437219D01*
X123991968Y-103437215D01*
X123991971Y-103437213D01*
X124044732Y-103364590D01*
X124112287Y-103271610D01*
X124205220Y-103089219D01*
X124268477Y-102894534D01*
X124300500Y-102692352D01*
X124300500Y-102487648D01*
X124283990Y-102383408D01*
X124268477Y-102285465D01*
X124215271Y-102121716D01*
X124205220Y-102090781D01*
X124205218Y-102090778D01*
X124205218Y-102090776D01*
X124143835Y-101970307D01*
X124112287Y-101908390D01*
X124084396Y-101870001D01*
X123991971Y-101742786D01*
X123847213Y-101598028D01*
X123681614Y-101477715D01*
X123675006Y-101474348D01*
X123588917Y-101430483D01*
X123538123Y-101382511D01*
X123521328Y-101314690D01*
X123543865Y-101248555D01*
X123588917Y-101209516D01*
X123681610Y-101162287D01*
X123702770Y-101146913D01*
X123847213Y-101041971D01*
X123847215Y-101041968D01*
X123847219Y-101041966D01*
X123991966Y-100897219D01*
X123991968Y-100897215D01*
X123991971Y-100897213D01*
X124044732Y-100824590D01*
X124112287Y-100731610D01*
X124205220Y-100549219D01*
X124268477Y-100354534D01*
X124300500Y-100152352D01*
X124300500Y-99947648D01*
X124268477Y-99745466D01*
X124205220Y-99550781D01*
X124205218Y-99550778D01*
X124205218Y-99550776D01*
X124157853Y-99457819D01*
X124112287Y-99368390D01*
X124069865Y-99310000D01*
X123991971Y-99202786D01*
X123847213Y-99058028D01*
X123681611Y-98937713D01*
X123588369Y-98890203D01*
X123537574Y-98842229D01*
X123520779Y-98774407D01*
X123543317Y-98708273D01*
X123588371Y-98669234D01*
X123681346Y-98621861D01*
X123681347Y-98621861D01*
X123725921Y-98589474D01*
X123046447Y-97910000D01*
X123052661Y-97910000D01*
X123154394Y-97882741D01*
X123245606Y-97830080D01*
X123320080Y-97755606D01*
X123372741Y-97664394D01*
X123400000Y-97562661D01*
X123400000Y-97556447D01*
X124079474Y-98235921D01*
X124111859Y-98191349D01*
X124204755Y-98009031D01*
X124267990Y-97814417D01*
X124300000Y-97612317D01*
X124300000Y-97407682D01*
X124267990Y-97205582D01*
X124204755Y-97010968D01*
X124111859Y-96828650D01*
X124079474Y-96784077D01*
X124079474Y-96784076D01*
X123400000Y-97463551D01*
X123400000Y-97457339D01*
X123372741Y-97355606D01*
X123320080Y-97264394D01*
X123245606Y-97189920D01*
X123154394Y-97137259D01*
X123052661Y-97110000D01*
X123046446Y-97110000D01*
X123725922Y-96430524D01*
X123725921Y-96430523D01*
X123681359Y-96398147D01*
X123681350Y-96398141D01*
X123587819Y-96350485D01*
X123537023Y-96302511D01*
X123520228Y-96234690D01*
X123542765Y-96168555D01*
X123587820Y-96129515D01*
X123681346Y-96081861D01*
X123681347Y-96081861D01*
X123725921Y-96049474D01*
X123046447Y-95370000D01*
X123052661Y-95370000D01*
X123154394Y-95342741D01*
X123245606Y-95290080D01*
X123320080Y-95215606D01*
X123372741Y-95124394D01*
X123400000Y-95022661D01*
X123400000Y-95016447D01*
X124079474Y-95695921D01*
X124111859Y-95651349D01*
X124204755Y-95469031D01*
X124267990Y-95274417D01*
X124300000Y-95072317D01*
X124300000Y-94867682D01*
X124267990Y-94665582D01*
X124204755Y-94470968D01*
X124111859Y-94288650D01*
X124079474Y-94244077D01*
X124079474Y-94244076D01*
X123400000Y-94923551D01*
X123400000Y-94917339D01*
X123372741Y-94815606D01*
X123320080Y-94724394D01*
X123245606Y-94649920D01*
X123154394Y-94597259D01*
X123052661Y-94570000D01*
X123046446Y-94570000D01*
X123725922Y-93890524D01*
X123725921Y-93890523D01*
X123681359Y-93858147D01*
X123681350Y-93858141D01*
X123499031Y-93765244D01*
X123304417Y-93702009D01*
X123102317Y-93670000D01*
X122897683Y-93670000D01*
X122695582Y-93702009D01*
X122500968Y-93765244D01*
X122318644Y-93858143D01*
X122274077Y-93890523D01*
X122274077Y-93890524D01*
X122953554Y-94570000D01*
X122947339Y-94570000D01*
X122845606Y-94597259D01*
X122754394Y-94649920D01*
X122679920Y-94724394D01*
X122627259Y-94815606D01*
X122600000Y-94917339D01*
X122600000Y-94923553D01*
X121920524Y-94244077D01*
X121920523Y-94244077D01*
X121888143Y-94288644D01*
X121795244Y-94470968D01*
X121732009Y-94665582D01*
X121700000Y-94867682D01*
X121700000Y-95072317D01*
X121732009Y-95274417D01*
X121795244Y-95469031D01*
X121888141Y-95651350D01*
X121888147Y-95651359D01*
X121920523Y-95695921D01*
X121920524Y-95695922D01*
X122600000Y-95016446D01*
X122600000Y-95022661D01*
X122627259Y-95124394D01*
X122679920Y-95215606D01*
X122754394Y-95290080D01*
X122845606Y-95342741D01*
X122947339Y-95370000D01*
X122953553Y-95370000D01*
X122274076Y-96049474D01*
X122318650Y-96081859D01*
X122412180Y-96129515D01*
X122462976Y-96177489D01*
X122479771Y-96245310D01*
X122457234Y-96311445D01*
X122412180Y-96350485D01*
X122318644Y-96398143D01*
X122274077Y-96430523D01*
X122274077Y-96430524D01*
X122953554Y-97110000D01*
X122947339Y-97110000D01*
X122845606Y-97137259D01*
X122754394Y-97189920D01*
X122679920Y-97264394D01*
X122627259Y-97355606D01*
X122600000Y-97457339D01*
X122600000Y-97463553D01*
X121920524Y-96784077D01*
X121920523Y-96784077D01*
X121888143Y-96828644D01*
X121795244Y-97010968D01*
X121732009Y-97205582D01*
X121700000Y-97407682D01*
X121700000Y-97612317D01*
X121732009Y-97814417D01*
X121795244Y-98009031D01*
X121888141Y-98191350D01*
X121888147Y-98191359D01*
X121920523Y-98235921D01*
X121920524Y-98235922D01*
X122600000Y-97556446D01*
X122600000Y-97562661D01*
X122627259Y-97664394D01*
X122679920Y-97755606D01*
X122754394Y-97830080D01*
X122845606Y-97882741D01*
X122947339Y-97910000D01*
X122953553Y-97910000D01*
X122274076Y-98589474D01*
X122274077Y-98589474D01*
X122318652Y-98621861D01*
X122411628Y-98669234D01*
X122462425Y-98717208D01*
X122479220Y-98785029D01*
X122456683Y-98851164D01*
X122411630Y-98890203D01*
X122318388Y-98937713D01*
X122152786Y-99058028D01*
X122008028Y-99202786D01*
X121887715Y-99368386D01*
X121794781Y-99550776D01*
X121731522Y-99745465D01*
X121699500Y-99947648D01*
X114140500Y-99947648D01*
X114108477Y-99745466D01*
X114045220Y-99550781D01*
X114045218Y-99550778D01*
X114045218Y-99550776D01*
X113997853Y-99457819D01*
X113952287Y-99368390D01*
X113909865Y-99310000D01*
X113831971Y-99202786D01*
X113687213Y-99058028D01*
X113521614Y-98937715D01*
X113510417Y-98932010D01*
X113428917Y-98890483D01*
X113378123Y-98842511D01*
X113361328Y-98774690D01*
X113383865Y-98708555D01*
X113428917Y-98669516D01*
X113521610Y-98622287D01*
X113632078Y-98542028D01*
X113687213Y-98501971D01*
X113687215Y-98501968D01*
X113687219Y-98501966D01*
X113831966Y-98357219D01*
X113831968Y-98357215D01*
X113831971Y-98357213D01*
X113902236Y-98260500D01*
X113952287Y-98191610D01*
X114045220Y-98009219D01*
X114108477Y-97814534D01*
X114140500Y-97612352D01*
X114140500Y-97407648D01*
X114132257Y-97355606D01*
X114108477Y-97205465D01*
X114055417Y-97042165D01*
X114045220Y-97010781D01*
X114045218Y-97010778D01*
X114045218Y-97010776D01*
X113984086Y-96890799D01*
X113952287Y-96828390D01*
X113920092Y-96784077D01*
X113831971Y-96662786D01*
X113687213Y-96518028D01*
X113521614Y-96397715D01*
X113515006Y-96394348D01*
X113428917Y-96350483D01*
X113378123Y-96302511D01*
X113361328Y-96234690D01*
X113383865Y-96168555D01*
X113428917Y-96129516D01*
X113521610Y-96082287D01*
X113566774Y-96049474D01*
X113687213Y-95961971D01*
X113687215Y-95961968D01*
X113687219Y-95961966D01*
X113831966Y-95817219D01*
X113831968Y-95817215D01*
X113831971Y-95817213D01*
X113884732Y-95744590D01*
X113952287Y-95651610D01*
X114045220Y-95469219D01*
X114108477Y-95274534D01*
X114140500Y-95072352D01*
X114140500Y-94867648D01*
X114131576Y-94811309D01*
X114131478Y-94810642D01*
X114136239Y-94776694D01*
X114140635Y-94742679D01*
X114141107Y-94741987D01*
X114141183Y-94741450D01*
X114142606Y-94739795D01*
X114166470Y-94704895D01*
X119332951Y-89538416D01*
X119415084Y-89415495D01*
X119471658Y-89278913D01*
X119500500Y-89133918D01*
X119500500Y-88986083D01*
X119500500Y-83573920D01*
X119999499Y-83573920D01*
X120028340Y-83718907D01*
X120028343Y-83718917D01*
X120084913Y-83855490D01*
X120084916Y-83855495D01*
X120098281Y-83875496D01*
X120098282Y-83875501D01*
X120098284Y-83875501D01*
X120132080Y-83926082D01*
X120167051Y-83978420D01*
X120167052Y-83978421D01*
X136463181Y-100274549D01*
X136496666Y-100335872D01*
X136499500Y-100362230D01*
X136499500Y-117021418D01*
X136499500Y-117021420D01*
X136499499Y-117021420D01*
X136528340Y-117166407D01*
X136528343Y-117166417D01*
X136584914Y-117302992D01*
X136617812Y-117352227D01*
X136617813Y-117352230D01*
X136667046Y-117425914D01*
X136667052Y-117425921D01*
X144335681Y-125094548D01*
X144369166Y-125155871D01*
X144372000Y-125182229D01*
X144372000Y-126970001D01*
X144372001Y-126970018D01*
X144382500Y-127072796D01*
X144382501Y-127072799D01*
X144437685Y-127239331D01*
X144437687Y-127239336D01*
X144472569Y-127295888D01*
X144529788Y-127388656D01*
X144653844Y-127512712D01*
X144803166Y-127604814D01*
X144969703Y-127659999D01*
X145072491Y-127670500D01*
X147272508Y-127670499D01*
X147375297Y-127659999D01*
X147541834Y-127604814D01*
X147691156Y-127512712D01*
X147815212Y-127388656D01*
X147907314Y-127239334D01*
X147962499Y-127072797D01*
X147973000Y-126970009D01*
X147972999Y-124769992D01*
X147962499Y-124667203D01*
X147907314Y-124500666D01*
X147815212Y-124351344D01*
X147691156Y-124227288D01*
X147541834Y-124135186D01*
X147375297Y-124080001D01*
X147375295Y-124080000D01*
X147272516Y-124069500D01*
X147272509Y-124069500D01*
X145484729Y-124069500D01*
X145417690Y-124049815D01*
X145397048Y-124033181D01*
X142119478Y-120755611D01*
X142035862Y-120671995D01*
X144372000Y-120671995D01*
X144372000Y-120908004D01*
X144372001Y-120908020D01*
X144402806Y-121142010D01*
X144463894Y-121369993D01*
X144554214Y-121588045D01*
X144554219Y-121588056D01*
X144625177Y-121710957D01*
X144672227Y-121792450D01*
X144672229Y-121792453D01*
X144672230Y-121792454D01*
X144815906Y-121979697D01*
X144815912Y-121979704D01*
X144982795Y-122146587D01*
X144982801Y-122146592D01*
X145170050Y-122290273D01*
X145301418Y-122366118D01*
X145374443Y-122408280D01*
X145374448Y-122408282D01*
X145374451Y-122408284D01*
X145592507Y-122498606D01*
X145820486Y-122559693D01*
X146054489Y-122590500D01*
X146054496Y-122590500D01*
X146290504Y-122590500D01*
X146290511Y-122590500D01*
X146524514Y-122559693D01*
X146752493Y-122498606D01*
X146970549Y-122408284D01*
X147174950Y-122290273D01*
X147362199Y-122146592D01*
X147529092Y-121979699D01*
X147672773Y-121792450D01*
X147790784Y-121588049D01*
X147881106Y-121369993D01*
X147942193Y-121142014D01*
X147973000Y-120908011D01*
X147973000Y-120671989D01*
X147942193Y-120437986D01*
X147881106Y-120210007D01*
X147790784Y-119991951D01*
X147790782Y-119991948D01*
X147790780Y-119991943D01*
X147721455Y-119871870D01*
X147672773Y-119787550D01*
X147529092Y-119600301D01*
X147529087Y-119600295D01*
X147362204Y-119433412D01*
X147362197Y-119433406D01*
X147174954Y-119289730D01*
X147174953Y-119289729D01*
X147174950Y-119289727D01*
X147093457Y-119242677D01*
X146970556Y-119171719D01*
X146970545Y-119171714D01*
X146752493Y-119081394D01*
X146524510Y-119020306D01*
X146290520Y-118989501D01*
X146290517Y-118989500D01*
X146290511Y-118989500D01*
X146054489Y-118989500D01*
X146054483Y-118989500D01*
X146054479Y-118989501D01*
X145820489Y-119020306D01*
X145592506Y-119081394D01*
X145374454Y-119171714D01*
X145374443Y-119171719D01*
X145170045Y-119289730D01*
X144982802Y-119433406D01*
X144982795Y-119433412D01*
X144815912Y-119600295D01*
X144815906Y-119600302D01*
X144672230Y-119787545D01*
X144554219Y-119991943D01*
X144554214Y-119991954D01*
X144463894Y-120210006D01*
X144402806Y-120437989D01*
X144372001Y-120671979D01*
X144372000Y-120671995D01*
X142035862Y-120671995D01*
X141573874Y-120210007D01*
X138036819Y-116672951D01*
X138003334Y-116611628D01*
X138000500Y-116585270D01*
X138000500Y-115592014D01*
X144372500Y-115592014D01*
X144372500Y-115827985D01*
X144403299Y-116061914D01*
X144464370Y-116289837D01*
X144554660Y-116507819D01*
X144554665Y-116507828D01*
X144672644Y-116712171D01*
X144672645Y-116712172D01*
X144735221Y-116793723D01*
X145571458Y-115957487D01*
X145596478Y-116017890D01*
X145667612Y-116124351D01*
X145758149Y-116214888D01*
X145864610Y-116286022D01*
X145925011Y-116311041D01*
X145088775Y-117147277D01*
X145170327Y-117209854D01*
X145170328Y-117209855D01*
X145374671Y-117327834D01*
X145374680Y-117327839D01*
X145592663Y-117418129D01*
X145592661Y-117418129D01*
X145820585Y-117479200D01*
X146054514Y-117509999D01*
X146054529Y-117510000D01*
X146290471Y-117510000D01*
X146290485Y-117509999D01*
X146524414Y-117479200D01*
X146752337Y-117418129D01*
X146970319Y-117327839D01*
X146970328Y-117327834D01*
X147174681Y-117209850D01*
X147256223Y-117147279D01*
X147256223Y-117147276D01*
X146419987Y-116311041D01*
X146480390Y-116286022D01*
X146586851Y-116214888D01*
X146677388Y-116124351D01*
X146748522Y-116017890D01*
X146773541Y-115957488D01*
X147609776Y-116793723D01*
X147609779Y-116793723D01*
X147672350Y-116712181D01*
X147790334Y-116507828D01*
X147790339Y-116507819D01*
X147880629Y-116289837D01*
X147941700Y-116061914D01*
X147972499Y-115827985D01*
X147972500Y-115827971D01*
X147972500Y-115592028D01*
X147972499Y-115592014D01*
X147941700Y-115358085D01*
X147880629Y-115130162D01*
X147790339Y-114912180D01*
X147790334Y-114912171D01*
X147672355Y-114707828D01*
X147672354Y-114707827D01*
X147609777Y-114626275D01*
X146773541Y-115462511D01*
X146748522Y-115402110D01*
X146677388Y-115295649D01*
X146586851Y-115205112D01*
X146480390Y-115133978D01*
X146419988Y-115108958D01*
X147256223Y-114272721D01*
X147174672Y-114210145D01*
X147174671Y-114210144D01*
X146970328Y-114092165D01*
X146970319Y-114092160D01*
X146752336Y-114001870D01*
X146752338Y-114001870D01*
X146524414Y-113940799D01*
X146290485Y-113910000D01*
X146054514Y-113910000D01*
X145820585Y-113940799D01*
X145592662Y-114001870D01*
X145374680Y-114092160D01*
X145374671Y-114092165D01*
X145170328Y-114210144D01*
X145170318Y-114210150D01*
X145088775Y-114272720D01*
X145088775Y-114272721D01*
X145925012Y-115108958D01*
X145864610Y-115133978D01*
X145758149Y-115205112D01*
X145667612Y-115295649D01*
X145596478Y-115402110D01*
X145571458Y-115462512D01*
X144735221Y-114626275D01*
X144735220Y-114626275D01*
X144672650Y-114707818D01*
X144672644Y-114707828D01*
X144554665Y-114912171D01*
X144554660Y-114912180D01*
X144464370Y-115130162D01*
X144403299Y-115358085D01*
X144372500Y-115592014D01*
X138000500Y-115592014D01*
X138000500Y-110511995D01*
X144372000Y-110511995D01*
X144372000Y-110748004D01*
X144372001Y-110748020D01*
X144402806Y-110982010D01*
X144463894Y-111209993D01*
X144554214Y-111428045D01*
X144554219Y-111428056D01*
X144604525Y-111515187D01*
X144672227Y-111632450D01*
X144672229Y-111632453D01*
X144672230Y-111632454D01*
X144815906Y-111819697D01*
X144815912Y-111819704D01*
X144982795Y-111986587D01*
X144982801Y-111986592D01*
X145170050Y-112130273D01*
X145301418Y-112206118D01*
X145374443Y-112248280D01*
X145374448Y-112248282D01*
X145374451Y-112248284D01*
X145592507Y-112338606D01*
X145820486Y-112399693D01*
X146054489Y-112430500D01*
X146054496Y-112430500D01*
X146290504Y-112430500D01*
X146290511Y-112430500D01*
X146524514Y-112399693D01*
X146752493Y-112338606D01*
X146970549Y-112248284D01*
X147174950Y-112130273D01*
X147362199Y-111986592D01*
X147529092Y-111819699D01*
X147672773Y-111632450D01*
X147790784Y-111428049D01*
X147881106Y-111209993D01*
X147942193Y-110982014D01*
X147973000Y-110748011D01*
X147973000Y-110511989D01*
X147942193Y-110277986D01*
X147881106Y-110050007D01*
X147790784Y-109831951D01*
X147790782Y-109831948D01*
X147790780Y-109831943D01*
X147720826Y-109710781D01*
X147672773Y-109627550D01*
X147529092Y-109440301D01*
X147529087Y-109440295D01*
X147362204Y-109273412D01*
X147362197Y-109273406D01*
X147174954Y-109129730D01*
X147174953Y-109129729D01*
X147174950Y-109129727D01*
X147093457Y-109082677D01*
X146970556Y-109011719D01*
X146970545Y-109011714D01*
X146752493Y-108921394D01*
X146524514Y-108860307D01*
X146524513Y-108860306D01*
X146524510Y-108860306D01*
X146290520Y-108829501D01*
X146290517Y-108829500D01*
X146290511Y-108829500D01*
X146054489Y-108829500D01*
X146054483Y-108829500D01*
X146054479Y-108829501D01*
X145820489Y-108860306D01*
X145592506Y-108921394D01*
X145374454Y-109011714D01*
X145374443Y-109011719D01*
X145170045Y-109129730D01*
X144982802Y-109273406D01*
X144982795Y-109273412D01*
X144815912Y-109440295D01*
X144815906Y-109440302D01*
X144672230Y-109627545D01*
X144672227Y-109627549D01*
X144672227Y-109627550D01*
X144670812Y-109630001D01*
X144554219Y-109831943D01*
X144554214Y-109831954D01*
X144463894Y-110050006D01*
X144402806Y-110277989D01*
X144372001Y-110511979D01*
X144372000Y-110511995D01*
X138000500Y-110511995D01*
X138000500Y-99926079D01*
X137971659Y-99781092D01*
X137971658Y-99781091D01*
X137971658Y-99781087D01*
X137922402Y-99662172D01*
X137915085Y-99644507D01*
X137852461Y-99550783D01*
X137852459Y-99550778D01*
X137832956Y-99521589D01*
X137832950Y-99521582D01*
X121536819Y-83225451D01*
X121503334Y-83164128D01*
X121500500Y-83137770D01*
X121500500Y-80038988D01*
X121520185Y-79971949D01*
X121572989Y-79926194D01*
X121642147Y-79916250D01*
X121705703Y-79945275D01*
X121742205Y-79999982D01*
X121765186Y-80069334D01*
X121857288Y-80218656D01*
X121981344Y-80342712D01*
X122130666Y-80434814D01*
X122297203Y-80489999D01*
X122399991Y-80500500D01*
X123600008Y-80500499D01*
X123702797Y-80489999D01*
X123869334Y-80434814D01*
X124018656Y-80342712D01*
X124142712Y-80218656D01*
X124234814Y-80069334D01*
X124289999Y-79902797D01*
X124300500Y-79800009D01*
X124300499Y-78599992D01*
X124298988Y-78585205D01*
X124289999Y-78497203D01*
X124289998Y-78497200D01*
X124247228Y-78368129D01*
X124234814Y-78330666D01*
X124142712Y-78181344D01*
X124018656Y-78057288D01*
X123869334Y-77965186D01*
X123787427Y-77938044D01*
X123729984Y-77898272D01*
X123703161Y-77833756D01*
X123715476Y-77764980D01*
X123753547Y-77720021D01*
X123847219Y-77651966D01*
X123991966Y-77507219D01*
X123994650Y-77503524D01*
X124025100Y-77461615D01*
X124080429Y-77418949D01*
X124125418Y-77410500D01*
X125797770Y-77410500D01*
X125864809Y-77430185D01*
X125885451Y-77446819D01*
X129213181Y-80774549D01*
X129246666Y-80835872D01*
X129249500Y-80862230D01*
X129249500Y-87483918D01*
X129249500Y-87483920D01*
X129249499Y-87483920D01*
X129278340Y-87628907D01*
X129278343Y-87628917D01*
X129334914Y-87765492D01*
X129367812Y-87814727D01*
X129367813Y-87814730D01*
X129417046Y-87888414D01*
X129417052Y-87888421D01*
X144413181Y-102884548D01*
X144446666Y-102945871D01*
X144449500Y-102972229D01*
X144449500Y-104760001D01*
X144449501Y-104760018D01*
X144460000Y-104862796D01*
X144460001Y-104862799D01*
X144514627Y-105027648D01*
X144515186Y-105029334D01*
X144607288Y-105178656D01*
X144731344Y-105302712D01*
X144880666Y-105394814D01*
X145047203Y-105449999D01*
X145149991Y-105460500D01*
X147350008Y-105460499D01*
X147452797Y-105449999D01*
X147619334Y-105394814D01*
X147768656Y-105302712D01*
X147892712Y-105178656D01*
X147984814Y-105029334D01*
X148039999Y-104862797D01*
X148050500Y-104760009D01*
X148050499Y-102559992D01*
X148049508Y-102550295D01*
X148039999Y-102457203D01*
X148039998Y-102457200D01*
X148015547Y-102383412D01*
X147984814Y-102290666D01*
X147892712Y-102141344D01*
X147768656Y-102017288D01*
X147675888Y-101960069D01*
X147619336Y-101925187D01*
X147619331Y-101925185D01*
X147568647Y-101908390D01*
X147452797Y-101870001D01*
X147452795Y-101870000D01*
X147350016Y-101859500D01*
X147350009Y-101859500D01*
X145562229Y-101859500D01*
X145495190Y-101839815D01*
X145474548Y-101823181D01*
X142113362Y-98461995D01*
X144449500Y-98461995D01*
X144449500Y-98698004D01*
X144449501Y-98698020D01*
X144480306Y-98932010D01*
X144541394Y-99159993D01*
X144631714Y-99378045D01*
X144631719Y-99378056D01*
X144677771Y-99457819D01*
X144749727Y-99582450D01*
X144749729Y-99582453D01*
X144749730Y-99582454D01*
X144893406Y-99769697D01*
X144893412Y-99769704D01*
X145060295Y-99936587D01*
X145060301Y-99936592D01*
X145247550Y-100080273D01*
X145378918Y-100156118D01*
X145451943Y-100198280D01*
X145451948Y-100198282D01*
X145451951Y-100198284D01*
X145670007Y-100288606D01*
X145897986Y-100349693D01*
X146131989Y-100380500D01*
X146131996Y-100380500D01*
X146368004Y-100380500D01*
X146368011Y-100380500D01*
X146602014Y-100349693D01*
X146829993Y-100288606D01*
X147048049Y-100198284D01*
X147252450Y-100080273D01*
X147439699Y-99936592D01*
X147606592Y-99769699D01*
X147750273Y-99582450D01*
X147868189Y-99378213D01*
X147868280Y-99378056D01*
X147868280Y-99378055D01*
X147868284Y-99378049D01*
X147958606Y-99159993D01*
X148019693Y-98932014D01*
X148050500Y-98698011D01*
X148050500Y-98461989D01*
X148019693Y-98227986D01*
X147958606Y-98000007D01*
X147868284Y-97781951D01*
X147868282Y-97781948D01*
X147868280Y-97781943D01*
X147800412Y-97664394D01*
X147750273Y-97577550D01*
X147606592Y-97390301D01*
X147606587Y-97390295D01*
X147439704Y-97223412D01*
X147439697Y-97223406D01*
X147252454Y-97079730D01*
X147252453Y-97079729D01*
X147252450Y-97079727D01*
X147133356Y-97010968D01*
X147048056Y-96961719D01*
X147048045Y-96961714D01*
X146829993Y-96871394D01*
X146669500Y-96828390D01*
X146602014Y-96810307D01*
X146602013Y-96810306D01*
X146602010Y-96810306D01*
X146368020Y-96779501D01*
X146368017Y-96779500D01*
X146368011Y-96779500D01*
X146131989Y-96779500D01*
X146131983Y-96779500D01*
X146131979Y-96779501D01*
X145897989Y-96810306D01*
X145670006Y-96871394D01*
X145451954Y-96961714D01*
X145451943Y-96961719D01*
X145247545Y-97079730D01*
X145060302Y-97223406D01*
X145060295Y-97223412D01*
X144893412Y-97390295D01*
X144893406Y-97390302D01*
X144749730Y-97577545D01*
X144631719Y-97781943D01*
X144631714Y-97781954D01*
X144541394Y-98000006D01*
X144480306Y-98227989D01*
X144449501Y-98461979D01*
X144449500Y-98461995D01*
X142113362Y-98461995D01*
X138153538Y-94502171D01*
X137033381Y-93382014D01*
X144450000Y-93382014D01*
X144450000Y-93617985D01*
X144480799Y-93851914D01*
X144541870Y-94079837D01*
X144632160Y-94297819D01*
X144632165Y-94297828D01*
X144750144Y-94502171D01*
X144750145Y-94502172D01*
X144812721Y-94583723D01*
X145648958Y-93747487D01*
X145673978Y-93807890D01*
X145745112Y-93914351D01*
X145835649Y-94004888D01*
X145942110Y-94076022D01*
X146002511Y-94101041D01*
X145166275Y-94937277D01*
X145247827Y-94999854D01*
X145247828Y-94999855D01*
X145452171Y-95117834D01*
X145452180Y-95117839D01*
X145670163Y-95208129D01*
X145670161Y-95208129D01*
X145898085Y-95269200D01*
X146132014Y-95299999D01*
X146132029Y-95300000D01*
X146367971Y-95300000D01*
X146367985Y-95299999D01*
X146601914Y-95269200D01*
X146829837Y-95208129D01*
X147047819Y-95117839D01*
X147047828Y-95117834D01*
X147252181Y-94999850D01*
X147333723Y-94937279D01*
X147333723Y-94937276D01*
X146497487Y-94101041D01*
X146557890Y-94076022D01*
X146664351Y-94004888D01*
X146754888Y-93914351D01*
X146826022Y-93807890D01*
X146851041Y-93747488D01*
X147687276Y-94583723D01*
X147687279Y-94583723D01*
X147749850Y-94502181D01*
X147867834Y-94297828D01*
X147867839Y-94297819D01*
X147958129Y-94079837D01*
X148019200Y-93851914D01*
X148049999Y-93617985D01*
X148050000Y-93617971D01*
X148050000Y-93382028D01*
X148049999Y-93382014D01*
X148019200Y-93148085D01*
X147958129Y-92920162D01*
X147867839Y-92702180D01*
X147867834Y-92702171D01*
X147749855Y-92497828D01*
X147749854Y-92497827D01*
X147687277Y-92416275D01*
X146851041Y-93252511D01*
X146826022Y-93192110D01*
X146754888Y-93085649D01*
X146664351Y-92995112D01*
X146557890Y-92923978D01*
X146497488Y-92898958D01*
X147333723Y-92062721D01*
X147252172Y-92000145D01*
X147252171Y-92000144D01*
X147047828Y-91882165D01*
X147047819Y-91882160D01*
X146829836Y-91791870D01*
X146829838Y-91791870D01*
X146601914Y-91730799D01*
X146367985Y-91700000D01*
X146132014Y-91700000D01*
X145898085Y-91730799D01*
X145670162Y-91791870D01*
X145452180Y-91882160D01*
X145452171Y-91882165D01*
X145247828Y-92000144D01*
X145247818Y-92000150D01*
X145166275Y-92062720D01*
X145166275Y-92062721D01*
X146002512Y-92898958D01*
X145942110Y-92923978D01*
X145835649Y-92995112D01*
X145745112Y-93085649D01*
X145673978Y-93192110D01*
X145648958Y-93252512D01*
X144812721Y-92416275D01*
X144812720Y-92416275D01*
X144750150Y-92497818D01*
X144750144Y-92497828D01*
X144632165Y-92702171D01*
X144632160Y-92702180D01*
X144541870Y-92920162D01*
X144480799Y-93148085D01*
X144450000Y-93382014D01*
X137033381Y-93382014D01*
X131953363Y-88301995D01*
X144449500Y-88301995D01*
X144449500Y-88538004D01*
X144449501Y-88538020D01*
X144477294Y-88749132D01*
X144480307Y-88772014D01*
X144537667Y-88986083D01*
X144541394Y-88999993D01*
X144631714Y-89218045D01*
X144631719Y-89218056D01*
X144666858Y-89278917D01*
X144749727Y-89422450D01*
X144749729Y-89422453D01*
X144749730Y-89422454D01*
X144893406Y-89609697D01*
X144893412Y-89609704D01*
X145060295Y-89776587D01*
X145060301Y-89776592D01*
X145247550Y-89920273D01*
X145378918Y-89996118D01*
X145451943Y-90038280D01*
X145451948Y-90038282D01*
X145451951Y-90038284D01*
X145670007Y-90128606D01*
X145897986Y-90189693D01*
X146131989Y-90220500D01*
X146131996Y-90220500D01*
X146368004Y-90220500D01*
X146368011Y-90220500D01*
X146602014Y-90189693D01*
X146829993Y-90128606D01*
X147048049Y-90038284D01*
X147252450Y-89920273D01*
X147439699Y-89776592D01*
X147606592Y-89609699D01*
X147750273Y-89422450D01*
X147866200Y-89221658D01*
X147868280Y-89218056D01*
X147868280Y-89218055D01*
X147868284Y-89218049D01*
X147958606Y-88999993D01*
X148019693Y-88772014D01*
X148050500Y-88538011D01*
X148050500Y-88301989D01*
X148019693Y-88067986D01*
X147958606Y-87840007D01*
X147868284Y-87621951D01*
X147868282Y-87621948D01*
X147868280Y-87621943D01*
X147826118Y-87548918D01*
X147750273Y-87417550D01*
X147606592Y-87230301D01*
X147606587Y-87230295D01*
X147439704Y-87063412D01*
X147439697Y-87063406D01*
X147252454Y-86919730D01*
X147252453Y-86919729D01*
X147252450Y-86919727D01*
X147170957Y-86872677D01*
X147048056Y-86801719D01*
X147048045Y-86801714D01*
X146829993Y-86711394D01*
X146602010Y-86650306D01*
X146368020Y-86619501D01*
X146368017Y-86619500D01*
X146368011Y-86619500D01*
X146131989Y-86619500D01*
X146131983Y-86619500D01*
X146131979Y-86619501D01*
X145897989Y-86650306D01*
X145670006Y-86711394D01*
X145451954Y-86801714D01*
X145451943Y-86801719D01*
X145247545Y-86919730D01*
X145060302Y-87063406D01*
X145060295Y-87063412D01*
X144893412Y-87230295D01*
X144893406Y-87230302D01*
X144749730Y-87417545D01*
X144631719Y-87621943D01*
X144631714Y-87621954D01*
X144541394Y-87840006D01*
X144480306Y-88067989D01*
X144449501Y-88301979D01*
X144449500Y-88301995D01*
X131953363Y-88301995D01*
X130786819Y-87135451D01*
X130753334Y-87074128D01*
X130750500Y-87047770D01*
X130750500Y-80426079D01*
X130721659Y-80281092D01*
X130721658Y-80281091D01*
X130721658Y-80281087D01*
X130721656Y-80281082D01*
X130665085Y-80144507D01*
X130665084Y-80144505D01*
X130628331Y-80089500D01*
X130628330Y-80089498D01*
X130628329Y-80089496D01*
X130582953Y-80021585D01*
X130582947Y-80021578D01*
X126638421Y-76077052D01*
X126638414Y-76077046D01*
X126564729Y-76027812D01*
X126564729Y-76027813D01*
X126515491Y-75994913D01*
X126378917Y-75938343D01*
X126378907Y-75938340D01*
X126233920Y-75909500D01*
X126233918Y-75909500D01*
X124125418Y-75909500D01*
X124058379Y-75889815D01*
X124025100Y-75858385D01*
X123991971Y-75812787D01*
X123991967Y-75812782D01*
X123847213Y-75668028D01*
X123681614Y-75547715D01*
X123675006Y-75544348D01*
X123588917Y-75500483D01*
X123538123Y-75452511D01*
X123521328Y-75384690D01*
X123543865Y-75318555D01*
X123588917Y-75279516D01*
X123681610Y-75232287D01*
X123780906Y-75160145D01*
X123847213Y-75111971D01*
X123847215Y-75111968D01*
X123847219Y-75111966D01*
X123991966Y-74967219D01*
X123991968Y-74967215D01*
X123991971Y-74967213D01*
X124062236Y-74870500D01*
X124112287Y-74801610D01*
X124205220Y-74619219D01*
X124268477Y-74424534D01*
X124300500Y-74222352D01*
X124300500Y-74017648D01*
X124283879Y-73912707D01*
X124268477Y-73815465D01*
X124205218Y-73620776D01*
X124146331Y-73505205D01*
X124112287Y-73438390D01*
X124070228Y-73380500D01*
X123991971Y-73272786D01*
X123847213Y-73128028D01*
X123681614Y-73007715D01*
X123675006Y-73004348D01*
X123588917Y-72960483D01*
X123538123Y-72912511D01*
X123521328Y-72844690D01*
X123543865Y-72778555D01*
X123588917Y-72739516D01*
X123681610Y-72692287D01*
X123702770Y-72676913D01*
X123847213Y-72571971D01*
X123847215Y-72571968D01*
X123847219Y-72571966D01*
X123991966Y-72427219D01*
X123991968Y-72427215D01*
X123991971Y-72427213D01*
X124062236Y-72330500D01*
X124112287Y-72261610D01*
X124205220Y-72079219D01*
X124268477Y-71884534D01*
X124300500Y-71682352D01*
X124300500Y-71477648D01*
X124293256Y-71431914D01*
X124268477Y-71275465D01*
X124205218Y-71080776D01*
X124171503Y-71014607D01*
X124112287Y-70898390D01*
X124104556Y-70887749D01*
X123991971Y-70732786D01*
X123847213Y-70588028D01*
X123681614Y-70467715D01*
X123656618Y-70454979D01*
X123588917Y-70420483D01*
X123538123Y-70372511D01*
X123521328Y-70304690D01*
X123543865Y-70238555D01*
X123588917Y-70199516D01*
X123681610Y-70152287D01*
X123781477Y-70079730D01*
X123847213Y-70031971D01*
X123847215Y-70031968D01*
X123847219Y-70031966D01*
X123991966Y-69887219D01*
X123991968Y-69887215D01*
X123991971Y-69887213D01*
X124112284Y-69721614D01*
X124112285Y-69721613D01*
X124112287Y-69721610D01*
X124137996Y-69671153D01*
X130699500Y-69671153D01*
X130699500Y-69828846D01*
X130730261Y-69983489D01*
X130730263Y-69983497D01*
X130740061Y-70007151D01*
X130749500Y-70054604D01*
X130749500Y-73823918D01*
X130749500Y-73823920D01*
X130749499Y-73823920D01*
X130778340Y-73968907D01*
X130778343Y-73968917D01*
X130834913Y-74105490D01*
X130834914Y-74105492D01*
X130860982Y-74144505D01*
X130860983Y-74144507D01*
X130917045Y-74228414D01*
X130917049Y-74228418D01*
X131490243Y-74801610D01*
X131667046Y-74978413D01*
X131667048Y-74978416D01*
X131693065Y-75004433D01*
X131707058Y-75018426D01*
X131713181Y-75024549D01*
X131746666Y-75085872D01*
X131749500Y-75112230D01*
X131749500Y-85445396D01*
X131740062Y-85492844D01*
X131730263Y-85516503D01*
X131730262Y-85516506D01*
X131730260Y-85516511D01*
X131699500Y-85671153D01*
X131699500Y-85828846D01*
X131730261Y-85983489D01*
X131730264Y-85983501D01*
X131790602Y-86129172D01*
X131790609Y-86129185D01*
X131878210Y-86260288D01*
X131878213Y-86260292D01*
X131989707Y-86371786D01*
X131989711Y-86371789D01*
X132120814Y-86459390D01*
X132120827Y-86459397D01*
X132266498Y-86519735D01*
X132266503Y-86519737D01*
X132421153Y-86550499D01*
X132421156Y-86550500D01*
X132421158Y-86550500D01*
X132578844Y-86550500D01*
X132578845Y-86550499D01*
X132733497Y-86519737D01*
X132879179Y-86459394D01*
X133010289Y-86371789D01*
X133121789Y-86260289D01*
X133209394Y-86129179D01*
X133269737Y-85983497D01*
X133300500Y-85828842D01*
X133300500Y-85671158D01*
X133300500Y-85671155D01*
X133300499Y-85671153D01*
X133269739Y-85516511D01*
X133269738Y-85516508D01*
X133269737Y-85516503D01*
X133259937Y-85492844D01*
X133250500Y-85445396D01*
X133250500Y-83921158D01*
X134449500Y-83921158D01*
X134449500Y-83929001D01*
X134449500Y-84078846D01*
X134480261Y-84233489D01*
X134480264Y-84233501D01*
X134540602Y-84379172D01*
X134540609Y-84379185D01*
X134628210Y-84510288D01*
X134628213Y-84510292D01*
X134739707Y-84621786D01*
X134739711Y-84621789D01*
X134870814Y-84709390D01*
X134870827Y-84709397D01*
X135016498Y-84769735D01*
X135016503Y-84769737D01*
X135171153Y-84800499D01*
X135171156Y-84800500D01*
X135171158Y-84800500D01*
X135328844Y-84800500D01*
X135328845Y-84800499D01*
X135483497Y-84769737D01*
X135629179Y-84709394D01*
X135760289Y-84621789D01*
X135871789Y-84510289D01*
X135959394Y-84379179D01*
X136019737Y-84233497D01*
X136050500Y-84078842D01*
X136050500Y-83921158D01*
X136050500Y-83921155D01*
X136050499Y-83921153D01*
X136019739Y-83766511D01*
X136019738Y-83766508D01*
X136019737Y-83766503D01*
X136009937Y-83742844D01*
X136000500Y-83695396D01*
X136000500Y-83171153D01*
X138449500Y-83171153D01*
X138449500Y-83328846D01*
X138480261Y-83483489D01*
X138480264Y-83483501D01*
X138540602Y-83629172D01*
X138540609Y-83629185D01*
X138628210Y-83760288D01*
X138628213Y-83760292D01*
X138739707Y-83871786D01*
X138739711Y-83871789D01*
X138870814Y-83959390D01*
X138870827Y-83959397D01*
X139016498Y-84019735D01*
X139016503Y-84019737D01*
X139171153Y-84050499D01*
X139171156Y-84050500D01*
X139171158Y-84050500D01*
X139328844Y-84050500D01*
X139328845Y-84050499D01*
X139483497Y-84019737D01*
X139629179Y-83959394D01*
X139760289Y-83871789D01*
X139871789Y-83760289D01*
X139959394Y-83629179D01*
X140019737Y-83483497D01*
X140020309Y-83480617D01*
X140021024Y-83479251D01*
X140021503Y-83477673D01*
X140021802Y-83477763D01*
X140052689Y-83418705D01*
X140054191Y-83417175D01*
X143331383Y-80139983D01*
X144449500Y-80139983D01*
X144449500Y-82340001D01*
X144449501Y-82340018D01*
X144460000Y-82442796D01*
X144460001Y-82442799D01*
X144515185Y-82609331D01*
X144515186Y-82609334D01*
X144607288Y-82758656D01*
X144731344Y-82882712D01*
X144880666Y-82974814D01*
X145047203Y-83029999D01*
X145149991Y-83040500D01*
X147350008Y-83040499D01*
X147452797Y-83029999D01*
X147619334Y-82974814D01*
X147768656Y-82882712D01*
X147892712Y-82758656D01*
X147984814Y-82609334D01*
X148039999Y-82442797D01*
X148050500Y-82340009D01*
X148050499Y-80139992D01*
X148039999Y-80037203D01*
X147984814Y-79870666D01*
X147892712Y-79721344D01*
X147768656Y-79597288D01*
X147619334Y-79505186D01*
X147452797Y-79450001D01*
X147452795Y-79450000D01*
X147350010Y-79439500D01*
X145149998Y-79439500D01*
X145149981Y-79439501D01*
X145047203Y-79450000D01*
X145047200Y-79450001D01*
X144880668Y-79505185D01*
X144880663Y-79505187D01*
X144731342Y-79597289D01*
X144607289Y-79721342D01*
X144515187Y-79870663D01*
X144515185Y-79870668D01*
X144511558Y-79881614D01*
X144460001Y-80037203D01*
X144460001Y-80037204D01*
X144460000Y-80037204D01*
X144449500Y-80139983D01*
X143331383Y-80139983D01*
X145566350Y-77905016D01*
X145627671Y-77871533D01*
X145686121Y-77872923D01*
X145897986Y-77929693D01*
X146131989Y-77960500D01*
X146131996Y-77960500D01*
X146368004Y-77960500D01*
X146368011Y-77960500D01*
X146602014Y-77929693D01*
X146829993Y-77868606D01*
X147048049Y-77778284D01*
X147252450Y-77660273D01*
X147439699Y-77516592D01*
X147606592Y-77349699D01*
X147750273Y-77162450D01*
X147868284Y-76958049D01*
X147958606Y-76739993D01*
X148019693Y-76512014D01*
X148050500Y-76278011D01*
X148050500Y-76041989D01*
X148019693Y-75807986D01*
X147958606Y-75580007D01*
X147868284Y-75361951D01*
X147868282Y-75361948D01*
X147868280Y-75361943D01*
X147826118Y-75288918D01*
X147750273Y-75157550D01*
X147612817Y-74978413D01*
X147606593Y-74970302D01*
X147606587Y-74970295D01*
X147439704Y-74803412D01*
X147439697Y-74803406D01*
X147252454Y-74659730D01*
X147252453Y-74659729D01*
X147252450Y-74659727D01*
X147167893Y-74610908D01*
X147048056Y-74541719D01*
X147048045Y-74541714D01*
X146829993Y-74451394D01*
X146817886Y-74448150D01*
X146602014Y-74390307D01*
X146602013Y-74390306D01*
X146602010Y-74390306D01*
X146368020Y-74359501D01*
X146368017Y-74359500D01*
X146368011Y-74359500D01*
X146131989Y-74359500D01*
X146131983Y-74359500D01*
X146131979Y-74359501D01*
X145897989Y-74390306D01*
X145670006Y-74451394D01*
X145451954Y-74541714D01*
X145451943Y-74541719D01*
X145247545Y-74659730D01*
X145060302Y-74803406D01*
X145060295Y-74803412D01*
X144893412Y-74970295D01*
X144893406Y-74970302D01*
X144749730Y-75157545D01*
X144631719Y-75361943D01*
X144631714Y-75361954D01*
X144541394Y-75580006D01*
X144480306Y-75807989D01*
X144449501Y-76041979D01*
X144449500Y-76041989D01*
X144449500Y-76278004D01*
X144449501Y-76278020D01*
X144480306Y-76512012D01*
X144537075Y-76723875D01*
X144535412Y-76793725D01*
X144504981Y-76843649D01*
X138667047Y-82681584D01*
X138667045Y-82681586D01*
X138646791Y-82711900D01*
X138638710Y-82723996D01*
X138584916Y-82804505D01*
X138584916Y-82804506D01*
X138574696Y-82819801D01*
X138574696Y-82819802D01*
X138540609Y-82870815D01*
X138540602Y-82870828D01*
X138480264Y-83016498D01*
X138480261Y-83016510D01*
X138449500Y-83171153D01*
X136000500Y-83171153D01*
X136000500Y-70962014D01*
X144450000Y-70962014D01*
X144450000Y-71197985D01*
X144480799Y-71431914D01*
X144541870Y-71659837D01*
X144632160Y-71877819D01*
X144632165Y-71877828D01*
X144750144Y-72082171D01*
X144750145Y-72082172D01*
X144812721Y-72163723D01*
X145648958Y-71327487D01*
X145673978Y-71387890D01*
X145745112Y-71494351D01*
X145835649Y-71584888D01*
X145942110Y-71656022D01*
X146002511Y-71681041D01*
X145166275Y-72517277D01*
X145247827Y-72579854D01*
X145247828Y-72579855D01*
X145452171Y-72697834D01*
X145452180Y-72697839D01*
X145670163Y-72788129D01*
X145670161Y-72788129D01*
X145898085Y-72849200D01*
X146132014Y-72879999D01*
X146132029Y-72880000D01*
X146367971Y-72880000D01*
X146367985Y-72879999D01*
X146601914Y-72849200D01*
X146829837Y-72788129D01*
X147047819Y-72697839D01*
X147047828Y-72697834D01*
X147252181Y-72579850D01*
X147333723Y-72517279D01*
X147333723Y-72517276D01*
X146497487Y-71681041D01*
X146557890Y-71656022D01*
X146664351Y-71584888D01*
X146754888Y-71494351D01*
X146826022Y-71387890D01*
X146851041Y-71327488D01*
X147687276Y-72163723D01*
X147687279Y-72163723D01*
X147749850Y-72082181D01*
X147867834Y-71877828D01*
X147867839Y-71877819D01*
X147958129Y-71659837D01*
X148019200Y-71431914D01*
X148049999Y-71197985D01*
X148050000Y-71197971D01*
X148050000Y-70962028D01*
X148049999Y-70962014D01*
X148019200Y-70728085D01*
X147958129Y-70500162D01*
X147867839Y-70282180D01*
X147867834Y-70282171D01*
X147749855Y-70077828D01*
X147749854Y-70077827D01*
X147687277Y-69996275D01*
X146851041Y-70832511D01*
X146826022Y-70772110D01*
X146754888Y-70665649D01*
X146664351Y-70575112D01*
X146557890Y-70503978D01*
X146497488Y-70478958D01*
X147333723Y-69642721D01*
X147252172Y-69580145D01*
X147252171Y-69580144D01*
X147047828Y-69462165D01*
X147047819Y-69462160D01*
X146829836Y-69371870D01*
X146829838Y-69371870D01*
X146601914Y-69310799D01*
X146367985Y-69280000D01*
X146132014Y-69280000D01*
X145898085Y-69310799D01*
X145670162Y-69371870D01*
X145452180Y-69462160D01*
X145452171Y-69462165D01*
X145247828Y-69580144D01*
X145247818Y-69580150D01*
X145166275Y-69642720D01*
X145166275Y-69642721D01*
X146002512Y-70478958D01*
X145942110Y-70503978D01*
X145835649Y-70575112D01*
X145745112Y-70665649D01*
X145673978Y-70772110D01*
X145648958Y-70832512D01*
X144812721Y-69996275D01*
X144812720Y-69996275D01*
X144750150Y-70077818D01*
X144750144Y-70077828D01*
X144632165Y-70282171D01*
X144632160Y-70282180D01*
X144541870Y-70500162D01*
X144480799Y-70728085D01*
X144450000Y-70962014D01*
X136000500Y-70962014D01*
X136000500Y-65881995D01*
X144449500Y-65881995D01*
X144449500Y-66118004D01*
X144449501Y-66118020D01*
X144480306Y-66352010D01*
X144541394Y-66579993D01*
X144631714Y-66798045D01*
X144631719Y-66798056D01*
X144663761Y-66853553D01*
X144749727Y-67002450D01*
X144749729Y-67002453D01*
X144749730Y-67002454D01*
X144893406Y-67189697D01*
X144893412Y-67189704D01*
X145060295Y-67356587D01*
X145060301Y-67356592D01*
X145247550Y-67500273D01*
X145378918Y-67576118D01*
X145451943Y-67618280D01*
X145451948Y-67618282D01*
X145451951Y-67618284D01*
X145670007Y-67708606D01*
X145897986Y-67769693D01*
X146131989Y-67800500D01*
X146131996Y-67800500D01*
X146368004Y-67800500D01*
X146368011Y-67800500D01*
X146602014Y-67769693D01*
X146829993Y-67708606D01*
X147048049Y-67618284D01*
X147252450Y-67500273D01*
X147439699Y-67356592D01*
X147606592Y-67189699D01*
X147750273Y-67002450D01*
X147868284Y-66798049D01*
X147958606Y-66579993D01*
X148019693Y-66352014D01*
X148050500Y-66118011D01*
X148050500Y-65881989D01*
X148019693Y-65647986D01*
X147958606Y-65420007D01*
X147868284Y-65201951D01*
X147868282Y-65201948D01*
X147868280Y-65201943D01*
X147826118Y-65128918D01*
X147750273Y-64997550D01*
X147606592Y-64810301D01*
X147606587Y-64810295D01*
X147439704Y-64643412D01*
X147439697Y-64643406D01*
X147252454Y-64499730D01*
X147252453Y-64499729D01*
X147252450Y-64499727D01*
X147170957Y-64452677D01*
X147048056Y-64381719D01*
X147048045Y-64381714D01*
X146829993Y-64291394D01*
X146602010Y-64230306D01*
X146368020Y-64199501D01*
X146368017Y-64199500D01*
X146368011Y-64199500D01*
X146131989Y-64199500D01*
X146131983Y-64199500D01*
X146131979Y-64199501D01*
X145897989Y-64230306D01*
X145670006Y-64291394D01*
X145451954Y-64381714D01*
X145451943Y-64381719D01*
X145247545Y-64499730D01*
X145060302Y-64643406D01*
X145060295Y-64643412D01*
X144893412Y-64810295D01*
X144893406Y-64810302D01*
X144749730Y-64997545D01*
X144631719Y-65201943D01*
X144631714Y-65201954D01*
X144541394Y-65420006D01*
X144480306Y-65647989D01*
X144449501Y-65881979D01*
X144449500Y-65881995D01*
X136000500Y-65881995D01*
X136000500Y-63862229D01*
X136020185Y-63795190D01*
X136036819Y-63774548D01*
X138832950Y-60978417D01*
X138832952Y-60978415D01*
X138873956Y-60917048D01*
X138915084Y-60855495D01*
X138957559Y-60752951D01*
X138971659Y-60718912D01*
X138994763Y-60602759D01*
X139000500Y-60573918D01*
X139000500Y-58019983D01*
X144372000Y-58019983D01*
X144372000Y-60220001D01*
X144372001Y-60220018D01*
X144382500Y-60322796D01*
X144382501Y-60322799D01*
X144404411Y-60388917D01*
X144437686Y-60489334D01*
X144529788Y-60638656D01*
X144653844Y-60762712D01*
X144803166Y-60854814D01*
X144969703Y-60909999D01*
X145072491Y-60920500D01*
X147272508Y-60920499D01*
X147375297Y-60909999D01*
X147541834Y-60854814D01*
X147691156Y-60762712D01*
X147815212Y-60638656D01*
X147907314Y-60489334D01*
X147962499Y-60322797D01*
X147973000Y-60220009D01*
X147972999Y-58019992D01*
X147962499Y-57917203D01*
X147907314Y-57750666D01*
X147815212Y-57601344D01*
X147691156Y-57477288D01*
X147541834Y-57385186D01*
X147375297Y-57330001D01*
X147375295Y-57330000D01*
X147272510Y-57319500D01*
X145072498Y-57319500D01*
X145072481Y-57319501D01*
X144969703Y-57330000D01*
X144969700Y-57330001D01*
X144803168Y-57385185D01*
X144803163Y-57385187D01*
X144653842Y-57477289D01*
X144529789Y-57601342D01*
X144437687Y-57750663D01*
X144437686Y-57750666D01*
X144382501Y-57917203D01*
X144382501Y-57917204D01*
X144382500Y-57917204D01*
X144372000Y-58019983D01*
X139000500Y-58019983D01*
X139000500Y-48842014D01*
X144372500Y-48842014D01*
X144372500Y-49077985D01*
X144403299Y-49311914D01*
X144464370Y-49539837D01*
X144554660Y-49757819D01*
X144554665Y-49757828D01*
X144672644Y-49962171D01*
X144672645Y-49962172D01*
X144735221Y-50043723D01*
X145571458Y-49207487D01*
X145596478Y-49267890D01*
X145667612Y-49374351D01*
X145758149Y-49464888D01*
X145864610Y-49536022D01*
X145925011Y-49561041D01*
X145088775Y-50397277D01*
X145170327Y-50459854D01*
X145170328Y-50459855D01*
X145374671Y-50577834D01*
X145374680Y-50577839D01*
X145592663Y-50668129D01*
X145592661Y-50668129D01*
X145820585Y-50729200D01*
X146054514Y-50759999D01*
X146054529Y-50760000D01*
X146290471Y-50760000D01*
X146290485Y-50759999D01*
X146524414Y-50729200D01*
X146752337Y-50668129D01*
X146970319Y-50577839D01*
X146970328Y-50577834D01*
X147174681Y-50459850D01*
X147256223Y-50397279D01*
X147256223Y-50397276D01*
X146419987Y-49561041D01*
X146480390Y-49536022D01*
X146586851Y-49464888D01*
X146677388Y-49374351D01*
X146748522Y-49267890D01*
X146773541Y-49207488D01*
X147609776Y-50043723D01*
X147609779Y-50043723D01*
X147672350Y-49962181D01*
X147790334Y-49757828D01*
X147790339Y-49757819D01*
X147880629Y-49539837D01*
X147941700Y-49311914D01*
X147972499Y-49077985D01*
X147972500Y-49077971D01*
X147972500Y-48842028D01*
X147972499Y-48842014D01*
X147941700Y-48608085D01*
X147880629Y-48380162D01*
X147790339Y-48162180D01*
X147790334Y-48162171D01*
X147672355Y-47957828D01*
X147672354Y-47957827D01*
X147609777Y-47876275D01*
X146773541Y-48712511D01*
X146748522Y-48652110D01*
X146677388Y-48545649D01*
X146586851Y-48455112D01*
X146480390Y-48383978D01*
X146419988Y-48358958D01*
X147256223Y-47522721D01*
X147174672Y-47460145D01*
X147174671Y-47460144D01*
X146970328Y-47342165D01*
X146970319Y-47342160D01*
X146752336Y-47251870D01*
X146752338Y-47251870D01*
X146524414Y-47190799D01*
X146290485Y-47160000D01*
X146054514Y-47160000D01*
X145820585Y-47190799D01*
X145592662Y-47251870D01*
X145374680Y-47342160D01*
X145374671Y-47342165D01*
X145170328Y-47460144D01*
X145170318Y-47460150D01*
X145088775Y-47522720D01*
X145088775Y-47522721D01*
X145925012Y-48358958D01*
X145864610Y-48383978D01*
X145758149Y-48455112D01*
X145667612Y-48545649D01*
X145596478Y-48652110D01*
X145571458Y-48712512D01*
X144735221Y-47876275D01*
X144735220Y-47876275D01*
X144672650Y-47957818D01*
X144672644Y-47957828D01*
X144554665Y-48162171D01*
X144554660Y-48162180D01*
X144464370Y-48380162D01*
X144403299Y-48608085D01*
X144372500Y-48842014D01*
X139000500Y-48842014D01*
X139000500Y-45426082D01*
X139000500Y-45426079D01*
X138971659Y-45281092D01*
X138971658Y-45281091D01*
X138971658Y-45281087D01*
X138971656Y-45281082D01*
X138915087Y-45144511D01*
X138915080Y-45144498D01*
X138832952Y-45021585D01*
X138786817Y-44975450D01*
X138728416Y-44917049D01*
X138246072Y-44434705D01*
X138219191Y-44394473D01*
X138209397Y-44370828D01*
X138209396Y-44370826D01*
X138209394Y-44370821D01*
X138174378Y-44318416D01*
X138121789Y-44239710D01*
X138010292Y-44128213D01*
X138010288Y-44128210D01*
X137879185Y-44040609D01*
X137879172Y-44040602D01*
X137733501Y-43980264D01*
X137733489Y-43980261D01*
X137578845Y-43949500D01*
X137578842Y-43949500D01*
X137421158Y-43949500D01*
X137421155Y-43949500D01*
X137266510Y-43980261D01*
X137266498Y-43980264D01*
X137120827Y-44040602D01*
X137120814Y-44040609D01*
X136989711Y-44128210D01*
X136989707Y-44128213D01*
X136878213Y-44239707D01*
X136878210Y-44239711D01*
X136790609Y-44370814D01*
X136790602Y-44370827D01*
X136730264Y-44516498D01*
X136730261Y-44516510D01*
X136699500Y-44671153D01*
X136699500Y-44828846D01*
X136730261Y-44983489D01*
X136730264Y-44983501D01*
X136790602Y-45129172D01*
X136790609Y-45129185D01*
X136878210Y-45260288D01*
X136878213Y-45260292D01*
X136989710Y-45371789D01*
X137057447Y-45417049D01*
X137120821Y-45459394D01*
X137120826Y-45459396D01*
X137120828Y-45459397D01*
X137144473Y-45469191D01*
X137184705Y-45496072D01*
X137463181Y-45774548D01*
X137496666Y-45835871D01*
X137499500Y-45862229D01*
X137499500Y-60137770D01*
X137479815Y-60204809D01*
X137463181Y-60225451D01*
X134667047Y-63021584D01*
X134667043Y-63021589D01*
X134641714Y-63059499D01*
X134641714Y-63059500D01*
X134584913Y-63144508D01*
X134528343Y-63281082D01*
X134528340Y-63281092D01*
X134499500Y-63426079D01*
X134499500Y-83695396D01*
X134498049Y-83702687D01*
X134496408Y-83722916D01*
X134494079Y-83733147D01*
X134480263Y-83766503D01*
X134449500Y-83921158D01*
X133250500Y-83921158D01*
X133250500Y-74676079D01*
X133221659Y-74531092D01*
X133221658Y-74531091D01*
X133221658Y-74531087D01*
X133194243Y-74464901D01*
X133165087Y-74394511D01*
X133165080Y-74394498D01*
X133082952Y-74271585D01*
X133033718Y-74222351D01*
X132978416Y-74167049D01*
X132728416Y-73917048D01*
X132728415Y-73917047D01*
X132724085Y-73912717D01*
X132724074Y-73912707D01*
X132286819Y-73475451D01*
X132253334Y-73414128D01*
X132250500Y-73387770D01*
X132250500Y-70054604D01*
X132259939Y-70007151D01*
X132264444Y-69996275D01*
X132269737Y-69983497D01*
X132300500Y-69828842D01*
X132300500Y-69671158D01*
X132300500Y-69671155D01*
X132300499Y-69671153D01*
X132275943Y-69547703D01*
X132269737Y-69516503D01*
X132253961Y-69478415D01*
X132209397Y-69370827D01*
X132209390Y-69370814D01*
X132121789Y-69239711D01*
X132121786Y-69239707D01*
X132010292Y-69128213D01*
X132010288Y-69128210D01*
X131879185Y-69040609D01*
X131879172Y-69040602D01*
X131733501Y-68980264D01*
X131733489Y-68980261D01*
X131578845Y-68949500D01*
X131578842Y-68949500D01*
X131421158Y-68949500D01*
X131421155Y-68949500D01*
X131266510Y-68980261D01*
X131266498Y-68980264D01*
X131120827Y-69040602D01*
X131120814Y-69040609D01*
X130989711Y-69128210D01*
X130989707Y-69128213D01*
X130878213Y-69239707D01*
X130878210Y-69239711D01*
X130790609Y-69370814D01*
X130790602Y-69370827D01*
X130730264Y-69516498D01*
X130730261Y-69516510D01*
X130699500Y-69671153D01*
X124137996Y-69671153D01*
X124205220Y-69539219D01*
X124268477Y-69344534D01*
X124300500Y-69142352D01*
X124300500Y-68937648D01*
X124268477Y-68735465D01*
X124205218Y-68540776D01*
X124142767Y-68418211D01*
X124112287Y-68358390D01*
X124070227Y-68300499D01*
X123991971Y-68192786D01*
X123847213Y-68048028D01*
X123681611Y-67927713D01*
X123588369Y-67880203D01*
X123537574Y-67832229D01*
X123520779Y-67764407D01*
X123543317Y-67698273D01*
X123588371Y-67659234D01*
X123681346Y-67611861D01*
X123681347Y-67611861D01*
X123725921Y-67579474D01*
X123046447Y-66900000D01*
X123052661Y-66900000D01*
X123154394Y-66872741D01*
X123245606Y-66820080D01*
X123320080Y-66745606D01*
X123372741Y-66654394D01*
X123400000Y-66552661D01*
X123400000Y-66546448D01*
X124079474Y-67225922D01*
X124079474Y-67225921D01*
X124111859Y-67181349D01*
X124204755Y-66999031D01*
X124267990Y-66804417D01*
X124300000Y-66602317D01*
X124300000Y-66397682D01*
X124267990Y-66195582D01*
X124204755Y-66000968D01*
X124111859Y-65818650D01*
X124079474Y-65774077D01*
X124079474Y-65774076D01*
X123400000Y-66453551D01*
X123400000Y-66447339D01*
X123372741Y-66345606D01*
X123320080Y-66254394D01*
X123245606Y-66179920D01*
X123154394Y-66127259D01*
X123052661Y-66100000D01*
X123046446Y-66100000D01*
X123725922Y-65420524D01*
X123725921Y-65420523D01*
X123681359Y-65388147D01*
X123681350Y-65388141D01*
X123587819Y-65340485D01*
X123537023Y-65292511D01*
X123520228Y-65224690D01*
X123542765Y-65158555D01*
X123587820Y-65119515D01*
X123681346Y-65071861D01*
X123681347Y-65071861D01*
X123725921Y-65039474D01*
X123046447Y-64360000D01*
X123052661Y-64360000D01*
X123154394Y-64332741D01*
X123245606Y-64280080D01*
X123320080Y-64205606D01*
X123372741Y-64114394D01*
X123400000Y-64012661D01*
X123400000Y-64006448D01*
X124079474Y-64685922D01*
X124079474Y-64685921D01*
X124111859Y-64641349D01*
X124204755Y-64459031D01*
X124267990Y-64264417D01*
X124300000Y-64062317D01*
X124300000Y-63857682D01*
X124267990Y-63655582D01*
X124204755Y-63460968D01*
X124111859Y-63278650D01*
X124079474Y-63234077D01*
X124079474Y-63234076D01*
X123400000Y-63913551D01*
X123400000Y-63907339D01*
X123372741Y-63805606D01*
X123320080Y-63714394D01*
X123245606Y-63639920D01*
X123154394Y-63587259D01*
X123052661Y-63560000D01*
X123046446Y-63560000D01*
X123725922Y-62880524D01*
X123725921Y-62880523D01*
X123681359Y-62848147D01*
X123681350Y-62848141D01*
X123587819Y-62800485D01*
X123537023Y-62752511D01*
X123520228Y-62684690D01*
X123542765Y-62618555D01*
X123587820Y-62579515D01*
X123681346Y-62531861D01*
X123681347Y-62531861D01*
X123725921Y-62499474D01*
X123046447Y-61820000D01*
X123052661Y-61820000D01*
X123154394Y-61792741D01*
X123245606Y-61740080D01*
X123320080Y-61665606D01*
X123372741Y-61574394D01*
X123400000Y-61472661D01*
X123400000Y-61466448D01*
X124079474Y-62145922D01*
X124079474Y-62145921D01*
X124111859Y-62101349D01*
X124204755Y-61919031D01*
X124267990Y-61724417D01*
X124300000Y-61522317D01*
X124300000Y-61317682D01*
X124267990Y-61115582D01*
X124204755Y-60920968D01*
X124111859Y-60738650D01*
X124079474Y-60694077D01*
X124079474Y-60694076D01*
X123400000Y-61373551D01*
X123400000Y-61367339D01*
X123372741Y-61265606D01*
X123320080Y-61174394D01*
X123245606Y-61099920D01*
X123154394Y-61047259D01*
X123052661Y-61020000D01*
X123046446Y-61020000D01*
X123725922Y-60340524D01*
X123725921Y-60340523D01*
X123681359Y-60308147D01*
X123681350Y-60308141D01*
X123499031Y-60215244D01*
X123304417Y-60152009D01*
X123102317Y-60120000D01*
X122897683Y-60120000D01*
X122695582Y-60152009D01*
X122500968Y-60215244D01*
X122318644Y-60308143D01*
X122274077Y-60340523D01*
X122274077Y-60340524D01*
X122953554Y-61020000D01*
X122947339Y-61020000D01*
X122845606Y-61047259D01*
X122754394Y-61099920D01*
X122679920Y-61174394D01*
X122627259Y-61265606D01*
X122600000Y-61367339D01*
X122600000Y-61373553D01*
X121920524Y-60694077D01*
X121920523Y-60694077D01*
X121888143Y-60738644D01*
X121795244Y-60920968D01*
X121732009Y-61115582D01*
X121700000Y-61317682D01*
X121700000Y-61522317D01*
X121732009Y-61724417D01*
X121795244Y-61919031D01*
X121888141Y-62101350D01*
X121888147Y-62101359D01*
X121920523Y-62145921D01*
X121920524Y-62145922D01*
X122600000Y-61466446D01*
X122600000Y-61472661D01*
X122627259Y-61574394D01*
X122679920Y-61665606D01*
X122754394Y-61740080D01*
X122845606Y-61792741D01*
X122947339Y-61820000D01*
X122953553Y-61820000D01*
X122274076Y-62499474D01*
X122318650Y-62531859D01*
X122412180Y-62579515D01*
X122462976Y-62627489D01*
X122479771Y-62695310D01*
X122457234Y-62761445D01*
X122412180Y-62800485D01*
X122318644Y-62848143D01*
X122274077Y-62880523D01*
X122274077Y-62880524D01*
X122953554Y-63560000D01*
X122947339Y-63560000D01*
X122845606Y-63587259D01*
X122754394Y-63639920D01*
X122679920Y-63714394D01*
X122627259Y-63805606D01*
X122600000Y-63907339D01*
X122600000Y-63913553D01*
X121920524Y-63234077D01*
X121920523Y-63234077D01*
X121888143Y-63278644D01*
X121795244Y-63460968D01*
X121732009Y-63655582D01*
X121700000Y-63857682D01*
X121700000Y-64062317D01*
X121732009Y-64264417D01*
X121795244Y-64459031D01*
X121888141Y-64641350D01*
X121888147Y-64641359D01*
X121920523Y-64685921D01*
X121920524Y-64685922D01*
X122600000Y-64006446D01*
X122600000Y-64012661D01*
X122627259Y-64114394D01*
X122679920Y-64205606D01*
X122754394Y-64280080D01*
X122845606Y-64332741D01*
X122947339Y-64360000D01*
X122953553Y-64360000D01*
X122274076Y-65039474D01*
X122318650Y-65071859D01*
X122412180Y-65119515D01*
X122462976Y-65167489D01*
X122479771Y-65235310D01*
X122457234Y-65301445D01*
X122412180Y-65340485D01*
X122318644Y-65388143D01*
X122274077Y-65420523D01*
X122274077Y-65420524D01*
X122953554Y-66100000D01*
X122947339Y-66100000D01*
X122845606Y-66127259D01*
X122754394Y-66179920D01*
X122679920Y-66254394D01*
X122627259Y-66345606D01*
X122600000Y-66447339D01*
X122600000Y-66453553D01*
X121920524Y-65774077D01*
X121920523Y-65774077D01*
X121888143Y-65818644D01*
X121795244Y-66000968D01*
X121732009Y-66195582D01*
X121700000Y-66397682D01*
X121700000Y-66602317D01*
X121732009Y-66804417D01*
X121795244Y-66999031D01*
X121888141Y-67181350D01*
X121888147Y-67181359D01*
X121920523Y-67225921D01*
X121920524Y-67225922D01*
X122600000Y-66546446D01*
X122600000Y-66552661D01*
X122627259Y-66654394D01*
X122679920Y-66745606D01*
X122754394Y-66820080D01*
X122845606Y-66872741D01*
X122947339Y-66900000D01*
X122953553Y-66900000D01*
X122274076Y-67579474D01*
X122318652Y-67611861D01*
X122411628Y-67659234D01*
X122462425Y-67707208D01*
X122479220Y-67775029D01*
X122456683Y-67841164D01*
X122411630Y-67880203D01*
X122318388Y-67927713D01*
X122152786Y-68048028D01*
X122008028Y-68192786D01*
X121887715Y-68358386D01*
X121794781Y-68540776D01*
X121731522Y-68735465D01*
X121699500Y-68937648D01*
X121699500Y-69142351D01*
X121731522Y-69344534D01*
X121794781Y-69539223D01*
X121887715Y-69721613D01*
X122008028Y-69887213D01*
X122152786Y-70031971D01*
X122307749Y-70144556D01*
X122318390Y-70152287D01*
X122409840Y-70198883D01*
X122411080Y-70199515D01*
X122461876Y-70247490D01*
X122478671Y-70315311D01*
X122456134Y-70381446D01*
X122411080Y-70420485D01*
X122318386Y-70467715D01*
X122152786Y-70588028D01*
X122008032Y-70732782D01*
X122008028Y-70732787D01*
X121974900Y-70778385D01*
X121919571Y-70821051D01*
X121874582Y-70829500D01*
X121346080Y-70829500D01*
X121201092Y-70858340D01*
X121201082Y-70858343D01*
X121064511Y-70914912D01*
X121064498Y-70914919D01*
X120971582Y-70977005D01*
X120941581Y-70997050D01*
X120167047Y-71771584D01*
X120167044Y-71771588D01*
X120152402Y-71793503D01*
X120148788Y-71798913D01*
X120126044Y-71832952D01*
X120084914Y-71894507D01*
X120028343Y-72031082D01*
X120028340Y-72031092D01*
X119999500Y-72176079D01*
X119999500Y-72176082D01*
X119999500Y-83573918D01*
X119999500Y-83573920D01*
X119999499Y-83573920D01*
X119500500Y-83573920D01*
X119500500Y-62426082D01*
X119479498Y-62320500D01*
X119471659Y-62281088D01*
X119417408Y-62150117D01*
X119415764Y-62145522D01*
X119332954Y-62021588D01*
X119332953Y-62021587D01*
X119332951Y-62021584D01*
X119228416Y-61917049D01*
X118975495Y-61664128D01*
X118711865Y-61400497D01*
X118228421Y-60917052D01*
X118228414Y-60917046D01*
X118154729Y-60867812D01*
X118154729Y-60867813D01*
X118105491Y-60834913D01*
X117968917Y-60778343D01*
X117968907Y-60778340D01*
X117823920Y-60749500D01*
X117823918Y-60749500D01*
X114023541Y-60749500D01*
X113956502Y-60729815D01*
X113923223Y-60698385D01*
X113831971Y-60572787D01*
X113831967Y-60572782D01*
X113687213Y-60428028D01*
X113521613Y-60307715D01*
X113521612Y-60307714D01*
X113521610Y-60307713D01*
X113464653Y-60278691D01*
X113339223Y-60214781D01*
X113144534Y-60151522D01*
X112969995Y-60123878D01*
X112942352Y-60119500D01*
X112737648Y-60119500D01*
X112681972Y-60128318D01*
X112612679Y-60119363D01*
X112574894Y-60093526D01*
X110818854Y-58337486D01*
X131050001Y-58337486D01*
X131060494Y-58440197D01*
X131115641Y-58606619D01*
X131115643Y-58606624D01*
X131207684Y-58755845D01*
X131331654Y-58879815D01*
X131480875Y-58971856D01*
X131480880Y-58971858D01*
X131647302Y-59027005D01*
X131647309Y-59027006D01*
X131750019Y-59037499D01*
X132999999Y-59037499D01*
X133500000Y-59037499D01*
X134749972Y-59037499D01*
X134749986Y-59037498D01*
X134852697Y-59027005D01*
X135019119Y-58971858D01*
X135019124Y-58971856D01*
X135168345Y-58879815D01*
X135292315Y-58755845D01*
X135384356Y-58606624D01*
X135384358Y-58606619D01*
X135439505Y-58440197D01*
X135439506Y-58440190D01*
X135449999Y-58337486D01*
X135450000Y-58337473D01*
X135450000Y-58000000D01*
X133500000Y-58000000D01*
X133500000Y-59037499D01*
X132999999Y-59037499D01*
X133000000Y-59037498D01*
X133000000Y-58000000D01*
X131050001Y-58000000D01*
X131050001Y-58337486D01*
X110818854Y-58337486D01*
X109786819Y-57305451D01*
X109772115Y-57278523D01*
X109755523Y-57252705D01*
X109754631Y-57246504D01*
X109753334Y-57244128D01*
X109750500Y-57217770D01*
X109750500Y-57162513D01*
X131050000Y-57162513D01*
X131050000Y-57500000D01*
X133000000Y-57500000D01*
X133500000Y-57500000D01*
X135449999Y-57500000D01*
X135449999Y-57162528D01*
X135449998Y-57162513D01*
X135439505Y-57059802D01*
X135384358Y-56893380D01*
X135384356Y-56893375D01*
X135292315Y-56744154D01*
X135168345Y-56620184D01*
X135019124Y-56528143D01*
X135019119Y-56528141D01*
X134852697Y-56472994D01*
X134852690Y-56472993D01*
X134749986Y-56462500D01*
X133500000Y-56462500D01*
X133500000Y-57500000D01*
X133000000Y-57500000D01*
X133000000Y-56462500D01*
X131750028Y-56462500D01*
X131750012Y-56462501D01*
X131647302Y-56472994D01*
X131480880Y-56528141D01*
X131480875Y-56528143D01*
X131331654Y-56620184D01*
X131207684Y-56744154D01*
X131115643Y-56893375D01*
X131115641Y-56893380D01*
X131060494Y-57059802D01*
X131060493Y-57059809D01*
X131050000Y-57162513D01*
X109750500Y-57162513D01*
X109750500Y-55020013D01*
X112580000Y-55020013D01*
X112580000Y-55370000D01*
X113564314Y-55370000D01*
X113559920Y-55374394D01*
X113507259Y-55465606D01*
X113480000Y-55567339D01*
X113480000Y-55672661D01*
X113507259Y-55774394D01*
X113559920Y-55865606D01*
X113564314Y-55870000D01*
X112580001Y-55870000D01*
X112580001Y-56219986D01*
X112590494Y-56322697D01*
X112645641Y-56489119D01*
X112645643Y-56489124D01*
X112737684Y-56638345D01*
X112861654Y-56762315D01*
X113010875Y-56854356D01*
X113010880Y-56854358D01*
X113177302Y-56909505D01*
X113177309Y-56909506D01*
X113280019Y-56919999D01*
X113629999Y-56919999D01*
X113630000Y-56919998D01*
X113630000Y-55935686D01*
X113634394Y-55940080D01*
X113725606Y-55992741D01*
X113827339Y-56020000D01*
X113932661Y-56020000D01*
X114034394Y-55992741D01*
X114125606Y-55940080D01*
X114130000Y-55935686D01*
X114130000Y-56919999D01*
X114479972Y-56919999D01*
X114479986Y-56919998D01*
X114582697Y-56909505D01*
X114749119Y-56854358D01*
X114749124Y-56854356D01*
X114898345Y-56762315D01*
X115022315Y-56638345D01*
X115114356Y-56489124D01*
X115114359Y-56489117D01*
X115141592Y-56406932D01*
X115181364Y-56349487D01*
X115245879Y-56322663D01*
X115314655Y-56334977D01*
X115359617Y-56373050D01*
X115428034Y-56467219D01*
X115572786Y-56611971D01*
X115693226Y-56699474D01*
X115738390Y-56732287D01*
X115854607Y-56791503D01*
X115920776Y-56825218D01*
X115920778Y-56825218D01*
X115920781Y-56825220D01*
X116010459Y-56854358D01*
X116115465Y-56888477D01*
X116216557Y-56904488D01*
X116317648Y-56920500D01*
X116317649Y-56920500D01*
X116522351Y-56920500D01*
X116522352Y-56920500D01*
X116724534Y-56888477D01*
X116919219Y-56825220D01*
X117101610Y-56732287D01*
X117194590Y-56664732D01*
X117267213Y-56611971D01*
X117267215Y-56611968D01*
X117267219Y-56611966D01*
X117411966Y-56467219D01*
X117411968Y-56467215D01*
X117411971Y-56467213D01*
X117508045Y-56334977D01*
X117532287Y-56301610D01*
X117579795Y-56208369D01*
X117627769Y-56157573D01*
X117695590Y-56140778D01*
X117761725Y-56163315D01*
X117800765Y-56208369D01*
X117848141Y-56301350D01*
X117848147Y-56301359D01*
X117880523Y-56345921D01*
X117880524Y-56345922D01*
X118560000Y-55666446D01*
X118560000Y-55672661D01*
X118587259Y-55774394D01*
X118639920Y-55865606D01*
X118714394Y-55940080D01*
X118805606Y-55992741D01*
X118907339Y-56020000D01*
X118913553Y-56020000D01*
X118234076Y-56699474D01*
X118278650Y-56731859D01*
X118460968Y-56824755D01*
X118655582Y-56887990D01*
X118857683Y-56920000D01*
X119062317Y-56920000D01*
X119264417Y-56887990D01*
X119459031Y-56824755D01*
X119641349Y-56731859D01*
X119685921Y-56699474D01*
X119006447Y-56020000D01*
X119012661Y-56020000D01*
X119114394Y-55992741D01*
X119205606Y-55940080D01*
X119280080Y-55865606D01*
X119332741Y-55774394D01*
X119360000Y-55672661D01*
X119360000Y-55666447D01*
X120039474Y-56345921D01*
X120071861Y-56301347D01*
X120071861Y-56301346D01*
X120119515Y-56207820D01*
X120167489Y-56157024D01*
X120235310Y-56140228D01*
X120301445Y-56162765D01*
X120340485Y-56207819D01*
X120388141Y-56301350D01*
X120388147Y-56301359D01*
X120420523Y-56345921D01*
X120420524Y-56345922D01*
X121100000Y-55666446D01*
X121100000Y-55672661D01*
X121127259Y-55774394D01*
X121179920Y-55865606D01*
X121254394Y-55940080D01*
X121345606Y-55992741D01*
X121447339Y-56020000D01*
X121453553Y-56020000D01*
X120774076Y-56699474D01*
X120818650Y-56731859D01*
X121000968Y-56824755D01*
X121195582Y-56887990D01*
X121397683Y-56920000D01*
X121602317Y-56920000D01*
X121804417Y-56887990D01*
X121999031Y-56824755D01*
X122181349Y-56731859D01*
X122225921Y-56699474D01*
X121546447Y-56020000D01*
X121552661Y-56020000D01*
X121654394Y-55992741D01*
X121745606Y-55940080D01*
X121820080Y-55865606D01*
X121872741Y-55774394D01*
X121900000Y-55672661D01*
X121900000Y-55666447D01*
X122579474Y-56345921D01*
X122611859Y-56301349D01*
X122704755Y-56119031D01*
X122767990Y-55924417D01*
X122800000Y-55722317D01*
X122800000Y-55517682D01*
X122767990Y-55315582D01*
X122704755Y-55120968D01*
X122611859Y-54938650D01*
X122579474Y-54894077D01*
X122579474Y-54894076D01*
X121900000Y-55573551D01*
X121900000Y-55567339D01*
X121872741Y-55465606D01*
X121820080Y-55374394D01*
X121745606Y-55299920D01*
X121654394Y-55247259D01*
X121552661Y-55220000D01*
X121546446Y-55220000D01*
X122225922Y-54540524D01*
X122225921Y-54540523D01*
X122181359Y-54508147D01*
X122181350Y-54508141D01*
X121999031Y-54415244D01*
X121804417Y-54352009D01*
X121602317Y-54320000D01*
X121397683Y-54320000D01*
X121195582Y-54352009D01*
X121000968Y-54415244D01*
X120818644Y-54508143D01*
X120774077Y-54540523D01*
X120774077Y-54540524D01*
X121453554Y-55220000D01*
X121447339Y-55220000D01*
X121345606Y-55247259D01*
X121254394Y-55299920D01*
X121179920Y-55374394D01*
X121127259Y-55465606D01*
X121100000Y-55567339D01*
X121100000Y-55573553D01*
X120420524Y-54894077D01*
X120420523Y-54894077D01*
X120388143Y-54938644D01*
X120340485Y-55032180D01*
X120292510Y-55082976D01*
X120224689Y-55099771D01*
X120158554Y-55077233D01*
X120119515Y-55032180D01*
X120071859Y-54938650D01*
X120039474Y-54894077D01*
X120039474Y-54894076D01*
X119360000Y-55573551D01*
X119360000Y-55567339D01*
X119332741Y-55465606D01*
X119280080Y-55374394D01*
X119205606Y-55299920D01*
X119114394Y-55247259D01*
X119012661Y-55220000D01*
X119006446Y-55220000D01*
X119685922Y-54540524D01*
X119685921Y-54540523D01*
X119641359Y-54508147D01*
X119641350Y-54508141D01*
X119459031Y-54415244D01*
X119264417Y-54352009D01*
X119062317Y-54320000D01*
X118857683Y-54320000D01*
X118655582Y-54352009D01*
X118460968Y-54415244D01*
X118278644Y-54508143D01*
X118234077Y-54540523D01*
X118234077Y-54540524D01*
X118913554Y-55220000D01*
X118907339Y-55220000D01*
X118805606Y-55247259D01*
X118714394Y-55299920D01*
X118639920Y-55374394D01*
X118587259Y-55465606D01*
X118560000Y-55567339D01*
X118560000Y-55573553D01*
X117880524Y-54894077D01*
X117880523Y-54894077D01*
X117848143Y-54938644D01*
X117800765Y-55031630D01*
X117752790Y-55082426D01*
X117684969Y-55099221D01*
X117618834Y-55076683D01*
X117579795Y-55031630D01*
X117568774Y-55010000D01*
X117532287Y-54938390D01*
X117532285Y-54938387D01*
X117532284Y-54938385D01*
X117411971Y-54772786D01*
X117267213Y-54628028D01*
X117101613Y-54507715D01*
X117101612Y-54507714D01*
X117101610Y-54507713D01*
X117042675Y-54477684D01*
X116919223Y-54414781D01*
X116724534Y-54351522D01*
X116549995Y-54323878D01*
X116522352Y-54319500D01*
X116317648Y-54319500D01*
X116293329Y-54323351D01*
X116115465Y-54351522D01*
X115920776Y-54414781D01*
X115738386Y-54507715D01*
X115572786Y-54628028D01*
X115428032Y-54772782D01*
X115359616Y-54866949D01*
X115304286Y-54909614D01*
X115234672Y-54915593D01*
X115172877Y-54882987D01*
X115141592Y-54833067D01*
X115114358Y-54750880D01*
X115114356Y-54750875D01*
X115022315Y-54601654D01*
X114898345Y-54477684D01*
X114749124Y-54385643D01*
X114749119Y-54385641D01*
X114582697Y-54330494D01*
X114582690Y-54330493D01*
X114479986Y-54320000D01*
X114130000Y-54320000D01*
X114130000Y-55304314D01*
X114125606Y-55299920D01*
X114034394Y-55247259D01*
X113932661Y-55220000D01*
X113827339Y-55220000D01*
X113725606Y-55247259D01*
X113634394Y-55299920D01*
X113630000Y-55304314D01*
X113630000Y-54320000D01*
X113280028Y-54320000D01*
X113280012Y-54320001D01*
X113177302Y-54330494D01*
X113010880Y-54385641D01*
X113010875Y-54385643D01*
X112861654Y-54477684D01*
X112737684Y-54601654D01*
X112645643Y-54750875D01*
X112645641Y-54750880D01*
X112590494Y-54917302D01*
X112590493Y-54917309D01*
X112580000Y-55020013D01*
X109750500Y-55020013D01*
X109750500Y-47897648D01*
X112579500Y-47897648D01*
X112579500Y-48102351D01*
X112611522Y-48304534D01*
X112674781Y-48499223D01*
X112767715Y-48681613D01*
X112888028Y-48847213D01*
X112888034Y-48847219D01*
X113032781Y-48991966D01*
X113078384Y-49025098D01*
X113121050Y-49080425D01*
X113129500Y-49125416D01*
X113129500Y-50703918D01*
X113129500Y-50703920D01*
X113129499Y-50703920D01*
X113158340Y-50848907D01*
X113158342Y-50848913D01*
X113178792Y-50898285D01*
X113214916Y-50985495D01*
X113216985Y-50988591D01*
X113216990Y-50988608D01*
X113216995Y-50988606D01*
X113278395Y-51080500D01*
X113297051Y-51108420D01*
X115521578Y-53332947D01*
X115521585Y-53332953D01*
X115579671Y-53371764D01*
X115579674Y-53371765D01*
X115584389Y-53374916D01*
X115644505Y-53415084D01*
X115701080Y-53438518D01*
X115781088Y-53471659D01*
X115897241Y-53494763D01*
X115916468Y-53498587D01*
X115926081Y-53500500D01*
X115926082Y-53500500D01*
X125823920Y-53500500D01*
X125921462Y-53481096D01*
X125968913Y-53471658D01*
X126105495Y-53415084D01*
X126165611Y-53374916D01*
X126165611Y-53374915D01*
X126165613Y-53374915D01*
X126197013Y-53353934D01*
X126228416Y-53332952D01*
X132287819Y-47273549D01*
X132349142Y-47240064D01*
X132418834Y-47245048D01*
X132474767Y-47286920D01*
X132499184Y-47352384D01*
X132499500Y-47361230D01*
X132499500Y-52063000D01*
X132479815Y-52130039D01*
X132427011Y-52175794D01*
X132375500Y-52187000D01*
X131749998Y-52187000D01*
X131749980Y-52187001D01*
X131647203Y-52197500D01*
X131647200Y-52197501D01*
X131480668Y-52252685D01*
X131480663Y-52252687D01*
X131331342Y-52344789D01*
X131207289Y-52468842D01*
X131115187Y-52618163D01*
X131115185Y-52618168D01*
X131093567Y-52683408D01*
X131060001Y-52784703D01*
X131060001Y-52784704D01*
X131060000Y-52784704D01*
X131049500Y-52887483D01*
X131049500Y-54062501D01*
X131049501Y-54062518D01*
X131060000Y-54165296D01*
X131060001Y-54165299D01*
X131115185Y-54331831D01*
X131115187Y-54331836D01*
X131127330Y-54351523D01*
X131207288Y-54481156D01*
X131331344Y-54605212D01*
X131480666Y-54697314D01*
X131647203Y-54752499D01*
X131749991Y-54763000D01*
X134750008Y-54762999D01*
X134852797Y-54752499D01*
X135019334Y-54697314D01*
X135168656Y-54605212D01*
X135292712Y-54481156D01*
X135384814Y-54331834D01*
X135439999Y-54165297D01*
X135450500Y-54062509D01*
X135450499Y-52887492D01*
X135447705Y-52860145D01*
X135439999Y-52784703D01*
X135439998Y-52784700D01*
X135425903Y-52742165D01*
X135384814Y-52618166D01*
X135292712Y-52468844D01*
X135168656Y-52344788D01*
X135075888Y-52287569D01*
X135019336Y-52252687D01*
X135019331Y-52252685D01*
X134979541Y-52239500D01*
X134852797Y-52197501D01*
X134852795Y-52197500D01*
X134750016Y-52187000D01*
X134750009Y-52187000D01*
X134124500Y-52187000D01*
X134057461Y-52167315D01*
X134011706Y-52114511D01*
X134000500Y-52063000D01*
X134000500Y-46176079D01*
X133971659Y-46031092D01*
X133971658Y-46031091D01*
X133971658Y-46031087D01*
X133966613Y-46018907D01*
X133915085Y-45894507D01*
X133915084Y-45894505D01*
X133867919Y-45823917D01*
X133859199Y-45810867D01*
X133832950Y-45771581D01*
X133586819Y-45525450D01*
X133553334Y-45464127D01*
X133550500Y-45437769D01*
X133550500Y-43761995D01*
X144372000Y-43761995D01*
X144372000Y-43998004D01*
X144372001Y-43998020D01*
X144400018Y-44210836D01*
X144402807Y-44232014D01*
X144457118Y-44434705D01*
X144463894Y-44459993D01*
X144554214Y-44678045D01*
X144554219Y-44678056D01*
X144579745Y-44722267D01*
X144672227Y-44882450D01*
X144672229Y-44882453D01*
X144672230Y-44882454D01*
X144815906Y-45069697D01*
X144815912Y-45069704D01*
X144982795Y-45236587D01*
X144982802Y-45236593D01*
X145065437Y-45300001D01*
X145170050Y-45380273D01*
X145269636Y-45437769D01*
X145374443Y-45498280D01*
X145374448Y-45498282D01*
X145374451Y-45498284D01*
X145592507Y-45588606D01*
X145820486Y-45649693D01*
X146054489Y-45680500D01*
X146054496Y-45680500D01*
X146290504Y-45680500D01*
X146290511Y-45680500D01*
X146524514Y-45649693D01*
X146752493Y-45588606D01*
X146970549Y-45498284D01*
X147174950Y-45380273D01*
X147362199Y-45236592D01*
X147529092Y-45069699D01*
X147672773Y-44882450D01*
X147790784Y-44678049D01*
X147881106Y-44459993D01*
X147942193Y-44232014D01*
X147973000Y-43998011D01*
X147973000Y-43761989D01*
X147942193Y-43527986D01*
X147881106Y-43300007D01*
X147790784Y-43081951D01*
X147790782Y-43081948D01*
X147790780Y-43081943D01*
X147741853Y-42997200D01*
X147672773Y-42877550D01*
X147529092Y-42690301D01*
X147529087Y-42690295D01*
X147362204Y-42523412D01*
X147362197Y-42523406D01*
X147174954Y-42379730D01*
X147174953Y-42379729D01*
X147174950Y-42379727D01*
X147082029Y-42326079D01*
X146970556Y-42261719D01*
X146970545Y-42261714D01*
X146752493Y-42171394D01*
X146524510Y-42110306D01*
X146290520Y-42079501D01*
X146290517Y-42079500D01*
X146290511Y-42079500D01*
X146054489Y-42079500D01*
X146054483Y-42079500D01*
X146054479Y-42079501D01*
X145820489Y-42110306D01*
X145592506Y-42171394D01*
X145374454Y-42261714D01*
X145374443Y-42261719D01*
X145170045Y-42379730D01*
X144982802Y-42523406D01*
X144982795Y-42523412D01*
X144815912Y-42690295D01*
X144815906Y-42690302D01*
X144672230Y-42877545D01*
X144554219Y-43081943D01*
X144554214Y-43081954D01*
X144463894Y-43300006D01*
X144402806Y-43527989D01*
X144372001Y-43761979D01*
X144372000Y-43761995D01*
X133550500Y-43761995D01*
X133550500Y-43362229D01*
X133570185Y-43295190D01*
X133586819Y-43274548D01*
X140824548Y-36036819D01*
X140885871Y-36003334D01*
X140912229Y-36000500D01*
X143323920Y-36000500D01*
X143421462Y-35981096D01*
X143468913Y-35971658D01*
X143605495Y-35915084D01*
X143728416Y-35832951D01*
X143832951Y-35728416D01*
X143915084Y-35605495D01*
X143971658Y-35468913D01*
X144000500Y-35323918D01*
X144000500Y-35176082D01*
X144000500Y-35176079D01*
X143971659Y-35031092D01*
X143971658Y-35031091D01*
X143971658Y-35031087D01*
X143971656Y-35031082D01*
X143929939Y-34930366D01*
X143920500Y-34882914D01*
X143920500Y-34467327D01*
X143940185Y-34400288D01*
X143982498Y-34359941D01*
X144172450Y-34250273D01*
X144359699Y-34106592D01*
X144526592Y-33939699D01*
X144670273Y-33752450D01*
X144788284Y-33548049D01*
X144878606Y-33329993D01*
X144939693Y-33102014D01*
X144970500Y-32868011D01*
X144970500Y-32631989D01*
X144939693Y-32397986D01*
X144878606Y-32170007D01*
X144788284Y-31951951D01*
X144788282Y-31951948D01*
X144788280Y-31951943D01*
X144695586Y-31791394D01*
X144670273Y-31747550D01*
X144657042Y-31730307D01*
X144650936Y-31722349D01*
X144650935Y-31722348D01*
X144595431Y-31650013D01*
X146450000Y-31650013D01*
X146450000Y-32500000D01*
X147649999Y-32500000D01*
X147624979Y-32560402D01*
X147600000Y-32685981D01*
X147600000Y-32814019D01*
X147624979Y-32939598D01*
X147649999Y-33000000D01*
X146450001Y-33000000D01*
X146450001Y-33849986D01*
X146460494Y-33952697D01*
X146515641Y-34119119D01*
X146515643Y-34119124D01*
X146607684Y-34268345D01*
X146731654Y-34392315D01*
X146880875Y-34484356D01*
X146880880Y-34484358D01*
X147047302Y-34539505D01*
X147047309Y-34539506D01*
X147150019Y-34549999D01*
X147999999Y-34549999D01*
X148000000Y-34549998D01*
X148000000Y-33350001D01*
X148060402Y-33375021D01*
X148185981Y-33400000D01*
X148314019Y-33400000D01*
X148439598Y-33375021D01*
X148500000Y-33350001D01*
X148500000Y-34549999D01*
X149349972Y-34549999D01*
X149349986Y-34549998D01*
X149452697Y-34539505D01*
X149619119Y-34484358D01*
X149619124Y-34484356D01*
X149768345Y-34392315D01*
X149892315Y-34268345D01*
X149984356Y-34119124D01*
X149984358Y-34119119D01*
X150039505Y-33952697D01*
X150039506Y-33952690D01*
X150049999Y-33849986D01*
X150050000Y-33849973D01*
X150050000Y-33000000D01*
X148850001Y-33000000D01*
X148875021Y-32939598D01*
X148900000Y-32814019D01*
X148900000Y-32685981D01*
X148875021Y-32560402D01*
X148850001Y-32500000D01*
X150049999Y-32500000D01*
X150049999Y-31650028D01*
X150049998Y-31650013D01*
X150039505Y-31547302D01*
X149984358Y-31380880D01*
X149984356Y-31380875D01*
X149892315Y-31231654D01*
X149768345Y-31107684D01*
X149619124Y-31015643D01*
X149619119Y-31015641D01*
X149452697Y-30960494D01*
X149452690Y-30960493D01*
X149349986Y-30950000D01*
X148500000Y-30950000D01*
X148500000Y-32149998D01*
X148439598Y-32124979D01*
X148314019Y-32100000D01*
X148185981Y-32100000D01*
X148060402Y-32124979D01*
X148000000Y-32149998D01*
X148000000Y-30950000D01*
X147150028Y-30950000D01*
X147150012Y-30950001D01*
X147047302Y-30960494D01*
X146880880Y-31015641D01*
X146880875Y-31015643D01*
X146731654Y-31107684D01*
X146607684Y-31231654D01*
X146515643Y-31380875D01*
X146515641Y-31380880D01*
X146460494Y-31547302D01*
X146460493Y-31547309D01*
X146450000Y-31650013D01*
X144595431Y-31650013D01*
X144526593Y-31560302D01*
X144526587Y-31560295D01*
X144359704Y-31393412D01*
X144359697Y-31393406D01*
X144172454Y-31249730D01*
X144172453Y-31249729D01*
X144172450Y-31249727D01*
X144090957Y-31202677D01*
X143968056Y-31131719D01*
X143968045Y-31131714D01*
X143749993Y-31041394D01*
X143522010Y-30980306D01*
X143288020Y-30949501D01*
X143288017Y-30949500D01*
X143288011Y-30949500D01*
X143051989Y-30949500D01*
X143051983Y-30949500D01*
X143051979Y-30949501D01*
X142817989Y-30980306D01*
X142590006Y-31041394D01*
X142371954Y-31131714D01*
X142371943Y-31131719D01*
X142167545Y-31249730D01*
X141980302Y-31393406D01*
X141980295Y-31393412D01*
X141813412Y-31560295D01*
X141813406Y-31560302D01*
X141669730Y-31747545D01*
X141551719Y-31951943D01*
X141551714Y-31951954D01*
X141461394Y-32170006D01*
X141400306Y-32397989D01*
X141369501Y-32631979D01*
X141369500Y-32631995D01*
X141369500Y-32868004D01*
X141369501Y-32868020D01*
X141386876Y-33000000D01*
X141400307Y-33102014D01*
X141411694Y-33144511D01*
X141461394Y-33329993D01*
X141551714Y-33548045D01*
X141551719Y-33548056D01*
X141622677Y-33670957D01*
X141669727Y-33752450D01*
X141669729Y-33752453D01*
X141669730Y-33752454D01*
X141813406Y-33939697D01*
X141813412Y-33939704D01*
X141980295Y-34106587D01*
X141980302Y-34106593D01*
X141996633Y-34119124D01*
X142167550Y-34250273D01*
X142198452Y-34268114D01*
X142246666Y-34318680D01*
X142259890Y-34387287D01*
X142233922Y-34452152D01*
X142177008Y-34492680D01*
X142136451Y-34499500D01*
X140476080Y-34499500D01*
X140331092Y-34528340D01*
X140331082Y-34528343D01*
X140194511Y-34584912D01*
X140194498Y-34584919D01*
X140071584Y-34667048D01*
X140071580Y-34667051D01*
X132217045Y-42521586D01*
X132198395Y-42549501D01*
X132198394Y-42549502D01*
X132134916Y-42644503D01*
X132134914Y-42644506D01*
X132078343Y-42781082D01*
X132078340Y-42781092D01*
X132049500Y-42926079D01*
X132049500Y-45337770D01*
X132029815Y-45404809D01*
X132013181Y-45425451D01*
X125475451Y-51963181D01*
X125414128Y-51996666D01*
X125387770Y-51999500D01*
X116362230Y-51999500D01*
X116295191Y-51979815D01*
X116274549Y-51963181D01*
X114666819Y-50355451D01*
X114633334Y-50294128D01*
X114630500Y-50267770D01*
X114630500Y-49125416D01*
X114650185Y-49058377D01*
X114681613Y-49025099D01*
X114727219Y-48991966D01*
X114871966Y-48847219D01*
X114871968Y-48847215D01*
X114871971Y-48847213D01*
X114992284Y-48681614D01*
X114992285Y-48681613D01*
X114992287Y-48681610D01*
X115039516Y-48588917D01*
X115087489Y-48538123D01*
X115155310Y-48521328D01*
X115221445Y-48543865D01*
X115260485Y-48588919D01*
X115307715Y-48681614D01*
X115428028Y-48847213D01*
X115572786Y-48991971D01*
X115691177Y-49077985D01*
X115738390Y-49112287D01*
X115854607Y-49171503D01*
X115920776Y-49205218D01*
X115920778Y-49205218D01*
X115920781Y-49205220D01*
X116025137Y-49239127D01*
X116115465Y-49268477D01*
X116216557Y-49284488D01*
X116317648Y-49300500D01*
X116317649Y-49300500D01*
X116522351Y-49300500D01*
X116522352Y-49300500D01*
X116724534Y-49268477D01*
X116919219Y-49205220D01*
X117101610Y-49112287D01*
X117221619Y-49025096D01*
X117267213Y-48991971D01*
X117267215Y-48991968D01*
X117267219Y-48991966D01*
X117411966Y-48847219D01*
X117411968Y-48847215D01*
X117411971Y-48847213D01*
X117532284Y-48681614D01*
X117532285Y-48681613D01*
X117532287Y-48681610D01*
X117579516Y-48588917D01*
X117627489Y-48538123D01*
X117695310Y-48521328D01*
X117761445Y-48543865D01*
X117800485Y-48588919D01*
X117847715Y-48681614D01*
X117968028Y-48847213D01*
X118112786Y-48991971D01*
X118231177Y-49077985D01*
X118278390Y-49112287D01*
X118394607Y-49171503D01*
X118460776Y-49205218D01*
X118460778Y-49205218D01*
X118460781Y-49205220D01*
X118565137Y-49239127D01*
X118655465Y-49268477D01*
X118756557Y-49284488D01*
X118857648Y-49300500D01*
X118857649Y-49300500D01*
X119062351Y-49300500D01*
X119062352Y-49300500D01*
X119264534Y-49268477D01*
X119459219Y-49205220D01*
X119641610Y-49112287D01*
X119761619Y-49025096D01*
X119807213Y-48991971D01*
X119807215Y-48991968D01*
X119807219Y-48991966D01*
X119951966Y-48847219D01*
X119951968Y-48847215D01*
X119951971Y-48847213D01*
X120072284Y-48681614D01*
X120072285Y-48681613D01*
X120072287Y-48681610D01*
X120119516Y-48588917D01*
X120167489Y-48538123D01*
X120235310Y-48521328D01*
X120301445Y-48543865D01*
X120340485Y-48588919D01*
X120387715Y-48681614D01*
X120508028Y-48847213D01*
X120652786Y-48991971D01*
X120771177Y-49077985D01*
X120818390Y-49112287D01*
X120934607Y-49171503D01*
X121000776Y-49205218D01*
X121000778Y-49205218D01*
X121000781Y-49205220D01*
X121105137Y-49239127D01*
X121195465Y-49268477D01*
X121296557Y-49284488D01*
X121397648Y-49300500D01*
X121397649Y-49300500D01*
X121602351Y-49300500D01*
X121602352Y-49300500D01*
X121804534Y-49268477D01*
X121999219Y-49205220D01*
X122181610Y-49112287D01*
X122301619Y-49025096D01*
X122347213Y-48991971D01*
X122347215Y-48991968D01*
X122347219Y-48991966D01*
X122491966Y-48847219D01*
X122491968Y-48847215D01*
X122491971Y-48847213D01*
X122547776Y-48770402D01*
X122612287Y-48681610D01*
X122705220Y-48499219D01*
X122768477Y-48304534D01*
X122800500Y-48102352D01*
X122800500Y-47897648D01*
X122768477Y-47695466D01*
X122757510Y-47661714D01*
X122739127Y-47605137D01*
X122705220Y-47500781D01*
X122705218Y-47500778D01*
X122705218Y-47500776D01*
X122659515Y-47411080D01*
X122612287Y-47318390D01*
X122589423Y-47286920D01*
X122491971Y-47152786D01*
X122347213Y-47008028D01*
X122181613Y-46887715D01*
X122181612Y-46887714D01*
X122181610Y-46887713D01*
X122124653Y-46858691D01*
X121999223Y-46794781D01*
X121804534Y-46731522D01*
X121629995Y-46703878D01*
X121602352Y-46699500D01*
X121397648Y-46699500D01*
X121373329Y-46703351D01*
X121195465Y-46731522D01*
X121000776Y-46794781D01*
X120818386Y-46887715D01*
X120652786Y-47008028D01*
X120508028Y-47152786D01*
X120387715Y-47318386D01*
X120340485Y-47411080D01*
X120292510Y-47461876D01*
X120224689Y-47478671D01*
X120158554Y-47456134D01*
X120119515Y-47411080D01*
X120094115Y-47361230D01*
X120072287Y-47318390D01*
X120049423Y-47286920D01*
X119951971Y-47152786D01*
X119807213Y-47008028D01*
X119641613Y-46887715D01*
X119641612Y-46887714D01*
X119641610Y-46887713D01*
X119584653Y-46858691D01*
X119459223Y-46794781D01*
X119264534Y-46731522D01*
X119089995Y-46703878D01*
X119062352Y-46699500D01*
X118857648Y-46699500D01*
X118833329Y-46703351D01*
X118655465Y-46731522D01*
X118460776Y-46794781D01*
X118278386Y-46887715D01*
X118112786Y-47008028D01*
X117968028Y-47152786D01*
X117847715Y-47318386D01*
X117800485Y-47411080D01*
X117752510Y-47461876D01*
X117684689Y-47478671D01*
X117618554Y-47456134D01*
X117579515Y-47411080D01*
X117554115Y-47361230D01*
X117532287Y-47318390D01*
X117509423Y-47286920D01*
X117411971Y-47152786D01*
X117347956Y-47088771D01*
X117314471Y-47027448D01*
X117319455Y-46957756D01*
X117347953Y-46913412D01*
X117982951Y-46278416D01*
X118065084Y-46155495D01*
X118121658Y-46018913D01*
X118140124Y-45926079D01*
X118150500Y-45873920D01*
X118150500Y-44748625D01*
X118170185Y-44681586D01*
X118186819Y-44660944D01*
X118315690Y-44532073D01*
X118426760Y-44379199D01*
X118512547Y-44210832D01*
X118570940Y-44031118D01*
X118576185Y-43998004D01*
X118600500Y-43844486D01*
X118600500Y-43655513D01*
X118570940Y-43468881D01*
X118519597Y-43310867D01*
X118512547Y-43289168D01*
X118512545Y-43289165D01*
X118512545Y-43289163D01*
X118426759Y-43120800D01*
X118315690Y-42967927D01*
X118186818Y-42839055D01*
X118153334Y-42777732D01*
X118150500Y-42751374D01*
X118150500Y-42326079D01*
X118121659Y-42181092D01*
X118121658Y-42181091D01*
X118121658Y-42181087D01*
X118079580Y-42079501D01*
X118065087Y-42044511D01*
X118065080Y-42044498D01*
X117982952Y-41921585D01*
X117966094Y-41904727D01*
X117878416Y-41817049D01*
X117286819Y-41225451D01*
X117253334Y-41164128D01*
X117250500Y-41137770D01*
X117250500Y-39462229D01*
X117270185Y-39395190D01*
X117286819Y-39374548D01*
X119636819Y-37024548D01*
X122166350Y-34495016D01*
X122227671Y-34461533D01*
X122286121Y-34462923D01*
X122497986Y-34519693D01*
X122731989Y-34550500D01*
X122731996Y-34550500D01*
X122968004Y-34550500D01*
X122968011Y-34550500D01*
X123202014Y-34519693D01*
X123429993Y-34458606D01*
X123648049Y-34368284D01*
X123852450Y-34250273D01*
X124039699Y-34106592D01*
X124206592Y-33939699D01*
X124350273Y-33752450D01*
X124468284Y-33548049D01*
X124558606Y-33329993D01*
X124619693Y-33102014D01*
X124650500Y-32868011D01*
X124650500Y-32631995D01*
X126129500Y-32631995D01*
X126129500Y-32868004D01*
X126129501Y-32868020D01*
X126146876Y-33000000D01*
X126160307Y-33102014D01*
X126171694Y-33144511D01*
X126221394Y-33329993D01*
X126311714Y-33548045D01*
X126311719Y-33548056D01*
X126382677Y-33670957D01*
X126429727Y-33752450D01*
X126429729Y-33752453D01*
X126429730Y-33752454D01*
X126573406Y-33939697D01*
X126573412Y-33939704D01*
X126740295Y-34106587D01*
X126740302Y-34106593D01*
X126756633Y-34119124D01*
X126927550Y-34250273D01*
X127058918Y-34326118D01*
X127131943Y-34368280D01*
X127131948Y-34368282D01*
X127131951Y-34368284D01*
X127350007Y-34458606D01*
X127577986Y-34519693D01*
X127811989Y-34550500D01*
X127811996Y-34550500D01*
X128048004Y-34550500D01*
X128048011Y-34550500D01*
X128282014Y-34519693D01*
X128509993Y-34458606D01*
X128728049Y-34368284D01*
X128932450Y-34250273D01*
X129119699Y-34106592D01*
X129286592Y-33939699D01*
X129430273Y-33752450D01*
X129548284Y-33548049D01*
X129638606Y-33329993D01*
X129699693Y-33102014D01*
X129730500Y-32868011D01*
X129730500Y-32631995D01*
X131209500Y-32631995D01*
X131209500Y-32868004D01*
X131209501Y-32868020D01*
X131226876Y-33000000D01*
X131240307Y-33102014D01*
X131251694Y-33144511D01*
X131301394Y-33329993D01*
X131391714Y-33548045D01*
X131391719Y-33548056D01*
X131462677Y-33670957D01*
X131509727Y-33752450D01*
X131509729Y-33752453D01*
X131509730Y-33752454D01*
X131653406Y-33939697D01*
X131653412Y-33939704D01*
X131820295Y-34106587D01*
X131820302Y-34106593D01*
X131836633Y-34119124D01*
X132007550Y-34250273D01*
X132138918Y-34326118D01*
X132211943Y-34368280D01*
X132211948Y-34368282D01*
X132211951Y-34368284D01*
X132430007Y-34458606D01*
X132657986Y-34519693D01*
X132891989Y-34550500D01*
X132891996Y-34550500D01*
X133128004Y-34550500D01*
X133128011Y-34550500D01*
X133362014Y-34519693D01*
X133589993Y-34458606D01*
X133808049Y-34368284D01*
X134012450Y-34250273D01*
X134199699Y-34106592D01*
X134366592Y-33939699D01*
X134510273Y-33752450D01*
X134628284Y-33548049D01*
X134718606Y-33329993D01*
X134779693Y-33102014D01*
X134810500Y-32868011D01*
X134810500Y-32631989D01*
X134779693Y-32397986D01*
X134718606Y-32170007D01*
X134628284Y-31951951D01*
X134628282Y-31951948D01*
X134628280Y-31951943D01*
X134573630Y-31857288D01*
X134510273Y-31747550D01*
X134366592Y-31560301D01*
X134366587Y-31560295D01*
X134199704Y-31393412D01*
X134199697Y-31393406D01*
X134012454Y-31249730D01*
X134012453Y-31249729D01*
X134012450Y-31249727D01*
X133930957Y-31202677D01*
X133808056Y-31131719D01*
X133808045Y-31131714D01*
X133589993Y-31041394D01*
X133362010Y-30980306D01*
X133128020Y-30949501D01*
X133128017Y-30949500D01*
X133128011Y-30949500D01*
X132891989Y-30949500D01*
X132891983Y-30949500D01*
X132891979Y-30949501D01*
X132657989Y-30980306D01*
X132430006Y-31041394D01*
X132211954Y-31131714D01*
X132211943Y-31131719D01*
X132007545Y-31249730D01*
X131820302Y-31393406D01*
X131820295Y-31393412D01*
X131653412Y-31560295D01*
X131653406Y-31560302D01*
X131509730Y-31747545D01*
X131391719Y-31951943D01*
X131391714Y-31951954D01*
X131301394Y-32170006D01*
X131240306Y-32397989D01*
X131209501Y-32631979D01*
X131209500Y-32631995D01*
X129730500Y-32631995D01*
X129730500Y-32631989D01*
X129699693Y-32397986D01*
X129638606Y-32170007D01*
X129548284Y-31951951D01*
X129548282Y-31951948D01*
X129548280Y-31951943D01*
X129493630Y-31857288D01*
X129430273Y-31747550D01*
X129286592Y-31560301D01*
X129286587Y-31560295D01*
X129119704Y-31393412D01*
X129119697Y-31393406D01*
X128932454Y-31249730D01*
X128932453Y-31249729D01*
X128932450Y-31249727D01*
X128850957Y-31202677D01*
X128728056Y-31131719D01*
X128728045Y-31131714D01*
X128509993Y-31041394D01*
X128282010Y-30980306D01*
X128048020Y-30949501D01*
X128048017Y-30949500D01*
X128048011Y-30949500D01*
X127811989Y-30949500D01*
X127811983Y-30949500D01*
X127811979Y-30949501D01*
X127577989Y-30980306D01*
X127350006Y-31041394D01*
X127131954Y-31131714D01*
X127131943Y-31131719D01*
X126927545Y-31249730D01*
X126740302Y-31393406D01*
X126740295Y-31393412D01*
X126573412Y-31560295D01*
X126573406Y-31560302D01*
X126429730Y-31747545D01*
X126311719Y-31951943D01*
X126311714Y-31951954D01*
X126221394Y-32170006D01*
X126160306Y-32397989D01*
X126129501Y-32631979D01*
X126129500Y-32631995D01*
X124650500Y-32631995D01*
X124650500Y-32631989D01*
X124619693Y-32397986D01*
X124558606Y-32170007D01*
X124468284Y-31951951D01*
X124468282Y-31951948D01*
X124468280Y-31951943D01*
X124413630Y-31857288D01*
X124350273Y-31747550D01*
X124206592Y-31560301D01*
X124206587Y-31560295D01*
X124039704Y-31393412D01*
X124039697Y-31393406D01*
X123852454Y-31249730D01*
X123852453Y-31249729D01*
X123852450Y-31249727D01*
X123770957Y-31202677D01*
X123648056Y-31131719D01*
X123648045Y-31131714D01*
X123429993Y-31041394D01*
X123202010Y-30980306D01*
X122968020Y-30949501D01*
X122968017Y-30949500D01*
X122968011Y-30949500D01*
X122731989Y-30949500D01*
X122731983Y-30949500D01*
X122731979Y-30949501D01*
X122497989Y-30980306D01*
X122270006Y-31041394D01*
X122051954Y-31131714D01*
X122051943Y-31131719D01*
X121847545Y-31249730D01*
X121660302Y-31393406D01*
X121660295Y-31393412D01*
X121493412Y-31560295D01*
X121493406Y-31560302D01*
X121349730Y-31747545D01*
X121231719Y-31951943D01*
X121231714Y-31951954D01*
X121141394Y-32170006D01*
X121080306Y-32397989D01*
X121049501Y-32631979D01*
X121049500Y-32631995D01*
X121049500Y-32868004D01*
X121049501Y-32868020D01*
X121080306Y-33102012D01*
X121137075Y-33313875D01*
X121135412Y-33383725D01*
X121104981Y-33433649D01*
X115917050Y-38621580D01*
X115917044Y-38621588D01*
X115867812Y-38695268D01*
X115867813Y-38695269D01*
X115834921Y-38744496D01*
X115834914Y-38744508D01*
X115778342Y-38881086D01*
X115778340Y-38881092D01*
X115749500Y-39026079D01*
X115749500Y-39026082D01*
X115749500Y-41573918D01*
X115749500Y-41573920D01*
X115749499Y-41573920D01*
X115778340Y-41718907D01*
X115778343Y-41718917D01*
X115834914Y-41855492D01*
X115867812Y-41904727D01*
X115867813Y-41904730D01*
X115917046Y-41978414D01*
X115917052Y-41978421D01*
X116607753Y-42669120D01*
X116641238Y-42730443D01*
X116636254Y-42800134D01*
X116607754Y-42844482D01*
X116484309Y-42967928D01*
X116373240Y-43120800D01*
X116287454Y-43289163D01*
X116229059Y-43468881D01*
X116199500Y-43655513D01*
X116199500Y-43844486D01*
X116229059Y-44031118D01*
X116287454Y-44210836D01*
X116342272Y-44318421D01*
X116373240Y-44379199D01*
X116484310Y-44532073D01*
X116484312Y-44532075D01*
X116613181Y-44660944D01*
X116646666Y-44722267D01*
X116649500Y-44748625D01*
X116649500Y-45437770D01*
X116629815Y-45504809D01*
X116613181Y-45525451D01*
X115837048Y-46301583D01*
X115830845Y-46310867D01*
X115794620Y-46365084D01*
X115774768Y-46394794D01*
X115754916Y-46424504D01*
X115754912Y-46424511D01*
X115698343Y-46561082D01*
X115698340Y-46561092D01*
X115669500Y-46706079D01*
X115669500Y-46874582D01*
X115649815Y-46941621D01*
X115618385Y-46974900D01*
X115572787Y-47008028D01*
X115572782Y-47008032D01*
X115428028Y-47152786D01*
X115307715Y-47318386D01*
X115260485Y-47411080D01*
X115212510Y-47461876D01*
X115144689Y-47478671D01*
X115078554Y-47456134D01*
X115039515Y-47411080D01*
X115014115Y-47361230D01*
X114992287Y-47318390D01*
X114969423Y-47286920D01*
X114871971Y-47152786D01*
X114727213Y-47008028D01*
X114561613Y-46887715D01*
X114561612Y-46887714D01*
X114561610Y-46887713D01*
X114504653Y-46858691D01*
X114379223Y-46794781D01*
X114184534Y-46731522D01*
X114009995Y-46703878D01*
X113982352Y-46699500D01*
X113777648Y-46699500D01*
X113753329Y-46703351D01*
X113575465Y-46731522D01*
X113380776Y-46794781D01*
X113198386Y-46887715D01*
X113032786Y-47008028D01*
X112888028Y-47152786D01*
X112767715Y-47318386D01*
X112674781Y-47500776D01*
X112611522Y-47695465D01*
X112579500Y-47897648D01*
X109750500Y-47897648D01*
X109750500Y-43655513D01*
X111119500Y-43655513D01*
X111119500Y-43844486D01*
X111149059Y-44031118D01*
X111207454Y-44210836D01*
X111262272Y-44318421D01*
X111293240Y-44379199D01*
X111404310Y-44532073D01*
X111537927Y-44665690D01*
X111690801Y-44776760D01*
X111770347Y-44817290D01*
X111859163Y-44862545D01*
X111859165Y-44862545D01*
X111859168Y-44862547D01*
X111920423Y-44882450D01*
X112038881Y-44920940D01*
X112225514Y-44950500D01*
X112225519Y-44950500D01*
X112414486Y-44950500D01*
X112601118Y-44920940D01*
X112622086Y-44914127D01*
X112780832Y-44862547D01*
X112949199Y-44776760D01*
X113102073Y-44665690D01*
X113235690Y-44532073D01*
X113346760Y-44379199D01*
X113432547Y-44210832D01*
X113490940Y-44031118D01*
X113496185Y-43998004D01*
X113520500Y-43844486D01*
X113520500Y-43655513D01*
X113490940Y-43468881D01*
X113439597Y-43310867D01*
X113432547Y-43289168D01*
X113432545Y-43289165D01*
X113432545Y-43289163D01*
X113346759Y-43120800D01*
X113235690Y-42967927D01*
X113106818Y-42839055D01*
X113073334Y-42777732D01*
X113070500Y-42751374D01*
X113070500Y-38542229D01*
X113090185Y-38475190D01*
X113106819Y-38454548D01*
X121024548Y-30536819D01*
X121085871Y-30503334D01*
X121112229Y-30500500D01*
X134727770Y-30500500D01*
X134794809Y-30520185D01*
X134815451Y-30536819D01*
X136344981Y-32066349D01*
X136378466Y-32127672D01*
X136377075Y-32186123D01*
X136320306Y-32397987D01*
X136289501Y-32631979D01*
X136289500Y-32631995D01*
X136289500Y-32868004D01*
X136289501Y-32868020D01*
X136306876Y-33000000D01*
X136320307Y-33102014D01*
X136331694Y-33144511D01*
X136381394Y-33329993D01*
X136471714Y-33548045D01*
X136471719Y-33548056D01*
X136542677Y-33670957D01*
X136589727Y-33752450D01*
X136589729Y-33752453D01*
X136589730Y-33752454D01*
X136733406Y-33939697D01*
X136733412Y-33939704D01*
X136900295Y-34106587D01*
X136900302Y-34106593D01*
X136916633Y-34119124D01*
X137087550Y-34250273D01*
X137218918Y-34326118D01*
X137291943Y-34368280D01*
X137291948Y-34368282D01*
X137291951Y-34368284D01*
X137510007Y-34458606D01*
X137737986Y-34519693D01*
X137971989Y-34550500D01*
X137971996Y-34550500D01*
X138208004Y-34550500D01*
X138208011Y-34550500D01*
X138442014Y-34519693D01*
X138669993Y-34458606D01*
X138888049Y-34368284D01*
X139092450Y-34250273D01*
X139279699Y-34106592D01*
X139446592Y-33939699D01*
X139590273Y-33752450D01*
X139708284Y-33548049D01*
X139798606Y-33329993D01*
X139859693Y-33102014D01*
X139890500Y-32868011D01*
X139890500Y-32631989D01*
X139859693Y-32397986D01*
X139798606Y-32170007D01*
X139708284Y-31951951D01*
X139708282Y-31951948D01*
X139708280Y-31951943D01*
X139653630Y-31857288D01*
X139590273Y-31747550D01*
X139446592Y-31560301D01*
X139446587Y-31560295D01*
X139279704Y-31393412D01*
X139279697Y-31393406D01*
X139092454Y-31249730D01*
X139092453Y-31249729D01*
X139092450Y-31249727D01*
X139010957Y-31202677D01*
X138888056Y-31131719D01*
X138888045Y-31131714D01*
X138669993Y-31041394D01*
X138442010Y-30980306D01*
X138208020Y-30949501D01*
X138208017Y-30949500D01*
X138208011Y-30949500D01*
X137971989Y-30949500D01*
X137971983Y-30949500D01*
X137971979Y-30949501D01*
X137737987Y-30980306D01*
X137526123Y-31037075D01*
X137456273Y-31035412D01*
X137406349Y-31004981D01*
X136317067Y-29915698D01*
X136232860Y-29831491D01*
X151999500Y-29831491D01*
X151999500Y-30168508D01*
X152037231Y-30503381D01*
X152037233Y-30503397D01*
X152112223Y-30831953D01*
X152112227Y-30831965D01*
X152223532Y-31150054D01*
X152369752Y-31453683D01*
X152369754Y-31453686D01*
X152549054Y-31739039D01*
X152643354Y-31857288D01*
X152756947Y-31999730D01*
X152759175Y-32002523D01*
X152997477Y-32240825D01*
X153260961Y-32450946D01*
X153546314Y-32630246D01*
X153849949Y-32776469D01*
X154088848Y-32860063D01*
X154168034Y-32887772D01*
X154168046Y-32887776D01*
X154496606Y-32962767D01*
X154831492Y-33000499D01*
X154831493Y-33000500D01*
X154831496Y-33000500D01*
X155168507Y-33000500D01*
X155168507Y-33000499D01*
X155503394Y-32962767D01*
X155831954Y-32887776D01*
X156150051Y-32776469D01*
X156453686Y-32630246D01*
X156739039Y-32450946D01*
X157002523Y-32240825D01*
X157240825Y-32002523D01*
X157450946Y-31739039D01*
X157630246Y-31453686D01*
X157776469Y-31150051D01*
X157887776Y-30831954D01*
X157962767Y-30503394D01*
X158000500Y-30168504D01*
X158000500Y-29831496D01*
X157962767Y-29496606D01*
X157887776Y-29168046D01*
X157869462Y-29115709D01*
X157790181Y-28889137D01*
X157776469Y-28849949D01*
X157630246Y-28546314D01*
X157450946Y-28260961D01*
X157240825Y-27997477D01*
X157002523Y-27759175D01*
X156739039Y-27549054D01*
X156453686Y-27369754D01*
X156453683Y-27369752D01*
X156150054Y-27223532D01*
X155831965Y-27112227D01*
X155831953Y-27112223D01*
X155503397Y-27037233D01*
X155503381Y-27037231D01*
X155168508Y-26999500D01*
X155168504Y-26999500D01*
X154831496Y-26999500D01*
X154831491Y-26999500D01*
X154496618Y-27037231D01*
X154496602Y-27037233D01*
X154168046Y-27112223D01*
X154168034Y-27112227D01*
X153849945Y-27223532D01*
X153546316Y-27369752D01*
X153260962Y-27549053D01*
X152997477Y-27759174D01*
X152759174Y-27997477D01*
X152549053Y-28260962D01*
X152369752Y-28546316D01*
X152223532Y-28849945D01*
X152112227Y-29168034D01*
X152112223Y-29168046D01*
X152037233Y-29496602D01*
X152037231Y-29496618D01*
X151999500Y-29831491D01*
X136232860Y-29831491D01*
X135568421Y-29167052D01*
X135568414Y-29167046D01*
X135491582Y-29115709D01*
X135491483Y-29115644D01*
X135445495Y-29084916D01*
X135445494Y-29084915D01*
X135445492Y-29084914D01*
X135308917Y-29028343D01*
X135308907Y-29028340D01*
X135163920Y-28999500D01*
X135163918Y-28999500D01*
X120823917Y-28999500D01*
X120676082Y-28999500D01*
X120676080Y-28999500D01*
X120531092Y-29028340D01*
X120531082Y-29028343D01*
X120394511Y-29084912D01*
X120394498Y-29084919D01*
X120271584Y-29167048D01*
X120271580Y-29167051D01*
X111737050Y-37701580D01*
X111737044Y-37701588D01*
X111687812Y-37775268D01*
X111687813Y-37775269D01*
X111654921Y-37824496D01*
X111654914Y-37824508D01*
X111598342Y-37961086D01*
X111598340Y-37961092D01*
X111569500Y-38106079D01*
X111569500Y-42751374D01*
X111549815Y-42818413D01*
X111533182Y-42839055D01*
X111404309Y-42967928D01*
X111293240Y-43120800D01*
X111207454Y-43289163D01*
X111149059Y-43468881D01*
X111119500Y-43655513D01*
X109750500Y-43655513D01*
X109750500Y-37112229D01*
X109770185Y-37045190D01*
X109786819Y-37024548D01*
X110582950Y-36228417D01*
X110582952Y-36228415D01*
X110623955Y-36167049D01*
X110665084Y-36105495D01*
X110697042Y-36028342D01*
X110721659Y-35968912D01*
X110750500Y-35823917D01*
X110750500Y-35676082D01*
X110750500Y-35217327D01*
X110770185Y-35150288D01*
X110812498Y-35109941D01*
X111002450Y-35000273D01*
X111189699Y-34856592D01*
X111356592Y-34689699D01*
X111500273Y-34502450D01*
X111618284Y-34298049D01*
X111708606Y-34079993D01*
X111769693Y-33852014D01*
X111800500Y-33618011D01*
X111800500Y-33381989D01*
X111769693Y-33147986D01*
X111708606Y-32920007D01*
X111618284Y-32701951D01*
X111618282Y-32701948D01*
X111618280Y-32701943D01*
X111576118Y-32628918D01*
X111500273Y-32497550D01*
X111356592Y-32310301D01*
X111356587Y-32310295D01*
X111189704Y-32143412D01*
X111189697Y-32143406D01*
X111002454Y-31999730D01*
X111002453Y-31999729D01*
X111002450Y-31999727D01*
X110919686Y-31951943D01*
X110798056Y-31881719D01*
X110798045Y-31881714D01*
X110579993Y-31791394D01*
X110482180Y-31765185D01*
X110352014Y-31730307D01*
X110352013Y-31730306D01*
X110352010Y-31730306D01*
X110118020Y-31699501D01*
X110118017Y-31699500D01*
X110118011Y-31699500D01*
X109881989Y-31699500D01*
X109881983Y-31699500D01*
X109881979Y-31699501D01*
X109647989Y-31730306D01*
X109420006Y-31791394D01*
X109201954Y-31881714D01*
X109201943Y-31881719D01*
X108997545Y-31999730D01*
X108810302Y-32143406D01*
X108810295Y-32143412D01*
X108643412Y-32310295D01*
X108643406Y-32310302D01*
X108499730Y-32497545D01*
X108499727Y-32497549D01*
X108499727Y-32497550D01*
X108492014Y-32510909D01*
X108381719Y-32701943D01*
X108381714Y-32701954D01*
X108291394Y-32920006D01*
X108230306Y-33147989D01*
X108199501Y-33381979D01*
X108199500Y-33381995D01*
X108199500Y-33618004D01*
X108199501Y-33618020D01*
X108230306Y-33852010D01*
X108291394Y-34079993D01*
X108381714Y-34298045D01*
X108381719Y-34298056D01*
X108440744Y-34400288D01*
X108499727Y-34502450D01*
X108499729Y-34502453D01*
X108499730Y-34502454D01*
X108643406Y-34689697D01*
X108643412Y-34689704D01*
X108810295Y-34856587D01*
X108810302Y-34856593D01*
X108876750Y-34907580D01*
X108997550Y-35000273D01*
X109187501Y-35109941D01*
X109195783Y-35118627D01*
X109206703Y-35123614D01*
X109219447Y-35143445D01*
X109235716Y-35160507D01*
X109238931Y-35173763D01*
X109244477Y-35182392D01*
X109249500Y-35217327D01*
X109249500Y-35387770D01*
X109229815Y-35454809D01*
X109213181Y-35475451D01*
X108417048Y-36271583D01*
X108396478Y-36302369D01*
X108376045Y-36332951D01*
X108334919Y-36394499D01*
X108334912Y-36394511D01*
X108278343Y-36531082D01*
X108278340Y-36531092D01*
X108249500Y-36676079D01*
X108249500Y-36676082D01*
X108249500Y-57653918D01*
X108249500Y-57653920D01*
X108249499Y-57653920D01*
X108278340Y-57798907D01*
X108278343Y-57798917D01*
X108334914Y-57935492D01*
X108367812Y-57984727D01*
X108367813Y-57984730D01*
X108417046Y-58058414D01*
X108417052Y-58058421D01*
X111513526Y-61154894D01*
X111547011Y-61216217D01*
X111548318Y-61261972D01*
X111539500Y-61317647D01*
X111539500Y-61522351D01*
X111571522Y-61724534D01*
X111634781Y-61919223D01*
X111686940Y-62021588D01*
X111727585Y-62101359D01*
X111727715Y-62101613D01*
X111848028Y-62267213D01*
X111992786Y-62411971D01*
X112113226Y-62499474D01*
X112158390Y-62532287D01*
X112249840Y-62578883D01*
X112251080Y-62579515D01*
X112301876Y-62627490D01*
X112318671Y-62695311D01*
X112296134Y-62761446D01*
X112251080Y-62800485D01*
X112158386Y-62847715D01*
X111992786Y-62968028D01*
X111848032Y-63112782D01*
X111848028Y-63112787D01*
X111814900Y-63158385D01*
X111759571Y-63201051D01*
X111714582Y-63209500D01*
X109072229Y-63209500D01*
X109005190Y-63189815D01*
X108984548Y-63173181D01*
X105706819Y-59895451D01*
X105673334Y-59834128D01*
X105670500Y-59807770D01*
X105670500Y-35217327D01*
X105690185Y-35150288D01*
X105732498Y-35109941D01*
X105922450Y-35000273D01*
X106109699Y-34856592D01*
X106276592Y-34689699D01*
X106420273Y-34502450D01*
X106538284Y-34298049D01*
X106628606Y-34079993D01*
X106689693Y-33852014D01*
X106720500Y-33618011D01*
X106720500Y-33381989D01*
X106689693Y-33147986D01*
X106628606Y-32920007D01*
X106538284Y-32701951D01*
X106538282Y-32701948D01*
X106538280Y-32701943D01*
X106496118Y-32628918D01*
X106420273Y-32497550D01*
X106276592Y-32310301D01*
X106276587Y-32310295D01*
X106109704Y-32143412D01*
X106109697Y-32143406D01*
X105922454Y-31999730D01*
X105922453Y-31999729D01*
X105922450Y-31999727D01*
X105839686Y-31951943D01*
X105718056Y-31881719D01*
X105718045Y-31881714D01*
X105499993Y-31791394D01*
X105402180Y-31765185D01*
X105272014Y-31730307D01*
X105272013Y-31730306D01*
X105272010Y-31730306D01*
X105038020Y-31699501D01*
X105038017Y-31699500D01*
X105038011Y-31699500D01*
X104801989Y-31699500D01*
X104801983Y-31699500D01*
X104801979Y-31699501D01*
X104567989Y-31730306D01*
X104340006Y-31791394D01*
X104121954Y-31881714D01*
X104121943Y-31881719D01*
X103917545Y-31999730D01*
X103730302Y-32143406D01*
X103730295Y-32143412D01*
X103563412Y-32310295D01*
X103563406Y-32310302D01*
X103419730Y-32497545D01*
X103419727Y-32497549D01*
X103419727Y-32497550D01*
X103412014Y-32510909D01*
X103301719Y-32701943D01*
X103301714Y-32701954D01*
X103211394Y-32920006D01*
X103150306Y-33147989D01*
X103119501Y-33381979D01*
X103119500Y-33381995D01*
X103119500Y-33618004D01*
X103119501Y-33618020D01*
X103150306Y-33852010D01*
X103211394Y-34079993D01*
X103301714Y-34298045D01*
X103301719Y-34298056D01*
X103360744Y-34400288D01*
X103419727Y-34502450D01*
X103419729Y-34502453D01*
X103419730Y-34502454D01*
X103563406Y-34689697D01*
X103563412Y-34689704D01*
X103730295Y-34856587D01*
X103730302Y-34856593D01*
X103796750Y-34907580D01*
X103917550Y-35000273D01*
X104107501Y-35109941D01*
X104155716Y-35160507D01*
X104169500Y-35217327D01*
X104169500Y-60243918D01*
X104169500Y-60243920D01*
X104169499Y-60243920D01*
X104198340Y-60388907D01*
X104198343Y-60388917D01*
X104254914Y-60525493D01*
X104254915Y-60525495D01*
X104274032Y-60554105D01*
X104337049Y-60648418D01*
X104337052Y-60648421D01*
X107248633Y-63560000D01*
X108127048Y-64438415D01*
X108127049Y-64438416D01*
X108188360Y-64499727D01*
X108231585Y-64542952D01*
X108354498Y-64625080D01*
X108354511Y-64625087D01*
X108491082Y-64681656D01*
X108491087Y-64681658D01*
X108491091Y-64681658D01*
X108491092Y-64681659D01*
X108636079Y-64710500D01*
X108636082Y-64710500D01*
X111714582Y-64710500D01*
X111781621Y-64730185D01*
X111814900Y-64761615D01*
X111848028Y-64807212D01*
X111848032Y-64807217D01*
X111992786Y-64951971D01*
X112113226Y-65039474D01*
X112158390Y-65072287D01*
X112249840Y-65118883D01*
X112251080Y-65119515D01*
X112301876Y-65167490D01*
X112318671Y-65235311D01*
X112296134Y-65301446D01*
X112251080Y-65340485D01*
X112158386Y-65387715D01*
X111992786Y-65508028D01*
X111848032Y-65652782D01*
X111848028Y-65652787D01*
X111814900Y-65698385D01*
X111759571Y-65741051D01*
X111714582Y-65749500D01*
X106862230Y-65749500D01*
X106795191Y-65729815D01*
X106774549Y-65713181D01*
X102786819Y-61725451D01*
X102753334Y-61664128D01*
X102750500Y-61637770D01*
X102750500Y-45926079D01*
X102721659Y-45781092D01*
X102721658Y-45781091D01*
X102721658Y-45781087D01*
X102721656Y-45781082D01*
X102665087Y-45644511D01*
X102665080Y-45644498D01*
X102582952Y-45521585D01*
X102539997Y-45478630D01*
X102478416Y-45417049D01*
X100626819Y-43565451D01*
X100593334Y-43504128D01*
X100590500Y-43477770D01*
X100590500Y-35217327D01*
X100610185Y-35150288D01*
X100652498Y-35109941D01*
X100842450Y-35000273D01*
X101029699Y-34856592D01*
X101196592Y-34689699D01*
X101340273Y-34502450D01*
X101458284Y-34298049D01*
X101548606Y-34079993D01*
X101609693Y-33852014D01*
X101640500Y-33618011D01*
X101640500Y-33381989D01*
X101609693Y-33147986D01*
X101548606Y-32920007D01*
X101458284Y-32701951D01*
X101458282Y-32701948D01*
X101458280Y-32701943D01*
X101416118Y-32628918D01*
X101340273Y-32497550D01*
X101196592Y-32310301D01*
X101196587Y-32310295D01*
X101029704Y-32143412D01*
X101029697Y-32143406D01*
X100842454Y-31999730D01*
X100842453Y-31999729D01*
X100842450Y-31999727D01*
X100759686Y-31951943D01*
X100638056Y-31881719D01*
X100638045Y-31881714D01*
X100419993Y-31791394D01*
X100322180Y-31765185D01*
X100192014Y-31730307D01*
X100192013Y-31730306D01*
X100192010Y-31730306D01*
X99958020Y-31699501D01*
X99958017Y-31699500D01*
X99958011Y-31699500D01*
X99721989Y-31699500D01*
X99721983Y-31699500D01*
X99721979Y-31699501D01*
X99487989Y-31730306D01*
X99260006Y-31791394D01*
X99041954Y-31881714D01*
X99041943Y-31881719D01*
X98837545Y-31999730D01*
X98650302Y-32143406D01*
X98650295Y-32143412D01*
X98483412Y-32310295D01*
X98483406Y-32310302D01*
X98339730Y-32497545D01*
X98339727Y-32497549D01*
X98339727Y-32497550D01*
X98332014Y-32510909D01*
X98221719Y-32701943D01*
X98221714Y-32701954D01*
X98131394Y-32920006D01*
X98070306Y-33147989D01*
X98039501Y-33381979D01*
X98039500Y-33381995D01*
X98039500Y-33618004D01*
X98039501Y-33618020D01*
X98070306Y-33852010D01*
X98131394Y-34079993D01*
X98221714Y-34298045D01*
X98221719Y-34298056D01*
X98280744Y-34400288D01*
X98339727Y-34502450D01*
X98339729Y-34502453D01*
X98339730Y-34502454D01*
X98483406Y-34689697D01*
X98483412Y-34689704D01*
X98650295Y-34856587D01*
X98650302Y-34856593D01*
X98716750Y-34907580D01*
X98837550Y-35000273D01*
X99027501Y-35109941D01*
X99075716Y-35160507D01*
X99089500Y-35217327D01*
X99089500Y-43913918D01*
X99089500Y-43913920D01*
X99089499Y-43913920D01*
X99118340Y-44058907D01*
X99118343Y-44058917D01*
X99174913Y-44195490D01*
X99174914Y-44195491D01*
X99174916Y-44195495D01*
X99185163Y-44210830D01*
X99185164Y-44210832D01*
X99257051Y-44318420D01*
X99257052Y-44318421D01*
X101213181Y-46274548D01*
X101246666Y-46335871D01*
X101249500Y-46362229D01*
X101249500Y-62073918D01*
X101249500Y-62073920D01*
X101249499Y-62073920D01*
X101278340Y-62218907D01*
X101278343Y-62218917D01*
X101334914Y-62355492D01*
X101367812Y-62404727D01*
X101367813Y-62404730D01*
X101417046Y-62478414D01*
X101417052Y-62478421D01*
X106021584Y-67082952D01*
X106021586Y-67082954D01*
X106045062Y-67098639D01*
X106080281Y-67122171D01*
X106144505Y-67165084D01*
X106144507Y-67165085D01*
X106144511Y-67165087D01*
X106281082Y-67221656D01*
X106281087Y-67221658D01*
X106281091Y-67221658D01*
X106281092Y-67221659D01*
X106426079Y-67250500D01*
X106426082Y-67250500D01*
X106426083Y-67250500D01*
X106573917Y-67250500D01*
X111714582Y-67250500D01*
X111781621Y-67270185D01*
X111814900Y-67301615D01*
X111848028Y-67347212D01*
X111848032Y-67347217D01*
X111992786Y-67491971D01*
X112113226Y-67579474D01*
X112158390Y-67612287D01*
X112249840Y-67658883D01*
X112251080Y-67659515D01*
X112301876Y-67707490D01*
X112318671Y-67775311D01*
X112296134Y-67841446D01*
X112251080Y-67880485D01*
X112158386Y-67927715D01*
X111992786Y-68048028D01*
X111848032Y-68192782D01*
X111848028Y-68192787D01*
X111814900Y-68238385D01*
X111759571Y-68281051D01*
X111714582Y-68289500D01*
X106764604Y-68289500D01*
X106717155Y-68280062D01*
X106693497Y-68270263D01*
X106693493Y-68270262D01*
X106693488Y-68270260D01*
X106538845Y-68239500D01*
X106538842Y-68239500D01*
X106381158Y-68239500D01*
X106381155Y-68239500D01*
X106226510Y-68270261D01*
X106226498Y-68270264D01*
X106080827Y-68330602D01*
X106080814Y-68330609D01*
X105949711Y-68418210D01*
X105949707Y-68418213D01*
X105838213Y-68529707D01*
X105838210Y-68529711D01*
X105750609Y-68660814D01*
X105750602Y-68660827D01*
X105690264Y-68806498D01*
X105690261Y-68806510D01*
X105659500Y-68961153D01*
X105659500Y-69118846D01*
X105690261Y-69273489D01*
X105690264Y-69273501D01*
X105750602Y-69419172D01*
X105750609Y-69419185D01*
X105838210Y-69550288D01*
X105838213Y-69550292D01*
X105949707Y-69661786D01*
X105949711Y-69661789D01*
X106080814Y-69749390D01*
X106080827Y-69749397D01*
X106153506Y-69779501D01*
X106226503Y-69809737D01*
X106381153Y-69840499D01*
X106381156Y-69840500D01*
X106381158Y-69840500D01*
X106538844Y-69840500D01*
X106538845Y-69840499D01*
X106615152Y-69825320D01*
X106693488Y-69809739D01*
X106693489Y-69809738D01*
X106693497Y-69809737D01*
X106717155Y-69799937D01*
X106764604Y-69790500D01*
X111714582Y-69790500D01*
X111781621Y-69810185D01*
X111814900Y-69841615D01*
X111848028Y-69887212D01*
X111848032Y-69887217D01*
X111992786Y-70031971D01*
X112147749Y-70144556D01*
X112158390Y-70152287D01*
X112249840Y-70198883D01*
X112251080Y-70199515D01*
X112259027Y-70207021D01*
X112269262Y-70210858D01*
X112283980Y-70230588D01*
X112301876Y-70247490D01*
X112304503Y-70258099D01*
X112311040Y-70266862D01*
X112312754Y-70291420D01*
X112318671Y-70315311D01*
X112315145Y-70325656D01*
X112315907Y-70336562D01*
X112304074Y-70358144D01*
X112296134Y-70381446D01*
X112286690Y-70389853D01*
X112282318Y-70397829D01*
X112257578Y-70415771D01*
X112254029Y-70418932D01*
X112252560Y-70419730D01*
X112158390Y-70467713D01*
X112140693Y-70480570D01*
X112133593Y-70484432D01*
X112107028Y-70490164D01*
X112081430Y-70499298D01*
X112074349Y-70499500D01*
X101862229Y-70499500D01*
X101795190Y-70479815D01*
X101774548Y-70463181D01*
X100036819Y-68725451D01*
X100003334Y-68664128D01*
X100000500Y-68637770D01*
X100000500Y-52376079D01*
X99971659Y-52231092D01*
X99971658Y-52231091D01*
X99971658Y-52231087D01*
X99915084Y-52094505D01*
X99882186Y-52045270D01*
X99882185Y-52045268D01*
X99832956Y-51971589D01*
X99832952Y-51971584D01*
X92836818Y-44975450D01*
X92803333Y-44914127D01*
X92800499Y-44887769D01*
X92800499Y-43099998D01*
X92800498Y-43099981D01*
X92789999Y-42997203D01*
X92789998Y-42997200D01*
X92766431Y-42926079D01*
X92734814Y-42830666D01*
X92642712Y-42681344D01*
X92518656Y-42557288D01*
X92369334Y-42465186D01*
X92202797Y-42410001D01*
X92202795Y-42410000D01*
X92100010Y-42399500D01*
X89899998Y-42399500D01*
X89899981Y-42399501D01*
X89797203Y-42410000D01*
X89797200Y-42410001D01*
X89630668Y-42465185D01*
X89630663Y-42465187D01*
X89481342Y-42557289D01*
X89357289Y-42681342D01*
X89265187Y-42830663D01*
X89265186Y-42830666D01*
X89210001Y-42997203D01*
X89210001Y-42997204D01*
X89210000Y-42997204D01*
X89199500Y-43099983D01*
X80500500Y-43099983D01*
X80500500Y-33573920D01*
X92749499Y-33573920D01*
X92778340Y-33718907D01*
X92778343Y-33718917D01*
X92834912Y-33855488D01*
X92834919Y-33855501D01*
X92917048Y-33978415D01*
X92917049Y-33978417D01*
X92923177Y-33984544D01*
X92956665Y-34045865D01*
X92959500Y-34072229D01*
X92959500Y-34600001D01*
X92959501Y-34600019D01*
X92970000Y-34702796D01*
X92970001Y-34702799D01*
X93020962Y-34856587D01*
X93025186Y-34869334D01*
X93117288Y-35018656D01*
X93241344Y-35142712D01*
X93390666Y-35234814D01*
X93557203Y-35289999D01*
X93659991Y-35300500D01*
X95860008Y-35300499D01*
X95962797Y-35289999D01*
X96129334Y-35234814D01*
X96278656Y-35142712D01*
X96402712Y-35018656D01*
X96494814Y-34869334D01*
X96549999Y-34702797D01*
X96560500Y-34600009D01*
X96560499Y-32399992D01*
X96560294Y-32397989D01*
X96549999Y-32297203D01*
X96549998Y-32297200D01*
X96531317Y-32240825D01*
X96494814Y-32130666D01*
X96402712Y-31981344D01*
X96278656Y-31857288D01*
X96185888Y-31800069D01*
X96129336Y-31765187D01*
X96129331Y-31765185D01*
X96076112Y-31747550D01*
X95962797Y-31710001D01*
X95962795Y-31710000D01*
X95860010Y-31699500D01*
X93659998Y-31699500D01*
X93659981Y-31699501D01*
X93557203Y-31710000D01*
X93557200Y-31710001D01*
X93390668Y-31765185D01*
X93390663Y-31765187D01*
X93241342Y-31857289D01*
X93117289Y-31981342D01*
X93025187Y-32130663D01*
X93025185Y-32130668D01*
X93010834Y-32173978D01*
X92970001Y-32297203D01*
X92970001Y-32297204D01*
X92970000Y-32297204D01*
X92959500Y-32399983D01*
X92959500Y-32927770D01*
X92939815Y-32994809D01*
X92923185Y-33015447D01*
X92917053Y-33021578D01*
X92917048Y-33021585D01*
X92834919Y-33144498D01*
X92834912Y-33144511D01*
X92778343Y-33281082D01*
X92778340Y-33281092D01*
X92749500Y-33426079D01*
X92749500Y-33426082D01*
X92749500Y-33573918D01*
X92749500Y-33573920D01*
X92749499Y-33573920D01*
X80500500Y-33573920D01*
X80500500Y-29831491D01*
X81999500Y-29831491D01*
X81999500Y-30168508D01*
X82037231Y-30503381D01*
X82037233Y-30503397D01*
X82112223Y-30831953D01*
X82112227Y-30831965D01*
X82223532Y-31150054D01*
X82369752Y-31453683D01*
X82369754Y-31453686D01*
X82549054Y-31739039D01*
X82643354Y-31857288D01*
X82756947Y-31999730D01*
X82759175Y-32002523D01*
X82997477Y-32240825D01*
X83260961Y-32450946D01*
X83546314Y-32630246D01*
X83849949Y-32776469D01*
X84088848Y-32860063D01*
X84168034Y-32887772D01*
X84168046Y-32887776D01*
X84496606Y-32962767D01*
X84831492Y-33000499D01*
X84831493Y-33000500D01*
X84831496Y-33000500D01*
X85168507Y-33000500D01*
X85168507Y-33000499D01*
X85503394Y-32962767D01*
X85831954Y-32887776D01*
X86150051Y-32776469D01*
X86453686Y-32630246D01*
X86739039Y-32450946D01*
X87002523Y-32240825D01*
X87240825Y-32002523D01*
X87450946Y-31739039D01*
X87630246Y-31453686D01*
X87776469Y-31150051D01*
X87887776Y-30831954D01*
X87962767Y-30503394D01*
X88000500Y-30168504D01*
X88000500Y-29831496D01*
X87962767Y-29496606D01*
X87887776Y-29168046D01*
X87869462Y-29115709D01*
X87790181Y-28889137D01*
X87776469Y-28849949D01*
X87630246Y-28546314D01*
X87450946Y-28260961D01*
X87240825Y-27997477D01*
X87002523Y-27759175D01*
X86739039Y-27549054D01*
X86453686Y-27369754D01*
X86453683Y-27369752D01*
X86150054Y-27223532D01*
X85831965Y-27112227D01*
X85831953Y-27112223D01*
X85503397Y-27037233D01*
X85503381Y-27037231D01*
X85168508Y-26999500D01*
X85168504Y-26999500D01*
X84831496Y-26999500D01*
X84831491Y-26999500D01*
X84496618Y-27037231D01*
X84496602Y-27037233D01*
X84168046Y-27112223D01*
X84168034Y-27112227D01*
X83849945Y-27223532D01*
X83546316Y-27369752D01*
X83260962Y-27549053D01*
X82997477Y-27759174D01*
X82759174Y-27997477D01*
X82549053Y-28260962D01*
X82369752Y-28546316D01*
X82223532Y-28849945D01*
X82112227Y-29168034D01*
X82112223Y-29168046D01*
X82037233Y-29496602D01*
X82037231Y-29496618D01*
X81999500Y-29831491D01*
X80500500Y-29831491D01*
X80500500Y-24424500D01*
X80520185Y-24357461D01*
X80572989Y-24311706D01*
X80624500Y-24300500D01*
X159175500Y-24300500D01*
X159242539Y-24320185D01*
G37*
%TD.AperFunction*%
%TD*%
M02*
